<svg width="16" height="16" viewBox="0 0 16 16" fill="none" xmlns="http://www.w3.org/2000/svg">
<g clip-path="url(#clip0_8525_38881)">
<path d="M0 8.3587C0 8.11848 0 7.87989 0 7.63967C0.00980592 7.52855 0.0212462 7.41906 0.0310521 7.30794C0.0964249 6.52518 0.271297 5.76693 0.567109 5.03973C1.28784 3.26667 2.48907 1.91033 4.16588 0.980492C5.09091 0.465734 6.08621 0.160147 7.14035 0.0473905C7.30541 0.0294148 7.47375 0.0163415 7.64045 0C7.88069 0 8.1193 0 8.35955 0C8.38897 0.00490246 8.41839 0.0114391 8.4478 0.0130732C9.33851 0.0604637 10.1949 0.254928 11.0219 0.588295C13.8231 1.71913 15.7794 4.41385 15.982 7.4256C16.067 8.6888 15.8709 9.90788 15.3871 11.0796C14.2219 13.8985 11.4974 15.8251 8.44617 15.9869C7.343 16.0458 6.26925 15.8938 5.23473 15.5065C3.44188 14.8348 2.05598 13.6681 1.08355 12.0192C0.506639 11.042 0.165066 9.98305 0.0473953 8.85221C0.0294178 8.6888 0.0147089 8.52375 0 8.3587ZM11.3896 7.51874C11.5105 7.4256 11.6282 7.34389 11.7361 7.24911C12.4699 6.60852 12.5924 5.62476 12.3048 4.89756C12.1316 4.46124 11.8031 4.16056 11.4043 3.93014C10.8878 3.63109 10.324 3.48075 9.73892 3.39414C9.61144 3.37453 9.48233 3.36145 9.34505 3.34511C9.34505 2.66204 9.34505 1.9855 9.34505 1.31059C8.92012 1.31059 8.505 1.31059 8.08172 1.31059C8.08172 1.98386 8.08172 2.6506 8.08172 3.32223C7.79898 3.32223 7.52278 3.32223 7.23841 3.32223C7.23841 2.64733 7.23841 1.97896 7.23841 1.31059C6.81348 1.31059 6.39837 1.31059 5.97508 1.31059C5.97508 1.98223 5.97508 2.6506 5.97508 3.32877C5.13013 3.32877 4.29336 3.32877 3.45822 3.32877C3.45495 3.34675 3.45169 3.35492 3.45169 3.36309C3.45169 3.76509 3.45169 4.16873 3.45005 4.57073C3.45005 4.63283 3.48274 4.63283 3.5285 4.63283C3.84392 4.63283 4.15935 4.62956 4.47477 4.6361C4.57119 4.63773 4.66925 4.65734 4.76241 4.68512C4.92911 4.73578 5.01246 4.85997 5.02554 5.02993C5.0288 5.07241 5.0288 5.11654 5.0288 5.16066C5.0288 6.98437 5.0288 8.80646 5.0288 10.6302C5.0288 10.6841 5.0288 10.7397 5.02554 10.7936C5.00429 11.1384 4.82942 11.3067 4.48294 11.3067C4.21164 11.3067 3.93871 11.3067 3.66742 11.3067C3.638 11.3067 3.61021 11.31 3.57753 11.3116C3.56282 11.7545 3.54974 12.1875 3.53667 12.6304C4.35383 12.6304 5.16118 12.6304 5.97834 12.6304C5.97834 13.3233 5.97834 14.0063 5.97834 14.6878C6.4049 14.6878 6.82002 14.6878 7.24331 14.6878C7.24331 14.0014 7.24331 13.3184 7.24331 12.6353C7.52605 12.6353 7.79898 12.6353 8.08498 12.6353C8.08498 13.3233 8.08498 14.0063 8.08498 14.6878C8.51154 14.6878 8.92666 14.6878 9.34995 14.6878C9.34995 13.9998 9.34995 13.3184 9.34995 12.6402C9.36466 12.6353 9.36956 12.632 9.37446 12.632C9.45618 12.632 9.53789 12.632 9.61961 12.6304C10.2063 12.6238 10.7865 12.5715 11.3455 12.3722C11.9959 12.1401 12.5009 11.7381 12.7935 11.1008C13.0304 10.5844 13.1007 10.037 13.0697 9.47646C13.037 8.8849 12.7869 8.39465 12.3309 8.01226C12.0531 7.78511 11.7377 7.62333 11.3896 7.51874Z" fill="#E6E6E8"/>
<path d="M7.24805 11.1789C7.24805 10.2785 7.24805 9.38625 7.24805 8.49074C7.26766 8.4891 7.28237 8.48583 7.29871 8.48583C7.84457 8.48583 8.39207 8.48093 8.93793 8.4891C9.34325 8.49564 9.73712 8.57408 10.0983 8.77345C10.3876 8.93359 10.5951 9.16401 10.6229 9.50391C10.6736 10.1429 10.4431 10.7524 9.69136 11.0204C9.36449 11.1381 9.02455 11.1757 8.68135 11.1773C8.22374 11.1806 7.76776 11.1789 7.31015 11.1789C7.29217 11.1822 7.2742 11.1806 7.24805 11.1789Z" fill="#E6E6E8"/>
<path d="M7.24609 7.18959C7.24609 6.35944 7.24609 5.54073 7.24609 4.72365C7.2608 4.72202 7.27224 4.71875 7.28205 4.71875C7.70861 4.72365 8.13516 4.72038 8.56172 4.73836C8.87224 4.75143 9.17623 4.81843 9.45733 4.9606C9.87245 5.17141 10.0604 5.52439 10.0163 5.99012C9.97541 6.43951 9.78746 6.79576 9.39032 7.02618C9.20074 7.13566 8.99972 7.19449 8.77745 7.19122C8.30186 7.18632 7.82628 7.18959 7.34906 7.18959C7.31637 7.18959 7.28532 7.18959 7.24609 7.18959Z" fill="#E6E6E8"/>
</g>
<defs>
<clipPath id="clip0_8525_38881">
<rect width="16" height="16" fill="white"/>
</clipPath>
</defs>
</svg>
