<svg width="25" height="27" viewBox="0 0 25 27" fill="none" xmlns="http://www.w3.org/2000/svg">
<path d="M23.3 13.2086C23.3 16.7225 20.3653 19.6086 16.6982 19.6086C15.1557 19.6086 14.1429 19.248 13.0837 18.4163L12.6431 8.32609C13.1772 7.81608 13.7041 7.46106 14.2783 7.22254C14.9398 6.94772 15.7099 6.80855 16.6982 6.80855C20.3653 6.80855 23.3 9.69464 23.3 13.2086Z" stroke="#24BFB7" stroke-width="1.6"/>
<path fill-rule="evenodd" clip-rule="evenodd" d="M8.1 20.8086C12.2974 20.8086 15.7 17.4059 15.7 13.2086C15.7 9.01119 12.2974 5.60855 8.1 5.60855C3.90264 5.60855 0.5 9.01119 0.5 13.2086C0.5 17.4059 3.90264 20.8086 8.1 20.8086ZM7.10694 8.64855H5.92083V9.83466H4.43819V9.83467H3.54861V10.8725H4.43819V15.617H3.54861V16.6548H4.43819V16.6548H5.92083V17.8409H7.10694V16.6548H7.99652V17.8409H9.18263V16.6548H9.36765C10.2114 16.6548 10.8363 16.4787 11.2424 16.1265C11.6484 15.7679 11.8514 15.3068 11.8514 14.7433C11.8514 14.295 11.7309 13.93 11.4898 13.6482C11.255 13.36 10.8903 13.1775 10.3954 13.1006C10.8078 13.0174 11.1218 12.8381 11.3375 12.5627C11.5596 12.281 11.6706 11.9544 11.6706 11.5829C11.6706 11.077 11.4771 10.6608 11.0901 10.3342C10.7031 10.0012 10.1194 9.83466 9.3391 9.83466H9.18263V8.64855H7.99652V9.83466H7.10694V8.64855ZM5.86564 12.6876V10.8625H9.02506C9.45646 10.8625 9.76099 10.9457 9.93863 11.1122C10.1163 11.2787 10.2051 11.4837 10.2051 11.727C10.2051 12.0088 10.1226 12.2393 9.95766 12.4186C9.79271 12.5979 9.48184 12.6876 9.02506 12.6876H5.86564ZM10.0719 15.3676C9.86249 15.5405 9.53894 15.627 9.10119 15.627H5.86564V13.6674H9.10119C9.54528 13.6674 9.86884 13.7538 10.0719 13.9268C10.2812 14.0997 10.3859 14.3398 10.3859 14.6472C10.3859 14.9546 10.2812 15.1947 10.0719 15.3676Z" fill="#24BFB7"/>
<path d="M8.48224 3.9598C10.6692 1.77286 14.1642 1.72221 16.2887 3.84666" stroke="#24BFB7" stroke-width="1.2" stroke-linecap="round"/>
<path d="M14.9 4.41639L16.9652 4.48132L17.0283 2.47348" stroke="#24BFB7" stroke-width="1.2" stroke-linecap="round"/>
<path d="M16.8532 22.2552C14.6663 24.4422 11.1712 24.4928 9.04675 22.3684" stroke="#24BFB7" stroke-width="1.2" stroke-linecap="round"/>
<path d="M10.6414 21.9998L8.57764 22.1012L8.6762 24.1076" stroke="#24BFB7" stroke-width="1.2" stroke-linecap="round"/>
</svg>
