<svg width="1608" height="208" viewBox="0 0 1608 208" fill="none" xmlns="http://www.w3.org/2000/svg">
<g clip-path="url(#clip0_5989_40713)">
<rect width="1608" height="207.216" fill="white"/>
<rect width="1608" height="207.216" fill="#FF5800"/>
<rect x="9" y="8" width="1590" height="191" rx="3.31546" fill="#262B34"/>
<path d="M83.8713 71.0963C83.8713 59.7707 79.8264 51.9843 68.1974 51.9843H65.1638C53.9393 51.9843 49.6922 59.7707 49.6922 71.1974V111.444C49.6922 122.264 54.546 129.241 65.0627 129.241H68.0963C78.0062 129.241 83.8713 122.264 83.8713 111.444V71.0963ZM69.7143 111.444C69.7143 114.073 69.1075 115.792 66.5795 115.792C64.1526 115.792 63.647 113.77 63.647 111.444V69.7817C63.647 66.6469 64.3548 65.1301 66.6806 65.1301C69.1075 65.1301 69.7143 66.6469 69.7143 69.7817V111.444ZM87.5235 76.0513C87.5235 83.1298 91.4673 86.9724 97.5346 86.9724H99.557C105.725 86.9724 109.467 82.8264 109.467 76.0513V63.1077C109.467 56.2314 105.725 52.2877 99.557 52.2877H97.5346C91.4673 52.2877 87.5235 56.0292 87.5235 63.1077V76.0513ZM121.298 52.8944L93.0852 128.129H101.478L129.691 52.8944H121.298ZM100.164 76.7591C100.164 77.9726 99.7592 78.7815 98.4446 78.7815C97.2312 78.7815 96.8267 77.9726 96.8267 76.7591V62.2987C96.8267 61.1864 97.2312 60.2763 98.4446 60.2763C99.7592 60.2763 100.164 61.1864 100.164 62.2987V76.7591ZM113.107 117.814C113.107 124.893 117.051 128.635 123.118 128.635H125.141C131.309 128.635 135.051 124.59 135.051 117.814V104.871C135.051 97.9947 131.309 93.9498 125.141 93.9498H123.118C117.051 93.9498 113.107 97.7924 113.107 104.871V117.814ZM124.028 120.545C122.815 120.545 122.41 119.635 122.41 118.522V104.062C122.41 102.848 122.815 102.04 124.028 102.04C125.343 102.04 125.747 102.848 125.747 104.062V118.522C125.747 119.635 125.343 120.545 124.028 120.545ZM163.847 52.8944H150.398V128.129H163.847V52.8944ZM168.691 52.8944V128.129H180.623V86.8713L191.039 128.129H202.466V52.8944H190.533V91.3206L181.331 52.8944H168.691ZM215.619 128.129H229.068V66.1413H238.674V52.8944H206.012V66.1413H215.619V128.129ZM242.21 52.8944V128.129H271.029V114.579H255.659V96.0733H267.187V82.523H255.659V66.1413H270.321V52.8944H242.21ZM288.073 95.9722H290.904C293.635 95.9722 294.444 96.9834 294.444 100.422V122.365C294.444 125.702 295.05 127.32 295.657 128.129H309.106V127.623C308.601 126.713 307.994 125.298 307.994 122.062V96.4778C307.994 90.815 304.455 88.3881 302.23 87.5791C304.758 86.5679 308.196 83.5343 308.196 77.467V65.4335C308.196 57.4449 304.05 52.8944 295.859 52.8944H274.624V128.129H288.073V95.9722ZM288.073 64.5234H291.107C293.837 64.5234 294.444 65.5346 294.444 68.7705V78.9838C294.444 82.523 293.331 83.5343 290.702 83.5343H288.073V64.5234ZM312.568 52.8944V128.129H341.388V114.579H326.017V96.0733H337.545V82.523H326.017V66.1413H340.68V52.8944H312.568ZM359.241 129.039H361.87C372.993 129.039 378.251 121.657 378.251 110.433V106.893C378.251 100.523 376.836 95.1633 370.061 87.5791L362.375 78.9838C359.038 75.2423 358.229 72.8154 358.229 69.2761V67.557C358.229 65.029 358.836 63.5122 361.162 63.5122C363.589 63.5122 364.094 65.029 364.094 67.4559V76.8602H377.038V66.7481C377.038 56.8381 373.094 51.9843 362.578 51.9843H359.847C350.443 51.9843 344.578 57.3438 344.578 66.9503V70.1862C344.578 77.2647 346.196 83.2309 351.758 89.2982L359.544 97.8935C363.488 102.242 363.892 104.365 363.892 109.624V111.039C363.892 114.68 362.881 116.5 360.555 116.5C358.128 116.5 357.117 114.983 357.117 111.949V99.916H343.87V113.466C343.87 123.578 349.027 129.039 359.241 129.039ZM389.737 128.129H403.187V66.1413H412.793V52.8944H380.131V66.1413H389.737V128.129Z" fill="#FF5800"/>
<path d="M427.709 52.8944V128.129H455.416V114.579H441.158V52.8944H427.709ZM493.531 71.0963C493.531 59.5684 489.284 51.9843 477.453 51.9843H474.419C462.79 51.9843 458.239 59.5684 458.239 71.1974V110.938C458.239 122.668 463.902 129.241 474.52 129.241H477.554C487.666 129.241 493.531 121.96 493.531 110.938V71.0963ZM479.475 111.343C479.475 113.669 478.767 115.792 476.037 115.792C473.205 115.792 472.295 113.669 472.295 111.343V70.0851C472.295 66.7481 473.307 65.1301 475.936 65.1301C478.363 65.1301 479.475 66.7481 479.475 70.0851V111.343ZM517.8 128.129H530.845L520.631 52.8944H504.654L495.149 128.129H507.081L508.396 115.489H516.485L517.8 128.129ZM515.07 102.545H509.71L512.339 76.658L515.07 102.545ZM533.345 52.8944V128.129H545.277V86.8713L555.693 128.129H567.12V52.8944H555.187V91.3206L545.985 52.8944H533.345ZM618.349 71.0963C618.349 59.5684 614.102 51.9843 602.271 51.9843H599.237C587.608 51.9843 583.057 59.5684 583.057 71.1974V110.938C583.057 122.668 588.72 129.241 599.338 129.241H602.372C612.484 129.241 618.349 121.96 618.349 110.938V71.0963ZM604.293 111.343C604.293 113.669 603.585 115.792 600.855 115.792C598.023 115.792 597.113 113.669 597.113 111.343V70.0851C597.113 66.7481 598.125 65.1301 600.754 65.1301C603.181 65.1301 604.293 66.7481 604.293 70.0851V111.343ZM622.885 52.8944V128.129H634.818V86.8713L645.233 128.129H656.66V52.8944H644.727V91.3206L635.525 52.8944H622.885ZM672.901 128.129H695.047C703.237 128.129 707.383 123.073 707.383 111.242V98.7025C707.383 90.7139 703.743 87.8825 699.9 86.8713C702.631 85.9612 706.271 82.523 706.271 76.3546V66.3436C706.271 56.4337 702.226 52.8944 693.226 52.8944H672.901V128.129ZM689.586 64.4223C692.114 64.4223 693.024 65.7368 693.024 68.4671V77.8714C693.024 81.3096 691.608 82.3208 689.384 82.3208H686.35V64.4223H689.586ZM689.586 94.4554C692.62 94.4554 693.53 95.8711 693.53 99.0059V111.242C693.53 115.489 692.316 116.197 690.092 116.197H686.35V94.4554H689.586ZM718.841 128.129H732.29V66.1413H741.897V52.8944H709.234V66.1413H718.841V128.129ZM762.228 116.095C759.801 116.095 758.79 114.477 758.79 111.545V69.0739C758.79 66.1413 759.598 64.7256 762.127 64.7256C764.655 64.7256 765.565 66.2425 765.565 69.0739V81.2085H778.913V68.5683C778.913 59.9729 776.182 51.9843 763.34 51.9843H760.61C748.677 51.9843 744.734 59.9729 744.734 69.0739V111.545C744.734 120.949 747.666 129.342 760.61 129.342H763.34C775.272 129.342 778.913 120.949 778.913 111.949V94.961H765.565V111.545C765.565 114.275 764.655 116.095 762.228 116.095Z" fill="white"/>
<path d="M1098 88.275L1090.72 81L1086.43 85.2927C1076.27 78.9214 1062.8 81.9941 1056.43 92.1611C1052 99.2554 1052 108.247 1056.43 115.297L1052 119.725L1059.28 127L1063.79 122.481C1074.14 128.582 1087.52 125.147 1093.62 114.8C1097.64 107.976 1097.64 99.4813 1093.62 92.6582L1098 88.275ZM1062.21 103.729C1062.21 96.725 1067.91 91.0314 1074.91 91.0314C1076.58 91.0314 1078.25 91.3478 1079.79 91.9804L1063.21 108.564C1062.53 107.027 1062.21 105.401 1062.21 103.729ZM1087.61 103.729C1087.61 110.733 1081.96 116.426 1074.95 116.426C1073.46 116.426 1072.02 116.155 1070.62 115.658L1086.84 99.4362C1087.34 100.792 1087.61 102.238 1087.61 103.729Z" fill="white"/>
<path d="M1134.23 116.698V112.379H1116.17L1133.41 94.9941C1134.02 94.3872 1134.34 93.7447 1134.34 93.0664C1134.34 91.5314 1133.09 90.7461 1131.77 90.7461H1109.06V95.0655H1126.91L1109.67 112.45C1109.06 113.057 1108.74 113.7 1108.74 114.378C1108.74 115.913 1109.96 116.698 1111.31 116.698H1134.23Z" fill="white"/>
<path d="M1161.39 116.698V112.165H1142.68V95.2797H1161.35V90.7461H1138.18V116.698H1161.39ZM1160.39 105.418V101.598H1146V105.418H1160.39Z" fill="white"/>
<path d="M1195.79 116.698L1187.97 108.809C1191.33 107.524 1193.33 104.49 1193.33 100.206C1193.33 94.4229 1189.83 90.7461 1183.9 90.7461H1165.27V116.698H1169.77V95.2797H1183.9C1187.01 95.2797 1188.87 96.9217 1188.87 100.277C1188.87 103.633 1187.15 105.489 1183.9 105.489H1173.09V109.487H1182.8L1189.37 116.698H1195.79Z" fill="white"/>
<path d="M1215.72 116.698C1223.11 116.698 1228.43 110.987 1228.43 103.454C1228.43 95.9222 1223.22 90.7461 1215.72 90.7461H1209.4C1202.16 90.7461 1196.8 95.8151 1196.8 103.454C1196.8 110.987 1202.16 116.698 1209.4 116.698H1215.72ZM1209.4 112.165C1204.73 112.165 1201.34 108.559 1201.34 103.669C1201.34 98.7423 1204.76 95.2797 1209.4 95.2797H1215.72C1220.51 95.2797 1223.9 98.778 1223.9 103.669C1223.9 108.559 1220.51 112.165 1215.72 112.165H1209.4Z" fill="white"/>
<path d="M989.586 104.586C989.91 104.262 989.91 103.738 989.586 103.414L984.311 98.139C983.988 97.8153 983.463 97.8153 983.139 98.139C982.815 98.4627 982.815 98.9875 983.139 99.3112L987.828 104L983.139 108.689C982.815 109.012 982.815 109.537 983.139 109.861C983.463 110.185 983.988 110.185 984.311 109.861L989.586 104.586ZM831 104.829H989V103.171H831V104.829Z" fill="white"/>
<path d="M50.5144 167.906V149.074H56.2435L66.0308 159.763C66.7911 160.701 67.2862 161.408 67.5161 161.885H67.6222V159.18V149.074H72.476V167.906H67.1448L56.9862 157.111C56.2612 156.28 55.7573 155.564 55.4743 154.963H55.3682V157.589V167.906H50.5144ZM87.8258 168.569C83.9887 168.569 80.9208 167.659 78.6221 165.837C76.341 163.998 75.2005 161.549 75.2005 158.49C75.2005 155.431 76.341 152.991 78.6221 151.17C80.9208 149.331 83.9887 148.411 87.8258 148.411C91.6452 148.411 94.7043 149.331 97.003 151.17C99.3017 152.991 100.451 155.431 100.451 158.49C100.451 161.549 99.3017 163.998 97.003 165.837C94.7043 167.659 91.6452 168.569 87.8258 168.569ZM82.7598 162.92C84.0506 164.034 85.7393 164.591 87.8258 164.591C89.9123 164.591 91.5922 164.034 92.8653 162.92C94.1384 161.788 94.775 160.312 94.775 158.49C94.775 156.669 94.1384 155.201 92.8653 154.087C91.5922 152.956 89.9123 152.39 87.8258 152.39C85.7393 152.39 84.0506 152.947 82.7598 154.061C81.4866 155.175 80.8501 156.651 80.8501 158.49C80.8501 160.312 81.4866 161.788 82.7598 162.92ZM126.274 149.074C128.732 149.074 130.659 149.631 132.056 150.745C133.453 151.859 134.152 153.389 134.152 155.334C134.152 157.35 133.427 158.959 131.977 160.161C130.527 161.346 128.59 161.938 126.168 161.938H118.847V167.906H113.49V149.074H126.274ZM124.948 158.331C126.062 158.331 126.928 158.084 127.547 157.589C128.184 157.093 128.502 156.386 128.502 155.467C128.502 154.565 128.193 153.875 127.574 153.398C126.972 152.92 126.106 152.682 124.974 152.682H118.847V158.331H124.948ZM151.608 167.906L149.884 164.113H139.407L137.683 167.906H131.901L141.29 149.074H148L157.39 167.906H151.608ZM140.998 160.665H148.292L146.436 156.607C145.516 154.697 144.933 153.247 144.685 152.257H144.605C144.358 153.247 143.774 154.697 142.855 156.607L140.998 160.665ZM162.537 167.906V161.488L153.122 149.074H159.222L164.659 156.713C165.013 157.173 165.225 157.527 165.296 157.774H165.349C165.437 157.491 165.641 157.138 165.959 156.713L171.582 149.074H177.364L167.895 161.488V167.906H162.537ZM196.714 158.013C199.508 158.437 200.905 159.949 200.905 162.548C200.905 164.087 200.33 165.369 199.181 166.394C198.031 167.402 196.237 167.906 193.797 167.906H179.288V149.074H193.69C195.936 149.074 197.616 149.516 198.73 150.401C199.862 151.267 200.427 152.416 200.427 153.849C200.427 154.857 200.109 155.741 199.473 156.501C198.854 157.261 197.934 157.765 196.714 158.013ZM192.232 152.576H184.646V156.687H192.232C194 156.687 194.884 155.962 194.884 154.512C194.884 153.221 194 152.576 192.232 152.576ZM192.47 164.405C193.443 164.405 194.168 164.193 194.645 163.769C195.123 163.344 195.361 162.796 195.361 162.124C195.361 161.452 195.123 160.922 194.645 160.533C194.168 160.126 193.443 159.923 192.47 159.923H184.646V164.405H192.47ZM221.317 167.906L219.593 164.113H209.116L207.392 167.906H201.61L211 149.074H217.71L227.1 167.906H221.317ZM210.708 160.665H218.002L216.145 156.607C215.226 154.697 214.642 153.247 214.395 152.257H214.315C214.068 153.247 213.484 154.697 212.565 156.607L210.708 160.665ZM238.862 168.569C235.096 168.569 232.099 167.668 229.871 165.864C227.643 164.043 226.529 161.611 226.529 158.57C226.529 155.564 227.687 153.124 230.003 151.249C232.337 149.357 235.361 148.411 239.074 148.411C242.133 148.411 244.706 149.039 246.793 150.295C248.897 151.55 250.259 153.283 250.877 155.493L245.307 156.475C244.582 153.822 242.487 152.496 239.021 152.496C236.899 152.496 235.228 153.035 234.008 154.114C232.788 155.193 232.178 156.651 232.178 158.49C232.178 160.329 232.797 161.788 234.035 162.867C235.273 163.945 236.952 164.485 239.074 164.485C242.452 164.485 244.547 163.212 245.36 160.665L250.824 161.832C250.046 163.99 248.623 165.652 246.554 166.819C244.485 167.986 241.921 168.569 238.862 168.569ZM269.97 167.906L263.339 159.339L259.096 163.132V167.906H253.738V149.074H259.096V157.827L269.122 149.074H275.726L267.424 156.236L267.371 156.262L276.203 167.906H269.97ZM299.664 149.074C302.122 149.074 304.05 149.631 305.447 150.745C306.844 151.859 307.542 153.389 307.542 155.334C307.542 157.35 306.817 158.959 305.367 160.161C303.917 161.346 301.981 161.938 299.558 161.938H292.238V167.906H286.88V149.074H299.664ZM298.338 158.331C299.452 158.331 300.319 158.084 300.938 157.589C301.574 157.093 301.892 156.386 301.892 155.467C301.892 154.565 301.583 153.875 300.964 153.398C300.363 152.92 299.496 152.682 298.365 152.682H292.238V158.331H298.338ZM315.492 164.14H329.337V167.906H310.134V149.074H329.151V152.841H315.492V156.607H328.7V160.108H315.492V164.14ZM348.484 167.906L344.002 161.249H338.564V167.906H333.206V149.074H346.044C347.494 149.074 348.74 149.251 349.784 149.605C350.845 149.941 351.658 150.409 352.224 151.011C352.79 151.594 353.196 152.222 353.444 152.894C353.709 153.566 353.842 154.282 353.842 155.042C353.842 156.227 353.506 157.341 352.834 158.384C352.162 159.41 351.092 160.161 349.625 160.639L354.531 167.906H348.484ZM338.564 152.655V157.827H344.824C346.008 157.827 346.857 157.58 347.37 157.085C347.901 156.589 348.166 155.962 348.166 155.201C348.166 154.459 347.901 153.849 347.37 153.371C346.857 152.894 346.008 152.655 344.824 152.655H338.564ZM362.854 167.906H357.496V149.074H362.854V167.906ZM378.204 168.569C374.367 168.569 371.299 167.659 369.001 165.837C366.72 163.998 365.579 161.549 365.579 158.49C365.579 155.431 366.72 152.991 369.001 151.17C371.299 149.331 374.367 148.411 378.204 148.411C382.024 148.411 385.083 149.331 387.382 151.17C389.68 152.991 390.83 155.431 390.83 158.49C390.83 161.549 389.68 163.998 387.382 165.837C385.083 167.659 382.024 168.569 378.204 168.569ZM373.138 162.92C374.429 164.034 376.118 164.591 378.204 164.591C380.291 164.591 381.971 164.034 383.244 162.92C384.517 161.788 385.154 160.312 385.154 158.49C385.154 156.669 384.517 155.201 383.244 154.087C381.971 152.956 380.291 152.39 378.204 152.39C376.118 152.39 374.429 152.947 373.138 154.061C371.865 155.175 371.229 156.651 371.229 158.49C371.229 160.312 371.865 161.788 373.138 162.92ZM393.54 167.906V149.074H405.502C409.021 149.074 411.788 149.87 413.804 151.462C415.837 153.035 416.854 155.272 416.854 158.172C416.854 161.09 415.793 163.441 413.671 165.227C411.549 167.013 408.791 167.906 405.396 167.906H393.54ZM398.897 164.273H404.706C406.722 164.273 408.304 163.742 409.454 162.681C410.603 161.62 411.178 160.152 411.178 158.278C411.178 156.475 410.585 155.095 409.401 154.14C408.234 153.186 406.66 152.708 404.68 152.708H398.897V164.273ZM423.46 163.556V167.906H417.917V163.556H423.46ZM437.684 167.906V149.074H443.413L453.2 159.763C453.961 160.701 454.456 161.408 454.686 161.885H454.792V159.18V149.074H459.646V167.906H454.314L444.156 157.111C443.431 156.28 442.927 155.564 442.644 154.963H442.538V157.589V167.906H437.684ZM474.995 168.569C471.158 168.569 468.09 167.659 465.792 165.837C463.511 163.998 462.37 161.549 462.37 158.49C462.37 155.431 463.511 152.991 465.792 151.17C468.09 149.331 471.158 148.411 474.995 148.411C478.815 148.411 481.874 149.331 484.173 151.17C486.471 152.991 487.621 155.431 487.621 158.49C487.621 161.549 486.471 163.998 484.173 165.837C481.874 167.659 478.815 168.569 474.995 168.569ZM469.929 162.92C471.22 164.034 472.909 164.591 474.995 164.591C477.082 164.591 478.762 164.034 480.035 162.92C481.308 161.788 481.945 160.312 481.945 158.49C481.945 156.669 481.308 155.201 480.035 154.087C478.762 152.956 477.082 152.39 474.995 152.39C472.909 152.39 471.22 152.947 469.929 154.061C468.656 155.175 468.02 156.651 468.02 158.49C468.02 160.312 468.656 161.788 469.929 162.92ZM511.109 168.569C507.343 168.569 504.346 167.668 502.118 165.864C499.89 164.043 498.776 161.611 498.776 158.57C498.776 155.564 499.934 153.124 502.25 151.249C504.585 149.357 507.608 148.411 511.322 148.411C514.381 148.411 516.953 149.039 519.04 150.295C521.144 151.55 522.506 153.283 523.125 155.493L517.555 156.475C516.83 153.822 514.734 152.496 511.269 152.496C509.147 152.496 507.476 153.035 506.256 154.114C505.035 155.193 504.425 156.651 504.425 158.49C504.425 160.329 505.044 161.788 506.282 162.867C507.52 163.945 509.2 164.485 511.322 164.485C514.699 164.485 516.794 163.212 517.608 160.665L523.072 161.832C522.294 163.99 520.87 165.652 518.801 166.819C516.732 167.986 514.168 168.569 511.109 168.569ZM541.263 167.906L536.78 161.249H531.343V167.906H525.985V149.074H538.823C540.273 149.074 541.519 149.251 542.562 149.605C543.623 149.941 544.437 150.409 545.003 151.011C545.568 151.594 545.975 152.222 546.223 152.894C546.488 153.566 546.621 154.282 546.621 155.042C546.621 156.227 546.285 157.341 545.613 158.384C544.941 159.41 543.871 160.161 542.403 160.639L547.31 167.906H541.263ZM531.343 152.655V157.827H537.602C538.787 157.827 539.636 157.58 540.149 157.085C540.679 156.589 540.944 155.962 540.944 155.201C540.944 154.459 540.679 153.849 540.149 153.371C539.636 152.894 538.787 152.655 537.602 152.655H531.343ZM555.633 164.14H569.478V167.906H550.275V149.074H569.292V152.841H555.633V156.607H568.842V160.108H555.633V164.14ZM573.347 167.906V149.074H585.31C588.828 149.074 591.596 149.87 593.612 151.462C595.645 153.035 596.662 155.272 596.662 158.172C596.662 161.09 595.601 163.441 593.479 165.227C591.357 167.013 588.599 167.906 585.204 167.906H573.347ZM578.705 164.273H584.514C586.53 164.273 588.112 163.742 589.262 162.681C590.411 161.62 590.986 160.152 590.986 158.278C590.986 156.475 590.393 155.095 589.209 154.14C588.042 153.186 586.468 152.708 584.487 152.708H578.705V164.273ZM604.757 167.906H599.399V149.074H604.757V167.906ZM628.197 149.074V153.239H620.372V167.906H615.014V153.239H607.19V149.074H628.197ZM648.943 168.569C645.176 168.569 642.179 167.668 639.951 165.864C637.723 164.043 636.609 161.611 636.609 158.57C636.609 155.564 637.767 153.124 640.084 151.249C642.418 149.357 645.441 148.411 649.155 148.411C652.214 148.411 654.787 149.039 656.873 150.295C658.977 151.55 660.339 153.283 660.958 155.493L655.388 156.475C654.663 153.822 652.567 152.496 649.102 152.496C646.98 152.496 645.309 153.035 644.089 154.114C642.869 155.193 642.259 156.651 642.259 158.49C642.259 160.329 642.877 161.788 644.115 162.867C645.353 163.945 647.033 164.485 649.155 164.485C652.532 164.485 654.628 163.212 655.441 160.665L660.905 161.832C660.127 163.99 658.703 165.652 656.634 166.819C654.566 167.986 652.002 168.569 648.943 168.569ZM685.859 149.074V167.906H680.475V160.241H669.176V167.906H663.818V149.074H669.176V156.501H680.475V149.074H685.859ZM695.823 164.14H709.668V167.906H690.465V149.074H709.483V152.841H695.823V156.607H709.032V160.108H695.823V164.14ZM723.833 168.569C720.066 168.569 717.069 167.668 714.841 165.864C712.613 164.043 711.499 161.611 711.499 158.57C711.499 155.564 712.657 153.124 714.974 151.249C717.308 149.357 720.332 148.411 724.045 148.411C727.104 148.411 729.677 149.039 731.763 150.295C733.867 151.55 735.229 153.283 735.848 155.493L730.278 156.475C729.553 153.822 727.458 152.496 723.992 152.496C721.87 152.496 720.199 153.035 718.979 154.114C717.759 155.193 717.149 156.651 717.149 158.49C717.149 160.329 717.768 161.788 719.005 162.867C720.243 163.945 721.923 164.485 724.045 164.485C727.422 164.485 729.518 163.212 730.331 160.665L735.795 161.832C735.017 163.99 733.593 165.652 731.525 166.819C729.456 167.986 726.892 168.569 723.833 168.569ZM754.941 167.906L748.31 159.339L744.066 163.132V167.906H738.708V149.074H744.066V157.827L754.092 149.074H760.696L752.395 156.236L752.341 156.262L761.174 167.906H754.941ZM772.285 168.569C769.526 168.569 767.104 168.145 765.017 167.296C762.931 166.43 761.401 165.245 760.429 163.742L764.248 161.063C765.061 162.212 766.184 163.123 767.616 163.795C769.049 164.449 770.693 164.776 772.55 164.776C775.892 164.776 777.563 164.043 777.563 162.575C777.563 161.991 777.333 161.567 776.873 161.302C776.431 161.019 775.653 160.816 774.539 160.692L768.757 160.055C766.441 159.808 764.717 159.233 763.585 158.331C762.471 157.412 761.914 156.094 761.914 154.379C761.914 152.505 762.798 151.046 764.566 150.003C766.334 148.942 768.819 148.411 772.019 148.411C776.917 148.411 780.525 149.711 782.841 152.31L779.446 155.148C777.978 153.15 775.414 152.151 771.754 152.151C768.766 152.151 767.272 152.814 767.272 154.14C767.272 154.706 767.502 155.122 767.961 155.387C768.421 155.652 769.252 155.847 770.454 155.971L775.627 156.501C778.244 156.766 780.118 157.323 781.25 158.172C782.399 159.021 782.974 160.312 782.974 162.045C782.974 164.131 782.045 165.74 780.189 166.872C778.332 168.004 775.697 168.569 772.285 168.569ZM790.717 163.556V167.906H785.174V163.556H790.717Z" fill="white"/>
<rect x="1311" y="74" width="238" height="56" rx="28" fill="#FF5800"/>
<path d="M1358.34 112H1361.34V101.8H1352.19V105.4H1356.39C1355.91 106.6 1354.62 107.95 1352.19 107.95C1349.46 107.95 1347.24 105.67 1347.24 102.55C1347.24 99.43 1349.46 97.15 1352.19 97.15C1354.44 97.15 1355.76 98.5 1356.24 99.85L1360.74 99.55C1359.84 96.07 1356.69 92.95 1352.19 92.95C1347.06 92.95 1342.89 97.15 1342.89 102.55C1342.89 107.95 1347.06 112.15 1352.19 112.15C1353.87 112.15 1355.19 111.67 1356.12 111.19C1356.66 110.92 1357.14 110.59 1357.59 110.2L1358.34 112ZM1364.65 112H1378.45V107.8H1369V104.5H1377.4V100.3H1369V97.3H1378.15V93.1H1364.65V112ZM1385.34 112H1389.69V97.3H1395.09V93.1H1379.94V97.3H1385.34V112ZM1403.21 106C1403.21 109.6 1405.76 112.15 1410.11 112.15C1414.61 112.15 1417.16 109.6 1417.16 106.6C1417.16 99.7 1407.86 101.35 1407.86 98.65C1407.86 97.72 1408.76 96.85 1410.11 96.85C1411.64 96.85 1412.51 97.72 1412.51 99.25L1416.71 98.95C1416.71 95.5 1414.16 92.95 1410.11 92.95C1405.91 92.95 1403.36 95.5 1403.36 98.35C1403.36 105.1 1412.66 103.45 1412.66 106.3C1412.66 107.35 1411.79 108.25 1410.11 108.25C1408.31 108.25 1407.41 107.41 1407.41 105.7L1403.21 106ZM1423.48 112H1427.83V97.3H1433.23V93.1H1418.08V97.3H1423.48V112ZM1439.09 104.65L1441.19 98.35L1443.29 104.65H1439.09ZM1432.19 112H1436.69L1437.89 108.4H1444.49L1445.69 112H1450.19L1443.44 93.1H1438.94L1432.19 112ZM1451.84 112H1456.19V105.7H1458.44L1461.89 112H1466.69L1462.49 104.8C1462.52 104.8 1466.12 103.33 1466.09 99.1C1466.09 95.83 1463.42 93.1 1459.49 93.1H1451.84V112ZM1456.19 101.5V97.3H1459.49C1461.02 97.3 1461.89 98.2 1461.89 99.4C1461.89 100.6 1461.02 101.5 1459.49 101.5H1456.19ZM1472.56 112H1476.91V97.3H1482.31V93.1H1467.16V97.3H1472.56V112ZM1484.42 112H1498.22V107.8H1488.77V104.5H1497.17V100.3H1488.77V97.3H1497.92V93.1H1484.42V112ZM1505.55 107.8V97.3H1507.65C1510.53 97.3 1512.75 99.55 1512.75 102.55C1512.75 105.55 1510.53 107.8 1507.65 107.8H1505.55ZM1501.2 112H1507.65C1512.9 112 1517.1 107.8 1517.1 102.55C1517.1 97.3 1512.9 93.1 1507.65 93.1H1501.2V112Z" fill="white"/>
</g>
<defs>
<clipPath id="clip0_5989_40713">
<rect width="1608" height="207.216" fill="white"/>
</clipPath>
</defs>
</svg>
