<svg width="1608" height="208" viewBox="0 0 1608 208" fill="none" xmlns="http://www.w3.org/2000/svg">
<g clip-path="url(#clip0_8830_38681)">
<rect width="1608" height="207.216" fill="white"/>
<rect width="1608" height="207.216" fill="#FF5800"/>
<rect x="9" y="8" width="1590" height="191" rx="3.31546" fill="#262B34"/>
<path d="M83.8713 71.0953C83.8713 59.7697 79.8264 51.9833 68.1974 51.9833H65.1638C53.9393 51.9833 49.6922 59.7697 49.6922 71.1964V111.443C49.6922 122.263 54.546 129.24 65.0627 129.24H68.0963C78.0062 129.24 83.8713 122.263 83.8713 111.443V71.0953ZM69.7143 111.443C69.7143 114.072 69.1075 115.791 66.5795 115.791C64.1526 115.791 63.647 113.769 63.647 111.443V69.7807C63.647 66.646 64.3548 65.1291 66.6806 65.1291C69.1075 65.1291 69.7143 66.646 69.7143 69.7807V111.443ZM87.5235 76.0503C87.5235 83.1288 91.4673 86.9714 97.5346 86.9714H99.557C105.725 86.9714 109.467 82.8254 109.467 76.0503V63.1067C109.467 56.2304 105.725 52.2867 99.557 52.2867H97.5346C91.4673 52.2867 87.5235 56.0282 87.5235 63.1067V76.0503ZM121.298 52.8934L93.0852 128.128H101.478L129.691 52.8934H121.298ZM100.164 76.7581C100.164 77.9716 99.7592 78.7806 98.4446 78.7806C97.2312 78.7806 96.8267 77.9716 96.8267 76.7581V62.2977C96.8267 61.1854 97.2312 60.2753 98.4446 60.2753C99.7592 60.2753 100.164 61.1854 100.164 62.2977V76.7581ZM113.107 117.814C113.107 124.892 117.051 128.634 123.118 128.634H125.141C131.309 128.634 135.051 124.589 135.051 117.814V104.87C135.051 97.9937 131.309 93.9488 125.141 93.9488H123.118C117.051 93.9488 113.107 97.7914 113.107 104.87V117.814ZM124.028 120.544C122.815 120.544 122.41 119.634 122.41 118.521V104.061C122.41 102.848 122.815 102.039 124.028 102.039C125.343 102.039 125.747 102.848 125.747 104.061V118.521C125.747 119.634 125.343 120.544 124.028 120.544ZM163.847 52.8934H150.398V128.128H163.847V52.8934ZM168.691 52.8934V128.128H180.623V86.8703L191.039 128.128H202.466V52.8934H190.533V91.3196L181.331 52.8934H168.691ZM215.619 128.128H229.068V66.1404H238.674V52.8934H206.012V66.1404H215.619V128.128ZM242.21 52.8934V128.128H271.029V114.578H255.659V96.0724H267.187V82.5221H255.659V66.1404H270.321V52.8934H242.21ZM288.073 95.9712H290.904C293.635 95.9712 294.444 96.9825 294.444 100.421V122.364C294.444 125.701 295.05 127.319 295.657 128.128H309.106V127.622C308.601 126.712 307.994 125.297 307.994 122.061V96.4769C307.994 90.814 304.455 88.3871 302.23 87.5781C304.758 86.5669 308.196 83.5333 308.196 77.466V65.4325C308.196 57.4439 304.05 52.8934 295.859 52.8934H274.624V128.128H288.073V95.9712ZM288.073 64.5224H291.107C293.837 64.5224 294.444 65.5336 294.444 68.7695V78.9828C294.444 82.5221 293.331 83.5333 290.702 83.5333H288.073V64.5224ZM312.568 52.8934V128.128H341.388V114.578H326.017V96.0724H337.545V82.5221H326.017V66.1404H340.68V52.8934H312.568ZM359.241 129.038H361.87C372.993 129.038 378.251 121.656 378.251 110.432V106.892C378.251 100.522 376.836 95.1623 370.061 87.5781L362.375 78.9828C359.038 75.2413 358.229 72.8144 358.229 69.2751V67.5561C358.229 65.028 358.836 63.5112 361.162 63.5112C363.589 63.5112 364.094 65.028 364.094 67.4549V76.8593H377.038V66.7471C377.038 56.8372 373.094 51.9833 362.578 51.9833H359.847C350.443 51.9833 344.578 57.3428 344.578 66.9493V70.1852C344.578 77.2637 346.196 83.2299 351.758 89.2972L359.544 97.8926C363.488 102.241 363.892 104.364 363.892 109.623V111.038C363.892 114.679 362.881 116.499 360.555 116.499C358.128 116.499 357.117 114.982 357.117 111.948V99.915H343.87V113.465C343.87 123.577 349.027 129.038 359.241 129.038ZM389.737 128.128H403.187V66.1404H412.793V52.8934H380.131V66.1404H389.737V128.128Z" fill="#FF5800"/>
<path d="M427.709 52.8934V128.128H455.416V114.578H441.158V52.8934H427.709ZM493.531 71.0953C493.531 59.5675 489.284 51.9833 477.453 51.9833H474.419C462.79 51.9833 458.239 59.5675 458.239 71.1964V110.937C458.239 122.667 463.902 129.24 474.52 129.24H477.554C487.666 129.24 493.531 121.96 493.531 110.937V71.0953ZM479.475 111.342C479.475 113.668 478.767 115.791 476.037 115.791C473.205 115.791 472.295 113.668 472.295 111.342V70.0841C472.295 66.7471 473.307 65.1291 475.936 65.1291C478.363 65.1291 479.475 66.7471 479.475 70.0841V111.342ZM517.8 128.128H530.845L520.631 52.8934H504.654L495.149 128.128H507.081L508.396 115.488H516.485L517.8 128.128ZM515.07 102.544H509.71L512.339 76.657L515.07 102.544ZM533.345 52.8934V128.128H545.277V86.8703L555.693 128.128H567.12V52.8934H555.187V91.3196L545.985 52.8934H533.345ZM618.349 71.0953C618.349 59.5675 614.102 51.9833 602.271 51.9833H599.237C587.608 51.9833 583.057 59.5675 583.057 71.1964V110.937C583.057 122.667 588.72 129.24 599.338 129.24H602.372C612.484 129.24 618.349 121.96 618.349 110.937V71.0953ZM604.293 111.342C604.293 113.668 603.585 115.791 600.855 115.791C598.023 115.791 597.113 113.668 597.113 111.342V70.0841C597.113 66.7471 598.125 65.1291 600.754 65.1291C603.181 65.1291 604.293 66.7471 604.293 70.0841V111.342ZM622.885 52.8934V128.128H634.818V86.8703L645.233 128.128H656.66V52.8934H644.727V91.3196L635.525 52.8934H622.885ZM672.901 128.128H695.047C703.237 128.128 707.383 123.072 707.383 111.241V98.7015C707.383 90.7129 703.743 87.8815 699.9 86.8703C702.631 85.9602 706.271 82.5221 706.271 76.3536V66.3426C706.271 56.4327 702.226 52.8934 693.226 52.8934H672.901V128.128ZM689.586 64.4213C692.114 64.4213 693.024 65.7359 693.024 68.4662V77.8705C693.024 81.3086 691.608 82.3198 689.384 82.3198H686.35V64.4213H689.586ZM689.586 94.4544C692.62 94.4544 693.53 95.8701 693.53 99.0049V111.241C693.53 115.488 692.316 116.196 690.092 116.196H686.35V94.4544H689.586ZM718.841 128.128H732.29V66.1404H741.897V52.8934H709.234V66.1404H718.841V128.128ZM762.228 116.094C759.801 116.094 758.79 114.477 758.79 111.544V69.0729C758.79 66.1404 759.598 64.7247 762.127 64.7247C764.655 64.7247 765.565 66.2415 765.565 69.0729V81.2075H778.913V68.5673C778.913 59.9719 776.182 51.9833 763.34 51.9833H760.61C748.677 51.9833 744.734 59.9719 744.734 69.0729V111.544C744.734 120.948 747.666 129.341 760.61 129.341H763.34C775.272 129.341 778.913 120.948 778.913 111.948V94.96H765.565V111.544C765.565 114.274 764.655 116.094 762.228 116.094Z" fill="white"/>
<path d="M50.5144 167.907V149.075H56.2435L66.0308 159.764C66.7911 160.702 67.2862 161.409 67.5161 161.886H67.6222V159.181V149.075H72.476V167.907H67.1448L56.9862 157.112C56.2612 156.281 55.7573 155.565 55.4743 154.964H55.3682V157.59V167.907H50.5144ZM87.8258 168.57C83.9887 168.57 80.9208 167.66 78.6221 165.838C76.341 163.999 75.2005 161.55 75.2005 158.491C75.2005 155.432 76.341 152.992 78.6221 151.171C80.9208 149.332 83.9887 148.412 87.8258 148.412C91.6452 148.412 94.7043 149.332 97.003 151.171C99.3017 152.992 100.451 155.432 100.451 158.491C100.451 161.55 99.3017 163.999 97.003 165.838C94.7043 167.66 91.6452 168.57 87.8258 168.57ZM82.7598 162.921C84.0506 164.035 85.7393 164.592 87.8258 164.592C89.9123 164.592 91.5922 164.035 92.8653 162.921C94.1384 161.789 94.775 160.313 94.775 158.491C94.775 156.67 94.1384 155.202 92.8653 154.088C91.5922 152.957 89.9123 152.391 87.8258 152.391C85.7393 152.391 84.0506 152.948 82.7598 154.062C81.4866 155.176 80.8501 156.652 80.8501 158.491C80.8501 160.313 81.4866 161.789 82.7598 162.921ZM126.274 149.075C128.732 149.075 130.659 149.632 132.056 150.746C133.453 151.86 134.152 153.39 134.152 155.335C134.152 157.351 133.427 158.96 131.977 160.162C130.527 161.347 128.59 161.939 126.168 161.939H118.847V167.907H113.49V149.075H126.274ZM124.948 158.332C126.062 158.332 126.928 158.085 127.547 157.59C128.184 157.094 128.502 156.387 128.502 155.468C128.502 154.566 128.193 153.876 127.574 153.399C126.972 152.921 126.106 152.683 124.974 152.683H118.847V158.332H124.948ZM151.608 167.907L149.884 164.114H139.407L137.683 167.907H131.901L141.29 149.075H148L157.39 167.907H151.608ZM140.998 160.666H148.292L146.436 156.608C145.516 154.698 144.933 153.248 144.685 152.258H144.605C144.358 153.248 143.774 154.698 142.855 156.608L140.998 160.666ZM162.537 167.907V161.488L153.122 149.075H159.222L164.659 156.714C165.013 157.174 165.225 157.528 165.296 157.775H165.349C165.437 157.492 165.641 157.139 165.959 156.714L171.582 149.075H177.364L167.895 161.488V167.907H162.537ZM196.714 158.014C199.508 158.438 200.905 159.95 200.905 162.549C200.905 164.088 200.33 165.37 199.181 166.395C198.031 167.403 196.237 167.907 193.797 167.907H179.288V149.075H193.69C195.936 149.075 197.616 149.517 198.73 150.402C199.862 151.268 200.427 152.417 200.427 153.85C200.427 154.858 200.109 155.742 199.473 156.502C198.854 157.262 197.934 157.766 196.714 158.014ZM192.232 152.577H184.646V156.688H192.232C194 156.688 194.884 155.963 194.884 154.513C194.884 153.222 194 152.577 192.232 152.577ZM192.47 164.406C193.443 164.406 194.168 164.194 194.645 163.77C195.123 163.345 195.361 162.797 195.361 162.125C195.361 161.453 195.123 160.923 194.645 160.534C194.168 160.127 193.443 159.924 192.47 159.924H184.646V164.406H192.47ZM221.317 167.907L219.593 164.114H209.116L207.392 167.907H201.61L211 149.075H217.71L227.1 167.907H221.317ZM210.708 160.666H218.002L216.145 156.608C215.226 154.698 214.642 153.248 214.395 152.258H214.315C214.068 153.248 213.484 154.698 212.565 156.608L210.708 160.666ZM238.862 168.57C235.096 168.57 232.099 167.669 229.871 165.865C227.643 164.044 226.529 161.612 226.529 158.571C226.529 155.565 227.687 153.125 230.003 151.25C232.337 149.358 235.361 148.412 239.074 148.412C242.133 148.412 244.706 149.04 246.793 150.295C248.897 151.551 250.259 153.284 250.877 155.494L245.307 156.476C244.582 153.823 242.487 152.497 239.021 152.497C236.899 152.497 235.228 153.036 234.008 154.115C232.788 155.194 232.178 156.652 232.178 158.491C232.178 160.33 232.797 161.789 234.035 162.868C235.273 163.946 236.952 164.486 239.074 164.486C242.452 164.486 244.547 163.213 245.36 160.666L250.824 161.833C250.046 163.991 248.623 165.653 246.554 166.82C244.485 167.987 241.921 168.57 238.862 168.57ZM269.97 167.907L263.339 159.34L259.096 163.133V167.907H253.738V149.075H259.096V157.828L269.122 149.075H275.726L267.424 156.237L267.371 156.263L276.203 167.907H269.97ZM299.664 149.075C302.122 149.075 304.05 149.632 305.447 150.746C306.844 151.86 307.542 153.39 307.542 155.335C307.542 157.351 306.817 158.96 305.367 160.162C303.917 161.347 301.981 161.939 299.558 161.939H292.238V167.907H286.88V149.075H299.664ZM298.338 158.332C299.452 158.332 300.319 158.085 300.938 157.59C301.574 157.094 301.892 156.387 301.892 155.468C301.892 154.566 301.583 153.876 300.964 153.399C300.363 152.921 299.496 152.683 298.365 152.683H292.238V158.332H298.338ZM315.492 164.141H329.337V167.907H310.134V149.075H329.151V152.842H315.492V156.608H328.7V160.109H315.492V164.141ZM348.484 167.907L344.002 161.25H338.564V167.907H333.206V149.075H346.044C347.494 149.075 348.74 149.252 349.784 149.606C350.845 149.942 351.658 150.41 352.224 151.012C352.79 151.595 353.196 152.223 353.444 152.895C353.709 153.567 353.842 154.283 353.842 155.043C353.842 156.228 353.506 157.342 352.834 158.385C352.162 159.411 351.092 160.162 349.625 160.64L354.531 167.907H348.484ZM338.564 152.656V157.828H344.824C346.008 157.828 346.857 157.581 347.37 157.086C347.901 156.59 348.166 155.963 348.166 155.202C348.166 154.46 347.901 153.85 347.37 153.372C346.857 152.895 346.008 152.656 344.824 152.656H338.564ZM362.854 167.907H357.496V149.075H362.854V167.907ZM378.204 168.57C374.367 168.57 371.299 167.66 369.001 165.838C366.72 163.999 365.579 161.55 365.579 158.491C365.579 155.432 366.72 152.992 369.001 151.171C371.299 149.332 374.367 148.412 378.204 148.412C382.024 148.412 385.083 149.332 387.382 151.171C389.68 152.992 390.83 155.432 390.83 158.491C390.83 161.55 389.68 163.999 387.382 165.838C385.083 167.66 382.024 168.57 378.204 168.57ZM373.138 162.921C374.429 164.035 376.118 164.592 378.204 164.592C380.291 164.592 381.971 164.035 383.244 162.921C384.517 161.789 385.154 160.313 385.154 158.491C385.154 156.67 384.517 155.202 383.244 154.088C381.971 152.957 380.291 152.391 378.204 152.391C376.118 152.391 374.429 152.948 373.138 154.062C371.865 155.176 371.229 156.652 371.229 158.491C371.229 160.313 371.865 161.789 373.138 162.921ZM393.54 167.907V149.075H405.502C409.021 149.075 411.788 149.871 413.804 151.463C415.837 153.036 416.854 155.273 416.854 158.173C416.854 161.091 415.793 163.442 413.671 165.228C411.549 167.014 408.791 167.907 405.396 167.907H393.54ZM398.897 164.273H404.706C406.722 164.273 408.304 163.743 409.454 162.682C410.603 161.621 411.178 160.153 411.178 158.279C411.178 156.476 410.585 155.096 409.401 154.141C408.234 153.187 406.66 152.709 404.68 152.709H398.897V164.273ZM423.46 163.557V167.907H417.917V163.557H423.46ZM437.684 167.907V149.075H443.413L453.2 159.764C453.961 160.702 454.456 161.409 454.686 161.886H454.792V159.181V149.075H459.646V167.907H454.314L444.156 157.112C443.431 156.281 442.927 155.565 442.644 154.964H442.538V157.59V167.907H437.684ZM474.995 168.57C471.158 168.57 468.09 167.66 465.792 165.838C463.511 163.999 462.37 161.55 462.37 158.491C462.37 155.432 463.511 152.992 465.792 151.171C468.09 149.332 471.158 148.412 474.995 148.412C478.815 148.412 481.874 149.332 484.173 151.171C486.471 152.992 487.621 155.432 487.621 158.491C487.621 161.55 486.471 163.999 484.173 165.838C481.874 167.66 478.815 168.57 474.995 168.57ZM469.929 162.921C471.22 164.035 472.909 164.592 474.995 164.592C477.082 164.592 478.762 164.035 480.035 162.921C481.308 161.789 481.945 160.313 481.945 158.491C481.945 156.67 481.308 155.202 480.035 154.088C478.762 152.957 477.082 152.391 474.995 152.391C472.909 152.391 471.22 152.948 469.929 154.062C468.656 155.176 468.02 156.652 468.02 158.491C468.02 160.313 468.656 161.789 469.929 162.921ZM511.109 168.57C507.343 168.57 504.346 167.669 502.118 165.865C499.89 164.044 498.776 161.612 498.776 158.571C498.776 155.565 499.934 153.125 502.25 151.25C504.585 149.358 507.608 148.412 511.322 148.412C514.381 148.412 516.953 149.04 519.04 150.295C521.144 151.551 522.506 153.284 523.125 155.494L517.555 156.476C516.83 153.823 514.734 152.497 511.269 152.497C509.147 152.497 507.476 153.036 506.256 154.115C505.035 155.194 504.425 156.652 504.425 158.491C504.425 160.33 505.044 161.789 506.282 162.868C507.52 163.946 509.2 164.486 511.322 164.486C514.699 164.486 516.794 163.213 517.608 160.666L523.072 161.833C522.294 163.991 520.87 165.653 518.801 166.82C516.732 167.987 514.168 168.57 511.109 168.57ZM541.263 167.907L536.78 161.25H531.343V167.907H525.985V149.075H538.823C540.273 149.075 541.519 149.252 542.562 149.606C543.623 149.942 544.437 150.41 545.003 151.012C545.568 151.595 545.975 152.223 546.223 152.895C546.488 153.567 546.621 154.283 546.621 155.043C546.621 156.228 546.285 157.342 545.613 158.385C544.941 159.411 543.871 160.162 542.403 160.64L547.31 167.907H541.263ZM531.343 152.656V157.828H537.602C538.787 157.828 539.636 157.581 540.149 157.086C540.679 156.59 540.944 155.963 540.944 155.202C540.944 154.46 540.679 153.85 540.149 153.372C539.636 152.895 538.787 152.656 537.602 152.656H531.343ZM555.633 164.141H569.478V167.907H550.275V149.075H569.292V152.842H555.633V156.608H568.842V160.109H555.633V164.141ZM573.347 167.907V149.075H585.31C588.828 149.075 591.596 149.871 593.612 151.463C595.645 153.036 596.662 155.273 596.662 158.173C596.662 161.091 595.601 163.442 593.479 165.228C591.357 167.014 588.599 167.907 585.204 167.907H573.347ZM578.705 164.273H584.514C586.53 164.273 588.112 163.743 589.262 162.682C590.411 161.621 590.986 160.153 590.986 158.279C590.986 156.476 590.393 155.096 589.209 154.141C588.042 153.187 586.468 152.709 584.487 152.709H578.705V164.273ZM604.757 167.907H599.399V149.075H604.757V167.907ZM628.197 149.075V153.24H620.372V167.907H615.014V153.24H607.19V149.075H628.197ZM648.943 168.57C645.176 168.57 642.179 167.669 639.951 165.865C637.723 164.044 636.609 161.612 636.609 158.571C636.609 155.565 637.767 153.125 640.084 151.25C642.418 149.358 645.441 148.412 649.155 148.412C652.214 148.412 654.787 149.04 656.873 150.295C658.977 151.551 660.339 153.284 660.958 155.494L655.388 156.476C654.663 153.823 652.567 152.497 649.102 152.497C646.98 152.497 645.309 153.036 644.089 154.115C642.869 155.194 642.259 156.652 642.259 158.491C642.259 160.33 642.877 161.789 644.115 162.868C645.353 163.946 647.033 164.486 649.155 164.486C652.532 164.486 654.628 163.213 655.441 160.666L660.905 161.833C660.127 163.991 658.703 165.653 656.634 166.82C654.566 167.987 652.002 168.57 648.943 168.57ZM685.859 149.075V167.907H680.475V160.242H669.176V167.907H663.818V149.075H669.176V156.502H680.475V149.075H685.859ZM695.823 164.141H709.668V167.907H690.465V149.075H709.483V152.842H695.823V156.608H709.032V160.109H695.823V164.141ZM723.833 168.57C720.066 168.57 717.069 167.669 714.841 165.865C712.613 164.044 711.499 161.612 711.499 158.571C711.499 155.565 712.657 153.125 714.974 151.25C717.308 149.358 720.332 148.412 724.045 148.412C727.104 148.412 729.677 149.04 731.763 150.295C733.867 151.551 735.229 153.284 735.848 155.494L730.278 156.476C729.553 153.823 727.458 152.497 723.992 152.497C721.87 152.497 720.199 153.036 718.979 154.115C717.759 155.194 717.149 156.652 717.149 158.491C717.149 160.33 717.768 161.789 719.005 162.868C720.243 163.946 721.923 164.486 724.045 164.486C727.422 164.486 729.518 163.213 730.331 160.666L735.795 161.833C735.017 163.991 733.593 165.653 731.525 166.82C729.456 167.987 726.892 168.57 723.833 168.57ZM754.941 167.907L748.31 159.34L744.066 163.133V167.907H738.708V149.075H744.066V157.828L754.092 149.075H760.696L752.395 156.237L752.341 156.263L761.174 167.907H754.941ZM772.285 168.57C769.526 168.57 767.104 168.146 765.017 167.297C762.931 166.431 761.401 165.246 760.429 163.743L764.248 161.064C765.061 162.213 766.184 163.124 767.616 163.796C769.049 164.45 770.693 164.777 772.55 164.777C775.892 164.777 777.563 164.044 777.563 162.576C777.563 161.992 777.333 161.568 776.873 161.303C776.431 161.02 775.653 160.817 774.539 160.693L768.757 160.056C766.441 159.809 764.717 159.234 763.585 158.332C762.471 157.413 761.914 156.095 761.914 154.38C761.914 152.506 762.798 151.047 764.566 150.004C766.334 148.943 768.819 148.412 772.019 148.412C776.917 148.412 780.525 149.712 782.841 152.311L779.446 155.149C777.978 153.151 775.414 152.152 771.754 152.152C768.766 152.152 767.272 152.815 767.272 154.141C767.272 154.707 767.502 155.123 767.961 155.388C768.421 155.653 769.252 155.848 770.454 155.972L775.627 156.502C778.244 156.767 780.118 157.324 781.25 158.173C782.399 159.022 782.974 160.313 782.974 162.045C782.974 164.132 782.045 165.741 780.189 166.873C778.332 168.004 775.697 168.57 772.285 168.57ZM790.717 163.557V167.907H785.174V163.557H790.717Z" fill="white"/>
<g filter="url(#filter0_d_8830_38681)">
<rect x="1298" y="74" width="238" height="56" rx="28" fill="white"/>
<path d="M1339.19 112.15C1337.91 112.15 1336.7 111.91 1335.56 111.43C1334.44 110.93 1333.46 110.25 1332.62 109.39C1331.78 108.51 1331.11 107.49 1330.61 106.33C1330.13 105.17 1329.89 103.91 1329.89 102.55C1329.89 101.21 1330.13 99.96 1330.61 98.8C1331.11 97.62 1331.78 96.6 1332.62 95.74C1333.46 94.86 1334.44 94.18 1335.56 93.7C1336.7 93.2 1337.91 92.95 1339.19 92.95C1340.31 92.95 1341.34 93.13 1342.28 93.49C1343.24 93.85 1344.08 94.34 1344.8 94.96C1345.54 95.56 1346.16 96.26 1346.66 97.06C1347.16 97.86 1347.52 98.69 1347.74 99.55L1343.24 99.85C1343.12 99.51 1342.95 99.18 1342.73 98.86C1342.51 98.54 1342.23 98.25 1341.89 97.99C1341.55 97.73 1341.15 97.53 1340.69 97.39C1340.25 97.23 1339.75 97.15 1339.19 97.15C1338.51 97.15 1337.87 97.29 1337.27 97.57C1336.67 97.83 1336.14 98.2 1335.68 98.68C1335.24 99.16 1334.89 99.73 1334.63 100.39C1334.37 101.05 1334.24 101.77 1334.24 102.55C1334.24 103.33 1334.37 104.05 1334.63 104.71C1334.89 105.37 1335.24 105.94 1335.68 106.42C1336.14 106.9 1336.67 107.28 1337.27 107.56C1337.87 107.82 1338.51 107.95 1339.19 107.95C1339.79 107.95 1340.32 107.88 1340.78 107.74C1341.26 107.58 1341.67 107.38 1342.01 107.14C1342.37 106.88 1342.66 106.6 1342.88 106.3C1343.1 106 1343.27 105.7 1343.39 105.4H1339.19V101.8H1348.34V112H1345.34L1344.59 110.2C1344.15 110.58 1343.66 110.91 1343.12 111.19C1342.66 111.43 1342.1 111.65 1341.44 111.85C1340.78 112.05 1340.03 112.15 1339.19 112.15ZM1351.65 93.1H1365.15V97.3H1356V100.3H1364.4V104.5H1356V107.8H1365.45V112H1351.65V93.1ZM1372.34 97.3H1366.94V93.1H1382.09V97.3H1376.69V112H1372.34V97.3ZM1397.11 112.15C1396.03 112.15 1395.06 112 1394.2 111.7C1393.34 111.4 1392.61 110.98 1392.01 110.44C1391.43 109.88 1390.98 109.23 1390.66 108.49C1390.36 107.73 1390.21 106.9 1390.21 106L1394.41 105.7C1394.41 107.4 1395.31 108.25 1397.11 108.25C1397.95 108.25 1398.58 108.06 1399 107.68C1399.44 107.28 1399.66 106.82 1399.66 106.3C1399.66 105.82 1399.43 105.45 1398.97 105.19C1398.51 104.93 1397.93 104.69 1397.23 104.47C1396.55 104.25 1395.81 104.02 1395.01 103.78C1394.21 103.54 1393.46 103.21 1392.76 102.79C1392.08 102.35 1391.51 101.78 1391.05 101.08C1390.59 100.38 1390.36 99.47 1390.36 98.35C1390.36 97.63 1390.51 96.95 1390.81 96.31C1391.13 95.65 1391.58 95.08 1392.16 94.6C1392.74 94.1 1393.44 93.7 1394.26 93.4C1395.1 93.1 1396.05 92.95 1397.11 92.95C1398.13 92.95 1399.04 93.1 1399.84 93.4C1400.66 93.7 1401.35 94.12 1401.91 94.66C1402.49 95.2 1402.93 95.84 1403.23 96.58C1403.55 97.3 1403.71 98.09 1403.71 98.95L1399.51 99.25C1399.51 98.49 1399.3 97.9 1398.88 97.48C1398.46 97.06 1397.87 96.85 1397.11 96.85C1396.43 96.85 1395.88 97.04 1395.46 97.42C1395.06 97.78 1394.86 98.19 1394.86 98.65C1394.86 99.11 1395.09 99.46 1395.55 99.7C1396.01 99.94 1396.58 100.17 1397.26 100.39C1397.96 100.59 1398.71 100.81 1399.51 101.05C1400.31 101.29 1401.05 101.63 1401.73 102.07C1402.43 102.51 1403.01 103.09 1403.47 103.81C1403.93 104.53 1404.16 105.46 1404.16 106.6C1404.16 107.36 1404 108.08 1403.68 108.76C1403.38 109.42 1402.93 110 1402.33 110.5C1401.73 111 1400.99 111.4 1400.11 111.7C1399.23 112 1398.23 112.15 1397.11 112.15ZM1410.48 97.3H1405.08V93.1H1420.23V97.3H1414.83V112H1410.48V97.3ZM1425.94 93.1H1430.44L1437.19 112H1432.69L1431.49 108.4H1424.89L1423.69 112H1419.19L1425.94 93.1ZM1430.29 104.65L1428.19 98.35L1426.09 104.65H1430.29ZM1438.84 93.1H1446.49C1447.47 93.1 1448.36 93.26 1449.16 93.58C1449.98 93.9 1450.68 94.33 1451.26 94.87C1451.84 95.41 1452.29 96.05 1452.61 96.79C1452.93 97.51 1453.09 98.28 1453.09 99.1C1453.09 100.16 1452.9 101.05 1452.52 101.77C1452.16 102.49 1451.75 103.08 1451.29 103.54C1450.85 103.98 1450.44 104.3 1450.06 104.5C1449.68 104.7 1449.49 104.8 1449.49 104.8L1453.69 112H1448.89L1445.44 105.7H1443.19V112H1438.84V93.1ZM1446.49 101.5C1447.25 101.5 1447.84 101.3 1448.26 100.9C1448.68 100.5 1448.89 100 1448.89 99.4C1448.89 98.8 1448.68 98.3 1448.26 97.9C1447.84 97.5 1447.25 97.3 1446.49 97.3H1443.19V101.5H1446.49ZM1459.56 97.3H1454.16V93.1H1469.31V97.3H1463.91V112H1459.56V97.3ZM1471.42 93.1H1484.92V97.3H1475.77V100.3H1484.17V104.5H1475.77V107.8H1485.22V112H1471.42V93.1ZM1488.2 93.1H1494.65C1495.97 93.1 1497.2 93.35 1498.34 93.85C1499.48 94.33 1500.48 95 1501.34 95.86C1502.2 96.72 1502.87 97.72 1503.35 98.86C1503.85 100 1504.1 101.23 1504.1 102.55C1504.1 103.87 1503.85 105.1 1503.35 106.24C1502.87 107.38 1502.2 108.38 1501.34 109.24C1500.48 110.1 1499.48 110.78 1498.34 111.28C1497.2 111.76 1495.97 112 1494.65 112H1488.2V93.1ZM1494.65 107.8C1495.37 107.8 1496.04 107.67 1496.66 107.41C1497.28 107.13 1497.82 106.76 1498.28 106.3C1498.74 105.84 1499.1 105.29 1499.36 104.65C1499.62 104.01 1499.75 103.31 1499.75 102.55C1499.75 101.81 1499.62 101.12 1499.36 100.48C1499.1 99.82 1498.74 99.26 1498.28 98.8C1497.82 98.34 1497.28 97.98 1496.66 97.72C1496.04 97.44 1495.37 97.3 1494.65 97.3H1492.55V107.8H1494.65Z" fill="#262B34"/>
</g>
</g>
<defs>
<filter id="filter0_d_8830_38681" x="1298" y="74" width="239" height="60" filterUnits="userSpaceOnUse" color-interpolation-filters="sRGB">
<feFlood flood-opacity="0" result="BackgroundImageFix"/>
<feColorMatrix in="SourceAlpha" type="matrix" values="0 0 0 0 0 0 0 0 0 0 0 0 0 0 0 0 0 0 127 0" result="hardAlpha"/>
<feOffset dx="1" dy="4"/>
<feComposite in2="hardAlpha" operator="out"/>
<feColorMatrix type="matrix" values="0 0 0 0 1 0 0 0 0 0.345098 0 0 0 0 0 0 0 0 0.51 0"/>
<feBlend mode="normal" in2="BackgroundImageFix" result="effect1_dropShadow_8830_38681"/>
<feBlend mode="normal" in="SourceGraphic" in2="effect1_dropShadow_8830_38681" result="shape"/>
</filter>
<clipPath id="clip0_8830_38681">
<rect width="1608" height="207.216" fill="white"/>
</clipPath>
</defs>
</svg>
