<svg width="328" height="294" viewBox="0 0 328 294" fill="none" xmlns="http://www.w3.org/2000/svg">
<rect width="328" height="294" rx="4" fill="#FF5800"/>
<rect x="5" y="5" width="318" height="284.107" rx="4" fill="#262B34"/>
<g filter="url(#filter0_d_9376_38366)">
<rect x="16" y="238" width="296" height="40" rx="20" fill="white" shape-rendering="crispEdges"/>
<path d="M112.128 264.1C111.275 264.1 110.468 263.94 109.708 263.62C108.961 263.287 108.308 262.833 107.748 262.26C107.188 261.673 106.741 260.993 106.408 260.22C106.088 259.447 105.928 258.607 105.928 257.7C105.928 256.807 106.088 255.973 106.408 255.2C106.741 254.413 107.188 253.733 107.748 253.16C108.308 252.573 108.961 252.12 109.708 251.8C110.468 251.467 111.275 251.3 112.128 251.3C112.875 251.3 113.561 251.42 114.188 251.66C114.828 251.9 115.388 252.227 115.868 252.64C116.361 253.04 116.775 253.507 117.108 254.04C117.441 254.573 117.681 255.127 117.828 255.7L114.828 255.9C114.748 255.673 114.635 255.453 114.488 255.24C114.341 255.027 114.155 254.833 113.928 254.66C113.701 254.487 113.435 254.353 113.128 254.26C112.835 254.153 112.501 254.1 112.128 254.1C111.675 254.1 111.248 254.193 110.848 254.38C110.448 254.553 110.095 254.8 109.788 255.12C109.495 255.44 109.261 255.82 109.088 256.26C108.915 256.7 108.828 257.18 108.828 257.7C108.828 258.22 108.915 258.7 109.088 259.14C109.261 259.58 109.495 259.96 109.788 260.28C110.095 260.6 110.448 260.853 110.848 261.04C111.248 261.213 111.675 261.3 112.128 261.3C112.528 261.3 112.881 261.253 113.188 261.16C113.508 261.053 113.781 260.92 114.008 260.76C114.248 260.587 114.441 260.4 114.588 260.2C114.735 260 114.848 259.8 114.928 259.6H112.128V257.2H118.228V264H116.228L115.728 262.8C115.435 263.053 115.108 263.273 114.748 263.46C114.441 263.62 114.068 263.767 113.628 263.9C113.188 264.033 112.688 264.1 112.128 264.1ZM120.434 251.4H129.434V254.2H123.334V256.2H128.934V259H123.334V261.2H129.634V264H120.434V251.4ZM134.226 254.2H130.626V251.4H140.726V254.2H137.126V264H134.226V254.2ZM150.743 264.1C150.023 264.1 149.376 264 148.803 263.8C148.23 263.6 147.743 263.32 147.343 262.96C146.956 262.587 146.656 262.153 146.443 261.66C146.243 261.153 146.143 260.6 146.143 260L148.943 259.8C148.943 260.933 149.543 261.5 150.743 261.5C151.303 261.5 151.723 261.373 152.003 261.12C152.296 260.853 152.443 260.547 152.443 260.2C152.443 259.88 152.29 259.633 151.983 259.46C151.676 259.287 151.29 259.127 150.823 258.98C150.37 258.833 149.876 258.68 149.343 258.52C148.81 258.36 148.31 258.14 147.843 257.86C147.39 257.567 147.01 257.187 146.703 256.72C146.396 256.253 146.243 255.647 146.243 254.9C146.243 254.42 146.343 253.967 146.543 253.54C146.756 253.1 147.056 252.72 147.443 252.4C147.83 252.067 148.296 251.8 148.843 251.6C149.403 251.4 150.036 251.3 150.743 251.3C151.423 251.3 152.03 251.4 152.563 251.6C153.11 251.8 153.57 252.08 153.943 252.44C154.33 252.8 154.623 253.227 154.823 253.72C155.036 254.2 155.143 254.727 155.143 255.3L152.343 255.5C152.343 254.993 152.203 254.6 151.923 254.32C151.643 254.04 151.25 253.9 150.743 253.9C150.29 253.9 149.923 254.027 149.643 254.28C149.376 254.52 149.243 254.793 149.243 255.1C149.243 255.407 149.396 255.64 149.703 255.8C150.01 255.96 150.39 256.113 150.843 256.26C151.31 256.393 151.81 256.54 152.343 256.7C152.876 256.86 153.37 257.087 153.823 257.38C154.29 257.673 154.676 258.06 154.983 258.54C155.29 259.02 155.443 259.64 155.443 260.4C155.443 260.907 155.336 261.387 155.123 261.84C154.923 262.28 154.623 262.667 154.223 263C153.823 263.333 153.33 263.6 152.743 263.8C152.156 264 151.49 264.1 150.743 264.1ZM159.655 254.2H156.055V251.4H166.155V254.2H162.555V264H159.655V254.2ZM169.963 251.4H172.963L177.463 264H174.463L173.663 261.6H169.263L168.463 264H165.462L169.963 251.4ZM172.863 259.1L171.463 254.9L170.063 259.1H172.863ZM178.559 251.4H183.659C184.313 251.4 184.906 251.507 185.439 251.72C185.986 251.933 186.453 252.22 186.839 252.58C187.226 252.94 187.526 253.367 187.739 253.86C187.953 254.34 188.059 254.853 188.059 255.4C188.059 256.107 187.933 256.7 187.679 257.18C187.439 257.66 187.166 258.053 186.859 258.36C186.566 258.653 186.293 258.867 186.039 259C185.786 259.133 185.659 259.2 185.659 259.2L188.459 264H185.259L182.959 259.8H181.459V264H178.559V251.4ZM183.659 257C184.166 257 184.559 256.867 184.839 256.6C185.119 256.333 185.259 256 185.259 255.6C185.259 255.2 185.119 254.867 184.839 254.6C184.559 254.333 184.166 254.2 183.659 254.2H181.459V257H183.659ZM192.37 254.2H188.77V251.4H198.87V254.2H195.27V264H192.37V254.2ZM200.278 251.4H209.278V254.2H203.178V256.2H208.778V259H203.178V261.2H209.478V264H200.278V251.4ZM211.47 251.4H215.77C216.65 251.4 217.47 251.567 218.23 251.9C218.99 252.22 219.656 252.667 220.23 253.24C220.803 253.813 221.25 254.48 221.57 255.24C221.903 256 222.07 256.82 222.07 257.7C222.07 258.58 221.903 259.4 221.57 260.16C221.25 260.92 220.803 261.587 220.23 262.16C219.656 262.733 218.99 263.187 218.23 263.52C217.47 263.84 216.65 264 215.77 264H211.47V251.4ZM215.77 261.2C216.25 261.2 216.696 261.113 217.11 260.94C217.523 260.753 217.883 260.507 218.19 260.2C218.496 259.893 218.736 259.527 218.91 259.1C219.083 258.673 219.17 258.207 219.17 257.7C219.17 257.207 219.083 256.747 218.91 256.32C218.736 255.88 218.496 255.507 218.19 255.2C217.883 254.893 217.523 254.653 217.11 254.48C216.696 254.293 216.25 254.2 215.77 254.2H214.37V261.2H215.77Z" fill="#262B34"/>
</g>
<path d="M83.4613 187V178.48H86.0533L90.4813 183.316C90.8253 183.74 91.0493 184.06 91.1533 184.276H91.2013V183.052V178.48H93.3973V187H90.9853L86.3893 182.116C86.0613 181.74 85.8333 181.416 85.7053 181.144H85.6573V182.332V187H83.4613ZM100.342 187.3C98.606 187.3 97.218 186.888 96.178 186.064C95.146 185.232 94.63 184.124 94.63 182.74C94.63 181.356 95.146 180.252 96.178 179.428C97.218 178.596 98.606 178.18 100.342 178.18C102.07 178.18 103.454 178.596 104.494 179.428C105.534 180.252 106.054 181.356 106.054 182.74C106.054 184.124 105.534 185.232 104.494 186.064C103.454 186.888 102.07 187.3 100.342 187.3ZM98.05 184.744C98.634 185.248 99.398 185.5 100.342 185.5C101.286 185.5 102.046 185.248 102.622 184.744C103.198 184.232 103.486 183.564 103.486 182.74C103.486 181.916 103.198 181.252 102.622 180.748C102.046 180.236 101.286 179.98 100.342 179.98C99.398 179.98 98.634 180.232 98.05 180.736C97.474 181.24 97.186 181.908 97.186 182.74C97.186 183.564 97.474 184.232 98.05 184.744ZM117.737 178.48C118.849 178.48 119.721 178.732 120.353 179.236C120.985 179.74 121.301 180.432 121.301 181.312C121.301 182.224 120.973 182.952 120.317 183.496C119.661 184.032 118.785 184.3 117.689 184.3H114.377V187H111.953V178.48H117.737ZM117.137 182.668C117.641 182.668 118.033 182.556 118.313 182.332C118.601 182.108 118.745 181.788 118.745 181.372C118.745 180.964 118.605 180.652 118.325 180.436C118.053 180.22 117.661 180.112 117.149 180.112H114.377V182.668H117.137ZM129.199 187L128.419 185.284H123.679L122.899 187H120.283L124.531 178.48H127.567L131.815 187H129.199ZM124.399 183.724H127.699L126.859 181.888C126.443 181.024 126.179 180.368 126.067 179.92H126.031C125.919 180.368 125.655 181.024 125.239 181.888L124.399 183.724ZM134.143 187V184.096L129.883 178.48H132.643L135.103 181.936C135.263 182.144 135.359 182.304 135.391 182.416H135.415C135.455 182.288 135.547 182.128 135.691 181.936L138.235 178.48H140.851L136.567 184.096V187H134.143ZM149.606 182.524C150.87 182.716 151.502 183.4 151.502 184.576C151.502 185.272 151.242 185.852 150.722 186.316C150.202 186.772 149.39 187 148.286 187H141.722V178.48H148.238C149.254 178.48 150.014 178.68 150.518 179.08C151.03 179.472 151.286 179.992 151.286 180.64C151.286 181.096 151.142 181.496 150.854 181.84C150.574 182.184 150.158 182.412 149.606 182.524ZM147.578 180.064H144.146V181.924H147.578C148.378 181.924 148.778 181.596 148.778 180.94C148.778 180.356 148.378 180.064 147.578 180.064ZM147.686 185.416C148.126 185.416 148.454 185.32 148.67 185.128C148.886 184.936 148.994 184.688 148.994 184.384C148.994 184.08 148.886 183.84 148.67 183.664C148.454 183.48 148.126 183.388 147.686 183.388H144.146V185.416H147.686ZM160.737 187L159.957 185.284H155.217L154.437 187H151.821L156.069 178.48H159.105L163.353 187H160.737ZM155.937 183.724H159.237L158.397 181.888C157.981 181.024 157.717 180.368 157.605 179.92H157.569C157.457 180.368 157.193 181.024 156.777 181.888L155.937 183.724ZM168.675 187.3C166.971 187.3 165.615 186.892 164.607 186.076C163.599 185.252 163.095 184.152 163.095 182.776C163.095 181.416 163.619 180.312 164.667 179.464C165.723 178.608 167.091 178.18 168.771 178.18C170.155 178.18 171.319 178.464 172.263 179.032C173.215 179.6 173.831 180.384 174.111 181.384L171.591 181.828C171.263 180.628 170.315 180.028 168.747 180.028C167.787 180.028 167.031 180.272 166.479 180.76C165.927 181.248 165.651 181.908 165.651 182.74C165.651 183.572 165.931 184.232 166.491 184.72C167.051 185.208 167.811 185.452 168.771 185.452C170.299 185.452 171.247 184.876 171.615 183.724L174.087 184.252C173.735 185.228 173.091 185.98 172.155 186.508C171.219 187.036 170.059 187.3 168.675 187.3ZM182.749 187L179.749 183.124L177.829 184.84V187H175.405V178.48H177.829V182.44L182.365 178.48H185.353L181.597 181.72L181.573 181.732L185.569 187H182.749ZM196.183 178.48C197.295 178.48 198.167 178.732 198.799 179.236C199.431 179.74 199.747 180.432 199.747 181.312C199.747 182.224 199.419 182.952 198.763 183.496C198.107 184.032 197.231 184.3 196.135 184.3H192.823V187H190.399V178.48H196.183ZM195.583 182.668C196.087 182.668 196.479 182.556 196.759 182.332C197.047 182.108 197.191 181.788 197.191 181.372C197.191 180.964 197.051 180.652 196.771 180.436C196.499 180.22 196.107 180.112 195.595 180.112H192.823V182.668H195.583ZM203.344 185.296H209.608V187H200.92V178.48H209.524V180.184H203.344V181.888H209.32V183.472H203.344V185.296ZM218.27 187L216.242 183.988H213.782V187H211.358V178.48H217.166C217.822 178.48 218.386 178.56 218.858 178.72C219.338 178.872 219.706 179.084 219.962 179.356C220.218 179.62 220.402 179.904 220.514 180.208C220.634 180.512 220.694 180.836 220.694 181.18C220.694 181.716 220.542 182.22 220.238 182.692C219.934 183.156 219.45 183.496 218.786 183.712L221.006 187H218.27ZM213.782 180.1V182.44H216.614C217.15 182.44 217.534 182.328 217.766 182.104C218.006 181.88 218.126 181.596 218.126 181.252C218.126 180.916 218.006 180.64 217.766 180.424C217.534 180.208 217.15 180.1 216.614 180.1H213.782ZM224.772 187H222.348V178.48H224.772V187ZM231.717 187.3C229.981 187.3 228.593 186.888 227.553 186.064C226.521 185.232 226.005 184.124 226.005 182.74C226.005 181.356 226.521 180.252 227.553 179.428C228.593 178.596 229.981 178.18 231.717 178.18C233.445 178.18 234.829 178.596 235.869 179.428C236.909 180.252 237.429 181.356 237.429 182.74C237.429 184.124 236.909 185.232 235.869 186.064C234.829 186.888 233.445 187.3 231.717 187.3ZM229.425 184.744C230.009 185.248 230.773 185.5 231.717 185.5C232.661 185.5 233.421 185.248 233.997 184.744C234.573 184.232 234.861 183.564 234.861 182.74C234.861 181.916 234.573 181.252 233.997 180.748C233.421 180.236 232.661 179.98 231.717 179.98C230.773 179.98 230.009 180.232 229.425 180.736C228.849 181.24 228.561 181.908 228.561 182.74C228.561 183.564 228.849 184.232 229.425 184.744ZM238.655 187V178.48H244.067C245.659 178.48 246.911 178.84 247.823 179.56C248.743 180.272 249.203 181.284 249.203 182.596C249.203 183.916 248.723 184.98 247.763 185.788C246.803 186.596 245.555 187 244.019 187H238.655ZM241.079 185.356H243.707C244.619 185.356 245.335 185.116 245.855 184.636C246.375 184.156 246.635 183.492 246.635 182.644C246.635 181.828 246.367 181.204 245.831 180.772C245.303 180.34 244.591 180.124 243.695 180.124H241.079V185.356ZM252.192 185.032V187H249.684V185.032H252.192ZM90.3023 202V193.48H92.8943L97.3223 198.316C97.6663 198.74 97.8903 199.06 97.9943 199.276H98.0423V198.052V193.48H100.238V202H97.8263L93.2303 197.116C92.9023 196.74 92.6743 196.416 92.5463 196.144H92.4983V197.332V202H90.3023ZM107.183 202.3C105.447 202.3 104.059 201.888 103.019 201.064C101.987 200.232 101.471 199.124 101.471 197.74C101.471 196.356 101.987 195.252 103.019 194.428C104.059 193.596 105.447 193.18 107.183 193.18C108.911 193.18 110.295 193.596 111.335 194.428C112.375 195.252 112.895 196.356 112.895 197.74C112.895 199.124 112.375 200.232 111.335 201.064C110.295 201.888 108.911 202.3 107.183 202.3ZM104.891 199.744C105.475 200.248 106.239 200.5 107.183 200.5C108.127 200.5 108.887 200.248 109.463 199.744C110.039 199.232 110.327 198.564 110.327 197.74C110.327 196.916 110.039 196.252 109.463 195.748C108.887 195.236 108.127 194.98 107.183 194.98C106.239 194.98 105.475 195.232 104.891 195.736C104.315 196.24 104.027 196.908 104.027 197.74C104.027 198.564 104.315 199.232 104.891 199.744ZM123.522 202.3C121.818 202.3 120.462 201.892 119.454 201.076C118.446 200.252 117.942 199.152 117.942 197.776C117.942 196.416 118.466 195.312 119.514 194.464C120.57 193.608 121.938 193.18 123.618 193.18C125.002 193.18 126.166 193.464 127.11 194.032C128.062 194.6 128.678 195.384 128.958 196.384L126.438 196.828C126.11 195.628 125.162 195.028 123.594 195.028C122.634 195.028 121.878 195.272 121.326 195.76C120.774 196.248 120.498 196.908 120.498 197.74C120.498 198.572 120.778 199.232 121.338 199.72C121.898 200.208 122.658 200.452 123.618 200.452C125.146 200.452 126.094 199.876 126.462 198.724L128.934 199.252C128.582 200.228 127.938 200.98 127.002 201.508C126.066 202.036 124.906 202.3 123.522 202.3ZM137.164 202L135.136 198.988H132.676V202H130.252V193.48H136.06C136.716 193.48 137.28 193.56 137.752 193.72C138.232 193.872 138.6 194.084 138.856 194.356C139.112 194.62 139.296 194.904 139.408 195.208C139.528 195.512 139.588 195.836 139.588 196.18C139.588 196.716 139.436 197.22 139.132 197.692C138.828 198.156 138.344 198.496 137.68 198.712L139.9 202H137.164ZM132.676 195.1V197.44H135.508C136.044 197.44 136.428 197.328 136.66 197.104C136.9 196.88 137.02 196.596 137.02 196.252C137.02 195.916 136.9 195.64 136.66 195.424C136.428 195.208 136.044 195.1 135.508 195.1H132.676ZM143.665 200.296H149.929V202H141.241V193.48H149.845V195.184H143.665V196.888H149.641V198.472H143.665V200.296ZM151.68 202V193.48H157.092C158.684 193.48 159.936 193.84 160.848 194.56C161.768 195.272 162.228 196.284 162.228 197.596C162.228 198.916 161.748 199.98 160.788 200.788C159.828 201.596 158.58 202 157.044 202H151.68ZM154.104 200.356H156.732C157.644 200.356 158.36 200.116 158.88 199.636C159.4 199.156 159.66 198.492 159.66 197.644C159.66 196.828 159.392 196.204 158.856 195.772C158.328 195.34 157.616 195.124 156.72 195.124H154.104V200.356ZM165.89 202H163.466V193.48H165.89V202ZM176.495 193.48V195.364H172.955V202H170.531V195.364H166.991V193.48H176.495ZM185.881 202.3C184.177 202.3 182.821 201.892 181.813 201.076C180.805 200.252 180.301 199.152 180.301 197.776C180.301 196.416 180.825 195.312 181.873 194.464C182.929 193.608 184.297 193.18 185.977 193.18C187.361 193.18 188.525 193.464 189.469 194.032C190.421 194.6 191.037 195.384 191.317 196.384L188.797 196.828C188.469 195.628 187.521 195.028 185.953 195.028C184.993 195.028 184.237 195.272 183.685 195.76C183.133 196.248 182.857 196.908 182.857 197.74C182.857 198.572 183.137 199.232 183.697 199.72C184.257 200.208 185.017 200.452 185.977 200.452C187.505 200.452 188.453 199.876 188.821 198.724L191.293 199.252C190.941 200.228 190.297 200.98 189.361 201.508C188.425 202.036 187.265 202.3 185.881 202.3ZM202.583 193.48V202H200.147V198.532H195.035V202H192.611V193.48H195.035V196.84H200.147V193.48H202.583ZM207.091 200.296H213.355V202H204.667V193.48H213.271V195.184H207.091V196.888H213.067V198.472H207.091V200.296ZM219.763 202.3C218.059 202.3 216.703 201.892 215.695 201.076C214.687 200.252 214.183 199.152 214.183 197.776C214.183 196.416 214.707 195.312 215.755 194.464C216.811 193.608 218.179 193.18 219.859 193.18C221.243 193.18 222.407 193.464 223.351 194.032C224.303 194.6 224.919 195.384 225.199 196.384L222.679 196.828C222.351 195.628 221.403 195.028 219.835 195.028C218.875 195.028 218.119 195.272 217.567 195.76C217.015 196.248 216.739 196.908 216.739 197.74C216.739 198.572 217.019 199.232 217.579 199.72C218.139 200.208 218.899 200.452 219.859 200.452C221.387 200.452 222.335 199.876 222.703 198.724L225.175 199.252C224.823 200.228 224.179 200.98 223.243 201.508C222.307 202.036 221.147 202.3 219.763 202.3ZM233.837 202L230.837 198.124L228.917 199.84V202H226.493V193.48H228.917V197.44L233.453 193.48H236.441L232.685 196.72L232.661 196.732L236.657 202H233.837ZM241.684 202.3C240.436 202.3 239.34 202.108 238.396 201.724C237.452 201.332 236.76 200.796 236.32 200.116L238.048 198.904C238.416 199.424 238.924 199.836 239.572 200.14C240.22 200.436 240.964 200.584 241.804 200.584C243.316 200.584 244.072 200.252 244.072 199.588C244.072 199.324 243.968 199.132 243.76 199.012C243.56 198.884 243.208 198.792 242.704 198.736L240.088 198.448C239.04 198.336 238.26 198.076 237.748 197.668C237.244 197.252 236.992 196.656 236.992 195.88C236.992 195.032 237.392 194.372 238.192 193.9C238.992 193.42 240.116 193.18 241.564 193.18C243.78 193.18 245.412 193.768 246.46 194.944L244.924 196.228C244.26 195.324 243.1 194.872 241.444 194.872C240.092 194.872 239.416 195.172 239.416 195.772C239.416 196.028 239.52 196.216 239.728 196.336C239.936 196.456 240.312 196.544 240.856 196.6L243.196 196.84C244.38 196.96 245.228 197.212 245.74 197.596C246.26 197.98 246.52 198.564 246.52 199.348C246.52 200.292 246.1 201.02 245.26 201.532C244.42 202.044 243.228 202.3 241.684 202.3ZM250.024 200.032V202H247.516V200.032H250.024Z" fill="white"/>
<path d="M90.1209 83.98C90.1209 77.82 87.9209 73.585 81.5959 73.585H79.9459C73.8409 73.585 71.5309 77.82 71.5309 84.035V105.925C71.5309 111.81 74.1709 115.605 79.8909 115.605H81.5409C86.9309 115.605 90.1209 111.81 90.1209 105.925V83.98ZM82.4209 105.925C82.4209 107.355 82.0909 108.29 80.7159 108.29C79.3959 108.29 79.1209 107.19 79.1209 105.925V83.265C79.1209 81.56 79.5059 80.735 80.7709 80.735C82.0909 80.735 82.4209 81.56 82.4209 83.265V105.925ZM92.1073 86.675C92.1073 90.525 94.2523 92.615 97.5523 92.615H98.6523C102.007 92.615 104.042 90.36 104.042 86.675V79.635C104.042 75.895 102.007 73.75 98.6523 73.75H97.5523C94.2523 73.75 92.1073 75.785 92.1073 79.635V86.675ZM110.477 74.08L95.1323 115H99.6973L115.042 74.08H110.477ZM98.9823 87.06C98.9823 87.72 98.7623 88.16 98.0473 88.16C97.3873 88.16 97.1673 87.72 97.1673 87.06V79.195C97.1673 78.59 97.3873 78.095 98.0473 78.095C98.7623 78.095 98.9823 78.59 98.9823 79.195V87.06ZM106.022 109.39C106.022 113.24 108.167 115.275 111.467 115.275H112.567C115.922 115.275 117.957 113.075 117.957 109.39V102.35C117.957 98.61 115.922 96.41 112.567 96.41H111.467C108.167 96.41 106.022 98.5 106.022 102.35V109.39ZM111.962 110.875C111.302 110.875 111.082 110.38 111.082 109.775V101.91C111.082 101.25 111.302 100.81 111.962 100.81C112.677 100.81 112.897 101.25 112.897 101.91V109.775C112.897 110.38 112.677 110.875 111.962 110.875ZM133.62 74.08H126.305V115H133.62V74.08ZM136.254 74.08V115H142.744V92.56L148.409 115H154.624V74.08H148.134V94.98L143.129 74.08H136.254ZM161.778 115H169.093V81.285H174.318V74.08H156.553V81.285H161.778V115ZM176.241 74.08V115H191.916V107.63H183.556V97.565H189.826V90.195H183.556V81.285H191.531V74.08H176.241ZM201.186 97.51H202.726C204.211 97.51 204.651 98.06 204.651 99.93V111.865C204.651 113.68 204.981 114.56 205.311 115H212.626V114.725C212.351 114.23 212.021 113.46 212.021 111.7V97.785C212.021 94.705 210.096 93.385 208.886 92.945C210.261 92.395 212.131 90.745 212.131 87.445V80.9C212.131 76.555 209.876 74.08 205.421 74.08H193.871V115H201.186V97.51ZM201.186 80.405H202.836C204.321 80.405 204.651 80.955 204.651 82.715V88.27C204.651 90.195 204.046 90.745 202.616 90.745H201.186V80.405ZM214.509 74.08V115H230.184V107.63H221.824V97.565H228.094V90.195H221.824V81.285H229.799V74.08H214.509ZM239.894 115.495H241.324C247.374 115.495 250.234 111.48 250.234 105.375V103.45C250.234 99.985 249.464 97.07 245.779 92.945L241.599 88.27C239.784 86.235 239.344 84.915 239.344 82.99V82.055C239.344 80.68 239.674 79.855 240.939 79.855C242.259 79.855 242.534 80.68 242.534 82V87.115H249.574V81.615C249.574 76.225 247.429 73.585 241.709 73.585H240.224C235.109 73.585 231.919 76.5 231.919 81.725V83.485C231.919 87.335 232.799 90.58 235.824 93.88L240.059 98.555C242.204 100.92 242.424 102.075 242.424 104.935V105.705C242.424 107.685 241.874 108.675 240.609 108.675C239.289 108.675 238.739 107.85 238.739 106.2V99.655H231.534V107.025C231.534 112.525 234.339 115.495 239.894 115.495ZM256.481 115H263.796V81.285H269.021V74.08H251.256V81.285H256.481V115Z" fill="#FF5800"/>
<path d="M74.6231 124.08V165H89.6931V157.63H81.9381V124.08H74.6231ZM110.424 133.98C110.424 127.71 108.114 123.585 101.679 123.585H100.029C93.7038 123.585 91.2288 127.71 91.2288 134.035V155.65C91.2288 162.03 94.3088 165.605 100.084 165.605H101.734C107.234 165.605 110.424 161.645 110.424 155.65V133.98ZM102.779 155.87C102.779 157.135 102.394 158.29 100.909 158.29C99.3688 158.29 98.8738 157.135 98.8738 155.87V133.43C98.8738 131.615 99.4238 130.735 100.854 130.735C102.174 130.735 102.779 131.615 102.779 133.43V155.87ZM123.624 165H130.719L125.164 124.08H116.474L111.304 165H117.794L118.509 158.125H122.909L123.624 165ZM122.139 151.085H119.224L120.654 137.005L122.139 151.085ZM132.079 124.08V165H138.569V142.56L144.234 165H150.449V124.08H143.959V144.98L138.954 124.08H132.079ZM178.312 133.98C178.312 127.71 176.002 123.585 169.567 123.585H167.917C161.592 123.585 159.117 127.71 159.117 134.035V155.65C159.117 162.03 162.197 165.605 167.972 165.605H169.622C175.122 165.605 178.312 161.645 178.312 155.65V133.98ZM170.667 155.87C170.667 157.135 170.282 158.29 168.797 158.29C167.257 158.29 166.762 157.135 166.762 155.87V133.43C166.762 131.615 167.312 130.735 168.742 130.735C170.062 130.735 170.667 131.615 170.667 133.43V155.87ZM180.78 124.08V165H187.27V142.56L192.935 165H199.15V124.08H192.66V144.98L187.655 124.08H180.78ZM207.983 165H220.028C224.483 165 226.738 162.25 226.738 155.815V148.995C226.738 144.65 224.758 143.11 222.668 142.56C224.153 142.065 226.133 140.195 226.133 136.84V131.395C226.133 126.005 223.933 124.08 219.038 124.08H207.983V165ZM217.058 130.35C218.433 130.35 218.928 131.065 218.928 132.55V137.665C218.928 139.535 218.158 140.085 216.948 140.085H215.298V130.35H217.058ZM217.058 146.685C218.708 146.685 219.203 147.455 219.203 149.16V155.815C219.203 158.125 218.543 158.51 217.333 158.51H215.298V146.685H217.058ZM232.97 165H240.285V131.285H245.51V124.08H227.745V131.285H232.97V165ZM256.568 158.455C255.248 158.455 254.698 157.575 254.698 155.98V132.88C254.698 131.285 255.138 130.515 256.513 130.515C257.888 130.515 258.383 131.34 258.383 132.88V139.48H265.643V132.605C265.643 127.93 264.158 123.585 257.173 123.585H255.688C249.198 123.585 247.053 127.93 247.053 132.88V155.98C247.053 161.095 248.648 165.66 255.688 165.66H257.173C263.663 165.66 265.643 161.095 265.643 156.2V146.96H258.383V155.98C258.383 157.465 257.888 158.455 256.568 158.455Z" fill="white"/>
<path d="M141.654 25.8479L136.806 21L133.945 23.8606C127.17 19.6149 118.197 21.6624 113.951 28.4375C111 33.1651 111 39.1573 113.951 43.8547L111 46.8056L115.848 51.6536L118.859 48.6425C125.755 52.7075 134.668 50.419 138.733 43.5235C141.413 38.9766 141.413 33.3157 138.733 28.7688L141.654 25.8479ZM117.805 36.1461C117.805 31.4789 121.599 27.6848 126.267 27.6848C127.381 27.6848 128.495 27.8956 129.519 28.3171L118.468 39.3681C118.016 38.3443 117.805 37.2603 117.805 36.1461ZM134.728 36.1461C134.728 40.8134 130.964 44.6075 126.297 44.6075C125.303 44.6075 124.339 44.4268 123.406 44.0956L134.216 33.2855C134.547 34.1889 134.728 35.1525 134.728 36.1461Z" fill="white"/>
<path d="M165.797 44.7881V41.9098H153.76L165.25 30.3249C165.654 29.9205 165.868 29.4923 165.868 29.0404C165.868 28.0175 165.036 27.4941 164.155 27.4941H149.026V30.3725H160.92L149.431 41.9573C149.026 42.3617 148.812 42.7899 148.812 43.2419C148.812 44.2648 149.621 44.7881 150.525 44.7881H165.797Z" fill="white"/>
<path d="M183.894 44.7881V41.767H171.429V30.5152H183.87V27.4941H168.431V44.7881H183.894ZM183.228 37.2711V34.7257H173.641V37.2711H183.228Z" fill="white"/>
<path d="M206.821 44.7881L201.611 39.531C203.847 38.6746 205.179 36.6526 205.179 33.798C205.179 29.9443 202.848 27.4941 198.899 27.4941H186.482V44.7881H189.479V30.5152H198.899C200.969 30.5152 202.206 31.6095 202.206 33.8456C202.206 36.0817 201.064 37.3187 198.899 37.3187H191.691V39.9829H198.162L202.539 44.7881H206.821Z" fill="white"/>
<path d="M220.101 44.7881C225.026 44.7881 228.57 40.982 228.57 35.9627C228.57 30.9434 225.097 27.4941 220.101 27.4941H215.891C211.062 27.4941 207.494 30.8721 207.494 35.9627C207.494 40.982 211.062 44.7881 215.891 44.7881H220.101ZM215.891 41.767C212.775 41.767 210.515 39.3644 210.515 36.1055C210.515 32.8227 212.798 30.5152 215.891 30.5152H220.101C223.289 30.5152 225.549 32.8465 225.549 36.1055C225.549 39.3644 223.289 41.767 220.101 41.767H215.891Z" fill="white"/>
<defs>
<filter id="filter0_d_9376_38366" x="16" y="238" width="297" height="44" filterUnits="userSpaceOnUse" color-interpolation-filters="sRGB">
<feFlood flood-opacity="0" result="BackgroundImageFix"/>
<feColorMatrix in="SourceAlpha" type="matrix" values="0 0 0 0 0 0 0 0 0 0 0 0 0 0 0 0 0 0 127 0" result="hardAlpha"/>
<feOffset dx="1" dy="4"/>
<feComposite in2="hardAlpha" operator="out"/>
<feColorMatrix type="matrix" values="0 0 0 0 1 0 0 0 0 0.345098 0 0 0 0 0 0 0 0 0.51 0"/>
<feBlend mode="normal" in2="BackgroundImageFix" result="effect1_dropShadow_9376_38366"/>
<feBlend mode="normal" in="SourceGraphic" in2="effect1_dropShadow_9376_38366" result="shape"/>
</filter>
</defs>
</svg>
