<svg xmlns="http://www.w3.org/2000/svg" fill="none" viewBox="0 0 328 294">
  <g class="layer">
    <title>Layer 1</title>
    <g id="svg_2">
      <svg height="294" id="svg_3" viewBox="0 0 328 294" width="328" xmlns="http://www.w3.org/2000/svg">
        <rect fill="#FF5800" height="294" id="svg_4" rx="4" width="328"/>
        <rect fill="#262B34" height="284.11" id="svg_5" rx="4" transform="matrix(1 0 0 1 0 0)" width="318" x="5" y="5"/>
        <g id="svg_6">
          <rect fill="#954219" height="40" id="svg_26" rx="20" width="296" x="16.5" y="242"/>
          <rect fill="#fff" height="40" id="svg_7" rx="20" width="296" x="16" y="238"/>
          <path d="m112.13,264.1c-0.85,0 -1.66,-0.16 -2.42,-0.48a6.3,6.3 0 0 1 -1.96,-1.36a6.86,6.86 0 0 1 -1.34,-2.04a6.52,6.52 0 0 1 -0.48,-2.52c0,-0.89 0.16,-1.73 0.48,-2.5a6.52,6.52 0 0 1 1.34,-2.04a5.88,5.88 0 0 1 1.96,-1.36c0.76,-0.33 1.57,-0.5 2.42,-0.5c0.75,0 1.43,0.12 2.06,0.36c0.64,0.24 1.2,0.57 1.68,0.98c0.49,0.4 0.91,0.87 1.24,1.4c0.33,0.53 0.57,1.09 0.72,1.66l-3,0.2a2.8,2.8 0 0 0 -0.34,-0.66a2.5,2.5 0 0 0 -1.36,-0.98a2.91,2.91 0 0 0 -1,-0.16c-0.46,0 -0.88,0.09 -1.28,0.28c-0.4,0.17 -0.76,0.42 -1.06,0.74c-0.3,0.32 -0.53,0.7 -0.7,1.14c-0.18,0.44 -0.26,0.92 -0.26,1.44c0,0.52 0.08,1 0.26,1.44c0.17,0.44 0.4,0.82 0.7,1.14c0.3,0.32 0.66,0.57 1.06,0.76c0.4,0.17 0.82,0.26 1.28,0.26c0.4,0 0.75,-0.05 1.06,-0.14c0.32,-0.11 0.59,-0.24 0.82,-0.4a2.59,2.59 0 0 0 0.92,-1.16l-2.8,0l0,-2.4l6.1,0l0,6.8l-2,0l-0.5,-1.2c-0.3,0.25 -0.62,0.47 -0.98,0.66c-0.31,0.16 -0.68,0.31 -1.12,0.44c-0.44,0.13 -0.94,0.2 -1.5,0.2zm8.3,-12.7l9,0l0,2.8l-6.1,0l0,2l5.6,0l0,2.8l-5.6,0l0,2.2l6.3,0l0,2.8l-9.2,0l0,-12.6zm13.8,2.8l-3.6,0l0,-2.8l10.1,0l0,2.8l-3.6,0l0,9.8l-2.9,0l0,-9.8zm16.51,9.9c-0.72,0 -1.36,-0.1 -1.94,-0.3c-0.57,-0.2 -1.06,-0.48 -1.46,-0.84a3.98,3.98 0 0 1 -0.9,-1.3c-0.2,-0.51 -0.3,-1.06 -0.3,-1.66l2.8,-0.2c0,1.13 0.6,1.7 1.8,1.7c0.56,0 0.98,-0.13 1.26,-0.38c0.3,-0.27 0.44,-0.57 0.44,-0.92c0,-0.32 -0.15,-0.57 -0.46,-0.74a6.14,6.14 0 0 0 -1.16,-0.48c-0.45,-0.15 -0.94,-0.3 -1.48,-0.46a6.59,6.59 0 0 1 -1.5,-0.66a3.87,3.87 0 0 1 -1.14,-1.14c-0.3,-0.47 -0.46,-1.07 -0.46,-1.82c0,-0.48 0.1,-0.93 0.3,-1.36c0.22,-0.44 0.52,-0.82 0.9,-1.14a4.48,4.48 0 0 1 1.4,-0.8c0.56,-0.2 1.2,-0.3 1.9,-0.3c0.68,0 1.29,0.1 1.82,0.3c0.55,0.2 1.01,0.48 1.38,0.84c0.39,0.36 0.68,0.79 0.88,1.28c0.22,0.48 0.32,1.01 0.32,1.58l-2.8,0.2c0,-0.51 -0.14,-0.9 -0.42,-1.18c-0.28,-0.28 -0.67,-0.42 -1.18,-0.42c-0.45,0 -0.82,0.13 -1.1,0.38c-0.26,0.24 -0.4,0.51 -0.4,0.82c0,0.31 0.16,0.54 0.46,0.7c0.31,0.16 0.69,0.31 1.14,0.46c0.47,0.13 0.97,0.28 1.5,0.44c0.54,0.16 1.03,0.39 1.48,0.68c0.47,0.29 0.86,0.68 1.16,1.16c0.31,0.48 0.46,1.1 0.46,1.86c0,0.51 -0.1,0.99 -0.32,1.44c-0.2,0.44 -0.5,0.83 -0.9,1.16c-0.4,0.33 -0.89,0.6 -1.48,0.8c-0.58,0.2 -1.25,0.3 -2,0.3zm8.92,-9.9l-3.6,0l0,-2.8l10.1,0l0,2.8l-3.6,0l0,9.8l-2.9,0l0,-9.8zm10.3,-2.8l3,0l4.5,12.6l-3,0l-0.8,-2.4l-4.4,0l-0.8,2.4l-3,0l4.5,-12.6zm2.9,7.7l-1.4,-4.2l-1.4,4.2l2.8,0zm5.7,-7.7l5.1,0c0.65,0 1.25,0.11 1.78,0.32a4.33,4.33 0 0 1 1.4,0.86c0.39,0.36 0.69,0.79 0.9,1.28c0.21,0.48 0.32,0.99 0.32,1.54c0,0.71 -0.13,1.3 -0.38,1.78c-0.24,0.48 -0.51,0.87 -0.82,1.18c-0.29,0.29 -0.57,0.51 -0.82,0.64l-0.38,0.2l2.8,4.8l-3.2,0l-2.3,-4.2l-1.5,0l0,4.2l-2.9,0l0,-12.6zm5.1,5.6c0.51,0 0.9,-0.13 1.18,-0.4c0.28,-0.27 0.42,-0.6 0.42,-1s-0.14,-0.73 -0.42,-1c-0.28,-0.27 -0.67,-0.4 -1.18,-0.4l-2.2,0l0,2.8l2.2,0zm8.71,-2.8l-3.6,0l0,-2.8l10.1,0l0,2.8l-3.6,0l0,9.8l-2.9,0l0,-9.8zm7.91,-2.8l9,0l0,2.8l-6.1,0l0,2l5.6,0l0,2.8l-5.6,0l0,2.2l6.3,0l0,2.8l-9.2,0l0,-12.6zm11.19,0l4.3,0c0.88,0 1.7,0.17 2.46,0.5a6.22,6.22 0 0 1 3.34,3.34c0.33,0.76 0.5,1.58 0.5,2.46c0,0.88 -0.17,1.7 -0.5,2.46a6.21,6.21 0 0 1 -1.34,2a6.49,6.49 0 0 1 -2,1.36c-0.76,0.32 -1.58,0.48 -2.46,0.48l-4.3,0l0,-12.6zm4.3,9.8c0.48,0 0.93,-0.09 1.34,-0.26a3.63,3.63 0 0 0 1.08,-0.74c0.31,-0.31 0.55,-0.67 0.72,-1.1c0.17,-0.43 0.26,-0.89 0.26,-1.4a3.64,3.64 0 0 0 -0.26,-1.38a3.26,3.26 0 0 0 -0.72,-1.12a3.33,3.33 0 0 0 -1.08,-0.72a3.21,3.21 0 0 0 -1.34,-0.28l-1.4,0l0,7l1.4,0z" fill="#262B34" id="svg_8"/>
        </g>
        <path d="m83.46,187l0,-8.52l2.59,0l4.43,4.84c0.35,0.42 0.57,0.74 0.67,0.96l0.05,0l0,-1.23l0,-4.57l2.2,0l0,8.52l-2.41,0l-4.6,-4.88c-0.33,-0.38 -0.56,-0.7 -0.68,-0.98l-0.05,0l0,1.19l0,4.67l-2.2,0zm16.88,0.3c-1.73,0 -3.12,-0.41 -4.16,-1.24c-1.03,-0.83 -1.55,-1.94 -1.55,-3.32c0,-1.38 0.52,-2.49 1.55,-3.31c1.04,-0.83 2.43,-1.25 4.16,-1.25c1.73,0 3.11,0.42 4.15,1.25c1.04,0.82 1.56,1.93 1.56,3.31c0,1.38 -0.52,2.49 -1.56,3.32c-1.04,0.83 -2.42,1.24 -4.15,1.24zm-2.29,-2.56c0.58,0.51 1.35,0.76 2.29,0.76c0.95,0 1.71,-0.25 2.28,-0.76c0.58,-0.51 0.87,-1.18 0.87,-2c0,-0.82 -0.29,-1.49 -0.87,-1.99c-0.57,-0.51 -1.33,-0.77 -2.28,-0.77c-0.94,0 -1.71,0.25 -2.29,0.76c-0.58,0.5 -0.86,1.17 -0.86,2c0,0.82 0.28,1.49 0.86,2zm19.69,-6.26c1.11,0 1.98,0.25 2.61,0.76c0.63,0.5 0.95,1.19 0.95,2.07c0,0.91 -0.33,1.64 -0.98,2.19c-0.66,0.53 -1.54,0.8 -2.63,0.8l-3.31,0l0,2.7l-2.43,0l0,-8.52l5.79,0zm-0.6,4.19c0.5,0 0.89,-0.11 1.17,-0.34c0.29,-0.22 0.44,-0.54 0.44,-0.96c0,-0.41 -0.14,-0.72 -0.42,-0.93c-0.28,-0.22 -0.67,-0.33 -1.18,-0.33l-2.77,0l0,2.56l2.76,0zm12.06,4.33l-0.78,-1.72l-4.74,0l-0.78,1.72l-2.62,0l4.25,-8.52l3.04,0l4.24,8.52l-2.61,0zm-4.8,-3.28l3.3,0l-0.84,-1.83c-0.42,-0.87 -0.68,-1.52 -0.79,-1.97l-0.04,0c-0.11,0.45 -0.37,1.1 -0.79,1.97l-0.84,1.83zm9.74,3.28l0,-2.9l-4.26,-5.62l2.76,0l2.46,3.46c0.16,0.2 0.26,0.36 0.29,0.48l0.02,0c0.05,-0.13 0.14,-0.29 0.28,-0.48l2.55,-3.46l2.61,0l-4.28,5.62l0,2.9l-2.43,0zm15.47,-4.48c1.26,0.2 1.89,0.88 1.89,2.06c0,0.69 -0.26,1.27 -0.78,1.74c-0.52,0.45 -1.33,0.68 -2.43,0.68l-6.57,0l0,-8.52l6.52,0c1.01,0 1.77,0.2 2.28,0.6c0.51,0.39 0.77,0.91 0.77,1.56c0,0.46 -0.15,0.86 -0.44,1.2c-0.28,0.34 -0.69,0.57 -1.24,0.68zm-2.03,-2.46l-3.43,0l0,1.86l3.43,0c0.8,0 1.2,-0.32 1.2,-0.98c0,-0.58 -0.4,-0.88 -1.2,-0.88zm0.11,5.36c0.44,0 0.76,-0.1 0.98,-0.29c0.22,-0.19 0.32,-0.44 0.32,-0.75c0,-0.3 -0.1,-0.54 -0.32,-0.72c-0.22,-0.18 -0.54,-0.27 -0.98,-0.27l-3.54,0l0,2.03l3.54,0zm13.05,1.58l-0.78,-1.72l-4.74,0l-0.78,1.72l-2.62,0l4.25,-8.52l3.03,0l4.25,8.52l-2.61,0zm-4.8,-3.28l3.3,0l-0.84,-1.83c-0.42,-0.87 -0.68,-1.52 -0.8,-1.97l-0.03,0c-0.11,0.45 -0.38,1.1 -0.79,1.97l-0.84,1.83zm12.74,3.58c-1.71,0 -3.06,-0.41 -4.07,-1.22c-1.01,-0.83 -1.52,-1.93 -1.52,-3.3c0,-1.36 0.53,-2.47 1.58,-3.32c1.05,-0.85 2.42,-1.28 4.1,-1.28c1.39,0 2.55,0.28 3.49,0.85c0.96,0.57 1.57,1.35 1.85,2.35l-2.52,0.45c-0.33,-1.2 -1.28,-1.8 -2.84,-1.8c-0.96,0 -1.72,0.24 -2.27,0.73c-0.55,0.49 -0.83,1.15 -0.83,1.98c0,0.83 0.28,1.49 0.84,1.98c0.56,0.49 1.32,0.73 2.28,0.73c1.53,0 2.48,-0.57 2.85,-1.73l2.47,0.53c-0.35,0.98 -1,1.73 -1.93,2.26c-0.94,0.53 -2.1,0.79 -3.48,0.79zm14.07,-0.3l-3,-3.88l-1.92,1.72l0,2.16l-2.42,0l0,-8.52l2.42,0l0,3.96l4.54,-3.96l2.98,0l-3.75,3.24l-0.03,0.01l4,5.27l-2.82,0zm13.43,-8.52c1.11,0 1.99,0.25 2.62,0.76c0.63,0.5 0.95,1.19 0.95,2.07c0,0.91 -0.33,1.64 -0.99,2.19c-0.65,0.53 -1.53,0.8 -2.63,0.8l-3.31,0l0,2.7l-2.42,0l0,-8.52l5.78,0zm-0.6,4.19c0.51,0 0.9,-0.11 1.18,-0.34c0.29,-0.22 0.43,-0.54 0.43,-0.96c0,-0.41 -0.14,-0.72 -0.42,-0.93c-0.27,-0.22 -0.66,-0.33 -1.18,-0.33l-2.77,0l0,2.56l2.76,0zm7.76,2.63l6.27,0l0,1.7l-8.69,0l0,-8.52l8.6,0l0,1.7l-6.18,0l0,1.71l5.98,0l0,1.58l-5.98,0l0,1.83zm14.93,1.7l-2.03,-3.01l-2.46,0l0,3.01l-2.42,0l0,-8.52l5.81,0c0.65,0 1.22,0.08 1.69,0.24c0.48,0.15 0.85,0.36 1.1,0.64c0.26,0.26 0.44,0.54 0.55,0.85c0.12,0.3 0.18,0.63 0.18,0.97c0,0.54 -0.15,1.04 -0.45,1.51c-0.31,0.47 -0.79,0.81 -1.45,1.02l2.22,3.29l-2.74,0zm-4.49,-6.9l0,2.34l2.83,0c0.54,0 0.92,-0.11 1.16,-0.34c0.24,-0.22 0.36,-0.5 0.36,-0.85c0,-0.33 -0.12,-0.61 -0.36,-0.83c-0.24,-0.21 -0.62,-0.32 -1.16,-0.32l-2.83,0zm10.99,6.9l-2.42,0l0,-8.52l2.42,0l0,8.52zm6.95,0.3c-1.74,0 -3.13,-0.41 -4.17,-1.24c-1.03,-0.83 -1.55,-1.94 -1.55,-3.32c0,-1.38 0.52,-2.49 1.55,-3.31c1.04,-0.83 2.43,-1.25 4.17,-1.25c1.72,0 3.11,0.42 4.15,1.25c1.04,0.82 1.56,1.93 1.56,3.31c0,1.38 -0.52,2.49 -1.56,3.32c-1.04,0.83 -2.43,1.24 -4.15,1.24zm-2.29,-2.56c0.58,0.51 1.34,0.76 2.29,0.76c0.94,0 1.7,-0.25 2.28,-0.76c0.57,-0.51 0.86,-1.18 0.86,-2c0,-0.82 -0.29,-1.49 -0.86,-1.99c-0.58,-0.51 -1.34,-0.77 -2.28,-0.77c-0.95,0 -1.71,0.25 -2.29,0.76c-0.58,0.5 -0.87,1.17 -0.87,2c0,0.82 0.29,1.49 0.87,2zm9.23,2.26l0,-8.52l5.41,0c1.59,0 2.84,0.36 3.75,1.08c0.92,0.71 1.38,1.72 1.38,3.04c0,1.32 -0.48,2.38 -1.44,3.19c-0.96,0.81 -2.2,1.21 -3.74,1.21l-5.36,0zm2.42,-1.64l2.63,0c0.91,0 1.63,-0.24 2.14,-0.72c0.53,-0.48 0.78,-1.15 0.78,-2c0,-0.81 -0.26,-1.44 -0.8,-1.87c-0.53,-0.43 -1.24,-0.65 -2.14,-0.65l-2.61,0l0,5.24zm11.11,-0.33l0,1.97l-2.51,0l0,-1.97l2.51,0zm-161.89,16.97l0,-8.52l2.59,0l4.43,4.84c0.35,0.42 0.57,0.74 0.67,0.96l0.05,0l0,-1.23l0,-4.57l2.2,0l0,8.52l-2.41,0l-4.6,-4.88c-0.33,-0.38 -0.56,-0.7 -0.68,-0.98l-0.05,0l0,1.19l0,4.67l-2.2,0zm16.88,0.3c-1.73,0 -3.12,-0.41 -4.16,-1.24c-1.03,-0.83 -1.55,-1.94 -1.55,-3.32c0,-1.38 0.52,-2.49 1.55,-3.31c1.04,-0.83 2.43,-1.25 4.16,-1.25c1.73,0 3.12,0.42 4.15,1.25c1.05,0.82 1.56,1.93 1.56,3.31c0,1.38 -0.51,2.49 -1.56,3.32c-1.03,0.83 -2.42,1.24 -4.15,1.24zm-2.29,-2.56c0.58,0.51 1.35,0.76 2.29,0.76c0.95,0 1.71,-0.25 2.28,-0.76c0.58,-0.51 0.87,-1.18 0.87,-2c0,-0.82 -0.29,-1.49 -0.87,-1.99c-0.57,-0.51 -1.33,-0.77 -2.28,-0.77c-0.94,0 -1.71,0.25 -2.29,0.76c-0.58,0.5 -0.86,1.17 -0.86,2c0,0.82 0.28,1.49 0.86,2zm18.63,2.56c-1.7,0 -3.06,-0.41 -4.07,-1.22c-1,-0.83 -1.51,-1.93 -1.51,-3.3c0,-1.36 0.53,-2.47 1.57,-3.32c1.06,-0.85 2.43,-1.28 4.11,-1.28c1.38,0 2.55,0.28 3.49,0.85c0.95,0.57 1.57,1.35 1.85,2.35l-2.52,0.45c-0.33,-1.2 -1.28,-1.8 -2.85,-1.8c-0.96,0 -1.71,0.24 -2.26,0.73c-0.56,0.49 -0.83,1.15 -0.83,1.98c0,0.83 0.28,1.49 0.84,1.98c0.56,0.49 1.32,0.73 2.28,0.73c1.53,0 2.47,-0.57 2.84,-1.73l2.47,0.53c-0.35,0.98 -0.99,1.73 -1.93,2.26c-0.93,0.53 -2.09,0.79 -3.48,0.79zm13.64,-0.3l-2.02,-3.01l-2.46,0l0,3.01l-2.43,0l0,-8.52l5.81,0c0.66,0 1.22,0.08 1.69,0.24c0.48,0.15 0.85,0.36 1.11,0.64c0.25,0.26 0.44,0.54 0.55,0.85c0.12,0.3 0.18,0.63 0.18,0.97c0,0.54 -0.15,1.04 -0.46,1.51c-0.3,0.47 -0.79,0.81 -1.45,1.02l2.22,3.29l-2.74,0zm-4.48,-6.9l0,2.34l2.83,0c0.53,0 0.92,-0.11 1.15,-0.34c0.24,-0.22 0.36,-0.5 0.36,-0.85c0,-0.33 -0.12,-0.61 -0.36,-0.83c-0.23,-0.21 -0.62,-0.32 -1.15,-0.32l-2.83,0zm10.98,5.2l6.27,0l0,1.7l-8.69,0l0,-8.52l8.6,0l0,1.7l-6.18,0l0,1.71l5.98,0l0,1.58l-5.98,0l0,1.83zm8.02,1.7l0,-8.52l5.41,0c1.59,0 2.85,0.36 3.76,1.08c0.92,0.71 1.38,1.72 1.38,3.04c0,1.32 -0.48,2.38 -1.44,3.19c-0.96,0.81 -2.21,1.21 -3.75,1.21l-5.36,0zm2.42,-1.64l2.63,0c0.91,0 1.63,-0.24 2.15,-0.72c0.52,-0.48 0.78,-1.15 0.78,-2c0,-0.81 -0.27,-1.44 -0.8,-1.87c-0.53,-0.43 -1.24,-0.65 -2.14,-0.65l-2.62,0l0,5.24zm11.79,1.64l-2.42,0l0,-8.52l2.42,0l0,8.52zm10.61,-8.52l0,1.88l-3.54,0l0,6.64l-2.43,0l0,-6.64l-3.54,0l0,-1.88l9.51,0zm9.38,8.82c-1.7,0 -3.06,-0.41 -4.07,-1.22c-1,-0.83 -1.51,-1.93 -1.51,-3.3c0,-1.36 0.52,-2.47 1.57,-3.32c1.06,-0.85 2.43,-1.28 4.11,-1.28c1.38,0 2.55,0.28 3.49,0.85c0.95,0.57 1.57,1.35 1.85,2.35l-2.52,0.45c-0.33,-1.2 -1.28,-1.8 -2.85,-1.8c-0.96,0 -1.71,0.24 -2.26,0.73c-0.56,0.49 -0.83,1.15 -0.83,1.98c0,0.83 0.28,1.49 0.84,1.98c0.56,0.49 1.32,0.73 2.28,0.73c1.52,0 2.47,-0.57 2.84,-1.73l2.47,0.53c-0.35,0.98 -0.99,1.73 -1.93,2.26c-0.93,0.53 -2.1,0.79 -3.48,0.79zm16.7,-8.82l0,8.52l-2.43,0l0,-3.47l-5.12,0l0,3.47l-2.42,0l0,-8.52l2.42,0l0,3.36l5.12,0l0,-3.36l2.43,0zm4.51,6.82l6.26,0l0,1.7l-8.68,0l0,-8.52l8.6,0l0,1.7l-6.18,0l0,1.71l5.98,0l0,1.58l-5.98,0l0,1.83zm12.67,2c-1.7,0 -3.06,-0.41 -4.07,-1.22c-1,-0.83 -1.51,-1.93 -1.51,-3.3c0,-1.36 0.53,-2.47 1.57,-3.32c1.06,-0.85 2.43,-1.28 4.11,-1.28c1.38,0 2.55,0.28 3.49,0.85c0.95,0.57 1.57,1.35 1.85,2.35l-2.52,0.45c-0.33,-1.2 -1.28,-1.8 -2.84,-1.8c-0.96,0 -1.72,0.24 -2.27,0.73c-0.56,0.49 -0.83,1.15 -0.83,1.98c0,0.83 0.28,1.49 0.84,1.98c0.56,0.49 1.32,0.73 2.28,0.73c1.53,0 2.48,-0.57 2.84,-1.73l2.48,0.53c-0.36,0.98 -1,1.73 -1.94,2.26c-0.93,0.53 -2.09,0.79 -3.48,0.79zm14.08,-0.3l-3,-3.88l-1.92,1.72l0,2.16l-2.43,0l0,-8.52l2.43,0l0,3.96l4.53,-3.96l2.99,0l-3.75,3.24l-0.03,0.01l4,5.27l-2.82,0zm7.84,0.3c-1.24,0 -2.34,-0.19 -3.28,-0.58c-0.95,-0.39 -1.64,-0.92 -2.08,-1.6l1.73,-1.22c0.37,0.52 0.87,0.94 1.52,1.24c0.65,0.3 1.39,0.44 2.23,0.44c1.52,0 2.27,-0.33 2.27,-0.99c0,-0.27 -0.1,-0.46 -0.31,-0.58c-0.2,-0.13 -0.55,-0.22 -1.06,-0.27l-2.61,-0.29c-1.05,-0.11 -1.83,-0.37 -2.34,-0.78c-0.51,-0.42 -0.76,-1.01 -0.76,-1.79c0,-0.85 0.4,-1.51 1.2,-1.98c0.8,-0.48 1.93,-0.72 3.37,-0.72c2.22,0 3.85,0.59 4.9,1.76l-1.54,1.29c-0.66,-0.91 -1.82,-1.36 -3.48,-1.36c-1.35,0 -2.02,0.3 -2.02,0.9c0,0.26 0.1,0.45 0.31,0.57c0.21,0.12 0.58,0.2 1.13,0.26l2.34,0.24c1.18,0.12 2.03,0.37 2.54,0.76c0.52,0.38 0.78,0.96 0.78,1.75c0,0.94 -0.42,1.67 -1.26,2.18c-0.84,0.51 -2.03,0.77 -3.58,0.77zm8.34,-2.27l0,1.97l-2.5,0l0,-1.97l2.5,0z" fill="white" id="svg_9"/>
        <path d="m90.12,83.98c0,-6.16 -2.2,-10.4 -8.52,-10.4l-1.65,0c-6.11,0 -8.42,4.24 -8.42,10.45l0,21.89c0,5.89 2.64,9.69 8.36,9.69l1.65,0c5.39,0 8.58,-3.8 8.58,-9.69l0,-21.94zm-7.7,21.94c0,1.44 -0.33,2.37 -1.7,2.37c-1.32,0 -1.6,-1.1 -1.6,-2.37l0,-22.65c0,-1.71 0.39,-2.54 1.65,-2.54c1.32,0 1.65,0.83 1.65,2.54l0,22.65zm9.69,-19.25c0,3.86 2.14,5.94 5.44,5.94l1.1,0c3.36,0 5.39,-2.25 5.39,-5.94l0,-7.03c0,-3.75 -2.03,-5.89 -5.39,-5.89l-1.1,0c-3.3,0 -5.44,2.03 -5.44,5.89l0,7.03zm18.37,-12.59l-15.35,40.92l4.57,0l15.34,-40.92l-4.56,0zm-11.5,12.98c0,0.66 -0.22,1.1 -0.93,1.1c-0.66,0 -0.88,-0.44 -0.88,-1.1l0,-7.87c0,-0.6 0.22,-1.1 0.88,-1.1c0.71,0 0.93,0.5 0.93,1.1l0,7.87zm7.04,22.33c0,3.85 2.15,5.89 5.45,5.89l1.1,0c3.35,0 5.39,-2.2 5.39,-5.89l0,-7.04c0,-3.74 -2.04,-5.94 -5.39,-5.94l-1.1,0c-3.3,0 -5.45,2.09 -5.45,5.94l0,7.04zm5.94,1.49c-0.66,0 -0.88,-0.5 -0.88,-1.1l0,-7.87c0,-0.66 0.22,-1.1 0.88,-1.1c0.72,0 0.94,0.44 0.94,1.1l0,7.87c0,0.6 -0.22,1.1 -0.94,1.1zm21.66,-36.8l-7.31,0l0,40.92l7.31,0l0,-40.92zm2.63,0l0,40.92l6.49,0l0,-22.44l5.67,22.44l6.21,0l0,-40.92l-6.49,0l0,20.9l-5,-20.9l-6.88,0zm25.53,40.92l7.31,0l0,-33.72l5.23,0l0,-7.2l-17.77,0l0,7.2l5.23,0l0,33.72zm14.46,-40.92l0,40.92l15.68,0l0,-7.37l-8.36,0l0,-10.07l6.27,0l0,-7.37l-6.27,0l0,-8.91l7.97,0l0,-7.2l-15.29,0zm24.95,23.43l1.54,0c1.48,0 1.92,0.55 1.92,2.42l0,11.93c0,1.82 0.33,2.7 0.66,3.14l7.32,0l0,-0.28c-0.28,-0.49 -0.61,-1.26 -0.61,-3.02l0,-13.92c0,-3.08 -1.92,-4.39 -3.13,-4.84c1.37,-0.55 3.24,-2.19 3.24,-5.5l0,-6.54c0,-4.34 -2.25,-6.82 -6.71,-6.82l-11.55,0l0,40.92l7.32,0l0,-17.49zm0,-17.1l1.65,0c1.48,0 1.81,0.54 1.81,2.31l0,5.55c0,1.92 -0.6,2.48 -2.03,2.48l-1.43,0l0,-10.34zm13.32,-6.33l0,40.92l15.67,0l0,-7.37l-8.36,0l0,-10.07l6.27,0l0,-7.37l-6.27,0l0,-8.91l7.98,0l0,-7.2l-15.29,0zm25.38,41.42l1.43,0c6.05,0 8.91,-4.02 8.91,-10.12l0,-1.93c0,-3.47 -0.77,-6.38 -4.45,-10.51l-4.18,-4.67c-1.82,-2.04 -2.26,-3.35 -2.26,-5.28l0,-0.93c0,-1.38 0.33,-2.2 1.6,-2.2c1.32,0 1.59,0.82 1.59,2.14l0,5.11l7.04,0l0,-5.5c0,-5.39 -2.14,-8.03 -7.86,-8.03l-1.49,0c-5.11,0 -8.3,2.92 -8.3,8.14l0,1.76c0,3.85 0.88,7.1 3.9,10.4l4.24,4.68c2.14,2.36 2.36,3.52 2.36,6.38l0,0.76c0,1.99 -0.55,2.97 -1.81,2.97c-1.32,0 -1.87,-0.82 -1.87,-2.47l0,-6.54l-7.21,0l0,7.37c0,5.5 2.81,8.47 8.36,8.47zm16.59,-0.5l7.32,0l0,-33.72l5.22,0l0,-7.2l-17.76,0l0,7.2l5.22,0l0,33.72z" fill="#FF5800" id="svg_10"/>
        <path d="m74.62,124.08l0,40.92l15.07,0l0,-7.37l-7.75,0l0,-33.55l-7.32,0zm35.8,9.9c0,-6.27 -2.31,-10.4 -8.74,-10.4l-1.65,0c-6.33,0 -8.8,4.13 -8.8,10.45l0,21.62c0,6.38 3.08,9.95 8.85,9.95l1.65,0c5.5,0 8.69,-3.95 8.69,-9.95l0,-21.67zm-7.64,21.89c0,1.26 -0.39,2.42 -1.87,2.42c-1.54,0 -2.04,-1.16 -2.04,-2.42l0,-22.44c0,-1.81 0.55,-2.69 1.98,-2.69c1.32,0 1.93,0.88 1.93,2.69l0,22.44zm20.84,9.13l7.1,0l-5.56,-40.92l-8.69,0l-5.17,40.92l6.49,0l0.72,-6.87l4.4,0l0.71,6.87zm-1.48,-13.91l-2.92,0l1.43,-14.09l1.49,14.09zm9.94,-27.01l0,40.92l6.49,0l0,-22.44l5.66,22.44l6.22,0l0,-40.92l-6.49,0l0,20.9l-5.01,-20.9l-6.87,0zm46.23,9.9c0,-6.27 -2.31,-10.4 -8.74,-10.4l-1.65,0c-6.33,0 -8.8,4.13 -8.8,10.45l0,21.62c0,6.38 3.08,9.95 8.85,9.95l1.65,0c5.5,0 8.69,-3.95 8.69,-9.95l0,-21.67zm-7.64,21.89c0,1.26 -0.39,2.42 -1.87,2.42c-1.54,0 -2.04,-1.16 -2.04,-2.42l0,-22.44c0,-1.81 0.55,-2.69 1.98,-2.69c1.32,0 1.93,0.88 1.93,2.69l0,22.44zm10.11,-31.79l0,40.92l6.49,0l0,-22.44l5.67,22.44l6.21,0l0,-40.92l-6.49,0l0,20.9l-5,-20.9l-6.88,0zm27.2,40.92l12.05,0c4.45,0 6.71,-2.75 6.71,-9.19l0,-6.81c0,-4.35 -1.98,-5.89 -4.07,-6.44c1.48,-0.5 3.46,-2.37 3.46,-5.72l0,-5.44c0,-5.4 -2.2,-7.32 -7.09,-7.32l-11.06,0l0,40.92zm9.08,-34.65c1.37,0 1.87,0.71 1.87,2.2l0,5.11c0,1.87 -0.77,2.43 -1.98,2.43l-1.65,0l0,-9.74l1.76,0zm0,16.34c1.65,0 2.14,0.77 2.14,2.47l0,6.65c0,2.32 -0.66,2.7 -1.87,2.7l-2.03,0l0,-11.82l1.76,0zm15.91,18.31l7.31,0l0,-33.72l5.23,0l0,-7.2l-17.76,0l0,7.2l5.22,0l0,33.72zm23.6,-6.54c-1.32,0 -1.87,-0.89 -1.87,-2.48l0,-23.1c0,-1.6 0.44,-2.37 1.81,-2.37c1.38,0 1.87,0.83 1.87,2.37l0,6.6l7.26,0l0,-6.88c0,-4.67 -1.48,-9.02 -8.47,-9.02l-1.48,0c-6.49,0 -8.64,4.35 -8.64,9.3l0,23.1c0,5.11 1.6,9.68 8.64,9.68l1.48,0c6.49,0 8.47,-4.57 8.47,-9.46l0,-9.24l-7.26,0l0,9.02c0,1.49 -0.49,2.48 -1.81,2.48z" fill="white" id="svg_11"/>
        <path d="m141.65,25.85l-4.84,-4.85l-2.87,2.86c-6.77,-4.25 -15.74,-2.2 -19.99,4.58c-2.95,4.73 -2.95,10.72 0,15.41l-2.95,2.96l4.85,4.84l3.01,-3.01c6.89,4.07 15.81,1.78 19.87,-5.12c2.68,-4.54 2.68,-10.2 0,-14.75l2.92,-2.92zm-23.84,10.3c0,-4.67 3.79,-8.47 8.46,-8.47c1.11,0 2.23,0.22 3.25,0.64l-11.05,11.05c-0.45,-1.03 -0.66,-2.11 -0.66,-3.22zm16.92,0c0,4.66 -3.77,8.46 -8.43,8.46c-1,0 -1.96,-0.18 -2.89,-0.51l10.81,-10.81c0.33,0.9 0.51,1.86 0.51,2.86z" fill="white" id="svg_12"/>
        <path d="m165.8,44.79l0,-2.88l-12.04,0l11.49,-11.59c0.4,-0.4 0.62,-0.83 0.62,-1.28c0,-1.02 -0.83,-1.55 -1.71,-1.55l-15.13,0l0,2.88l11.89,0l-11.49,11.59c-0.4,0.4 -0.62,0.83 -0.62,1.28c0,1.02 0.81,1.55 1.72,1.55l15.27,0z" fill="white" id="svg_13"/>
        <path d="m183.89,44.79l0,-3.02l-12.46,0l0,-11.25l12.44,0l0,-3.03l-15.44,0l0,17.3l15.46,0zm-0.66,-7.52l0,-2.54l-9.59,0l0,2.54l9.59,0z" fill="white" id="svg_14"/>
        <path d="m206.82,44.79l-5.21,-5.26c2.24,-0.86 3.57,-2.88 3.57,-5.73c0,-3.86 -2.33,-6.31 -6.28,-6.31l-12.42,0l0,17.3l3,0l0,-14.27l9.42,0c2.07,0 3.31,1.09 3.31,3.33c0,2.23 -1.15,3.47 -3.31,3.47l-7.21,0l0,2.66l6.47,0l4.38,4.81l4.28,0z" fill="white" id="svg_15"/>
        <path d="m220.1,44.79c4.93,0 8.47,-3.81 8.47,-8.83c0,-5.02 -3.47,-8.47 -8.47,-8.47l-4.21,0c-4.83,0 -8.4,3.38 -8.4,8.47c0,5.02 3.57,8.83 8.4,8.83l4.21,0zm-4.21,-3.02c-3.11,0 -5.38,-2.41 -5.38,-5.66c0,-3.29 2.29,-5.59 5.38,-5.59l4.21,0c3.19,0 5.45,2.33 5.45,5.59c0,3.25 -2.26,5.66 -5.45,5.66l-4.21,0z" fill="white" id="svg_16"/>
      </svg>
    </g>
  </g>
</svg>
