<svg width="100" height="100" viewBox="0 0 100 100" fill="none" xmlns="http://www.w3.org/2000/svg">
<g clip-path="url(#clip0_1235_5176)">
<path d="M79.616 68.085L62.692 50.001H75.385C75.385 35.037 64.003 22.876 49.999 22.876C45.84 22.868 41.7529 23.9599 38.152 26.041L31.975 19.441C37.2829 15.8029 43.5641 13.8493 49.999 13.835C68.699 13.835 83.847 30.02 83.847 50.002H96.54L79.616 68.085ZM24.616 50.002C24.616 64.966 35.998 77.127 50.002 77.127C54.161 77.135 58.2482 76.0431 61.849 73.962L68.026 80.562C62.7173 84.2006 56.435 86.1542 49.999 86.168C31.297 86.168 16.15 69.983 16.15 50.001H3.45703L20.381 31.918L37.305 50.001L24.616 50.002Z" fill="#E8E8E8"/>
</g>
<defs>
<clipPath id="clip0_1235_5176">
<rect width="100" height="100" fill="white" transform="matrix(1 0 0 -1 0 100)"/>
</clipPath>
</defs>
</svg>
