<svg width="97" height="32" viewBox="0 0 97 32" fill="none" xmlns="http://www.w3.org/2000/svg">
<path fill-rule="evenodd" clip-rule="evenodd" d="M16.1422 20.0632L12.0813 14.2897H15.8581L17.8631 11.4232H10.0596L2.64262 0.910156H29.6417L26.9381 4.74748L11.5081 4.74104L13.5267 7.60292L24.9153 7.61304L16.1422 20.0632ZM0 0.912934H0.523285L16.1481 23.0788L31.7651 0.910172H32.286L16.1453 31.0881L0 0.912934ZM51.606 12.3896C51.9541 12.393 52.248 12.3987 52.4855 12.4056C52.7241 12.4124 52.9189 12.4226 53.0722 12.4374C53.2255 12.4511 53.365 12.4693 53.493 12.4898C54.0405 12.5876 54.4543 12.7867 54.7356 13.0848C55.0168 13.3829 55.1955 13.8129 55.2739 14.3739C55.3165 14.6617 55.3384 15.2294 55.3384 16.0793C55.3384 16.5003 55.3258 16.8655 55.3015 17.1738C55.2773 17.4822 55.2335 17.7473 55.1736 17.968C55.1137 18.1887 55.0318 18.3764 54.9281 18.5312C54.8255 18.6859 54.6987 18.8258 54.55 18.9521C54.3367 19.1342 54.0705 19.2696 53.75 19.3572C53.4296 19.4448 53.0111 19.4994 52.4913 19.5199C52.3921 19.5267 52.2642 19.5324 52.1074 19.5358C51.9506 19.5392 51.78 19.5426 51.5956 19.546C51.4112 19.5494 51.2187 19.5517 51.0192 19.5517H50.4648C49.6187 19.5517 48.9628 19.5426 48.4971 19.5255C48.0314 19.5085 47.6925 19.4778 47.4793 19.4357C47.0816 19.3651 46.7635 19.2548 46.5248 19.1046C46.2862 18.9533 46.1007 18.7485 45.9646 18.4891C45.8932 18.3628 45.8367 18.2297 45.794 18.0886C45.7514 17.9486 45.718 17.7814 45.6926 17.5891C45.6672 17.3968 45.6499 17.1659 45.6396 16.8996C45.6292 16.6334 45.6234 16.3069 45.6234 15.9212C45.6234 15.6265 45.6257 15.3808 45.6292 15.1839C45.6327 14.9871 45.6396 14.8187 45.6511 14.6788C45.6615 14.5388 45.6765 14.416 45.6938 14.3101C45.711 14.2055 45.7387 14.0928 45.7733 13.9734C45.8724 13.5945 46.0326 13.2998 46.2528 13.0893C46.473 12.8789 46.7865 12.7139 47.1911 12.5944C47.341 12.5523 47.4989 12.5171 47.666 12.4886C47.8332 12.4602 48.036 12.4397 48.2735 12.4249C48.511 12.4101 48.7945 12.3999 49.1207 12.393C49.447 12.3862 49.8458 12.3828 50.3149 12.3828C50.8267 12.3828 51.2567 12.3851 51.6048 12.3885L51.606 12.3896ZM49.4942 14.111C49.2314 14.1179 49.0147 14.1315 48.8441 14.1531C48.6735 14.1736 48.5386 14.2009 48.4383 14.2316C48.3392 14.2635 48.2539 14.3033 48.1824 14.3522C48.111 14.408 48.051 14.4751 48.0015 14.5525C47.9519 14.6298 47.9127 14.7277 47.8839 14.8472C47.8551 14.9666 47.8355 15.1134 47.8251 15.2897C47.8147 15.4649 47.809 15.6788 47.809 15.9314C47.809 16.184 47.8147 16.4104 47.8251 16.589C47.8355 16.7677 47.8551 16.9201 47.8839 17.0464C47.9127 17.1727 47.9496 17.2762 47.9957 17.357C48.0418 17.4378 48.0971 17.5061 48.1605 17.5618C48.232 17.6176 48.3139 17.6631 48.4061 17.6983C48.4983 17.7336 48.6262 17.7609 48.7899 17.7825C48.9536 17.8041 49.1669 17.8178 49.4297 17.8246C49.6925 17.8315 50.0268 17.8349 50.4325 17.8349C50.9017 17.8349 51.2844 17.8292 51.5795 17.8189C51.8746 17.8087 52.1109 17.7894 52.2884 17.7609C52.4659 17.7325 52.6008 17.6926 52.6941 17.6403C52.7875 17.588 52.8647 17.5197 52.9293 17.4355C52.9788 17.3718 53.0203 17.3001 53.0515 17.2193C53.0837 17.1386 53.1103 17.0384 53.131 16.919C53.1518 16.7995 53.1667 16.6562 53.1737 16.4878C53.1806 16.3194 53.184 16.1192 53.184 15.8882C53.184 15.4456 53.1679 15.1043 53.1356 14.8619C53.1033 14.6196 53.0019 14.4433 52.8313 14.3306C52.6607 14.218 52.3944 14.152 52.0313 14.1304C51.6682 14.1099 51.153 14.0985 50.4855 14.0985C50.0879 14.0985 49.757 14.1019 49.4942 14.1088V14.111ZM37.9475 17.7312C37.9901 17.8154 38.0754 17.8825 38.2034 17.9314C38.2818 17.9667 38.457 17.9929 38.7313 18.01C39.0045 18.027 39.3123 18.0361 39.6535 18.0361C40.2794 18.0361 40.7762 18.0293 41.1462 18.0145C41.5163 18.0009 41.7987 17.9701 41.9935 17.9246C42.1894 17.8791 42.3151 17.8143 42.3716 17.7301C42.4281 17.6459 42.4569 17.5298 42.4569 17.3831C42.4569 17.0816 42.3358 16.8916 42.0938 16.8142C42.0373 16.7937 41.9866 16.7789 41.9439 16.7721C41.9013 16.7653 41.8367 16.7584 41.7514 16.7516C41.6661 16.7448 41.5451 16.7391 41.3883 16.7357C41.2315 16.7323 41.0148 16.73 40.7382 16.73H38.7797C38.4524 16.73 38.17 16.7243 37.9325 16.7141C37.6939 16.7038 37.4841 16.6856 37.3031 16.6617C37.1222 16.6367 36.9654 16.606 36.834 16.5673C36.7026 16.5286 36.5804 16.4808 36.4663 16.4251C36.2104 16.292 36.0225 16.0826 35.9014 15.7993C35.7804 15.516 35.7205 15.1315 35.7205 14.6468C35.7205 14.3305 35.7458 14.0586 35.7954 13.831C35.845 13.6035 35.9233 13.4078 36.0305 13.2474C36.1366 13.0858 36.2795 12.9538 36.457 12.8526C36.6346 12.7513 36.8513 12.6683 37.1072 12.6057C37.249 12.5704 37.4115 12.5408 37.5925 12.5158C37.7734 12.4908 37.9832 12.4703 38.2218 12.4521C38.4604 12.4339 38.7302 12.4225 39.0322 12.4157C39.3342 12.4089 39.6812 12.4054 40.0719 12.4054C40.6978 12.4054 41.2108 12.4111 41.6131 12.4214C42.0142 12.4316 42.3451 12.4509 42.6044 12.4794C42.8638 12.5078 43.0724 12.5465 43.228 12.5954C43.3848 12.6444 43.5266 12.7115 43.6545 12.7957C43.7756 12.8799 43.8782 12.9709 43.9635 13.0699C44.0488 13.1677 44.1168 13.2872 44.1663 13.4283C44.2159 13.5682 44.2516 13.7355 44.2735 13.9277C44.2943 14.1212 44.3058 14.3476 44.3058 14.607H42.1941C42.1941 14.4522 42.1768 14.3294 42.141 14.2383C42.1053 14.1473 42.0304 14.0768 41.9174 14.0279C41.8033 13.9789 41.6408 13.9471 41.4264 13.9334C41.212 13.9198 40.9318 13.9129 40.5837 13.9129C40.4131 13.9129 40.2298 13.9152 40.035 13.9186C39.8391 13.922 39.6512 13.9255 39.4702 13.9289C39.2892 13.9323 39.1233 13.9357 38.9746 13.9391C38.8247 13.9425 38.7083 13.9482 38.623 13.955C38.3313 13.9755 38.1308 14.029 38.0201 14.1132C37.9095 14.1974 37.8553 14.3407 37.8553 14.5444C37.8553 14.8459 38.0086 15.0325 38.3141 15.1019C38.3429 15.1087 38.3728 15.1155 38.4051 15.1224C38.4374 15.1292 38.4812 15.1349 38.5388 15.1383C38.5953 15.1417 38.6737 15.1451 38.7728 15.1485C38.872 15.1519 39.0114 15.1542 39.189 15.1542H41.2039C41.2534 15.1542 41.3422 15.1565 41.4702 15.1599C41.5981 15.1633 41.7399 15.169 41.8967 15.1758C42.0534 15.1827 42.2056 15.1884 42.3554 15.1918C42.5053 15.1952 42.6252 15.2009 42.7185 15.2077C43.0597 15.2213 43.3491 15.2714 43.5877 15.3556C43.8263 15.4398 44.0199 15.5661 44.1686 15.7345C44.3185 15.9029 44.428 16.1133 44.4995 16.3659C44.5709 16.6185 44.6067 16.92 44.6067 17.2716C44.6067 17.5947 44.5813 17.8746 44.5317 18.1135C44.4822 18.3524 44.4003 18.5538 44.2862 18.7188C44.1721 18.8837 44.0246 19.0169 43.8436 19.1193C43.6626 19.2205 43.4401 19.3002 43.1773 19.3559C42.6298 19.4754 41.5854 19.5345 40.042 19.5345C39.423 19.5345 38.9169 19.5311 38.5227 19.5243C38.1285 19.5175 37.7988 19.4993 37.536 19.472C37.2732 19.4435 37.0576 19.4048 36.8905 19.3559C36.7233 19.307 36.5619 19.2433 36.4052 19.1659C35.9614 18.952 35.7412 18.4252 35.7412 17.5833V17.4411C35.7412 17.3819 35.7447 17.3125 35.7516 17.2363H37.8737C37.8806 17.482 37.906 17.647 37.9486 17.7312H37.9475ZM73.7326 12.4681C73.5401 12.4613 73.3165 12.4579 73.0606 12.4579H73.0594H66.9282V19.4778H69.0826V17.7097H72.3989C72.6906 17.7097 72.8969 17.7188 73.0179 17.7359C73.139 17.7529 73.2415 17.7905 73.3269 17.8462C73.426 17.9168 73.4951 18.0089 73.5343 18.125C73.5735 18.241 73.5931 18.4003 73.5931 18.604V19.4778H75.7902V18.373C75.7902 18.0715 75.7671 17.8326 75.721 17.6574C75.6749 17.481 75.5988 17.3343 75.4916 17.2148C75.3856 17.0885 75.2449 16.9986 75.0709 16.9463C74.8968 16.8939 74.6248 16.8564 74.2548 16.8359C74.2271 16.8359 74.181 16.8336 74.1165 16.8302C74.0531 16.8268 73.9816 16.8211 73.9032 16.8143C74.1453 16.779 74.3493 16.746 74.5164 16.7142C74.6836 16.6823 74.8254 16.6471 74.9429 16.6084C75.0605 16.5697 75.1562 16.5276 75.2311 16.4821C75.3049 16.4366 75.3741 16.382 75.4386 16.3194C75.7372 16.0031 75.887 15.474 75.887 14.73C75.887 14.1827 75.8144 13.7447 75.668 13.4147C75.5216 13.0848 75.2922 12.8493 74.9798 12.7093C74.8738 12.6604 74.762 12.6195 74.6444 12.5887C74.5268 12.558 74.3931 12.5318 74.2444 12.5102C74.0957 12.4886 73.9251 12.475 73.7326 12.4681ZM73.4756 15.8427C73.3833 15.9018 73.2577 15.9428 73.0975 15.9633C72.9384 15.9849 72.7263 15.9951 72.4635 15.9951H69.0826V14.185H72.5372C72.7009 14.185 72.8358 14.1873 72.943 14.1907C73.0502 14.1941 73.1401 14.2055 73.215 14.2225C73.2888 14.2396 73.3499 14.2601 73.396 14.2851C73.4421 14.3101 73.4871 14.3431 73.5297 14.3852C73.6012 14.4626 73.6485 14.557 73.6738 14.6697C73.698 14.7823 73.7107 14.9507 73.7107 15.1748C73.7107 15.35 73.6946 15.49 73.6623 15.5958C73.63 15.7005 73.5678 15.7835 73.4756 15.8427ZM76.2159 12.4579H78.9778L81.3765 15.3625L83.7557 12.4579H86.4646L82.4555 17.0464V19.4778H80.2803V17.0464L76.2159 12.4579ZM95.006 17.7939L90.6983 12.4579H90.6972H87.2529V19.4778H89.3324L89.2794 14.1941L93.5236 19.4778H97.0002V12.4579H94.953L95.006 17.7939ZM66.1366 12.4579L62.2024 19.4778H59.4613L55.6654 12.4579H58.0538L60.8583 17.762L62.7937 14.1838L63.6963 12.4579H66.1366Z" fill="white"/>
</svg>
