<svg width="100" height="100" viewBox="0 0 100 100" fill="none" xmlns="http://www.w3.org/2000/svg">
<g clip-path="url(#clip0_1070_2212)">
<path d="M38.5893 16.0143C37.5526 15.6687 36.5188 15.3171 35.4881 14.9595C34.1854 14.5088 32.9098 14.058 31.5845 13.6658C30.9625 13.49 29.9302 12.9536 29.2992 13.0032C29.0614 13.0139 28.829 13.077 28.6185 13.188L28.578 13.2151C28.3782 13.3689 28.2021 13.5512 28.0551 13.756C27.6043 14.2834 27.2437 14.8513 26.8425 15.4013C25.8283 16.7986 24.2687 19.0073 23.3672 20.4813L24.6248 20.3596H24.6564C24.9227 20.0854 25.1585 19.7832 25.3595 19.4581L26.7118 17.5649L28.33 15.3111C28.515 14.9744 28.7292 14.6547 28.9701 14.3555C29.2855 14.0673 29.6968 13.9066 30.1241 13.9047C30.7927 14.0437 31.43 14.305 32.0037 14.6755L34.2575 15.8565L36.1597 16.758C37.0612 17.2088 37.9628 17.7046 38.9139 18.1103C39.3105 18.3673 39.7433 18.5611 40.158 18.791L43.2547 20.4137L47.0365 22.5818L49.1281 23.7133L52.4547 25.5884L54.0729 26.4268L55.1141 27.0263L61.0596 30.1816L62.3263 30.8578C62.4612 30.9163 62.5896 30.9888 62.7094 31.0741C62.7635 31.268 62.8311 31.277 62.9844 31.3897L65.8828 33.0259L67.1539 33.7066C67.4244 33.8553 67.9923 34.3241 68.2808 34.3196C68.9917 34.7696 69.6695 35.2697 70.3092 35.8161C70.6788 36.1993 71.08 36.5779 71.4181 36.9881C71.7935 37.4663 72.1339 37.971 72.4368 38.4981C72.7309 38.9776 72.993 39.476 73.2211 39.9902L73.5412 40.8376C74.2053 42.4459 74.6847 44.1245 74.9701 45.841C75.069 46.3005 75.1234 46.7684 75.1323 47.2384C75.1369 47.7718 75.1053 48.3049 75.0377 48.834C74.5939 51.2738 73.3808 53.5074 71.5758 55.2078C70.741 55.8996 69.86 56.5336 68.9389 57.1055C68.7361 57.2497 68.5603 57.4165 68.3709 57.5562C67.8944 57.9378 67.3929 58.2871 66.8699 58.602C66.6671 58.7237 66.5995 58.922 66.4192 59.0527L64.4764 60.405L59.7029 63.8218C59.1259 64.2365 58.5219 64.6061 57.9584 65.0433C57.5437 65.3679 57.1741 65.742 56.7684 66.0756C56.1834 66.5254 55.6222 67.0053 55.0871 67.5135C54.2425 68.2175 53.5099 69.0458 52.9144 69.9701C53.092 70.1484 53.3056 70.2867 53.541 70.3758C54.1849 70.7289 54.8874 70.9626 55.6145 71.0655C56.2031 71.1004 56.7931 71.0255 57.3544 70.8446C58.0507 70.626 58.7327 70.3641 59.3963 70.0603C59.8471 69.8619 60.3655 69.7132 60.8433 69.5419L66.3335 67.6487C66.915 67.4324 67.4694 67.1258 68.0599 66.932C68.6489 66.7828 69.2557 66.716 69.863 66.7337L72.0807 66.63C73.9649 66.4677 75.7454 65.9539 77.6025 65.6564C78.6257 65.4941 79.685 65.4806 80.7217 65.4039C81.2983 65.3665 81.8711 65.2836 82.4346 65.156C84.2022 64.6539 85.8298 63.7499 87.1901 62.5146L88.0421 61.7303C88.2211 61.579 88.3843 61.4099 88.5289 61.2254C88.8912 61.5051 89.2773 61.7525 89.6828 61.9647C90.1832 62.172 91.0937 62.5912 91.6031 62.3884C91.898 62.2424 92.1638 62.0438 92.3874 61.8024C92.8779 61.3585 93.3401 60.8842 93.7712 60.3825H93.9064C94.5842 60.5513 95.2747 60.6644 95.9709 60.7206L106.127 49.5147L108.831 46.5126L100.361 38.8497L96.3045 37.9482L96.2594 37.84C96.2006 37.6756 96.108 37.5254 95.9877 37.3988C95.8674 37.2723 95.7219 37.1723 95.5607 37.1053C95.3354 37.0422 95.11 37.0151 94.8711 36.9701C94.3409 36.82 93.7859 36.7786 93.2393 36.8484C93.0802 36.9043 92.9288 36.98 92.7886 37.0737L92.8111 37.4208L89.205 34.8064L83.3902 31.1327L79.4777 28.7798C78.7159 28.3651 77.9 28.0045 77.1067 27.6619C75.1707 26.8533 73.1755 26.1948 71.1386 25.6921L66.9691 24.6734C57.4716 21.9102 47.9741 19.1516 38.5893 16.0143Z" fill="#F6F7EB"/>
<path d="M65.6934 32.666C65.7084 32.7656 65.7505 32.8592 65.8151 32.9365L65.8601 33.0266L67.1313 33.7073C67.4017 33.856 67.9697 34.3248 68.2582 34.3203L65.6934 32.666Z" fill="#067777"/>
<path d="M62.6875 31.0742C62.7416 31.268 62.8092 31.2771 62.9625 31.3898L65.8608 33.026L65.8158 32.9359C65.7512 32.8585 65.7091 32.765 65.6941 32.6654L62.6875 31.0742Z" fill="#11968D"/>
<path d="M55.0594 67.5182C54.2148 68.2222 53.4822 69.0506 52.8867 69.9749C53.0643 70.1532 53.2779 70.2915 53.5133 70.3805C54.1572 70.7337 54.8596 70.9673 55.5868 71.0702C56.1754 71.1051 56.7654 71.0302 57.3267 70.8493C58.023 70.6307 58.705 70.3688 59.3686 70.065C59.8194 69.8667 60.3378 69.7179 60.8156 69.5466L66.3058 67.6534C66.8873 67.4371 67.4417 67.1306 68.0322 66.9367C68.6211 66.7875 69.228 66.7207 69.8352 66.7384L72.053 66.6347C73.9372 66.4725 75.7177 65.9586 77.5748 65.6611C78.598 65.4988 79.6573 65.4853 80.694 65.4087C81.2706 65.3713 81.8434 65.2884 82.4069 65.1608C84.1745 64.6586 85.8021 63.7546 87.1624 62.5193L88.0144 61.735C88.1934 61.5838 88.3565 61.4146 88.5012 61.2301C88.5034 61.1922 88.5142 61.1552 88.5327 61.122C88.8239 60.6248 89.1539 60.1515 89.5199 59.7066L90.3763 58.4895L91.4086 56.9524C91.4731 56.8419 91.5519 56.7404 91.643 56.6504C91.6818 56.6322 91.7227 56.6186 91.7647 56.6099C91.8052 56.6099 91.7647 56.6099 91.8323 56.5468L91.8774 56.4836C91.9333 56.4152 91.9622 56.3286 91.9585 56.2402L91.6475 56.4791C91.2328 56.7496 90.8812 57.1147 90.4845 57.4077C90.2501 57.579 89.9977 57.7097 89.7633 57.8585C89.6326 57.9486 89.5244 58.0658 89.3937 58.156C88.6049 58.7104 87.7394 59.2378 86.8965 59.7111C86.4683 59.9545 85.995 60.1618 85.5667 60.3557L82.0824 61.8251C81.0276 62.2128 79.9593 62.6726 78.8865 62.9971C74.6989 64.2502 70.3221 64.7325 66.0263 65.3501L63.1415 65.8775L61.3745 66.1254L60.1529 66.3733L58.8007 66.5897C58.4671 66.6618 58.1426 66.779 57.809 66.8601L56.6596 67.1125C56.2809 67.2072 55.9068 67.3379 55.5327 67.4686C55.3584 67.5473 55.1752 67.6048 54.9873 67.6399L55.0594 67.5182Z" fill="#FFC07F"/>
<path d="M96.3285 37.9022L96.2834 37.794C96.2168 37.6358 96.1185 37.4929 95.9944 37.3743C95.8703 37.2556 95.7232 37.1638 95.5622 37.1043C95.3368 37.0412 95.1114 37.0142 94.8725 36.9691C94.3424 36.819 93.7873 36.7776 93.2408 36.8474C93.0817 36.9033 92.9302 36.979 92.79 37.0728L92.8126 37.4199L93.3805 37.8165C93.5754 38.3271 93.7262 38.8534 93.8313 39.3897C94.0668 40.4929 94.2175 41.6126 94.282 42.7388C94.4556 44.7845 94.4284 46.8423 94.2009 48.8827L93.8809 50.9426C93.685 52.4582 93.3113 53.9454 92.7675 55.3736L92.7224 55.4773C92.5774 55.6589 92.4449 55.8502 92.3257 56.0497C92.2145 56.1286 92.0932 56.1923 91.9651 56.239C91.9688 56.3274 91.94 56.414 91.884 56.4824L91.8389 56.5456C91.7893 56.6042 91.8119 56.5906 91.7713 56.6087C91.7293 56.6174 91.6884 56.631 91.6496 56.6492C91.5585 56.7392 91.4797 56.8407 91.4152 56.9512L90.383 58.4883L89.5265 59.7054C89.1606 60.1503 88.8305 60.6236 88.5394 61.1208C88.5208 61.154 88.51 61.191 88.5078 61.2289C88.8701 61.5086 89.2562 61.756 89.6618 61.9682C90.1621 62.1755 91.0726 62.5947 91.582 62.3919C91.8769 62.2459 92.1427 62.0473 92.3663 61.8059C92.8568 61.362 93.319 60.8878 93.7501 60.386H93.8854C94.5885 60.5663 102.301 62.4009 103.027 62.473L106.128 49.5137L108.833 46.5117L100.363 38.8488L96.3285 37.9022Z" fill="url(#paint0_linear_1070_2212)"/>
<path d="M94.8501 59.1758C94.76 59.32 94.8501 59.3245 94.796 59.4417C94.5307 59.7862 94.2283 60.1006 93.8945 60.3793C94.5977 60.5596 102.152 62.4753 102.874 62.543L103.676 60.1539L95.8779 59.2524C95.592 59.2282 95.3042 59.2403 95.0214 59.2885C94.9643 59.3114 94.9022 59.3192 94.8411 59.311L94.8501 59.1758Z" fill="#F4A71C"/>
<path d="M96.3281 37.9023L96.3732 38.0601L96.5129 38.2224C97.1672 38.5866 97.773 39.0319 98.316 39.5476C99.8801 41.0441 101.165 42.8472 102.467 44.5601L106.128 49.5139L108.832 46.5118L100.362 38.8489L96.3281 37.9023Z" fill="#F6F7EB"/>
<path d="M96.3285 37.9022L96.2834 37.794C96.2168 37.6358 96.1185 37.4929 95.9944 37.3743C95.8703 37.2556 95.7232 37.1638 95.5622 37.1043C95.3368 37.0412 95.1114 37.0142 94.8725 36.9691C94.3424 36.819 93.7873 36.7776 93.2408 36.8474C93.0817 36.9033 92.9302 36.979 92.79 37.0728L92.8126 37.4199L93.3805 37.8165C93.5754 38.3271 93.7262 38.8534 93.8313 39.3897C94.0668 40.4929 94.2175 41.6126 94.282 42.7388C94.4556 44.7845 94.4284 46.8423 94.2009 48.8827L93.8809 50.9426C93.685 52.4582 93.3113 53.9454 92.7675 55.3736L92.7224 55.4773C92.5774 55.6589 92.4449 55.8502 92.3257 56.0497C92.2145 56.1286 92.0932 56.1923 91.9651 56.239C91.9688 56.3274 91.94 56.414 91.884 56.4824L91.8389 56.5456C91.7893 56.6042 91.8119 56.5906 91.7713 56.6087C91.7293 56.6174 91.6884 56.631 91.6496 56.6492C91.5585 56.7392 91.4797 56.8407 91.4152 56.9512L90.383 58.4883L89.5265 59.7054C89.1606 60.1503 88.8305 60.6236 88.5394 61.1208C88.5208 61.154 88.51 61.191 88.5078 61.2289C88.8701 61.5086 89.2562 61.756 89.6618 61.9682C90.1621 62.1755 91.0726 62.5947 91.582 62.3919C91.8769 62.2459 92.1427 62.0473 92.3663 61.8059C92.8568 61.362 93.319 60.8878 93.7501 60.386H93.8854C94.2192 60.1073 94.5215 59.7929 94.7869 59.4484C94.8229 59.3312 94.7508 59.3267 94.841 59.1825C95.3537 58.3336 95.8056 57.4494 96.1932 56.5365C96.644 55.4277 97.0091 54.2241 97.3652 53.0747C97.5185 52.5654 97.6176 52.038 97.7258 51.5196C98.1639 49.53 98.3457 47.4926 98.2667 45.4569C98.2397 44.8979 98.1586 44.348 98.1 43.7936C97.9759 42.413 97.6915 41.0516 97.2525 39.7368C97.0401 39.2233 96.7931 38.7248 96.5133 38.2447L96.3736 38.0825L96.3285 37.9022Z" fill="url(#paint1_linear_1070_2212)"/>
<path d="M93.2403 59.9191C93.5641 58.9995 93.9342 58.0968 94.3491 57.2145C94.7683 56.1462 95.165 55.0509 95.4896 53.9511C95.742 53.0991 95.9178 52.2292 96.1071 51.3637C96.2063 50.9129 96.3911 50.4622 96.4587 49.9844C96.328 50.2143 96.1567 50.4351 96.0079 50.6515C95.8592 50.8679 95.8457 51.1023 95.7285 51.3141C95.4355 51.8325 95.0568 52.3193 94.7278 52.8196L93.4161 54.7985C93.2559 55.0415 93.0684 55.2654 92.8571 55.4656C92.7489 55.5512 92.5506 55.5828 92.4965 55.6775C92.3838 55.8713 92.5641 55.6234 92.4154 55.8217L92.3658 55.8803H92.4469L92.5777 55.7856C92.8028 55.6131 93.0057 55.4132 93.1817 55.1906C93.3212 55.0545 93.4451 54.9033 93.5513 54.7399C93.6144 54.6227 93.7136 54.5415 93.7812 54.4243C93.8488 54.3072 93.9209 54.2395 93.9795 54.1359C94.0381 54.0322 94.1012 53.9736 94.1508 53.8834L94.6016 53.1667C94.8134 52.752 95.165 52.4049 95.3724 51.9948L95.467 51.8235L95.5662 51.6928C95.6847 51.4711 95.8627 51.287 96.08 51.1609L96.0079 51.4223V51.4764L95.9493 51.8911C95.9054 52.1825 95.8345 52.4692 95.7375 52.7475C95.5662 53.2253 95.5301 53.8068 95.3228 54.2756C95.2172 54.5173 95.1327 54.7676 95.0704 55.0239C95.0447 55.1435 95.0101 55.261 94.9667 55.3755C94.9176 55.4787 94.8769 55.5857 94.845 55.6955L94.7864 55.8668L94.6241 56.3175C94.5565 56.4798 94.5159 56.6511 94.4483 56.8089L94.3807 56.9756L94.2319 57.3678L94.0381 57.8186C93.993 57.9222 93.9299 58.0124 93.8849 58.1161L93.5919 58.7607C93.4702 59.0131 93.4341 59.3151 93.3124 59.5585C93.2448 59.6892 93.2718 59.5585 93.2493 59.6802C93.2449 59.7351 93.2263 59.788 93.1952 59.8335L93.1276 59.8921C93.1276 60.0183 92.9969 60.1039 92.9112 60.1941C92.6363 60.2617 92.3568 60.8747 92.1089 61.0325C91.9536 61.1353 91.8153 61.2615 91.6987 61.4066C91.5905 61.4066 91.5454 61.5238 91.4598 61.5914L91.2434 61.7402L91.1938 61.7672L91.1262 61.8078L91.0406 61.8348C90.9369 61.8799 91.0406 61.8664 90.9324 61.8754H90.8828L90.8332 61.8979C90.7778 61.879 90.7203 61.8669 90.6619 61.8619C90.6124 61.8663 90.5627 61.8663 90.5132 61.8619H90.4681L90.3734 61.8348H90.3194H90.2562C90.2158 61.8133 90.1735 61.7952 90.13 61.7807H90.0534C89.9623 61.6988 89.8465 61.6496 89.7244 61.641H89.6477C89.5822 61.593 89.5035 61.5662 89.4223 61.5644L89.3637 61.5013L89.1699 61.5328C89.6703 61.7447 90.5808 62.1639 91.0902 61.9836C91.3851 61.8376 91.6509 61.639 91.8745 61.3976C92.3617 60.9353 92.818 60.4414 93.2403 59.9191Z" fill="#FF5800"/>
<path d="M92.3256 56.0502C92.2144 56.1291 92.0931 56.1928 91.965 56.2395C91.9687 56.3279 91.9398 56.4145 91.8838 56.483L91.8387 56.5461C91.7892 56.6047 91.8117 56.5911 91.7711 56.6092L91.3745 57.2538C91.1814 57.4526 91.0188 57.6789 90.8922 57.9254L89.7607 59.9042C89.6165 60.1566 89.4407 60.382 89.2739 60.6209C89.1928 60.7381 89.0485 60.9365 89.0756 61.0717C89.169 61.0849 89.264 61.0624 89.3415 61.0086C89.8022 60.693 90.1933 60.2865 90.491 59.8141C91.0097 59.0125 91.4735 58.1766 91.8793 57.3124C92.2294 56.7318 92.5122 56.1133 92.7222 55.4688C92.5769 55.6533 92.4444 55.8476 92.3256 56.0502Z" fill="url(#paint2_linear_1070_2212)"/>
<path d="M92.3261 56.0508C92.2149 56.1297 92.0936 56.1934 91.9655 56.2401C91.9692 56.3284 91.9403 56.4151 91.8844 56.4835L91.8393 56.5466C91.7897 56.6052 91.8122 56.5917 91.7717 56.6097L91.375 57.2543C91.4426 57.3445 91.4426 57.3535 91.5508 57.3805C91.8625 56.9706 92.1229 56.524 92.3261 56.0508Z" fill="#E8F6A6"/>
<path d="M75.1103 47.2624C75.1135 47.7959 75.0803 48.3291 75.0111 48.8581C74.5707 51.298 73.3589 53.5321 71.5538 55.2318C70.7201 55.9251 69.839 56.5592 68.9169 57.1295C68.714 57.2738 68.5382 57.4405 68.3489 57.5803C67.8712 57.9603 67.3698 58.3096 66.8479 58.626C66.6495 58.7522 66.5774 58.9416 66.3971 59.0768L64.4543 60.4291L59.6808 63.8458C59.1038 64.2605 58.4998 64.6301 57.9364 65.0674C57.5217 65.3919 57.1521 65.7661 56.7464 66.0996C56.1614 66.5494 55.6002 67.0294 55.065 67.5375C54.2215 68.2426 53.4891 69.0708 52.8924 69.9942C52.8495 70.0342 52.8009 70.0676 52.7481 70.0933C52.4855 70.0768 52.2263 70.0252 51.9773 69.9401L50.3862 69.575L48.2135 69.1242C47.6726 68.9875 47.125 68.8791 46.5727 68.7997C45.983 68.6298 45.3798 68.5107 44.7697 68.4436L38.0534 67.204C36.8318 67.0696 35.6249 66.8252 34.4473 66.4737H34.4203C34.231 66.1131 34.6547 64.4814 34.6953 63.954C34.9135 62.7666 35.3523 61.6306 35.9889 60.6049L36.0295 60.5418C36.9558 59.2761 38.3258 58.4068 39.8655 58.1077C41.2289 57.9304 42.6016 57.834 43.9764 57.8192C44.6819 57.7106 45.3986 57.6939 46.1085 57.7696L48.182 58.0806L49.7912 58.2249L52.9465 58.6756C53.1292 58.7094 53.3152 58.723 53.5009 58.7162L55.0019 58.91C55.586 59.006 56.177 59.0527 56.7689 59.0497C57.725 58.9798 58.6514 58.6865 59.4735 58.1933C59.9799 57.8827 60.5053 57.6042 61.0466 57.3594C61.4027 57.2152 61.7813 57.1656 62.1465 57.0574C62.7716 56.8953 63.3594 56.6137 63.8774 56.228C64.8671 55.4935 65.538 54.408 65.7525 53.1944C65.8451 52.6274 65.8179 52.0473 65.6727 51.4914C65.5275 50.9356 65.2676 50.4163 64.9096 49.967C64.4513 49.2973 63.9546 48.6546 63.4221 48.0422L61.3035 45.4594L58.7793 42.4438C57.9286 41.4667 57.1739 40.4101 56.5255 39.2885L55.624 36.8769L54.9929 35.5427C54.5276 34.5271 53.9976 33.5425 53.4063 32.5947C52.6384 31.4178 51.7761 30.3053 50.8279 29.2681C49.1123 27.3 47.113 25.5985 44.8959 24.2196C43.5606 23.452 42.1716 22.7817 40.7399 22.2137C39.2481 21.5439 37.6967 21.0157 36.1061 20.6361C35.5534 20.4741 34.9901 20.3506 34.4203 20.2665C33.9333 20.1562 33.4393 20.0794 32.9418 20.0366C32.1247 19.8977 31.2951 19.8463 30.4671 19.8833C29.0948 19.865 27.7232 19.9555 26.3652 20.1538L24.6749 20.5144C24.6749 20.4513 24.6749 20.3882 24.6523 20.3205C24.9111 20.0541 25.1407 19.761 25.3375 19.4461L26.6898 17.5529L28.308 15.2991C28.5027 14.9674 28.7243 14.6523 28.9706 14.357C29.2869 14.0703 29.6976 13.9098 30.1246 13.9062C30.7942 14.0422 31.432 14.3037 32.0042 14.677L34.258 15.858L36.1647 16.7596C37.0662 17.2103 37.9678 17.7016 38.9144 18.1118C39.311 18.3643 39.7437 18.5626 40.1584 18.7925L43.2552 20.4152L47.037 22.5834L49.1285 23.7148L52.4506 25.5899L54.0734 26.4283L55.1146 27.0278L61.0601 30.1832L62.3268 30.8548C62.4622 30.9123 62.5907 30.9849 62.7099 31.0711C62.764 31.265 62.8316 31.274 62.9894 31.3867L65.8833 33.0229L67.1589 33.7036C67.4249 33.8523 67.9928 34.3211 68.2813 34.3166C68.9922 34.7666 69.67 35.2667 70.3097 35.8131C70.6838 36.1963 71.0805 36.5794 71.4186 36.9896C71.795 37.4655 72.1355 37.9688 72.4373 38.4951C72.7314 38.9746 72.9934 39.473 73.2216 39.9872L73.5416 40.8346C74.2072 42.4409 74.6866 44.1181 74.9706 45.8335C75.064 46.3041 75.1108 46.7827 75.1103 47.2624Z" fill="#24D0C6"/>
<path d="M59.0501 52.1847C58.6673 56.137 57.4859 59.9704 55.5775 63.4524C53.6691 66.9345 51.0734 69.9928 47.9479 72.4418C47.6098 72.7078 47.2627 72.9692 46.9111 73.2216C46.5596 73.4741 46.235 73.6724 45.8924 73.9203C41.7803 76.6261 37.0513 78.2495 32.1443 78.6398C27.8919 78.6809 23.664 77.9918 19.6447 76.6023C18.5626 76.2137 17.5083 75.7513 16.4894 75.2185C15.5879 74.7677 14.6864 74.344 13.8209 73.8212C12.3187 72.8945 10.8915 71.8516 9.55225 70.7019C6.61849 67.9372 4.28497 64.5984 2.69682 60.8933C1.10867 57.1881 0.299861 53.1958 0.320705 49.1646C0.320705 48.2631 0.374796 47.3616 0.464948 46.4601C1.02357 40.6709 3.29255 35.1789 6.98292 30.6835C9.9059 27.1137 13.6229 24.2766 17.8372 22.3986H17.8733C22.5754 20.3211 27.7398 19.5117 32.8521 20.0511C37.9643 20.5904 42.8461 22.4596 47.0113 25.4726C51.1764 28.4855 54.4796 32.537 56.5918 37.2237C58.704 41.9104 59.5516 47.0686 59.0501 52.1847Z" fill="#FF5800"/>
<path d="M45.8699 73.9178C41.7577 76.6236 37.0288 78.2469 32.1217 78.6372C27.8693 78.6784 23.6414 77.9892 19.6222 76.5998C18.54 76.2112 17.4858 75.7488 16.4669 75.216C15.5654 74.7652 14.6639 74.3415 13.7984 73.8186C12.304 72.891 10.8843 71.8481 9.55225 70.6994C6.61849 67.9347 4.28497 64.5959 2.69682 60.8907C1.10867 57.1856 0.299861 53.1932 0.320705 49.1621V49.383C0.396778 51.3891 0.682307 53.3817 1.17264 55.3285C1.49608 56.4927 1.90436 57.6317 2.3942 58.7362C3.69523 61.8324 5.55131 64.6646 7.87092 67.0933C9.70761 68.9859 11.7926 70.6205 14.0689 71.9525L15.2498 72.561C16.1829 73.0613 17.134 73.5707 18.1122 73.9809C22.5611 75.8606 27.3437 76.6178 32.1488 76.6854C33.8553 76.6888 35.5585 76.5379 37.2379 76.2347C39.5614 75.8766 41.8321 75.2348 43.9992 74.3235C44.5396 74.1479 45.0513 73.8943 45.5183 73.5707H45.658L45.8699 73.9178Z" fill="#24D0C6"/>
<path d="M12.3972 64.0938C14.9999 66.556 18.0348 68.5166 21.3493 69.877C21.8542 70.0798 22.3725 70.3277 22.8909 70.4765C25.7751 71.3299 28.7785 71.7105 31.7844 71.6034C32.6421 71.5931 33.4979 71.5193 34.3447 71.3825L36.8689 70.8281C37.1243 70.7329 37.3886 70.6634 37.6578 70.6207C37.7622 70.6388 37.8689 70.6388 37.9733 70.6207C38.1671 70.5712 38.3745 70.5396 38.5593 70.472C38.7586 70.3625 38.9705 70.2778 39.1903 70.2196V70.3413C39.2322 70.4363 39.31 70.5109 39.4067 70.5486L39.4833 70.4945C39.5239 70.5576 39.4833 70.4945 39.5149 70.6207C39.1027 70.8172 38.6705 70.9683 38.2257 71.0715C37.7039 71.1816 37.1915 71.3323 36.6931 71.5223C35.9719 71.7296 35.2056 71.8874 34.4709 72.0271C33.5163 72.1727 32.5516 72.242 31.586 72.2345C31.1984 72.2345 30.8152 72.2885 30.4276 72.2795C27.6386 72.2166 24.8723 71.7614 22.2103 70.9273C18.7816 69.8799 15.6954 67.9345 13.2717 65.2928C12.9238 64.9616 12.6139 64.5927 12.3477 64.1929L12.3972 64.0938Z" fill="#F6F7EB"/>
<path d="M39.3516 23.1722C39.4555 23.1622 39.5603 23.1761 39.6581 23.2128H39.7708L39.8564 23.2669C39.9585 23.3187 40.0658 23.3595 40.1764 23.3886L40.3117 23.4426L40.3703 23.3931H40.3207C40.0783 23.3194 39.8551 23.1932 39.6671 23.0234L39.7077 22.9648L40.9247 23.4832C40.9772 23.5036 41.0259 23.5325 41.069 23.5689C41.1396 23.6097 41.2178 23.6357 41.2988 23.6455L41.407 23.6906L41.5062 23.7221C41.6189 23.7627 41.6955 23.8258 41.8127 23.8573L41.8578 23.9114C41.9767 24.0103 42.1086 24.0922 42.2499 24.1548L42.0832 24.3802L39.3516 23.1722Z" fill="#F7D141"/>
<path d="M52.9327 46.5293L52.8831 49.2609L52.7885 49.297C52.7359 48.9904 52.7193 48.6788 52.7389 48.3684L52.6758 47.0387C52.8099 46.898 52.8993 46.7208 52.9327 46.5293Z" fill="#FFA40D"/>
<path d="M7.96596 39.3828C7.98932 39.4683 8.00442 39.5559 8.01104 39.6443C8.01104 39.6758 7.93892 39.7975 7.94342 39.811C7.94793 39.8246 8.0471 39.8922 8.10119 39.9372C8.15384 39.8627 8.19488 39.7807 8.22289 39.6938C8.27364 39.6078 8.33927 39.5315 8.41672 39.4685L7.94342 40.7576L7.4521 42.4705C7.41909 42.761 7.32706 43.0417 7.18164 43.2954C7.26819 42.2768 7.45081 41.2686 7.72706 40.2843C7.78654 39.9788 7.86635 39.6777 7.96596 39.3828Z" fill="#FFA40D"/>
<path d="M53.2832 43.0643L53.3373 43.0283C53.3688 43.0914 53.3779 43.1455 53.4455 43.177C53.423 43.0898 53.423 42.9983 53.4455 42.9111L53.477 42.8164C53.978 44.727 54.1757 46.7043 54.063 48.6763C54.0315 48.9332 54.0315 49.5778 53.8782 49.7716C53.8512 49.756 53.8269 49.7363 53.8061 49.713C53.8098 49.5346 53.8279 49.3567 53.8602 49.1811C53.942 48.5838 53.9646 47.9799 53.9278 47.3781C53.9278 47.2429 53.9774 47.1166 53.9278 46.9814C53.8782 46.8462 53.9278 46.9499 53.9278 46.8507C53.9347 46.7878 53.9347 46.7243 53.9278 46.6614C53.8619 46.0324 53.7596 45.4078 53.6213 44.7907C53.5985 44.3673 53.5321 43.9474 53.4229 43.5376L53.2832 43.0643Z" fill="#C73D04"/>
<path d="M9.75917 33.8887L9.79072 34.0059C9.33996 34.7271 8.9433 35.4798 8.54212 36.2597C8.39461 36.596 8.22599 36.9227 8.03727 37.2378C7.63711 37.7488 7.33177 38.3274 7.13575 38.9462C6.8557 39.5263 6.62646 40.1295 6.4506 40.7492C6.42529 40.8365 6.39519 40.9222 6.36045 41.0062L6.20719 41.4299H6.10352C6.25882 40.7375 6.47917 40.0614 6.76162 39.4105C7.00954 38.7659 7.21238 38.1033 7.52791 37.4722C8.13052 36.1954 8.87928 34.9928 9.75917 33.8887Z" fill="#C73D04"/>
<path d="M14.6728 29.5316C14.9009 29.4502 15.1389 29.4001 15.3805 29.3828L15.2137 29.6938C15.0866 29.8478 14.9342 29.9789 14.763 30.0815C14.3978 30.3474 14.0147 30.6089 13.6631 30.9019C13.3115 31.1949 12.9058 31.6637 12.5001 32.0152C12.2477 32.2361 11.9142 32.3759 11.6707 32.6102C11.4 32.9572 11.1095 33.2883 10.8008 33.6019C10.8164 33.4367 10.8807 33.2798 10.9856 33.1512C11.1298 32.9979 11.2155 32.8131 11.3507 32.6553C11.4859 32.4976 11.6843 32.3668 11.8285 32.2046C12.0299 31.961 12.2137 31.7035 12.3784 31.4338C12.8478 30.953 13.346 30.5014 13.8704 30.0815C14.1061 29.8556 14.3771 29.6698 14.6728 29.5316Z" fill="#FFA40D"/>
<path d="M44.9414 32.1796L45.1893 31.9902C45.7204 32.2088 46.1719 32.5848 46.483 33.0675C47.7939 34.4963 48.9722 36.0413 50.0034 37.6833L51.0221 39.6712C51.155 39.9625 51.3056 40.2455 51.4729 40.5186C52.2796 42.4325 52.7786 44.4619 52.9514 46.5317C52.918 46.7232 52.8286 46.9004 52.6945 47.0411C52.1718 42.5437 50.3537 38.2951 47.4612 34.812C46.7091 33.8545 45.8651 32.9728 44.9414 32.1796Z" fill="url(#paint3_linear_1070_2212)"/>
<path d="M17.5804 27.9291L17.7382 27.848C18.1574 27.6226 20.8034 26.4191 21.0964 26.4957L18.793 27.6947C18.5225 27.8525 18.2881 28.0553 18.0267 28.2221C17.7653 28.3889 17.4587 28.5241 17.1928 28.7044C15.4814 29.8451 13.9122 31.1858 12.5184 32.6981C12.3021 32.9415 12.1443 33.2481 11.9234 33.5005C11.3704 34.1086 10.8513 34.7466 10.3683 35.4117C9.53192 36.6665 8.87497 38.0319 8.41652 39.4685C8.33907 39.5316 8.27344 39.6079 8.22269 39.6939C8.19468 39.7807 8.15364 39.8628 8.10099 39.9373C8.0469 39.8922 7.96576 39.8742 7.94322 39.8111C7.92069 39.748 8.00633 39.6759 8.01084 39.6443C8.00422 39.5559 7.98913 39.4684 7.96576 39.3829L8.05591 39.0854C8.52921 37.9269 8.92137 36.7279 9.48482 35.61C9.68766 35.2089 9.98967 34.8528 10.2015 34.4471C10.3781 34.1525 10.5755 33.8708 10.792 33.6042C11.1007 33.2905 11.3912 32.9594 11.662 32.6125C11.9054 32.3781 12.239 32.2384 12.4914 32.0175C12.8971 31.6659 13.2396 31.2467 13.6543 30.9041C14.069 30.5615 14.3891 30.3497 14.7542 30.0837C14.9254 29.9811 15.0779 29.85 15.2049 29.6961L15.3717 29.3851C16.1708 29.0025 16.9139 28.5127 17.5804 27.9291Z" fill="#FED937"/>
<path d="M50.5664 30.457C50.9888 30.4717 51.4087 30.5291 51.8195 30.6283C51.9405 30.9493 52.1043 31.2526 52.3063 31.5298L53.3701 33.0173C53.7316 33.4311 54.0447 33.8848 54.3032 34.3696C54.177 34.7212 54.3979 35.0683 54.2626 35.4334H54.1409C53.902 34.6311 53.1222 33.9459 52.6534 33.2743C52.3739 32.8731 52.1576 32.4539 51.8466 32.0662C51.4544 31.5749 51.0172 31.1647 50.6566 30.6554L50.5664 30.457Z" fill="#C73D04"/>
<path d="M50.5664 30.457C50.9888 30.4717 51.4087 30.5291 51.8195 30.6283C51.9405 30.9493 52.1043 31.2526 52.3063 31.5298C51.8686 31.4259 51.4602 31.224 51.1118 30.9393C51.0442 30.8672 51.0758 30.75 51.0758 30.6554C50.9376 30.626 50.7948 30.626 50.6566 30.6554L50.5664 30.457Z" fill="#8B2D01"/>
<path d="M54.3027 34.3789C56.1501 36.9628 57.4662 39.8876 58.1748 42.9839C58.3404 43.5348 58.4492 44.1012 58.4993 44.6742C58.4465 44.8403 58.4206 45.0138 58.4227 45.1881L58.4678 45.2737C58.4392 45.3447 58.3944 45.408 58.337 45.4586C58.3459 45.7791 58.2955 46.0985 58.1883 46.4006C58.2025 46.6281 58.1608 46.8557 58.0666 47.0633L57.9674 47.221H57.8953L57.8412 47.0227L57.8006 47.0497C57.701 46.6533 57.651 46.246 57.6519 45.8372C57.5207 44.6118 57.3007 43.3976 56.9938 42.2041C56.4861 40.3999 55.8163 38.6453 54.9924 36.9618C54.7694 36.4428 54.5196 35.9358 54.2441 35.4427C54.3974 35.0911 54.1765 34.7305 54.3027 34.3789Z" fill="#FFA40D"/>
<path d="M58.499 44.6738C58.5666 45.084 58.5666 45.4942 58.6162 45.9089C58.6523 46.238 58.7334 46.558 58.7559 46.8871C58.863 48.9279 58.7344 50.9744 58.3728 52.9858C58.5666 53.3915 58.2962 54.4508 58.2285 54.897C58.1424 55.7249 57.9917 56.5448 57.7778 57.3492V57.3942C57.5695 57.9359 57.4184 58.4979 57.327 59.0711L56.7861 59.2694C56.5539 59.3759 56.3105 59.456 56.0604 59.5083L54.3069 60.1168C54.2878 60.0663 54.2772 60.013 54.2754 59.9591C54.348 59.8333 54.4375 59.718 54.5413 59.6165C54.7248 59.3918 54.8934 59.1554 55.0462 58.9088C55.5951 58.0137 56.0484 57.0634 56.3985 56.0735C57.2477 53.9821 57.7545 51.7676 57.8995 49.515C57.9265 48.6946 57.8409 47.8877 57.8003 47.0674L57.8409 47.0403L57.895 47.2386H57.9671L58.0663 47.0809C58.1605 46.8733 58.2022 46.6458 58.188 46.4183C58.2952 46.1161 58.3456 45.7967 58.3367 45.4762C58.3941 45.4256 58.4389 45.3623 58.4674 45.2914L58.4224 45.2057C58.4183 45.0254 58.4442 44.8457 58.499 44.6738Z" fill="#FF5800"/>
<path d="M45.4193 67.957C45.4529 68.2483 45.4237 68.5434 45.3336 68.8225L44.5583 69.6293L44.4636 69.5167C44.396 69.431 44.4636 69.1245 44.4636 69.0073L44.5358 68.5565C44.8554 68.3965 45.1525 68.1949 45.4193 67.957Z" fill="#9F973F"/>
<path d="M29.7493 24.8349C30.5471 24.8349 31.3585 24.8755 32.1563 24.9521C38.3512 25.5631 44.0743 28.5315 48.142 33.2435C52.2097 37.9555 54.3109 44.0506 54.011 50.2682C53.7111 56.4859 51.0331 62.3505 46.5308 66.6491C42.0285 70.9478 36.0463 73.3517 29.8214 73.3636C29.0236 73.3636 28.2122 73.323 27.4144 73.2464C21.2195 72.6354 15.4964 69.667 11.4287 64.955C7.36099 60.243 5.25979 54.1479 5.55968 47.9303C5.85956 41.7126 8.53758 35.848 13.0399 31.5494C17.5422 27.2507 23.5244 24.8468 29.7493 24.8349ZM29.7493 19.4844C22.1532 19.5 14.8535 22.4339 9.35939 27.6795C3.86529 32.925 0.596898 40.0812 0.229922 47.6685C-0.137054 55.2557 2.42545 62.6939 7.38766 68.4452C12.3499 74.1965 19.3323 77.8212 26.8915 78.5699C27.8651 78.667 28.843 78.7152 29.8214 78.7141C37.4183 78.7007 44.7195 75.7685 50.2153 70.5236C55.7111 65.2788 58.9812 58.1225 59.3494 50.5345C59.7176 42.9466 57.1557 35.5073 52.1934 29.755C47.2312 24.0027 40.2481 20.3774 32.6882 19.6286C31.7146 19.5315 30.7367 19.4833 29.7583 19.4844H29.7493Z" fill="url(#paint4_linear_1070_2212)"/>
<path d="M28.8902 76.1096C21.7121 75.565 14.9624 72.4826 9.8501 67.4144C7.30331 64.8812 5.5138 61.6808 3.88656 58.3992C3.32171 57.1606 2.86914 55.8738 2.53428 54.5543L1.93027 51.8497C1.70574 50.4816 1.58818 49.0981 1.57868 47.7118C1.51925 46.6608 1.51925 45.6074 1.57868 44.5564C1.68208 43.6038 1.85839 42.6604 2.10606 41.7347C2.6123 39.6997 3.35985 37.7325 4.33281 35.8748C4.72959 35.0361 5.18133 34.2244 5.68509 33.4452L5.64001 33.4137C5.71917 33.2677 5.80646 33.1262 5.90145 32.99L6.07274 32.706L6.10429 32.6429C6.32967 32.3364 6.6407 32.0434 6.83903 31.7414C6.88411 31.6738 6.92468 31.6467 6.96524 31.5836C7.00581 31.5205 7.01483 31.5115 7.00581 31.516L7.06892 31.4529L7.12752 31.3943L7.07343 31.3312C6.9544 31.1586 6.85321 30.9743 6.77142 30.7812L5.86088 31.9352C5.72115 32.111 5.62198 32.3499 5.41013 32.413C4.73982 33.2432 4.17226 34.1513 3.71978 35.1176C1.7182 39.1483 0.583443 43.5537 0.388672 48.0498C0.388672 48.167 0.388672 48.2797 0.388672 48.3969C0.388672 48.5141 0.388672 48.6358 0.388672 48.7575C0.388672 48.8792 0.388672 48.9874 0.388672 49.1046C0.388672 49.3029 0.41121 49.4968 0.42924 49.6906C0.42924 49.7582 0.42924 49.8303 0.42924 49.9024C0.517795 51.9023 0.815414 53.8875 1.31724 55.8254C1.63919 56.9822 2.04598 58.1136 2.53428 59.2106C3.83365 62.2859 5.68354 65.0982 7.99297 67.5091C9.82142 69.3889 11.8957 71.0128 14.1594 72.3367L15.3268 72.9542C16.2554 73.4501 17.202 73.9549 18.1756 74.3651C22.6066 76.2313 27.3666 76.984 32.1491 77.0381C33.8466 77.0392 35.5407 76.8884 37.2112 76.5874C40.0639 76.1531 42.827 75.2579 45.3924 73.9369C41.0291 75.0503 36.5981 76.0104 32.095 76.1636C31.0266 76.2034 29.9567 76.1854 28.8902 76.1096Z" fill="#FF5800"/>
<path d="M50.5485 70.1447C49.6293 71.0947 48.6459 71.9803 47.605 72.7952C47.2669 73.0656 46.9199 73.3225 46.5683 73.5795C46.2167 73.8364 45.8921 74.0302 45.5495 74.2782C41.4355 76.9801 36.7076 78.6031 31.8014 78.9976C27.5489 79.0354 23.3213 78.3447 19.3019 76.9557C18.2197 76.567 17.1655 76.1047 16.1466 75.5718C15.245 75.1211 14.3435 74.7019 13.4781 74.179C11.9826 73.2528 10.5628 72.2098 9.23191 71.0597C6.29855 68.2928 3.96538 64.9524 2.3773 61.2458C0.789229 57.5393 -0.0198318 53.5458 0.000369164 49.5135C0.000369164 48.6119 0.0544602 47.7104 0.144612 46.8089C0.583552 42.2661 2.0777 37.8886 4.50796 34.0254C4.30061 34.5347 4.1158 35.0531 3.90394 35.4723C1.91525 39.4703 0.785173 43.8401 0.586356 48.3009C0.586356 48.4181 0.586356 48.5308 0.586356 48.6435C0.586356 48.7562 0.586356 48.8869 0.586356 49.0041C0.586356 49.1213 0.586356 49.234 0.586356 49.3467C0.586356 49.545 0.613401 49.7388 0.622416 49.9327V50.1445C0.693309 52.1214 0.971294 54.0855 1.45181 56.0044C1.78421 57.1596 2.20309 58.2882 2.70492 59.3806C3.99467 62.4304 5.82743 65.2208 8.11403 67.6159C9.9232 69.4796 11.9763 71.0899 14.2173 72.403L15.3803 73.0025C16.2818 73.4938 17.2374 73.9942 18.202 74.4044C22.5874 76.1734 27.2756 77.0706 32.0042 77.0458C33.6852 77.0466 35.3628 76.8958 37.0167 76.5951C39.2992 76.2392 41.5302 75.6081 43.6609 74.7154C44.1323 74.5433 44.5854 74.3243 45.0131 74.0618C45.5721 73.7373 46.6178 73.1107 47.8169 72.3354C48.7813 71.6751 49.6945 70.9427 50.5485 70.1447Z" fill="#24D0C6"/>
<path d="M39.725 46.8545C40.4192 44.0823 38.4268 42.3469 35.5961 41.0622L36.9213 37.3435L34.6675 36.5366L33.3783 40.1427C32.7833 39.9308 32.1703 39.728 31.5753 39.5252L32.8735 35.8785L30.6197 35.0762L29.2945 38.7904C28.7986 38.6282 28.3163 38.4659 27.8475 38.2991L24.7238 37.1857L23.8358 39.5973C23.8358 39.5973 25.5216 40.1607 25.481 40.1788C25.7981 40.2491 26.0749 40.441 26.2519 40.7133C26.4289 40.9855 26.492 41.3164 26.4276 41.6347L24.9221 45.8718C25.0022 45.9001 25.0804 45.9332 25.1565 45.971L24.9131 45.9079L22.799 51.8309C22.7562 51.9347 22.6932 52.0289 22.6135 52.108C22.5338 52.1871 22.4391 52.2495 22.3349 52.2915C22.2308 52.3334 22.1193 52.3542 22.007 52.3525C21.8948 52.3508 21.784 52.3267 21.6811 52.2816C21.6811 52.3177 20.0359 51.6957 20.0359 51.6957L18.625 54.2379L21.573 55.2882L23.1822 55.8787L21.8299 59.638L24.0837 60.4449L25.4315 56.7261C26.049 56.9605 26.644 57.1769 27.2345 57.3887L25.9138 61.094L28.1676 61.9008L29.5198 58.146C33.4009 59.2819 36.4074 59.2729 38.0121 55.8156C39.3013 53.0344 38.4043 51.2674 36.43 49.9783C37.9806 49.7799 39.2202 48.8964 39.7295 46.8635L39.725 46.8545ZM33.6894 53.7691C32.6932 56.5774 27.9918 54.5444 26.4772 53.999L28.2532 49.0407C29.7858 49.5861 34.7532 50.8437 33.7074 53.7917L33.6894 53.7691ZM35.1588 46.3587C34.2573 48.9145 30.3357 47.1881 29.0601 46.7328L30.6693 42.2252C31.9494 42.676 36.1054 43.7037 35.1769 46.3722L35.1588 46.3587Z" fill="url(#paint5_linear_1070_2212)"/>
<path d="M58.8396 58.6457C58.6592 58.6457 53.1375 58.6818 52.9797 58.6457L49.8244 58.222L48.2197 58.0733L46.1417 57.7712C45.4926 57.618 44.6767 57.7712 44.0096 57.8163C42.636 57.828 41.2645 57.9259 39.9032 58.1093C38.3604 58.4007 36.9869 59.2697 36.0627 60.5389L36.0176 60.602C35.3748 61.6293 34.9313 62.7686 34.7104 63.9602C34.6608 64.4876 34.2597 66.1238 34.431 66.4799H34.4625C35.6404 66.8312 36.8472 67.0771 38.0686 67.2146L44.7669 68.4452C45.3764 68.5132 45.9795 68.6307 46.5699 68.7968C47.1243 68.8644 47.6652 69.0042 48.2107 69.1214L50.3833 69.5721L51.9745 69.9327C52.2235 70.0179 52.4827 70.0694 52.7453 70.086C52.798 70.0603 52.8466 70.0269 52.8895 69.9868C53.485 69.0625 54.2176 68.2342 55.0622 67.5302C55.5973 67.022 56.1585 66.5421 56.7435 66.0923C57.1492 65.7587 57.5188 65.3846 57.9335 65.06C58.497 64.6093 59.101 64.2532 59.678 63.8385L64.4605 60.4082L66.4033 59.0559C66.5881 58.9297 66.6557 58.7314 66.854 58.6052C67.377 58.2903 67.8785 57.9409 68.3551 57.5594C68.5444 57.4061 68.7202 57.2394 68.923 57.1086C69.8441 56.5368 70.7252 55.9027 71.56 55.2109L58.8396 58.6457Z" fill="#24D0C6"/>
<path d="M46.1056 57.7814C45.4565 57.6281 44.6406 57.7814 43.9735 57.8265C42.5999 57.8382 41.2284 57.936 39.8671 58.1195C38.3243 58.4109 36.9508 59.2798 36.0266 60.5491L35.9816 60.6122C35.3525 61.6394 34.9213 62.7754 34.7104 63.9613C34.6608 64.4887 34.2597 66.1249 34.431 66.481H34.4625C34.5166 66.2512 34.6068 66.0303 34.6744 65.8139C34.742 65.5976 34.8231 65.2234 34.9313 64.944C35.0034 64.7501 35.1206 64.5698 35.2018 64.376C35.3901 63.8889 35.6038 63.4119 35.8418 62.9471C36.4235 61.897 37.2471 61.0008 38.2444 60.3327C39.813 59.3591 41.9451 59.1562 43.7481 59.048C44.5715 58.9865 45.3976 58.9699 46.2228 58.9984L46.1056 57.7814Z" fill="#F6F7EB"/>
</g>
<defs>
<linearGradient id="paint0_linear_1070_2212" x1="91.6196" y1="54.2934" x2="103.412" y2="45.7962" gradientUnits="userSpaceOnUse">
<stop stop-color="#AFB2B3"/>
<stop offset="1" stop-color="#D6D9DA"/>
</linearGradient>
<linearGradient id="paint1_linear_1070_2212" x1="98.6931" y1="53.9406" x2="86.7702" y2="45.3456" gradientUnits="userSpaceOnUse">
<stop stop-color="#F63A00"/>
<stop offset="1" stop-color="#FFAF08"/>
</linearGradient>
<linearGradient id="paint2_linear_1070_2212" x1="89.3067" y1="61.0269" x2="91.6149" y2="57.4312" gradientUnits="userSpaceOnUse">
<stop stop-color="#FF9A06"/>
<stop offset="1" stop-color="#FFBC2C"/>
</linearGradient>
<linearGradient id="paint3_linear_1070_2212" x1="48.4467" y1="40.0543" x2="50.1984" y2="39.064" gradientUnits="userSpaceOnUse">
<stop stop-color="#FED20F"/>
<stop offset="1" stop-color="#F9F846"/>
</linearGradient>
<linearGradient id="paint4_linear_1070_2212" x1="0.323746" y1="46.2054" x2="59.265" y2="51.9931" gradientUnits="userSpaceOnUse">
<stop stop-color="#FE8C00"/>
<stop offset="0.72" stop-color="#FDFFAF"/>
<stop offset="1" stop-color="#FE9914"/>
</linearGradient>
<linearGradient id="paint5_linear_1070_2212" x1="27.2162" y1="79.947" x2="30.7086" y2="28.4842" gradientUnits="userSpaceOnUse">
<stop offset="0.23" stop-color="#FFA50E"/>
<stop offset="1" stop-color="#FFFF77"/>
</linearGradient>
<clipPath id="clip0_1070_2212">
<rect width="100" height="100" fill="white"/>
</clipPath>
</defs>
</svg>
