<svg width="100" height="100" viewBox="0 0 100 100" fill="none" xmlns="http://www.w3.org/2000/svg">
<path d="M85.7657 52.2514C85.7685 56.1132 84.9834 59.9355 83.458 63.4863C81.9326 67.0372 79.6987 70.2427 76.8917 72.9086C76.5875 73.203 76.2748 73.4835 75.9536 73.7499C75.6536 74.0106 75.3451 74.2672 75.0324 74.5238C71.2921 77.5362 66.8492 79.5616 62.1145 80.4127C57.9898 80.8558 53.8193 80.5926 49.7839 79.6345C48.698 79.3569 47.6322 79.007 46.5935 78.5871C45.6765 78.238 44.7511 77.9141 43.8637 77.4893C42.3217 76.7366 40.8423 75.8631 39.4394 74.8772C36.3255 72.479 33.7405 69.4688 31.8453 66.0337C29.9501 62.5986 28.7852 58.8122 28.423 54.9098C28.3216 54.0222 28.2793 53.1347 28.2793 52.2514C28.2769 47.1839 29.6271 42.2067 32.1916 37.8292C34.7561 33.4516 38.443 29.8308 42.8749 27.3373H42.9087C47.2809 24.8813 52.2233 23.6083 57.2436 23.6453C62.2639 23.6823 67.1868 25.0279 71.522 27.5481C75.8573 30.0683 79.4536 33.6752 81.9526 38.0094C84.4517 42.3436 85.7664 47.254 85.7657 52.2514Z" fill="#FF5800"/>
<path d="M75.0502 74.541C71.3098 77.5535 66.867 79.5788 62.1322 80.4299C58.001 80.8694 53.8247 80.6005 49.7847 79.6349C48.6989 79.3573 47.633 79.0074 46.5943 78.5875C45.6774 78.2384 44.7519 77.9145 43.8645 77.4897C42.3226 76.737 40.8432 75.8635 39.4402 74.8776C36.3263 72.4794 33.7414 69.4692 31.8462 66.0341C29.951 62.599 28.7861 58.8126 28.4238 54.9102C28.4238 54.9775 28.445 55.049 28.4534 55.1205C28.7155 57.0562 29.18 58.9594 29.8394 60.799C30.263 61.8945 30.7672 62.9574 31.348 63.979C32.9111 66.8525 34.9875 69.4183 37.4753 71.5504C39.4416 73.207 41.6234 74.5922 43.9617 75.6683L45.1703 76.1436C46.1253 76.539 47.0972 76.9386 48.0902 77.2457C52.5948 78.6422 57.3149 78.9282 61.9928 78.5076C63.6451 78.3465 65.2799 78.0396 66.8777 77.5906C69.0946 77.0184 71.2341 76.1824 73.25 75.1005C73.7587 74.8754 74.2325 74.5794 74.6572 74.2214H74.7924L75.0502 74.541Z" fill="#24D0C6"/>
<path d="M41.5657 68.207C44.3298 70.3436 47.4675 71.9523 50.82 72.9518C51.3313 73.1032 51.8553 73.2799 52.3793 73.3724C55.2635 73.9277 58.2194 74.0115 61.1307 73.6206C61.9636 73.531 62.7885 73.3791 63.5985 73.1663L65.9987 72.3923C66.2392 72.2733 66.4912 72.1788 66.7509 72.1105C66.8537 72.1164 66.9569 72.1036 67.0551 72.0726C67.2433 72.0175 67.4282 71.9514 67.6087 71.8749C67.7926 71.7502 67.9913 71.6485 68.2003 71.5721V71.6899C68.2763 71.7866 68.3059 71.8371 68.4285 71.8665L68.4961 71.8118C68.5426 71.8665 68.5214 71.8118 68.5383 71.9296C68.159 72.1645 67.7552 72.3577 67.334 72.5059C66.8354 72.6607 66.3494 72.8533 65.8804 73.0822C65.2 73.3471 64.4732 73.5743 63.7675 73.7762C62.8535 74.0094 61.9223 74.1697 60.9828 74.2557C60.6067 74.2978 60.2391 74.3777 59.863 74.4071C57.1487 74.6223 54.4176 74.4566 51.7496 73.915C48.3175 73.2197 45.1352 71.6221 42.5334 69.2881C42.1626 69.0013 41.824 68.6755 41.5234 68.3164L41.5657 68.207Z" fill="#F6F7EB"/>
<path d="M63.8633 26.0475C63.9638 26.0285 64.067 26.0285 64.1675 26.0475H64.2774L64.3661 26.0937C64.4696 26.134 64.5773 26.1622 64.6873 26.1778L64.8225 26.2199L64.8774 26.1652H64.8267C64.5889 26.1165 64.3633 26.0206 64.1633 25.8834L64.1971 25.8203L65.4268 26.2115C65.4806 26.2225 65.5311 26.2455 65.5747 26.2788C65.6484 26.3095 65.7272 26.3266 65.8071 26.3293L65.917 26.3671H66.0184C66.1283 26.3966 66.2085 26.4513 66.3269 26.4723L66.3776 26.5186C66.5078 26.605 66.6502 26.6717 66.8001 26.7163L66.6565 26.9518L63.8633 26.0475Z" fill="#F7D141"/>
<path d="M79.3005 47.3594L79.516 50.0051L79.423 50.0514C79.3438 49.7589 79.2984 49.4583 79.2878 49.1555L79.0977 47.8936C79.2207 47.7415 79.2917 47.5544 79.3005 47.3594Z" fill="#FFA40D"/>
<path d="M34.8957 44.7207C34.9275 44.8007 34.9501 44.8839 34.9633 44.9689C34.9633 44.9983 34.9126 45.1245 34.9168 45.1371C34.921 45.1497 35.0267 45.2086 35.0816 45.2423C35.1267 45.167 35.1582 45.0844 35.1746 44.9983C35.2191 44.9118 35.2745 44.8312 35.3394 44.7586L35.0056 46.0499L34.6886 47.7619C34.6861 48.0512 34.6257 48.3372 34.5111 48.6031C34.4981 47.6165 34.5773 46.6308 34.7478 45.6587C34.776 45.3431 34.8254 45.0297 34.8957 44.7207Z" fill="#FFA40D"/>
<path d="M79.3105 43.9695L79.357 43.9316C79.3951 43.9905 79.412 44.041 79.4753 44.0662C79.4521 43.9823 79.4521 43.8936 79.4753 43.8096V43.7129C80.1522 45.52 80.5373 47.4224 80.6163 49.3494C80.6565 49.7113 80.6308 50.0775 80.5402 50.4304C80.5402 50.4304 80.4853 50.4009 80.4684 50.3757C80.4536 50.2036 80.4536 50.0305 80.4684 49.8583C80.4916 49.2659 80.4548 48.6726 80.3585 48.0875C80.3332 47.9613 80.3585 47.8309 80.3289 47.7047C80.2994 47.5785 80.3036 47.6752 80.3036 47.5785C80.3099 47.5184 80.3099 47.4578 80.3036 47.3976C80.1792 46.7948 80.0212 46.1994 79.8303 45.6141C79.7631 45.2073 79.6584 44.8074 79.5176 44.4196L79.3105 43.9695Z" fill="#C73D04"/>
<path d="M36.1183 39.2285L36.1606 39.3337C35.7718 40.0782 35.476 40.8437 35.1591 41.6177C35.0481 41.9595 34.9155 42.2938 34.7619 42.6188C34.4217 43.1504 34.1812 43.739 34.052 44.356C33.8379 44.9485 33.6739 45.5577 33.5618 46.1774C33.5457 46.2658 33.5231 46.353 33.4942 46.4381L33.3885 46.8588H33.2871C33.367 46.18 33.5084 45.5099 33.7097 44.8566C33.8872 44.2088 34.0435 43.5442 34.2717 42.909C34.7375 41.6133 35.3575 40.3776 36.1183 39.2285Z" fill="#C73D04"/>
<path d="M40.4785 34.5466C40.6914 34.4442 40.9175 34.372 41.1504 34.332L41.0194 34.6517C40.9048 34.8158 40.7617 34.9582 40.5969 35.0723C40.2672 35.3668 39.9207 35.657 39.6038 35.9725C39.2869 36.288 38.9573 36.7759 38.5981 37.1503C38.3699 37.39 38.0614 37.5709 37.8459 37.8065C37.6156 38.1683 37.3644 38.5166 37.0938 38.8496C37.0973 38.6942 37.1441 38.5427 37.229 38.4122C37.36 38.2523 37.4191 38.0672 37.5374 37.9032C37.6558 37.7391 37.8332 37.5877 37.96 37.4111C38.1307 37.1548 38.2845 36.8878 38.4206 36.6119C38.8308 36.0972 39.271 35.607 39.739 35.1439C39.9509 34.9056 40.2007 34.7038 40.4785 34.5466Z" fill="#FFA40D"/>
<path d="M71.043 33.4688C71.5934 34.005 72.1901 34.492 72.8263 34.9241L74.6222 36.43C75.3575 37.0694 75.9152 37.8475 76.5956 38.5332C77.658 39.888 78.5374 41.3757 79.2113 42.9582C79.3394 43.1963 79.4333 43.4512 79.4902 43.7153V43.8121C79.467 43.8961 79.467 43.9847 79.4902 44.0687C79.4268 44.0434 79.4099 43.993 79.3719 43.9341L79.3254 43.9719C78.9028 43.1517 78.645 42.26 78.2478 41.4481C77.6941 40.4266 77.0597 39.4504 76.3505 38.529C76.1108 38.228 75.8356 37.9568 75.5307 37.7213C75.2521 37.4357 74.9448 37.1792 74.6137 36.9558C74.4532 36.7917 74.2672 36.6782 74.1024 36.5352C73.608 36.0767 73.0756 35.4331 72.4629 35.1302C72.238 35.0381 71.9997 34.9828 71.7572 34.9662C71.4085 34.5283 70.9337 34.2069 70.3965 34.045L71.043 33.4688Z" fill="#E22900"/>
<path d="M70.1602 34.2256L70.3841 34.0195C70.9214 34.1814 71.3961 34.5028 71.7448 34.9407C73.1555 36.1996 74.4483 37.5835 75.6071 39.0755L76.7903 40.9011C76.9401 41.1705 77.1066 41.4304 77.2889 41.6792C78.2564 43.4545 78.9353 45.3711 79.3003 47.3578C79.2881 47.5469 79.2172 47.7277 79.0975 47.8751C78.1634 43.5719 75.9902 39.6328 72.8435 36.5391C72.0277 35.6819 71.1289 34.907 70.1602 34.2256Z" fill="url(#paint0_linear_1055_2258)"/>
<path d="M43.1499 32.7163L43.2936 32.6195C43.6782 32.3672 46.1375 30.937 46.4333 30.9959L44.3205 32.3714C44.0712 32.5522 43.8641 32.792 43.6232 32.9603C43.3824 33.1285 43.1035 33.301 42.8584 33.5029C41.3035 34.77 39.9061 36.2174 38.6961 37.8144C38.5059 38.0709 38.3834 38.378 38.1932 38.6556C37.7172 39.2926 37.2771 39.9555 36.8748 40.641C36.1814 41.9348 35.6709 43.3177 35.3578 44.7506C35.2929 44.8233 35.2375 44.9038 35.193 44.9903C35.1766 45.0764 35.1451 45.159 35.1 45.2343C35.0451 45.2006 34.9605 45.188 34.9352 45.1291C34.9098 45.0703 34.9817 44.9903 34.9817 44.9609C34.9685 44.8759 34.9458 44.7927 34.9141 44.7127L34.9732 44.4183C35.3071 43.2489 35.5733 42.0543 36.0296 40.9354C36.186 40.5148 36.4522 40.1573 36.6128 39.7451C36.7569 39.4436 36.9221 39.1527 37.1072 38.8743C37.3779 38.5413 37.629 38.193 37.8594 37.8312C38.0749 37.5788 38.3834 37.4105 38.6115 37.175C38.9707 36.7964 39.2623 36.359 39.6299 35.9888C39.9976 35.6187 40.2934 35.3831 40.623 35.0887C40.7878 34.9745 40.9309 34.8321 41.0456 34.668L41.1765 34.3483C41.9058 33.8962 42.5698 33.3471 43.1499 32.7163Z" fill="#FED937"/>
<path d="M71.043 33.4705L72.6403 32.3516C72.8005 32.2074 72.9746 32.0791 73.16 31.9688C73.3581 31.9479 73.5578 31.9479 73.7559 31.9688L75.4461 32.0193C75.8581 31.9935 76.2716 32.0104 76.68 32.0698C76.8284 32.3642 77.016 32.6373 77.2378 32.8816L78.4126 34.2234C78.8126 34.5969 79.1684 35.0147 79.4732 35.4685C79.3845 35.8176 79.6296 36.1373 79.5366 36.5033H79.4141C79.1183 36.5579 78.7887 36.9954 78.5689 37.1973C77.9773 37.6978 77.2547 38.0848 76.6167 38.5307C75.9363 37.8493 75.3785 37.0711 74.6433 36.4275L72.8473 34.9217C72.204 34.4919 71.6002 34.0063 71.043 33.4705Z" fill="#FF5800"/>
<path d="M75.4668 32.0273C75.8787 32.0015 76.2923 32.0184 76.7007 32.0778C76.849 32.3722 77.0367 32.6453 77.2585 32.8896L78.4332 34.2314C78.8253 34.6035 79.174 35.0183 79.4728 35.4681C79.384 35.8172 79.6291 36.1369 79.5361 36.5029H79.4136C79.1051 35.7499 78.2811 35.161 77.7614 34.5553C77.4529 34.1936 77.2036 33.8066 76.8655 33.4659C76.4429 33.0453 75.9697 32.6835 75.5724 32.204L75.4668 32.0273Z" fill="#C73D04"/>
<path d="M75.4668 32.0273C75.8787 32.0015 76.2923 32.0184 76.7007 32.0778C76.849 32.3722 77.0367 32.6453 77.2585 32.8896C76.8227 32.8353 76.4058 32.6796 76.0415 32.4353C75.9654 32.3723 75.9866 32.2545 75.9781 32.1619C75.8353 32.1491 75.6913 32.1663 75.5555 32.2124L75.4668 32.0273Z" fill="#8B2D01"/>
<path d="M79.4747 35.4668C81.5171 37.793 83.0755 40.4994 84.0596 43.4294C84.2742 43.9456 84.4343 44.4827 84.5371 45.032C84.5032 45.198 84.4946 45.3682 84.5118 45.5367L84.5667 45.6166C84.5447 45.6871 84.5071 45.7517 84.4568 45.8059C84.4953 46.1151 84.4767 46.4288 84.4019 46.7313C84.4333 46.9514 84.4145 47.1756 84.347 47.3875L84.2624 47.5473H84.1948L84.1188 47.3623L84.085 47.3959C83.9512 47.0208 83.8633 46.631 83.823 46.235C83.5801 45.06 83.251 43.9044 82.8384 42.7774C82.1751 41.0811 81.3591 39.448 80.4002 37.898C80.1418 37.4189 79.8598 36.9528 79.555 36.5016C79.6311 36.1356 79.386 35.8159 79.4747 35.4668Z" fill="#FFA40D"/>
<path d="M84.5355 45.0332C84.6412 45.4244 84.6834 45.8198 84.768 46.2152C84.8313 46.5307 84.9412 46.8335 84.9962 47.1532C85.2952 49.117 85.3647 51.1086 85.2032 53.0883C85.4356 53.4669 85.275 54.5142 85.2455 54.9517C85.2437 55.762 85.1759 56.5709 85.0426 57.3703V57.4166C84.8863 57.9652 84.7928 58.5296 84.7637 59.0991L84.2567 59.3431C84.0398 59.4666 83.8103 59.5668 83.5721 59.6417L81.9241 60.3947C81.9241 60.3484 81.8734 60.2979 81.8818 60.2475C81.9305 60.1099 82.0003 59.9808 82.0889 59.8647C82.2459 59.6303 82.3871 59.3858 82.5114 59.1328C82.967 58.2151 83.324 57.2522 83.5763 56.2599C84.1257 54.1567 84.5567 51.9358 84.4215 49.7527C84.3665 48.9577 84.2059 48.1837 84.0876 47.3972L84.1214 47.3635L84.1975 47.5486H84.2651L84.3496 47.3887C84.4172 47.1769 84.4359 46.9526 84.4045 46.7326C84.4793 46.43 84.498 46.1164 84.4595 45.8072C84.5098 45.753 84.5473 45.6883 84.5694 45.6179L84.5144 45.538C84.4959 45.3696 84.503 45.1994 84.5355 45.0332Z" fill="#FF5800"/>
<path d="M74.0597 68.8105C74.121 69.0876 74.121 69.3747 74.0597 69.6518L73.3836 70.4931L73.2779 70.3879C73.2061 70.3122 73.223 70.0136 73.2188 69.9L73.2441 69.4331C73.5422 69.262 73.8164 69.0527 74.0597 68.8105Z" fill="#9F973F"/>
<path d="M57.0502 28.449C61.7389 28.449 66.3222 29.833 70.2207 32.4259C74.1191 35.0188 77.1576 38.7042 78.9519 43.0161C80.7462 47.328 81.2156 52.0726 80.3009 56.6501C79.3862 61.2275 77.1284 65.4322 73.813 68.7324C70.4977 72.0325 66.2736 74.28 61.6751 75.1905C57.0765 76.101 52.31 75.6337 47.9783 73.8476C43.6465 72.0616 39.9441 69.0371 37.3393 65.1565C34.7344 61.2759 33.3441 56.7136 33.3441 52.0465C33.3508 45.7901 35.8505 39.7918 40.2949 35.3679C44.7392 30.944 50.765 28.4557 57.0502 28.449ZM57.0502 23.25C51.3286 23.25 45.7354 24.9389 40.9781 28.1031C36.2207 31.2673 32.5128 35.7647 30.3232 41.0265C28.1336 46.2884 27.5607 52.0784 28.677 57.6644C29.7932 63.2503 32.5484 68.3814 36.5943 72.4086C40.6401 76.4359 45.7947 79.1785 51.4064 80.2896C57.0181 81.4007 62.8348 80.8304 68.1209 78.6509C73.407 76.4714 77.9252 72.7805 81.1039 68.0449C84.2827 63.3094 85.9794 57.7419 85.9794 52.0465C85.9727 44.4131 82.9219 37.0947 77.4975 31.6991C72.0731 26.3035 64.7187 23.2721 57.0502 23.271V23.25Z" fill="url(#paint1_linear_1055_2258)"/>
<path d="M73.8801 73.3242C73.6641 73.0385 73.4892 72.7242 73.3604 72.3904C73.3604 72.3526 73.3604 72.3147 73.3604 72.2726C73.3168 72.2769 73.273 72.2769 73.2294 72.2726C72.7214 72.6415 72.1638 72.9375 71.5729 73.1518L68.2515 74.6156C67.8966 74.7502 67.5247 74.8385 67.1613 74.9563C65.2835 75.5565 63.3448 75.9487 61.3805 76.1256C60.1317 76.2664 58.8764 76.3422 57.6197 76.3528C53.1658 76.3233 48.8978 75.0278 44.8496 73.2611C43.1105 72.4796 41.4543 71.5271 39.9055 70.4176C37.1842 68.5164 34.5135 66.3333 32.7218 63.4898C32.0507 62.3442 31.485 61.1405 31.0316 59.8934L30.1864 57.3402C29.8399 56.0458 29.5941 54.7267 29.4512 53.3947C29.299 52.3897 29.2017 51.3773 29.1596 50.3619C29.1791 49.4295 29.2709 48.4999 29.4342 47.5815C29.7312 45.5622 30.2688 43.5853 31.0358 41.6927C31.3477 40.842 31.7161 40.0129 32.1387 39.211L32.088 39.1815C32.1429 39.0217 32.2317 38.8955 32.2993 38.7609L32.4387 38.4749L32.4683 38.4076C32.6542 38.0921 32.9289 37.7766 33.0937 37.4485C33.1317 37.377 33.1655 37.3476 33.2036 37.2845C33.2416 37.2214 33.2416 37.2088 33.2332 37.2172L33.2881 37.1499L33.3388 37.0868L33.2839 37.0279C33.1499 36.8745 33.0337 36.7066 32.9374 36.5273L32.1429 37.7009C32.0246 37.886 31.9528 38.1215 31.7499 38.2057C31.177 39.0749 30.7116 40.0099 30.3639 40.9902C28.8005 45.0813 28.1153 49.453 28.3525 53.8237L28.3905 54.156C28.3905 54.2738 28.4201 54.3874 28.4412 54.5051L28.4919 54.8417C28.5257 55.0309 28.5553 55.216 28.5891 55.4053C28.5891 55.4684 28.6102 55.5399 28.6187 55.6072C28.88 57.5299 29.3416 59.4203 29.9963 61.2479C30.4193 62.3361 30.9221 63.3919 31.5006 64.4068C33.0583 67.2598 35.1262 69.8057 37.6025 71.9193C39.5565 73.5726 41.7272 74.9537 44.0552 76.0247L45.2595 76.5C46.2103 76.8912 47.1822 77.2908 48.1668 77.5978C52.6545 78.9775 57.3534 79.2551 62.0144 78.8597C63.6684 78.7052 65.3049 78.4011 66.9035 77.9512C69.1087 77.3838 71.237 76.5533 73.2421 75.4778C73.747 75.2561 74.2179 74.9644 74.6408 74.6113L73.8801 73.3242Z" fill="#FF5800"/>
<path d="M79.2366 70.4393C78.4325 71.4455 77.5615 72.3969 76.6294 73.287C76.3251 73.5772 76.0124 73.8633 75.6913 74.1282C75.3701 74.3932 75.0828 74.6498 74.7701 74.9022C71.0297 77.9146 66.5868 79.94 61.8521 80.7911C57.723 81.235 53.548 80.9704 49.5088 80.0087C48.4195 79.7323 47.3495 79.3852 46.3057 78.9697C45.393 78.6206 44.4633 78.2967 43.5802 77.8719C42.0386 77.116 40.558 76.2427 39.1516 75.2598C36.0359 72.8604 33.449 69.8491 31.5517 66.4127C29.6544 62.9763 28.4872 59.1883 28.1226 55.2839C28.0423 54.3964 28 53.5173 28 52.6256C27.9946 48.195 29.0262 43.8241 31.0129 39.8594C30.8566 40.3725 30.7256 40.8941 30.5608 41.319C29.0163 45.378 28.3398 49.7132 28.5747 54.0473C28.5747 54.1609 28.5747 54.2702 28.6127 54.3796C28.6508 54.4889 28.6423 54.6109 28.6592 54.7245C28.6761 54.8381 28.693 54.9474 28.7142 55.0568C28.7437 55.2461 28.7775 55.4312 28.8071 55.6205C28.8071 55.6878 28.8325 55.7593 28.8409 55.8266C29.098 57.7338 29.5554 59.6088 30.2058 61.421C30.6224 62.501 31.1196 63.5485 31.6933 64.5547C33.2288 67.3889 35.2708 69.9204 37.7191 72.0251C39.6554 73.6574 41.8047 75.0214 44.1084 76.08L45.3254 76.5511C46.2635 76.9381 47.227 77.3335 48.2031 77.6363C52.6401 79.0118 57.2883 79.2852 61.8986 78.8982C63.5326 78.7439 65.1492 78.4426 66.7286 77.9981C68.9157 77.4386 71.0258 76.615 73.0122 75.5458C73.4597 75.3357 73.8845 75.0806 74.2799 74.7844C74.7954 74.4143 75.7504 73.7118 76.8406 72.8453C77.7012 72.1068 78.5023 71.3023 79.2366 70.4393Z" fill="#24D0C6"/>
<path d="M99.9204 31.0009V49.9714C99.4979 49.8662 98.3992 49.6096 97.9851 49.8242L97.9513 50.0934L97.909 50.1523H97.8837C97.8447 50.0605 97.7838 49.9796 97.7062 49.9167C96.8853 50.0094 96.0791 50.2029 95.306 50.493C93.636 51.0551 92.0917 51.9351 90.7591 53.0841C88.7731 54.8171 86.8335 56.5543 84.7248 58.1316C84.3361 58.4261 83.9769 58.7878 83.5755 59.057C83.1971 59.2349 82.7983 59.3663 82.388 59.4482L80.7442 60.0329C79.7364 60.4216 78.7602 60.8871 77.8243 61.4252C75.8678 62.5272 74.0719 63.8438 72.1745 65.0384C70.518 66.0663 68.8085 67.007 67.053 67.8566C66.5755 68.088 66.2585 68.4497 65.7388 68.6264L65.7937 68.7105L62.4132 69.9724H62.2948L61.6103 68.8451C60.127 66.4013 62.2188 62.8343 63.8837 60.9919C64.5151 60.2965 65.237 59.6882 66.0303 59.1832C66.4909 58.8972 66.9769 58.6616 67.4544 58.4093C67.8806 58.2311 68.2943 58.0245 68.6925 57.7909L70.142 57.1305C70.3527 57.0614 70.5564 56.9727 70.7505 56.8655L71.173 56.651L76.0284 54.2576C76.5298 53.9957 76.9745 53.638 77.3371 53.205C77.6996 52.772 77.9728 52.272 78.1412 51.7338C78.6675 50.1502 78.9371 48.4931 78.9399 46.8251C79.0328 43.5736 78.6187 40.4399 77.2496 37.4534L76.4763 35.855C76.3254 35.4158 76.077 35.0161 75.7495 34.6856C75.4878 34.5159 75.2033 34.3842 74.9043 34.2944C74.512 34.0759 74.107 33.8807 73.6915 33.7098L72.0013 32.8685C71.8029 32.7449 71.59 32.646 71.3674 32.5741C71.124 32.6005 70.8827 32.6426 70.6448 32.7002L68.7432 32.8727H64.0781C63.7185 32.8211 63.3547 32.8056 62.9921 32.8264L61.4835 32.7844C61.3106 32.7697 61.1367 32.7697 60.9637 32.7844C60.799 32.8821 60.6446 32.9962 60.5031 33.1251L59.096 34.1094L58.5171 34.5931L58.3184 34.774C58.0128 35.0811 57.682 35.3625 57.3296 35.6152C56.671 36.1544 55.984 36.6585 55.2717 37.1253C53.8043 38.1263 52.2025 38.9164 50.5136 39.4724C49.6615 39.7673 48.7471 39.8368 47.8598 39.6743C46.3175 39.3042 45.3244 37.9539 44.5511 36.692C44.8059 36.5388 45.0682 36.3984 45.3371 36.2714L46.6048 35.5101L50.915 32.6245L52.8504 31.0808C53.1318 30.9086 53.3679 30.6721 53.5392 30.391L54.2449 29.5497C54.5983 29.1833 54.9219 28.7895 55.2126 28.3719L55.3393 28.1616C55.7415 27.8069 56.179 27.494 56.6451 27.2278C57.2282 26.9586 60.7989 25.1541 62.5146 24.2834L62.9371 24.0647L63.3597 23.8586L63.4358 23.8207H63.3048C62.7259 23.9048 60.3764 24.1951 58.8129 23.5263C57.1859 22.7515 55.6069 21.8807 54.0843 20.9183C54.0843 20.9183 51.0545 21.991 49.8586 22.2475C48.6627 22.5041 45.3371 23.5767 43.182 23.5094C42.398 23.4817 41.6234 23.3297 40.8874 23.0594L41.0142 22.7775V22.7313C40.1814 22.5245 39.4349 22.0625 38.8802 21.4105C38.5028 21.0916 38.2649 20.639 38.2168 20.1486C38.3985 19.8163 39.3873 19.5807 39.738 19.4588C41.2905 18.9126 42.7886 18.2241 44.2131 17.4019C45.1765 16.8382 46.1146 16.14 47.0189 15.4922L48.3416 14.5626C49.1867 14.5626 50.0319 14.6383 50.877 14.5626L52.9898 14.3313L56.5098 14.1209L58.2551 14.0158C58.5223 13.9947 58.7907 13.9947 59.0579 14.0158C59.3377 14.1027 59.5966 14.2459 59.8186 14.4364C59.8735 14.4364 60.0594 14.4743 60.089 14.5121L64.6401 14.5794H65.7768C65.9844 14.552 66.1947 14.552 66.4022 14.5794C66.9007 14.7627 67.377 15.0012 67.822 15.2903C69.5884 16.2283 71.2871 17.3261 73.0999 18.18C73.6366 18.4366 74.393 18.3315 74.9846 18.4282C75.6556 18.5673 76.304 18.7981 76.9115 19.1138C78.0229 19.648 79.0244 20.3421 80.1019 20.9352L81.9105 21.9237L83.4571 22.6598L85.7559 23.9217C86.746 24.5467 87.7797 25.1005 88.8491 25.5789C88.8491 25.5789 96.4976 29.2595 96.7047 29.4403C97.0635 29.6701 97.4478 29.8578 97.8499 29.9998L99.9204 31.0009Z" fill="#F6F7EB"/>
<path d="M75.5293 20.6328C75.9268 20.6853 76.3117 20.8078 76.666 20.9946L78.0605 21.4993L79.231 22.0083L81.8214 22.9884L81.6946 23.0136C79.7836 22.5112 77.9234 21.8339 76.1378 20.9903C75.9584 20.9167 75.7713 20.8631 75.58 20.8305L75.7237 20.8095C75.6965 20.7536 75.6521 20.7079 75.5969 20.6791L75.5293 20.6328Z" fill="#AAA5A2"/>
<path d="M59.8203 14.4355C59.8752 14.4355 60.0612 14.4734 60.0908 14.5113C60.2598 14.7552 60.5598 14.6375 60.7922 14.7847C61.143 14.9992 61.4726 15.2558 61.8317 15.4535C62.2923 15.7101 62.791 15.8741 63.2516 16.1349L64.5193 16.8289L65.0221 17.0813L65.1658 17.1528C65.3175 17.221 65.4656 17.2968 65.6095 17.38L67.1688 18.2212C67.7279 18.4855 68.2711 18.7818 68.7957 19.1088L68.745 19.155C68.4976 19.0487 68.2589 18.9236 68.0308 18.7807L65.8546 17.6534L63.6657 16.5387C63.2854 16.2989 62.867 16.1601 62.4825 15.9414C61.6458 15.4535 60.4626 15.1464 59.8203 14.4355Z" fill="#BFB8B1"/>
<path d="M63.306 23.8218C62.7271 23.9059 60.3776 24.1961 58.8141 23.5273C57.1871 22.7526 55.6081 21.8817 54.0855 20.9194C54.0855 20.9194 51.0557 21.992 49.8598 22.2486C48.664 22.5052 45.3383 23.5778 43.1832 23.5105C42.3992 23.4827 41.6247 23.3308 40.8887 23.0604L41.0154 22.7786C41.269 22.8039 41.5183 22.8585 41.7676 22.8964C41.8536 22.8991 41.9389 22.9132 42.0212 22.9385C42.3634 22.9637 42.7226 23.031 43.0649 23.031C43.5424 22.9637 44.0072 22.9385 44.4805 22.8333C44.9538 22.7281 45.4567 22.5599 45.9511 22.4127C47.2494 22.0277 48.5722 21.7297 49.9105 21.5209L51.5332 21.2938C52.3412 21.1142 53.1395 20.8937 53.925 20.6334C54.0599 20.5625 54.2014 20.5048 54.3475 20.4609C54.4054 20.466 54.4608 20.4863 54.5081 20.5198C55.7758 21.2097 56.9632 21.9037 58.269 22.4926C58.9257 22.8097 59.6085 23.07 60.31 23.2708C60.8666 23.4145 61.4309 23.5269 62.0003 23.6073C62.4404 23.645 62.877 23.7168 63.306 23.8218Z" fill="url(#paint2_linear_1055_2258)"/>
<path d="M66.4875 48.926C66.9101 46.1792 64.7972 44.7196 61.9237 43.7143L62.8576 39.9875L60.5757 39.4239L59.6926 43.0371C59.0925 42.8899 58.4756 42.7511 57.8671 42.6165L58.7798 38.9696L56.481 38.4102L55.5514 42.137L54.0935 41.7752L50.9538 40.9928L50.3453 43.4157C50.3453 43.4157 52.0356 43.8027 52.0018 43.8363C52.3147 43.8734 52.6008 44.0302 52.7996 44.2736C52.9983 44.517 53.0941 44.8278 53.0667 45.1403L52.006 49.3929C52.0871 49.4108 52.1663 49.4361 52.2427 49.4686L52.0018 49.4055L50.5101 55.3532C50.4404 55.5602 50.2925 55.7322 50.0977 55.8326C49.9029 55.9331 49.6765 55.9543 49.4664 55.8916C49.4875 55.9211 47.8099 55.471 47.8099 55.471L46.6816 58.0663L49.6396 58.8024C50.1932 58.937 50.7341 59.0842 51.2623 59.223L50.32 63.0087L52.5976 63.5723L53.5315 59.8456C54.1513 60.0138 54.7555 60.1694 55.3443 60.3125L54.4147 64.0224L56.6923 64.5903L57.6347 60.8298C61.5181 61.5575 64.4423 61.2505 65.6635 57.7676C66.6565 54.9536 65.617 53.33 63.5506 52.27C65.0381 51.9293 66.1621 50.9534 66.4579 48.9386L66.4875 48.926ZM61.2857 56.1903C60.58 59.0085 55.8176 57.4858 54.2752 57.103L55.5429 52.1101C57.0853 52.4971 62.0378 53.2542 61.3026 56.1903H61.2857ZM61.9871 48.8881C61.3448 51.4455 57.3811 50.15 56.0965 49.8261L57.229 45.3001C58.4967 45.6198 62.659 46.2171 61.9871 48.8881Z" fill="url(#paint3_linear_1055_2258)"/>
<defs>
<linearGradient id="paint0_linear_1055_2258" x1="74.4915" y1="41.124" x2="76.0839" y2="39.994" gradientUnits="userSpaceOnUse">
<stop stop-color="#FED20F"/>
<stop offset="1" stop-color="#F9F846"/>
</linearGradient>
<linearGradient id="paint1_linear_1055_2258" x1="28.1169" y1="52.0465" x2="85.9794" y2="52.0465" gradientUnits="userSpaceOnUse">
<stop stop-color="#FE8C00"/>
<stop offset="0.72" stop-color="#FDFFAF"/>
<stop offset="1" stop-color="#FE9914"/>
</linearGradient>
<linearGradient id="paint2_linear_1055_2258" x1="44.4678" y1="18.1433" x2="59.5376" y2="28.703" gradientUnits="userSpaceOnUse">
<stop stop-color="#8E8F92"/>
<stop offset="1" stop-color="#D0C5BA"/>
</linearGradient>
<linearGradient id="paint3_linear_1055_2258" x1="57.491" y1="82.139" x2="55.9836" y2="31.9993" gradientUnits="userSpaceOnUse">
<stop offset="0.23" stop-color="#FFA50E"/>
<stop offset="1" stop-color="#FFFF77"/>
</linearGradient>
</defs>
</svg>
