<?xml version="1.0" encoding="UTF-8"?>
<svg width="100" height="100" id="Layer_1" data-name="Layer 1" xmlns="http://www.w3.org/2000/svg"
  viewBox="0 0 100 100">
  <defs>
    <style>
      .cls-1 {
      fill: #f95921;
      }

      .cls-1, .cls-2, .cls-3 {
      stroke-width: 0px;
      }

      .cls-4 {
      opacity: .9;
      }

      .cls-2 {
      fill: #ff8a4d;
      }

      .cls-3 {
      fill: #fff;
      }
    </style>
  </defs>
  <path class="cls-2"
    d="M57.5988,31.2073v1.7696c0,8.0496-6.4494,14.575-14.4056,14.575s-14.4022-6.5254-14.4022-14.575v-1.7696c0,8.0461,6.4494,14.5715,14.4022,14.5715s14.4056-6.5254,14.4056-14.5715Z" />
  <path class="cls-1"
    d="M48.1909,27.2634l.0173-.0138c-.477-.356-1.0853-.6394-1.7662-.8779l.5703-2.3122-1.3929-.3526-.5565,2.2535c-.3664-.0934-.7397-.1797-1.1164-.2662l.5599-2.2708-1.3929-.3525-.5703,2.3157c-.3042-.0726-.6013-.1383-.8917-.2108v-.0104l-1.9182-.4838-.3698,1.5069s1.0127.2316,1.0127.2523c.5633.1417.6636.5219.6498.8225l-.6498,2.6372c.038.0104.0898.0241.1451.0484-.0484-.0104-.0968-.0276-.1486-.038l-.9125,3.6982c-.0691.1728-.2453.432-.6394.3318.0139.0207-1.0126-.2557-1.0126-.2557l-.6912,1.6141.8917.2246.9193.2316c.3387.0829.667.1728.9954.2593l-.5772,2.3399,1.3929.3525.5703-2.3157c.3664.1002.7396.2005,1.1094.2903l-.5668,2.3053,1.3929.3526.5772-2.3399c2.3779.4562,4.1613.273,4.9114-1.901.6048-1.7488-.0311-2.7581-1.2788-3.4182.9125-.2108,1.5967-.8191,1.7799-2.0703.1555-1.0472-.2662-1.7972-1.023-2.364l-.0173.0173M46.0514,34.1276c-.4286,1.7488-3.3422.8053-4.2858.5668l.6809-2.7685.083-.3319c.0726.0173.1555.0381.2522.0588,1.1371.2592,3.6844.7914,3.2697,2.4781v-.0034ZM46.4834,29.5861c-.2453,1.0058-1.3133,1.0541-2.2603.8951-.5461-.0863-1.0576-.2419-1.341-.311l.6912-2.8134c.6256.1556,2.3537.4217,2.8272,1.3617.1279.2419.1694.5254.0829.8676Z" />
  <g class="cls-4">
    <path class="cls-3"
      d="M78.7702,81.7134c-.0654-.1328-.2285-.1885-.3545-.1201-1.002.4941-2.042.8525-3.1797,1.0947-4.0957.8828-8.6123.1562-13.8408-.6885-1.4795-.2383-3.0088-.4854-4.5762-.7012-1.8701-.2559-3.71-.29-5.4883-.3232-2.459-.0449-5.001-.0928-7.6855-.7227-1.0977-.2598-1.8408-.7666-2.9639-1.5332-.998-.6816-2.2402-1.5293-4.2617-2.5977l-1.0195-.54c-.4414-.2334-.8535-.4512-1.2432-.6602-.5449-.2861-1.0381-.5518-1.4844-.793l-.4238-.2373c-.6592-.3662-1.1338-.6445-1.5459-.9053-.0986-.0586-.1904-.1211-.2891-.1885-.2207-.1426-.4277-.2852-.627-.4287-.0791-.0615-.1553-.1182-.2783-.208-.0039-.0029-.0791-.0605-.083-.0625-.2754-.2109-.5479-.4443-.8672-.7441l-.1328-.1221c-2.2412-2.1533-6.9639-10.7148-6.6924-11.7002.001-.0029.0254-.0654.0264-.0684.0039-.0078.04-.0684.043-.0762.0215-.0283.0381-.0488.0479-.0566.0039-.0029.0762-.0557.0801-.0586l.0615-.0342c.0039-.002.0723-.0322.0762-.0342l.0781-.0273c.0322-.0098.0654-.0205.1172-.0273.0449-.0088.0889-.0146.1436-.0176,1.3525-.1221,4.2812,1.2676,6.8701,5.4541.0117.0186.0264.0361.042.0518.4121.3955.8594.8789,1.2949,1.3975l.2266.2666c1.0576,1.2773,1.8984,2.5049,1.9072,2.5166.0527.0771.1318.1201.2344.1152,1.7998-.1025,3.04-.127,5.2109.0283.0576.0029.1211.0059.1934.0137.7236.0352,2.0557.3271,2.4463.416.0273.0059.0566.0088.083.0049.3994-.0361.6143-.082.8232-.126.25-.0527.4854-.1025,1.0498-.1328h1.0332c.584,0,1.1221.0068,1.6191.0127,2.4629.0283,3.96.0479,4.8906-.8105.0088-.0049.0176-.0107.0264-.0176.0596-.0459.1064-.0928.1436-.1406.0312-.0312.0498-.0527.0723-.0811.0742-.0918.0791-.2217.0107-.3193-.5869-.8389-1.2598-1.5898-2.0547-2.2959-.651-.5804-1.3712-1.1216-2.2606-1.7022-.0151-.0132-.0302-.0198-.048-.0292h0c-.1523-.1035-.3066-.2012-.46-.2969l-.0791-.0488c-.0947-.0645-.1914-.124-.333-.21-.5332-.335-2.4141-1.5879-4.249-3.6494h0c-.0076-.0093-.0128-.017-.0216-.0251-.1392-.1579-.2784-.3175-.4149-.4836-.4199-.5029-.8174-1.0527-1.1836-1.6348-.8789-1.3906-1.252-2.5645-1.0771-3.3945.001-.0049.0234-.1064.0234-.1113.0039-.0205.0107-.042.0332-.0977.0098-.0332.0225-.0635.041-.1074.0117-.0283.0264-.0557.0508-.1055.0137-.0283.0303-.0566.0576-.0957.0361-.0557.0703-.1094.1406-.1865l.0488-.0518c.083-.0859.1768-.1621.3115-.248l.0693-.041c.0352-.0234.0693-.04.1025-.0586.793-.3955,1.8135.2666,3.2051,1.4707.0039.0039.0527.042.0566.0449.0225.0176.0469.0352.085.0693l.3047.2441c.2734.2217.5967.4814.9619.7637l.002.002c.0068.0068.0146.0137.0225.0195.4619.3682.9785.7646,1.5254,1.1729.0031.0021.0105.0067.0157.0099.0015.0012.0012.0035.0028.0047.1953.1465.3896.293.5859.4326.0027.002.0062.0011.009.0029.2933.2215.5903.4282.8787.624.7363.5137,1.3779.9131,1.9033,1.1875.1611.0859.3184.1611.4668.2285.1465.0615.2842.1123.4141.1543,2.2041.665,3.9092,1.1328,5.2783,1.5088,3.7832,1.0381,5.0576,1.3877,7.5391,3.3633.4414.3525.8828.7314,1.3242,1.1104,1.5195,1.3037,3.0918,2.6523,4.6025,2.7998,1.3867.1553,5.0039-2.4854,6.083-3.2939,1.4766-1.1064,2.8594-2.2744,3.8936-3.2891.1045-.1025.1064-.2705.0039-.375-.1035-.1055-.2715-.1064-.375-.0039-1.0176.999-2.3818,2.1514-3.8408,3.2441-2.6494,1.9854-4.916,3.2734-5.7119,3.1904-1.3457-.1309-2.8525-1.4248-4.3096-2.6748-.4463-.3828-.8936-.7666-1.3398-1.1221-2.5654-2.0439-3.8672-2.4014-7.7285-3.4609-1.3672-.375-3.0684-.8418-5.2607-1.5029-.1104-.0361-.2344-.0811-.3594-.1338-.1328-.0605-.2803-.1299-.4316-.2119-.5088-.2646-1.1299-.6533-1.8516-1.1562-.2871-.1943-.5801-.3994-.877-.6221-.1483-.1057-.2969-.2187-.4457-.3316l.0307-.1469c.0156-.0811.0312-.1631.043-.2412l.0557-.3291c.051-.3254.0851-.6279.1069-.9131.0096-.092.0178-.183.0239-.2881.0078-.1553.0107-.3027.0068-.4404,0-.0654,0-.127-.0039-.1699,0-.0615-.0029-.1201-.0068-.1709l-.0137-.1836c-.0059-.0811-.0195-.1602-.041-.292-.001-.0049-.0137-.0693-.0146-.0742l-.0518-.208c-.0117-.0479-.0273-.0977-.0439-.1484-.0557-.1631-.127-.3066-.2119-.4248-.0293-.041-.0596-.0791-.0928-.1172-.0352-.04-.0674-.0723-.1074-.1074-.1484-.1309-.3252-.2178-.5332-.2588-.4668-.0908-.9805.2539-1.5615,1.0361-.127.1768-.2539.3682-.3848.5771-.0983.1562-.1934.3245-.2889.4928-1.2755-1.1024-2.6144-2.1222-3.7853-1.5338-.0527.0273-.1006.0537-.1143.0664-.0371.0166-.0723.0391-.1221.0723-.1484.0938-.2744.1963-.4131.3408-.0381.0391-.0498.0566-.0488.0566-.0762.0781-.1309.1602-.1719.2256-.0352.0498-.0674.1035-.1025.1748-.0215.042-.042.084-.0605.1309-.0195.0469-.0391.0938-.042.1113-.0303.0674-.0518.1367-.0508.1592-.0166.0488-.0273.0986-.0303.1279-.2568,1.2227.4834,2.7344,1.1484,3.7871.3779.6006.79,1.1699,1.2227,1.6895.1246.152.2531.2982.3821.4452-.0217,1.3708.0248,2.4881.0808,3.7706.0175.4036.0352.8388.0525,1.294-.217-.2274-.4414-.4604-.6941-.7071-.2783-1.5303-.666-2.8145-2.7549-5.0625-.0205-.0957-.042-.1895-.0635-.2832l-.0371-.1592c-.0732-.3359-.1572-.6592-.2412-.958-.0811-.3047-.165-.5928-.252-.8691-.043-.1348-.0889-.2676-.1318-.3896-.041-.1309-.085-.251-.1328-.3809-.0439-.126-.0908-.251-.1348-.3594-.0879-.2344-.1807-.4551-.2764-.6592l-.1377-.2959c-.0459-.0957-.0918-.1875-.1377-.2764-.0938-.1797-.1865-.3516-.2812-.5029-.0938-.1553-.1885-.3027-.2803-.4287-.1709-.252-.3564-.4756-.5674-.6816-.0986-.0986-.1953-.1865-.29-.2588l-.1221-.0918c-.0469-.0381-.0928-.0693-.1143-.0791-.0518-.0391-.1035-.0693-.1309-.0791-.2305-.1328-.4512-.2158-.6641-.251-.0186-.0039-.0566-.0137-.0752-.0137-.0977-.0137-.1807-.0186-.2822-.0117-.083.0078-.1631.0166-.2197.0293-.0879.0137-.1592.04-.2402.0713-.6979.2804-.6399,1.3267-.5068,2.4235-.0642-.0884-.1273-.1754-.1924-.2584-.124-.1553-.2441-.3027-.3662-.4424-.125-.1465-.25-.2793-.374-.4062-.5947-.6133-1.209-1.0371-1.7754-1.2256-.0039-.001-.0693-.0195-.0723-.0205-.0645-.0176-.1289-.0352-.1816-.0449-.1924-.0439-.3877-.0537-.6006-.0303l-.1797.0332c-.1055.0225-.1953.0508-.2793.0889-.1318.0566-.251.1387-.3418.2305-.0518.0459-.0879.0947-.1133.1309-.0205.0273-.0361.0537-.0176.0332-.0186.0186-.0439.0527-.0557.0752-.0195.0361-.04.0752-.0566.1143-.0068.0107-.0127.0215-.0166.0332-.0156.0361-.0303.0723-.0449.1289l-.001-.001c-.0049.0117-.0205.0664-.0234.0781-.0137.0498-.0273.1006-.0352.1445l-.0137.0752c-.002.0127-.0107.0547-.0107.0684-.0078.0566-.0127.1113-.0156.167-.0039.0703-.0068.1406-.0068.2402,0,.0469,0,.0977.0029.1309,0,.042.002.084.0078.165l.0439.4277c.001.0039.0098.0742.0107.0781.0156.1016.0322.209.0518.3164.0137.0791.0322.1641.0498.248l.1475.6357c.0117.0635.0293.124.0605.2383.1221.4443.2646.9248.4209,1.4287.0615.1992.126.3975.21.6523.0576.1641.1133.3281.1689.499l.0244.0732c.0605.1807.123.3662.1885.5498l.4453,1.3115c.0791.2139.1533.4355.2344.6885.0352.1016.0723.209.1074.3164.0781.2266.1543.4541.2305.6816l.2236.6895c.0518.1543.1025.3115.1504.4697l.1422.4623c.0006.0023-.0013.0042-.0006.0065.1319.432.2495.8338.3549,1.2116-.2693-.2974-.537-.5813-.7924-.8278-2.7109-4.3672-5.8721-5.793-7.3408-5.6758-.0742.0049-.1396.0127-.1914.0234-.0664.0088-.1289.0254-.1953.0459l-.0752.0264c-.04.0117-.0762.0273-.1123.0469-.0645.0234-.1143.0557-.1318.0703-.0479.0244-.082.0527-.1299.0898-.0654.0498-.1123.1064-.1514.1582-.041.0518-.0762.1113-.0898.1484-.0342.0635-.0586.125-.0713.1797-.375,1.3604,4.7754,10.2432,6.8447,12.2305l.1631.1504c.2988.2803.585.5244.8984.7656.0254.0195.0508.04.1133.084.0723.0527.1455.1064.2275.1709.2148.1553.4297.3037.6514.4463.1016.0693.2031.1377.3057.1982.415.2637.8975.5459,1.5615.915l.4277.2393c.4541.2451.9492.5127,1.4941.7979.3877.209.8008.4277,1.2441.6611l1.0176.54c1.9961,1.0547,3.2246,1.8926,4.2119,2.5664,1.1719.7998,1.9473,1.3291,3.1406,1.6113,2.7402.6436,5.3115.6914,7.7979.7373,1.7627.0332,3.5869.0674,5.4258.3184,1.5605.2148,3.0879.4609,4.5635.6992,3.4443.5566,6.7568,1.0908,9.8438,1.0908,1.4512,0,2.8525-.1182,4.1934-.4072,1.1807-.252,2.2607-.624,3.3027-1.1387.1318-.0645.1855-.2236.1201-.3545ZM44.9626,52.4624c.1045.0176.1934.0605.2744.1348.0225.0195.0391.0361.0703.0713l.0459.0605c.0537.0771.1025.1768.1445.2959.1399.4003.1791.9858.1216,1.7119-.0012.0103-.0012.0188-.0025.0293-.0195.2363-.0498.4854-.0898.7363l-.0566.332c-.0049.0371-.0117.0752-.0186.1123l-1.2021-.9199c-.0078-.0059-.0166-.0117-.0254-.0166l-.8975-.7839c.0762-.1328.1514-.2688.2305-.3929.1201-.1934.2393-.3779.3633-.5449.6016-.8096.9258-.8535,1.042-.8262ZM47.9113,65.654c-.2771-.163-.566-.3256-.8764-.4992l-.5303-.2988c-.002-.0225-.0039-.0479-.0068-.0762,0-.0029-.0078-.0703-.0078-.0732-.0062-.0434-.0148-.1-.0225-.1515.5372.3691,1.009.729,1.4438,1.0989ZM45.1208,63.6802c.0869.0527.1758.1064.2715.1709l.0879.0547c.1301.0818.2606.1663.3903.2529.001.0197.0074.0667.0101.0811.0371.2119.0635.3975.085.5479l.2627-.0381-.2539.125c.0059.0547.0098.1074.0098.1416,0,.0957.0508.1836.1328.2305l.6592.3711c1.2651.7075,2.197,1.236,3.1655,2.3531-.7816.6894-2.1898.6747-4.4936.6488-.499-.0059-1.04-.0117-1.626-.0117h-.4377c-.2432-.6244-.7335-1.5686-1.7605-2.7822l-.1143-.1309c-.0589-.0677-.1229-.1406-.1878-.2143-.0228-.7015-.0496-1.3272-.0749-1.9097-.0472-1.0928-.0863-2.0709-.0842-3.1797,1.7281,1.8177,3.4055,2.9419,3.9582,3.2891ZM32.7214,52.6753c.04-.0156.0752-.0283.125-.0371.0527-.0117.1113-.0166.1621-.0215.0566-.0068.1094,0,.2168.0176.1621.0273.3262.0898.501.1895.0078.0049.0957.0586.1055.0625.0254.0146.0479.0303.0762.0537l.1289.0967c.0771.0586.1543.1309.2373.2139.1865.1826.3506.3799.5068.6094.0898.1221.1748.2578.2627.4023.0889.1426.1758.3027.2617.4688.0439.085.0879.1729.1299.2588l.1348.291c.0908.1953.1777.4023.2646.6309.043.1064.0859.2236.1338.3604.042.1113.083.2227.124.3535.0439.125.0879.2539.1289.3828.085.2686.167.5488.2471.8486.0811.292.1631.6055.2344.9326l.0381.165c.0254.1123.0518.2246.0752.3408.0098.0488.0322.0938.0664.1289,2.2334,2.3887,2.4639,3.6826,2.6865,4.9336.0098.0547.0361.1055.0762.1436.3032.2925.5735.5728.8659.8824.004.0048.0029.0126.0071.017.0363.0383.0718.0724.1077.11l.5954.6605c.8795,1.0384,1.3367,1.8547,1.5883,2.4365h-.0345c-.6191.0322-.8877.0889-1.1465.1436-.1943.041-.3779.0801-.7197.1133-.4941-.1119-1.5644-.339-2.2878-.4028l-.0169-.065c-.0127-.0596-.0283-.1162-.0439-.1729l-.0234-.085c-.2266-.7754-.5664-1.5889-1.0391-2.4873-.002-.0059-.0049-.0107-.0078-.0166-.2676-.5059-.5625-1.0166-.9014-1.5615l-.2637-.417c-.1953-.3047-.3857-.5996-.5684-.8779l-.374-.5713c-.1562-.2383-.3008-.4609-.4248-.666-.0264-.1562-.0596-.3115-.0947-.4688-.002-.0059-.0293-.1191-.0312-.126l-.0249-.0805c-.0002-.0011-.0005-.0021-.0007-.0032-.0003-.0195-.0076-.069-.0115-.0862l-.1016-.4033c-.0146-.0576-.0293-.1143-.0459-.1689l-.04-.1426c-.0186-.0674-.0371-.1348-.0557-.1924-.0322-.1152-.0684-.2344-.1064-.3438-.0732-.2285-.1475-.4541-.2217-.6416-.0029-.0137-.0205-.0723-.0254-.085l-.0605-.1582c-.0586-.1533-.1172-.3057-.1777-.4521-.0879-.2217-.1836-.4365-.2822-.6553l-.0645-.1406c-.0732-.1602-.1465-.3213-.2217-.4746-.0049-.0078-.0088-.0156-.0137-.0234-.0654-.1338-.1348-.2646-.2041-.3945l-.0928-.1758-.0059-.0088c-.002-.0059-.0049-.0098-.0068-.0146-.1317-.2449-.2718-.4794-.4125-.7119-.0223-.2095-.0499-.4308-.0797-.6553-.1133-.8838-.2695-2.0928.1455-2.2588ZM29.905,61.4175c-.0332-.1055-.0723-.2168-.1143-.3398-.0752-.2324-.1514-.46-.2305-.6748l-.4434-1.3066c-.0664-.1865-.1279-.3691-.1875-.5469l-.0244-.0723c-.0566-.1709-.1123-.3389-.1836-.5439-.0674-.2041-.1309-.4004-.1924-.5957-.1543-.498-.2949-.9727-.4297-1.4658-.0137-.0488-.0273-.0947-.04-.1602l-.1455-.6279c-.0176-.0801-.0342-.1611-.0479-.2344-.0186-.1035-.0342-.207-.0566-.3613l-.0498-.5498c-.0029-.0391-.0029-.0781-.0029-.1309,0-.0703.0029-.1309.0068-.1914.0029-.042.0059-.083.0098-.1162.001-.002.0205-.1182.0205-.1211.0068-.0381.0176-.0742.041-.1621.0059-.0205.0137-.041.0215-.0615.0068-.0117.0117-.0225.0166-.0342.0107-.0254.0234-.0508.0176-.0508,0,0-.002.001-.0029.002v-.002c.0166-.0195.0557-.0762.0635-.0859l.0498-.0605c.0576-.0576.1191-.0996.1934-.1318.0527-.0234.1064-.041.123-.0498.0176,0,.0752-.0088.0918-.0127l.1035-.0195c.1396-.0156.2773-.0078.4219.0244.0479.0088.0947.0225.1914.0498.4863.1611,1.0273.5381,1.5635,1.0918.1172.1201.2344.2432.3525.3818.1172.1357.2334.2773.3516.4258.0762.0977.1504.1982.2275.3057.1868.2582.3676.534.545.8157.0032.0064.003.0141.0067.0203.1436.2354.2871.4805.418.7207.002.0049.0049.0088.0068.0127s.0039.0088.0068.0127h-.001l.0938.1768c.0684.1299.1377.2607.207.3984.0029.0059.0068.0127.0107.0195.0928.1924.1855.3887.2734.5879.0947.21.1865.417.2754.6396.0742.1699.1396.3467.2051.5215l.0205.0537c.002.0068.0186.0586.0205.0664.082.2129.1533.4336.2256.6592.0371.1055.0693.2148.1035.335.0264.0762.0479.1553.0684.2344l.1555.5736.0099.0428c.0012.0229.0032.0456.0104.0672.0098.0312.0166.0654.0312.1406.0088.0244.0137.0488.0244.1025.0371.165.0684.3281.0986.4932.0059.0312.0166.0605.0332.0879.1611.2695.3564.5703.5732.8994l.2656.4033c.124.1885.2529.3887.3838.5928l.4385.6865c.335.542.623,1.04.8779,1.5215.0088.0186.0186.0352.0303.0508.0004.0005.0011.0004.0015.0009.4423.8445.775,1.6395.9839,2.3536l.0244.0879c.0038.0135.0074.0304.0112.0444-2.0562-.137-3.2835-.1199-4.9614-.0268-.2393-.3408-.9521-1.3418-1.8115-2.3848-.1636-.6639-.3699-1.4031-.6296-2.2533-.0007-.0026.0015-.0049.0007-.0074l-.1455-.4707c-.0488-.1602-.1016-.3213-.1533-.4785l-.2246-.6924c-.0771-.2295-.1533-.459-.2305-.6807Z" />
    <path class="cls-3"
      d="M28.7907,45.6187c.1465,0,.2646-.1182.2646-.2646v-6.0312c0-.1465-.1182-.2646-.2646-.2646s-.2646.1182-.2646.2646v6.0312c0,.1465.1182.2646.2646.2646Z" />
    <path class="cls-3"
      d="M57.3337,40.4917v16.4336c0,.1465.1182.2646.2646.2646s.2646-.1182.2646-.2646v-16.4336c0-.1465-.1182-.2646-.2646-.2646s-.2646.1182-.2646.2646Z" />
    <path class="cls-3"
      d="M56.2106,43.0835v6.915c0,.1465.1182.2646.2646.2646s.2646-.1182.2646-.2646v-6.915c0-.1465-.1182-.2646-.2646-.2646s-.2646.1182-.2646.2646Z" />
    <path class="cls-3"
      d="M28.7907,49.4614c.1465,0,.2646-.1182.2646-.2646v-2.5059c0-.1465-.1182-.2646-.2646-.2646s-.2646.1182-.2646.2646v2.5059c0,.1465.1182.2646.2646.2646Z" />
    <path class="cls-3"
      d="M29.7155,44.4478v6.1074c0,.1465.1182.2646.2646.2646s.2646-.1182.2646-.2646v-6.1074c0-.1465-.1182-.2646-.2646-.2646s-.2646.1182-.2646.2646Z" />
    <path class="cls-3"
      d="M43.1931,47.813c8.0898,0,14.6709-6.6553,14.6709-14.8359,0-.0009-.001-.0015-.001-.0024v-1.4224c0-.0129-.0119-.0207-.0137-.0331.0019-.0984.0146-.1942.0146-.293,0-8.1826-6.5811-14.8398-14.6709-14.8398s-14.667,6.6572-14.667,14.8398c0,.0982.0127.1932.0146.2909-.002.0132-.0146.0215-.0146.0353v1.4238s.0002.0003.0002.0005-.0002.0003-.0002.0005c0,8.1807,6.5791,14.8359,14.667,14.8359ZM43.1931,47.2837c-6.5684,0-12.0887-4.5638-13.6684-10.718,2.1254,5.5466,7.4431,9.4963,13.6684,9.4963s11.5472-3.9506,13.6727-9.4982c-1.5793,6.1552-7.1011,10.7199-13.6727,10.7199ZM43.1931,16.9155c7.7979,0,14.1406,6.4199,14.1406,14.3105s-6.3428,14.3066-14.1406,14.3066-14.1367-6.418-14.1367-14.3066,6.3418-14.3105,14.1367-14.3105Z" />
    <path class="cls-3"
      d="M43.1931,44.3306c7.1445,0,12.957-5.8779,12.957-13.1045,0-2.9893-.9648-5.8008-2.79-8.1299-2.4746-3.166-6.1797-4.9814-10.167-4.9814-7.1445,0-12.9561,5.8818-12.9561,13.1113,0,3.0059,1.0303,5.9414,2.9033,8.2676,2.4746,3.0742,6.1387,4.8369,10.0527,4.8369ZM30.7663,31.2261c0-6.9375,5.5752-12.582,12.4268-12.582,3.8223,0,7.376,1.7422,9.749,4.7783,1.752,2.2354,2.6777,4.9336,2.6777,7.8037,0,6.9336-5.5752,12.5742-12.4268,12.5742-3.752,0-7.2656-1.6904-9.6406-4.6387-1.7959-2.2324-2.7861-5.0508-2.7861-7.9355Z" />
  </g>
</svg>