<?xml version="1.0" encoding="UTF-8"?>
<svg width="100" height="100" id="Layer_1" data-name="Layer 1" xmlns="http://www.w3.org/2000/svg"
  viewBox="0 0 100 100">
  <defs>
    <style>
      .cls-1 {
      fill: #f95921;
      }

      .cls-1, .cls-2, .cls-3, .cls-4 {
      stroke-width: 0px;
      }

      .cls-5, .cls-2 {
      opacity: .9;
      }

      .cls-2, .cls-4 {
      fill: #fff;
      }

      .cls-3 {
      fill: #ff8a4d;
      }

      .cls-6 {
      isolation: isolate;
      opacity: .9;
      }
    </style>
  </defs>
  <path class="cls-3"
    d="M49.9982,16.6691h-2.4456c-5.2462,0-9.4941,2.3895-12.7398,6.3083-.0898.1047-.1609.1982-.2393.3029-1.8323,2.281-3.3355,5.0555-4.4947,8.1405-.5421,1.4172-1.017,2.9017-1.406,4.446-.7441,2.8718-1.2489,5.9194-1.4957,9.0529-.0786.9273-.1346,1.8696-.1683,2.8232-.0075.2468-.015.5048-.0225.7516-.0149.4973-.0224.9984-.0224,1.5032,0,.5759.0075,1.1442.0224,1.7126.015.5759.0412,1.1367.0711,1.6939.0299.5571.0711,1.118.1197,1.6715.1121,1.4808.2879,2.9578.5272,4.4049.2318,1.4733.5198,2.9204.8788,4.3339.4151,1.7051.9199,3.3429,1.5182,4.9097.0074.0337.0149.0561.0337.0897,1.4321,3.758,3.3654,7.0636,5.8296,9.5578.0337.0224.0561.0561.0898.0897,3.0214,3.0326,6.8392,4.8611,11.5021,4.8611h2.4456c-4.9808,0-9.9242-4.0534-13.499-10.5411-.415-.7291-.8002-1.4883-1.1592-2.281h-.0075c-.6955-1.4883-1.32-3.07-1.8696-4.7415-.4076-1.2639-.774-2.5839-1.0882-3.9413-.7441-3.1672-1.2003-6.5588-1.32-10.1074-.0149-.5684-.0224-1.1367-.0224-1.7126,0-.7665.0149-1.5182.0486-2.2698.015-.344.0337-.688.0561-1.032.2954-4.734,1.2302-9.1801,2.6138-13.125.4787-1.3911,1.0246-2.726,1.6154-3.9824,1.1591-2.4867,2.5128-4.6853,3.9749-6.54,3.1821-4.0123,6.9401-6.3793,10.6533-6.3793Z" />
  <g class="cls-6">
    <path class="cls-2"
      d="M36.4956,73.0567c-.0918,0-.1816-.0479-.2305-.1328-.4414-.7568-.8252-1.4971-1.1719-2.2627-.0117-.0146-.0215-.0303-.0273-.043-.7217-1.5176-1.3584-3.124-1.8945-4.7725-.4336-1.333-.8037-2.6699-1.1016-3.9756-.7412-3.2314-1.1738-6.6436-1.2852-10.1396v-.0039h0c-.0049-.1475.1104-.2705.2578-.2754.0029-.001.0059-.001.0088-.001.1436,0,.2617.1143.2666.2588.1172,3.4619.5596,6.8447,1.3135,10.0547q0,.001.001.001c.3037,1.3174.668,2.6357,1.0811,3.9199.5371,1.6318,1.1543,3.1992,1.834,4.6602.0127.0166.0234.0342.0322.0527.3574.7881.7432,1.5479,1.1484,2.2598.0723.1279.0283.29-.0986.3633-.042.0244-.0879.0361-.1338.0361Z" />
  </g>
  <g class="cls-6">
    <path class="cls-2"
      d="M31.1294,46.9668c-.0049,0-.0107-.001-.0166-.001-.1465-.0088-.2588-.1357-.25-.2822.2773-4.665,1.1279-9.0938,2.5273-13.1621.4668-1.3867,1.0117-2.7363,1.6191-4.0107,1.1426-2.458,2.502-4.6543,4.04-6.5293.0244-.0322.0498-.0635.0742-.0947.1152-.1455.375-.1152.4541.0518.0439.0938.0312.2041-.0342.2842-.0264.0303-.0518.0615-.0771.0928-1.46,1.8701-2.7598,4.0195-3.8652,6.3896-.6025,1.2812-1.1426,2.6123-1.6045,3.9561-1.4414,4.1084-2.3154,8.5-2.6006,13.0547-.0088.1416-.126.251-.2666.251Z" />
  </g>
  <path class="cls-1"
    d="M44.8344,34.0309c-.1758,0-.3478.0187-.5161.0561-2.1838.445-3.9712,3.687-3.9712,7.4226,0,3.7879,1.8323,7.0711,4.0572,7.445.142.0224.2841.0374.4263.0374,2.4156,0,4.4872-3.4552,4.4872-7.4824s-2.0679-7.4786-4.4872-7.4786h.0037ZM44.8344,45.5367c-1.3798,0-2.5876-2.0117-2.5876-4.0272,0-2.0117,1.2078-4.0272,2.5876-4.0272.2617,0,.5161.0748.7628.2019,1.0395.5646,1.8286,2.1988,1.8286,3.8253,0,1.6378-.7965,3.2757-1.8361,3.8291-.2392.1309-.4936.1982-.7516.1982h-.0037ZM62.0951,36.9064l-21.7479,22.1593v4.0272l21.7479-22.1593v-4.0272ZM57.608,51.0111c-.1608,0-.3179.015-.4749.0449-2.2062.4113-4.0161,3.672-4.0161,7.4338,0,3.7655,1.8062,7.0262,4.0161,7.4375.157.0337.3141.0448.4749.0448.1982,0,.4001-.0224.5908-.0747,2.1539-.5011,3.8964-3.7094,3.8964-7.4114,0-3.687-1.735-6.8916-3.8851-7.4039-.1982-.0523-.4001-.0747-.602-.0747v.0037ZM57.608,62.5208c-1.3836,0-2.5914-2.0155-2.5914-4.0347,0-2.0117,1.2078-4.0272,2.5914-4.0272.2617,0,.5161.0748.7591.2019,1.0358.5609,1.8286,2.1913,1.8286,3.8253,0,1.6378-.7965,3.2757-1.8323,3.8328-.2392.1309-.4973.1982-.7553.1982v.0037Z" />
  <g class="cls-5">
    <path class="cls-4"
      d="M68.1606,31.166c-3.7998-9.2422-10.1318-14.7607-16.9395-14.7607-.0985,0-.1954.0165-.2937.0188-.0222-.006-.0377-.0256-.0618-.0256h-4.9541c-10.5967,0-19.2188,15.0752-19.2188,33.6035,0,1.9902.1052,3.9372.296,5.8333-9.3771-1.0572-12.8116-2.5191-12.8116-3.5159,0-.3516.5537-1.5938,7.6904-2.8057.1455-.0254.2432-.1631.2188-.3086-.0254-.1445-.1553-.2354-.3086-.2188-8.1357,1.3818-8.1357,2.8506-8.1357,3.333,0,2.1356,7.4716,3.3967,13.4027,4.0615,1.7101,15.4835,9.5179,27.2169,18.8668,27.2169h4.9541c.0095,0,.0151-.0092.0244-.0101.1092.0029.2178.014.3271.014,6.7158,0,13-5.3975,16.8135-14.4404.0117-.0176.0215-.0361.0283-.0527.6904-1.6338,1.2832-3.3486,1.7607-5.0938.4023-1.4141.7422-2.8975,1.0117-4.4082.5605-3.126.8457-6.3545.8457-9.5977,0-5.0205-.6582-9.8457-1.9551-14.3408-.4346-1.5459-.9609-3.0605-1.5615-4.502ZM27.228,50.002c0-18.2344,8.3809-33.0684,18.6836-33.0684h1.7225c-3.0642.8846-5.958,2.8888-8.5067,5.957-1.5186,1.9268-2.8662,4.1465-4.0068,6.5957-.6104,1.2979-1.1572,2.6465-1.625,4.0068-1.4561,4.1484-2.3408,8.5879-2.6289,13.1963-.0225.3467-.041.6924-.0557,1.0381-.0332.7266-.0498,1.4727-.0498,2.2812,0,.5781.0078,1.1494.0234,1.7217.0515,1.5215.1766,3.0242.3513,4.5083-.4314-.036-.869-.0703-1.2908-.1089-.8105-.0746-1.5754-.1526-2.3138-.2327-.1957-1.9146-.3034-3.8825-.3034-5.8953ZM45.9116,83.0625c-9.0576,0-16.6273-11.4646-18.3252-26.6221.7754.0836,1.5202.1573,2.21.2208.4565.0418.9292.0792,1.3968.118.223,1.7401.5275,3.4484.9177,5.1096.2979,1.3027.666,2.6367,1.0947,3.9658.5645,1.7021,1.1973,3.3076,1.8818,4.7705.0078.0156.0166.0312.0273.0449.3574.7861.7441,1.5439,1.1484,2.2549,3.0222,5.3281,7.0334,8.8613,11.3546,10.1377h-1.7062ZM70.3062,59.5127c-.2666,1.4932-.6035,2.959-1.001,4.3584-.4707,1.7188-1.0527,3.4053-1.7285,5.0059-.0098.0146-.0186.0303-.0254.0469-3.7266,8.8555-9.832,14.1426-16.334,14.1426-5.457,0-10.7383-3.792-14.4893-10.4053-.4053-.7119-.791-1.4717-1.1484-2.2598-.0078-.0176-.0186-.0342-.0303-.0498-.667-1.4316-1.2852-3.001-1.8359-4.6631-.4238-1.3125-.7881-2.6309-1.082-3.9209-.3776-1.6084-.6769-3.26-.8965-4.9427.9178.0732,1.851.1418,2.8063.2034.2968,2.1118.7224,4.1685,1.2904,6.1495.3584,1.2568.7939,2.5273,1.2949,3.7764.668,1.6592,1.4502,3.2197,2.3242,4.6396.0049.0078.0098.0156.0156.0225.3242.5332.6025.959.873,1.335,3.0508,4.3164,6.917,6.6943,10.8857,6.6943,4.7129,0,9.0986-3.21,12.3506-9.0381.0098-.0146.0186-.0293.0264-.0449l.002.001c.835-1.4961,1.5801-3.1543,2.2158-4.9268.457-1.2588.8711-2.627,1.2314-4.0654.8955-3.6602,1.3506-7.5518,1.3506-11.5664,0-5.8223-.9717-11.4434-2.8076-16.2559-.5781-1.5176-1.2236-2.918-1.9189-4.1611-.5283-.9727-1.1182-1.9082-1.7529-2.7812-3.0566-4.2109-6.7568-6.4375-10.7012-6.4375-.0215,0-.043.0029-.0635.0088-4.4033.0303-8.5742,2.9102-11.7529,8.1182-.7314,1.2041-1.3896,2.4863-1.9541,3.8096-2.2227,5.1406-3.3984,11.2637-3.3984,17.707,0,2.2075.1457,4.3683.4174,6.4762-.9513-.0618-1.8786-.1311-2.7921-.2044-.1804-1.5037-.3074-3.0272-.3597-4.5696-.0137-.5664-.0215-1.1318-.0215-1.7061,0-.7998.0156-1.5391.0479-2.2578.0146-.3418.0332-.6836.0557-1.0273.2852-4.5596,1.1602-8.9521,2.6006-13.0547.4619-1.3438,1.002-2.6748,1.6045-3.957,1.123-2.4121,2.4492-4.5967,3.9375-6.4854,3.417-4.1123,7.4551-6.2861,11.6787-6.2861,6.583,0,12.7314,5.3936,16.4453,14.4297.5938,1.4229,1.1123,2.918,1.542,4.4443,1.2832,4.4482,1.9336,9.2246,1.9336,14.1943,0,3.2109-.2812,6.4092-.8359,9.5039ZM66.0327,56.4541c-4.9912.3398-10.3867.5117-16.0342.5117-5.2177,0-10.3057-.1536-14.9886-.4448-.2772-2.1165-.4225-4.2889-.4225-6.5083,0-6.3711,1.1592-12.4209,3.3545-17.4961.5547-1.3008,1.2012-2.5605,1.9199-3.7422,3.0938-5.0703,7.1309-7.8623,11.3672-7.8623.0215,0,.043-.0029.0635-.0078,3.7393.0264,7.2646,2.1748,10.1982,6.2168.6211.8535,1.1982,1.7695,1.7168,2.7256.6846,1.2227,1.3193,2.5996,1.8867,4.0928,1.8145,4.752,2.7725,10.3076,2.7725,16.0654,0,3.9717-.4492,7.8203-1.334,11.4385-.3555,1.4199-.7646,2.7695-1.2158,4.0127-.625,1.7441-1.3584,3.374-2.1787,4.8447-.0088.0117-.0166.0234-.0234.0361-3.1543,5.6582-7.377,8.7734-11.8896,8.7734-3.791,0-7.502-2.2969-10.4512-6.4697-.2656-.3701-.5391-.7881-.8604-1.3174-.0059-.0088-.0117-.0176-.0186-.0264-.8545-1.3896-1.6191-2.918-2.2725-4.542-.501-1.249-.9189-2.4668-1.2773-3.7236-.5516-1.9238-.9637-3.9214-1.2563-5.9708,4.6635.288,9.722.4405,14.9097.4405,5.6602,0,11.0664-.1729,16.0713-.5137.1465-.0098.2578-.1377.248-.2852-.0098-.1465-.1074-.2451-.2852-.248Z" />
    <path class="cls-4"
      d="M75.3784,48.5547c-.1426-.0215-.2803.083-.2998.2295-.0195.1455.083.2803.2295.2998,7.7529,1.041,10.5146,2.3545,10.5146,3.2363,0,.9824-3.2754,2.4121-12.4688,3.4766-.1475.0176-.252.1494-.2354.2959.0156.1367.1318.2373.2656.2373.0098,0,.0205-.001.0303-.002,5.9043-.6846,12.9434-1.9346,12.9434-4.0078,0-1.5205-3.6943-2.7881-10.9795-3.7656Z" />
  </g>
</svg>