<?xml version="1.0" encoding="UTF-8"?>
<svg width="100" height="100" id="Layer_1" data-name="Layer 1" xmlns="http://www.w3.org/2000/svg"
  viewBox="0 0 100 100">
  <defs>
    <style>
      .cls-1 {
      fill: #f95921;
      }

      .cls-1, .cls-2, .cls-3 {
      stroke-width: 0px;
      }

      .cls-2 {
      fill: #fff;
      opacity: .9;
      }

      .cls-3 {
      fill: #ff8a4d;
      }

      .cls-4 {
      isolation: isolate;
      opacity: .9;
      }
    </style>
  </defs>
  <g>
    <path class="cls-2"
      d="M35.9271,33.1609c.129-.1205.2612-.2345.3909-.3534.3193-.2926.6382-.5862.962-.869.0958-.0836.1937-.162.2898-.2448.3607-.3105.7219-.6196,1.0878-.9178.1129-.0921.2283-.1783.3417-.2692.3508-.2811.7018-.5618,1.0571-.8316.1693-.1286.3417-.2492.5121-.3752.3026-.2238.6042-.45.9099-.6655.2094-.1476.422-.2861.6328-.4298.2704-.1844.5394-.3726.812-.5505.2274-.1484.4579-.2872.6869-.431.2601-.1635.5189-.3313.7809-.4888.225-.1353.4528-.2611.6791-.392.2664-.1541.5315-.3121.7996-.46.0233-.0088.0468-.018.067-.0337.0021-.0016.0029-.0043.005-.006,1.2951-.7281,2.6701-1.3955,4.0907-1.9833.0757-.0078.1465-.0488.1914-.1162.0708-.1055.0571-.2471-.0332-.3369l-.0078-.0078c-.0366-.0371-.0825-.0615-.1318-.0723-9.125-3.7744-17.4116-3.1973-22.1724,1.5518-.0682.068-.1276.1431-.194.2125-.0193.0114-.0433.0081-.0599.0248l-3.4722,3.4648c-3.811,3.8008-4.6294,10.2588-2.2461,17.7158.1357.4297.2798.8525.4321,1.2852.2871.7871.6289,1.6279,1.0449,2.5703.0439.0996.1416.1592.2441.1592.0361,0,.0728-.0068.1079-.0225.1348-.0596.1958-.2168.1362-.3516-.4111-.9326-.749-1.7627-1.0312-2.5361-.1494-.4238-.2915-.8408-.4258-1.2656-2.3203-7.2617-1.5498-13.5225,2.1147-17.1777l1.1675-1.1651c-2.4704,4.4918-2.5076,10.6895.0029,17.5889.0356.0986.125.167.229.1748.0073.001.0146.001.0215.001.0962,0,.1855-.0518.2329-.1367.7086-1.2707,1.4982-2.5315,2.3471-3.7487.0004-.0005.0011-.0008.0015-.0013,1.7583-2.5322,3.8013-4.9658,6.0732-7.2324.303-.3024.6114-.5943.919-.8876.1348-.1285.2673-.2622.403-.389ZM43.9096,26.4064c-.2697.1641-.5375.3336-.8051.5038-.2178.1385-.4358.2761-.6522.4186-.264.1739-.5257.3539-.7875.5338-.2148.1476-.4301.2936-.6434.4451-.2634.1872-.5241.381-.7852.5742-.2076.1537-.4162.3049-.6223.4624-.2654.2028-.5277.4128-.7905.6218-.1981.1575-.3974.3118-.594.4729-.2723.223-.541.4542-.8104.684-.1831.1562-.3678.3084-.5496.4677-.2883.2527-.5725.5142-.8572.7745-.1595.1458-.3211.2871-.4794.4353-.3439.3218-.6832.6532-1.0215.9863-.0936.0922-.1895.1799-.2827.2729-.0532.0531-.1026.1089-.1556.1622-.4992.502-.9895,1.0103-1.4659,1.5276-.1821.1978-.3541.4014-.5328.6013-.3397.3799-.6802.7592-1.0071,1.1463-.2005.2374-.3904.4798-.5859.7197-.2908.3567-.5826.7125-.8621,1.0745-.2017.2612-.3934.5264-.5892.7902-.1964.2645-.4009.5258-.591.7927-.0679-.3213-.1304-.6543-.1968-1.0234-.8579-4.9775.1318-9.1777,2.7876-11.8281,2.0591-2.0537,4.9507-3.0996,8.4194-3.0996,1.7397,0,3.625.2627,5.6226.7939-.173.0986-.3436.205-.5159.306-.2159.1266-.4318.2529-.6465.3835ZM26.0065,44.6504c-2.8066-8.1143-1.9966-15.1602,2.249-19.3955,2.5742-2.5684,6.2334-3.8672,10.5205-3.8672,3.2158,0,6.7852.7314,10.5142,2.2061-1.2308.5305-2.4219,1.1202-3.5531,1.754-6.4044-1.8314-11.76-1.0195-15.0841,2.2977-2.7817,2.7754-3.8247,7.1426-2.936,12.2969.1008.5613.1953,1.0396.3107,1.5214-.7201,1.0377-1.3996,2.1064-2.0211,3.1866Z" />
    <path class="cls-2"
      d="M76.6617,50.1084c-.0083-.04-.0205-.0781-.0542-.1748-.6724-1.627-1.4526-3.2227-2.3188-4.7422-.0264-.0928-.0742-.1504-.1191-.1943-.0649-.0635-.1587-.0898-.2466-.0693-.0889.0205-.1611.084-.1919.1699-.4609,1.292-1.0049,2.5811-1.6177,3.832-.0176.0195-.0327.041-.0439.0654-1.8599,3.8662-4.3242,7.5498-7.3247,10.9482-.2212.2529-.4502.5039-.6768.7539-.5054.5439-1.0181,1.0781-1.5566,1.6152-.394.4014-.7959.7861-1.2046,1.1709-2.5176,2.3496-5.1978,4.4062-7.9653,6.1143-1.1304.7012-2.311,1.3682-3.5083,1.9824-.0762.0391-.1289.1113-.1421.1963-.0132.084.0146.1689.0752.2295.0244.0244.0605.0479.0991.0645,1.5142.7715,3.0903,1.4492,4.6567,2.0029.0356.0176.0908.0449.1641.0547,3.3481,1.1836,6.5288,1.7676,9.4258,1.7676,3.0065,0,5.6961-.6453,7.959-1.8907l-1.1943,1.1915c-4.2544,4.2441-11.9595,4.5537-20.6519.8154-.0332-.0088-.0605-.0195-.1245-.0576-1.5474-.668-3.0972-1.4609-4.6074-2.3564-.0176-.0107-.041-.0186-.0654-.0254-.1597-.0576-.3613.0742-.3613.2549,0,.1094.0791.2031.1802.2451,1.5215.9004,3.083,1.6982,4.5981,2.3477.0723.0488.1567.0859.2104.0957,4.0811,1.7568,7.9634,2.6299,11.3965,2.6299,4.0186,0,7.4214-1.1963,9.8022-3.5723l3.4722-3.4639c.015-.0148.0118-.0369.0225-.054.0698-.0665.1469-.1238.2153-.1921,4.689-4.6855,5.3188-12.8359,1.6982-21.7549ZM55.1818,69.0319c.2106-.1416.423-.2764.6324-.4219.5535-.3844,1.1005-.7874,1.6447-1.1987.1074-.0813.2167-.1569.3237-.2392,1.3352-1.0261,2.641-2.1274,3.9046-3.3068.415-.3896.8218-.7803,1.2188-1.1846.5415-.54,1.0591-1.0801,1.5703-1.6299.231-.2539.4619-.5098.6851-.7627,2.254-2.5535,4.1993-5.2701,5.8268-8.1012.0338-.0588.0626-.1193.0962-.1782.4307-.7569.8527-1.5171,1.2361-2.2899.6963,1.5273,1.2598,3.0449,1.6885,4.54,0,.0244.0034.0488.0098.0723.2729.9658.4868,1.9268.6353,2.8564.7803,4.9043-.2021,8.8887-2.8418,11.5225-2.9385,2.9316-7.6792,3.8115-13.3926,2.4756-1.4058-.335-2.8643-.8105-4.3418-1.417.3712-.2347.7364-.4897,1.1041-.7366ZM54.8317,73.6133c-.0283-.0098-.0723-.0303-.1025-.0303-1.4214-.5049-2.8276-1.0996-4.187-1.7705,1.0151-.5342,2.0136-1.1055,2.9783-1.7002,1.6239.6877,3.2311,1.2242,4.8234,1.5928,1.7681.416,3.4507.6221,5.0225.6221,3.6338,0,6.6772-1.0996,8.8228-3.2402,2.7261-2.7188,3.7886-6.9746,2.9922-11.9834-.1509-.9424-.3662-1.9141-.6416-2.8906-.0054-.0488-.0186-.0898-.0308-.1299-.4595-1.6183-1.0939-3.2939-1.8876-4.9841.5225-1.0723.9979-2.1696,1.412-3.2737.7725,1.3887,1.4722,2.8389,2.0884,4.3359l.0317.1016c3.5513,8.7598,2.9653,16.6943-1.5669,21.2236-4.291,4.2812-11.4907,5.0547-19.7549,2.127Z" />
  </g>
  <path class="cls-3"
    d="M72.7851,25.9124l1.7123,1.7084c3.6783,3.6698,4.9784,8.3125,4.5106,13.319-.0079.1344-.0317.2531-.0475.3797-.3171,2.871-1.2049,5.8686-2.5526,8.8345-.6104,1.3683-1.3239,2.7366-2.1325,4.097-1.4904,2.5309-3.274,5.0144-5.2955,7.3792-.5945.704-1.2129,1.4-1.8629,2.088-.1665.1819-.3409.3638-.5073.5457-.333.3559-.6818.7197-1.0385,1.0678-.4044.4033-.8086.7909-1.2129,1.1784-.4122.3875-.8245.7672-1.2367,1.1389-.4122.3718-.8324.7356-1.2525,1.0836-1.1178.957-2.2752,1.8666-3.4564,2.7128-1.1971.87-2.4099,1.6767-3.6545,2.4123-1.4824.9017-2.9886,1.6925-4.5107,2.3728-.0317.0158-.0475.0316-.0871.0395-3.6387,1.6293-7.3091,2.5863-10.7813,2.61h-.1268c-4.2412,0-8.197-1.3841-11.471-4.6426l-1.7123-1.7084c3.496,3.4879,9.7983,4.1048,16.8537,2.0723.8007-.2215,1.6013-.4825,2.4099-.7831,1.53-.5457,3.0758-1.218,4.6376-2.001,1.1732-.6011,2.3544-1.2655,3.5277-1.9931,2.7429-1.6926,5.4382-3.749,8.0067-6.1454.4122-.3875.8165-.7751,1.2129-1.1785.539-.5378,1.0543-1.0757,1.5617-1.6214.2299-.2531.4598-.5061.6817-.7592,3.1075-3.5195,5.573-7.2843,7.3646-11.0096.6421-1.305,1.197-2.6258,1.6568-3.915.9275-2.5468,1.5221-5.0302,1.7995-7.3555.5788-5.0381-.3963-9.3249-2.9965-11.9191v-.0079Z" />
  <path class="cls-1"
    d="M56.8117,37.0408c-.7611-1.2655-2.1801-1.305-3.9558-.6328-1.1177.4271-2.3861,1.1389-3.7179,2.0168l-1.3238-3.1636-2.6002,1.914,1.2921,3.0845c-.6818.5062-1.3794,1.0282-2.069,1.5503l-1.3001-3.1083-2.6002,1.914,1.3318,3.1716c-.5628.4113-1.1098.8304-1.6568,1.2338l-3.5911,2.6259.8641,2.0563s1.8708-1.4078,1.8867-1.392c1.0544-.7751,1.5776-.5695,1.8551-.2531l1.5061,3.6066c.0635-.0554.1665-.1266.2775-.1898-.0872.0632-.1823.1266-.2775.1977l2.1166,5.0618c.0555.269.0238.8068-.7135,1.3446.0475,0-1.8867,1.392-1.8867,1.392l.4518,2.6812,1.6648-1.2259,1.7123-1.2655c.6263-.4666,1.2526-.9095,1.863-1.3604l1.3318,3.1953,2.6002-1.914-1.3239-3.1637c.6897-.4983,1.3873-1.0045,2.077-1.5186l1.316,3.1637,2.6001-1.914-1.3318-3.1953c4.2887-3.4088,7.0158-6.4696,6.112-9.7915-.7134-2.6812-2.727-2.6259-5.3906-1.2417,1.2763-1.6846,1.7916-3.3772.872-4.8878l.008.0079ZM56.0428,46.5634c1.0068,2.3885-4.6376,6.1849-6.4054,7.482l-1.5855-3.7884-.1903-.4587c.1427-.0949.2933-.2135.4677-.348,2.0929-1.5897,6.7462-5.1963,7.7055-2.8947l.008.008ZM52.3247,41.4699c.5867,1.3762-1.1019,3.14-2.7825,4.5241-.975.8067-1.9501,1.479-2.4892,1.8665l-1.6092-3.8439c1.1732-.87,4.2253-3.401,5.9059-3.2586.4439.0316.7848.2373.975.7039v.0079Z" />
  <g class="cls-4">
    <path class="cls-2"
      d="M42.9074,74.8604c-.1177,0-.2256-.0781-.2573-.1973-.0386-.1416.0449-.2871.186-.3262.7812-.2168,1.585-.4775,2.3887-.7764,1.4824-.5293,3.0327-1.1982,4.6104-1.9893,1.1831-.6055,2.3638-1.2725,3.5068-1.9814.0137-.0088.0278-.0156.0425-.0215,2.7534-1.7021,5.4204-3.751,7.9277-6.0898.001-.001.0024-.0029.0029-.0029.1084-.0996.2764-.0947.377.0127.1006.1084.0952.2764-.0127.377v.001h0c-2.5376,2.375-5.2344,4.458-8.0161,6.1924-1.1611.7285-2.3584,1.4033-3.5571,2.0049-1.5244.7764-3.0952,1.4541-4.668,2.0137-.0195.0078-.04.0117-.0605.0146-.7959.2939-1.582.543-2.4019.7598-.0229.0059-.0459.0088-.0684.0088Z" />
  </g>
  <g>
    <path class="cls-2"
      d="M36.6559,72.333c1.106,0,2.2651-.1025,3.4663-.3086.4702-.0801.9814-.1875,1.501-.3203.0205,0,.0493-.002.0693-.0068,1.5908-.377,3.2319-.9219,4.8794-1.6201,1.2339-.5283,2.4292-1.1123,3.5522-1.7363,3.729-2.0684,7.2534-4.7471,10.4756-7.9619,4.519-4.5088,7.9883-9.6133,10.0317-14.7607.5298-1.3105.9624-2.6406,1.2852-3.9551.0117-.0205.0205-.043.0264-.0674,1.4263-5.9014.5029-10.8555-2.5996-13.9502-2.7271-2.7207-6.9937-3.7773-12.0107-2.9854-1.105.1787-2.1753.4199-3.1782.7188-1.3867.3955-2.8203.9238-4.2607,1.5713-4.6699,2.0869-9.292,5.3379-13.3662,9.4033-2.8169,2.8105-5.2251,5.8506-7.1587,9.0361-.7588,1.2617-1.4272,2.5068-1.9868,3.7012-.8003,1.6846-1.4404,3.3643-1.9023,4.9912-.0039.0146-.0068.0439-.0083.0703-1.7983,6.3438-.9717,11.6504,2.3281,14.9424,2.1348,2.1299,5.208,3.2383,8.8564,3.2383ZM25.9933,54.2686c.0039-.0146.0068-.0439.0083-.0703.4531-1.5898,1.0796-3.2305,1.8633-4.8799.5522-1.1787,1.2119-2.4082,1.9604-3.6523,1.9111-3.1484,4.2925-6.1553,7.0791-8.9355,4.0288-4.0186,8.5957-7.2324,13.2075-9.2939,1.4175-.6357,2.8267-1.1562,4.1919-1.5449.9839-.293,2.0312-.5303,3.1133-.7041,4.9146-.7803,8.9092.2012,11.5493,2.835,2.9526,2.9463,3.8311,7.6924,2.4761,13.373-.0112.0205-.02.043-.0259.0664-.3188,1.3125-.7495,2.6445-1.2808,3.958-2.0171,5.0811-5.4453,10.124-9.9131,14.582-3.187,3.1797-6.6719,5.8281-10.3574,7.8721-1.1074.6152-2.2861,1.1914-3.5024,1.7119-1.6191.6865-3.2319,1.2217-4.7319,1.585-.021,0-.0498.002-.0703.0068-.5703.1377-1.0703.2422-1.5283.3213-4.9888.8555-9.1997-.1328-11.856-2.7812-3.1621-3.1553-3.9375-8.2871-2.1831-14.4492Z" />
    <path class="cls-2"
      d="M75.8434,28.5801l-3.4722-3.4648c-.0226-.0229-.0544-.0212-.0818-.034-.0628-.0653-.1151-.1392-.1794-.2033-4.7588-4.749-13.0459-5.3262-22.1729-1.5518-.0146.0039-.0293.0078-.0439.0137-1.4746.6064-2.9038,1.2988-4.2446,2.0547-4.0449,2.2256-7.8872,5.1406-11.4199,8.665-2.292,2.2861-4.356,4.7441-6.1343,7.3047-.8594,1.2314-1.6592,2.5088-2.375,3.793-.8716,1.5244-1.6582,3.1367-2.3379,4.792-.0059.0137-.0103.0312-.0137.0488-3.6714,8.9912-3.0557,17.1641,1.6494,21.8652.0756.0754.1615.1393.239.2126.0076.0101.0046.0242.0139.0334l3.4722,3.4639c2.4243,2.4189,5.8257,3.5684,9.7607,3.5684,8.1206,0,18.5112-4.8955,27.2568-13.6211,8.4355-8.415,13.6753-18.833,13.6753-27.1855,0-4.0381-1.2422-7.4111-3.5918-9.7549ZM23.8751,50.168c.0054-.0137.0098-.0312.0132-.0479.668-1.623,1.4399-3.2031,2.2954-4.7002.709-1.2715,1.499-2.5332,2.3486-3.751,1.7603-2.5342,3.8037-4.9678,6.0732-7.2324,3.4976-3.4883,7.2993-6.373,11.3022-8.5762,1.3086-.7373,2.6997-1.4121,4.1357-2.0049.0151-.0039.0303-.0078.0454-.0146,8.9414-3.7139,17.0337-3.1846,21.644,1.4141,2.9558,2.9485,4.2612,7.2881,3.7768,12.5439-.0001.0008-.0008.0012-.0009.002-.2812,2.3613-.8818,4.8154-1.7856,7.2969-.4678,1.3115-1.021,2.6191-1.6455,3.8896-1.8599,3.8652-4.3237,7.5488-7.3247,10.9473-.0034.0038-.0015.0094-.0046.0134-.198.226-.4026.452-.6082.678l-.064.0713c-.5049.542-1.0181,1.0781-1.5566,1.6152-.394.4014-.7959.7861-1.2046,1.1709-2.5146,2.3467-5.1943,4.4033-7.9653,6.1143-1.1372.7051-2.3179,1.3711-3.5068,1.9805-1.582.793-3.1323,1.4629-4.6104,1.9902-.8267.3066-1.6079.5596-2.3882.7754-7.2661,1.998-13.626.958-17.4502-2.8574-4.5537-4.5508-5.1216-12.5205-1.519-21.3184ZM65.3829,65.1436c-12.7764,12.7461-29.0444,17.2559-36.2637,10.0527l-1.2082-1.2053c2.2708,1.2359,4.9902,1.8821,8.0241,1.8821,2.21,0,4.5811-.335,7.0508-1.0156.7954-.2188,1.5908-.4766,2.4292-.7881,1.4951-.5332,3.0654-1.2109,4.6689-2.0156,1.2041-.6162,2.3975-1.29,3.5464-2.0029,2.8003-1.7285,5.5083-3.8066,8.0493-6.1777.415-.3896.8218-.7803,1.2188-1.1846.5415-.54,1.0586-1.0801,1.5708-1.6309l.0664-.0732c.209-.2305.417-.46.6177-.6885.2195-.2485.4299-.5018.6436-.7534,2.7791-3.2334,5.0735-6.6674,6.8149-10.2261.647-1.2979,1.2114-2.623,1.6768-3.9346.9424-2.5811,1.5342-5.1123,1.7593-7.5254.0006-.0067-.0066-.0117-.0065-.0183.3588-3.9216-.2665-7.3434-1.7963-10.0998l1.2213,1.2187c2.2471,2.2422,3.4351,5.4854,3.4351,9.3779,0,8.2168-5.1797,18.4883-13.5186,26.8086Z" />
    <path class="cls-2"
      d="M42.0118,82.1084c-1.3101-.3252-2.6172-.7344-3.8853-1.2158-.1367-.0557-.292.0166-.3442.1543s.0171.292.1548.3438c1.2876.4902,2.6157.9053,3.9468,1.2354.0215.0059.043.0078.064.0078.1201,0,.229-.0811.2588-.2021.0356-.1436-.0518-.2881-.1948-.3232Z" />
    <path class="cls-2"
      d="M61.8615,80.8926c-3.7798,1.4473-7.7725,2.1816-11.8672,2.1816-1.7617,0-3.5288-.1396-5.2534-.416-.146-.0234-.2827.0752-.3057.2217-.0229.1455.0762.2822.2217.3057,1.752.2803,3.5479.4219,5.3374.4219,4.1602,0,8.2168-.7461,12.0576-2.2168.1377-.0527.2065-.207.1538-.3447-.0522-.1367-.2061-.2031-.3442-.1533Z" />
    <path class="cls-2"
      d="M57.945,17.8828c1.501.3682,3.0039.8535,4.4668,1.4434.0327.0137.0664.0195.0996.0195.1055,0,.2056-.0625.2476-.167.0552-.1367-.0112-.292-.1479-.3467-1.4863-.5996-3.0132-1.0928-4.5391-1.4668-.146-.041-.2876.0518-.3228.1953s.0527.2871.1958.3223Z" />
    <path class="cls-2"
      d="M37.6593,19.2666c.0327,0,.0659-.0059.0981-.0186,3.8892-1.541,8.0059-2.3223,12.2368-2.3223,1.7256,0,3.4478.1318,5.1196.3926.144.0195.2817-.0762.3047-.2227.0225-.1455-.0771-.2822-.2227-.3047-1.6987-.2646-3.4487-.3984-5.2017-.3984-4.2983,0-8.4814.7939-12.4331,2.3594-.1372.0547-.2041.209-.1499.3467.0415.1045.1421.168.248.168Z" />
  </g>
</svg>