<svg width="90" height="96" viewBox="0 0 90 96" fill="none" xmlns="http://www.w3.org/2000/svg">
<g clip-path="url(#clip0_1055_659)">
<path d="M35.5336 55.0399C55.1582 55.0399 71.0672 39.1371 71.0672 19.5199C71.0672 -0.0971823 55.1582 -16 35.5336 -16C15.9089 -16 0 -0.0971823 0 19.5199C0 39.1371 15.9089 55.0399 35.5336 55.0399Z" fill="url(#paint0_linear_1055_659)"/>
<path d="M58.2008 96.0003C78.5218 96.0003 94.9953 79.5331 94.9953 59.2199C94.9953 38.9066 78.5218 22.4395 58.2008 22.4395C37.8797 22.4395 21.4062 38.9066 21.4062 59.2199C21.4062 79.5331 37.8797 96.0003 58.2008 96.0003Z" fill="url(#paint1_linear_1055_659)"/>
<path d="M65.3584 23.2969C72.1373 25.0514 76.9945 27.2648 82.3207 31.5554C88.7617 36.8545 93.0237 45.0777 94.214 53.0136C94.5283 54.8766 94.6969 56.7613 94.7184 58.6504C94.7184 59.8706 94.784 61.131 94.6881 62.3461C93.175 81.8077 76.359 96.0611 55.7248 94.5788C50.5213 94.1786 45.4609 92.685 40.8744 90.1959C36.2879 87.7067 32.2786 84.278 29.1086 80.1338C28.7476 79.6867 28.4108 79.2205 28.0999 78.7372C27.3912 77.8633 26.7584 76.9305 26.2084 75.9491C25.7041 74.8399 25.0484 73.7912 24.549 72.6668C23.1822 69.5711 21.9212 65.2956 22.0271 61.9226C21.8657 57.0219 22.4004 51.9952 24.2867 47.4071C24.5339 46.5298 25.8806 44.2307 25.6385 43.4543V43.1417C28.7505 44.0542 32.5737 43.9988 35.8572 43.9988H36.5381L36.2557 44.271L34.8031 45.8996C34.7022 46.0105 34.2987 46.5752 34.1827 46.5903C33.7692 47.0999 33.4092 47.6507 33.1084 48.2339C32.4476 48.8087 31.4338 51.6019 31.2573 52.3884L31.222 52.5599C31.0744 52.9769 30.9778 53.4103 30.9345 53.8506V53.8909C30.8697 53.9685 30.8356 54.0672 30.8386 54.1682V54.259C30.7031 54.6235 30.6348 55.0096 30.6369 55.3984C30.6369 55.5194 30.4351 57.1984 30.4351 57.7278V59.2403C30.4038 59.5379 30.4157 59.8385 30.4704 60.1327C30.7176 60.9193 30.4402 62.4823 30.8286 63.3394C30.9251 63.6573 30.9943 63.9828 31.0354 64.3124L31.4843 65.9107C32.2913 68.8098 35.7009 75.1323 38.3236 76.8012L38.4094 76.8869C38.5103 77.1742 42.0813 80.275 42.5655 80.28L42.7017 80.4263C42.9305 80.6294 43.1869 80.7991 43.4633 80.9304L45.2387 81.8985C45.8894 82.2413 46.9334 82.5489 47.5034 82.9069L47.574 82.9573C47.8817 82.922 48.2801 83.2799 48.5827 83.3253H48.6735C49.148 83.5589 49.6605 83.7058 50.1867 83.7589L50.3935 83.8245C50.9295 84.0849 51.5174 84.2211 52.1134 84.2228L52.4261 84.3589C52.4957 84.3867 52.5734 84.3867 52.643 84.3589L52.986 84.4043C53.0919 84.5051 53.1877 84.4698 53.334 84.4698L53.5812 84.5707C55.0596 84.8602 56.5592 85.0288 58.0651 85.0749C59.1747 85.1707 60.2743 84.9387 61.3738 85.0345L62.2313 84.974L62.3321 84.8782C63.1084 84.8989 63.8838 84.8141 64.6372 84.6261L65.1869 84.5253C66.7354 84.374 68.0569 83.6178 69.565 83.3606C70.3568 83.2195 71.6934 82.2665 72.1928 82.1758H72.2785C72.5408 81.8985 73.1057 81.7623 73.4487 81.5355L74.5886 80.875C74.6642 80.8346 74.7147 80.7741 74.7954 80.7288L75.2392 80.4817C75.3262 80.4433 75.405 80.3885 75.4713 80.3204L75.5519 80.2397C75.7083 80.154 75.5822 80.2397 75.6831 80.1792L75.8647 80.0431C77.4717 78.9645 78.9287 77.6777 80.1973 76.2163C88.1211 67.4838 87.879 55.4388 81.6196 45.2794C76.4044 36.8091 73.1612 33.1083 63.1644 30.4815C62.66 30.3454 62.1203 30.3152 61.6058 30.1841H61.5504L63.2098 27.7085C63.7819 26.8276 64.2683 25.894 64.6624 24.9204L64.96 24.2498C65.0326 23.9102 65.1677 23.5871 65.3584 23.2969Z" fill="url(#paint2_linear_1055_659)"/>
<path d="M58.2003 87.2263C73.9668 87.2263 86.7482 74.4498 86.7482 58.6893C86.7482 42.9288 73.9668 30.1523 58.2003 30.1523C42.4337 30.1523 29.6523 42.9288 29.6523 58.6893C29.6523 74.4498 42.4337 87.2263 58.2003 87.2263Z" fill="url(#paint3_linear_1055_659)"/>
<path d="M79.5854 83.6573C79.9788 83.3246 80.3571 82.9868 80.7354 82.649L82.7983 80.7129C82.7172 80.7708 82.6503 80.8462 82.6022 80.9335C82.5542 81.0207 82.5264 81.1176 82.5209 81.2171V81.3078C82.7731 81.5196 82.7327 81.6406 82.8336 81.9381C80.4629 84.525 77.6628 86.6827 74.5567 88.316C72.6569 89.3127 70.659 90.1102 68.5949 90.6958C64.4766 91.8287 60.1808 92.1708 55.935 91.7042C49.5851 91.0248 43.5201 88.7109 38.3321 84.9884C38.4555 85.005 38.5806 84.9724 38.6801 84.8976L38.1152 84.5951C39.2299 84.8876 39.9966 85.6035 40.9852 86.143C45.8323 88.7093 50.5179 90.9126 56.1166 91.1848C64.4893 91.6386 73.1343 89.1126 79.5854 83.6573Z" fill="url(#paint4_linear_1055_659)"/>
<path d="M9.52255 -4.48409C10.0673 -5.05214 10.6288 -5.60171 11.2072 -6.13278C17.8902 -12.2183 26.9943 -15.4552 36.0328 -15.3796C43.6137 -15.3698 50.9971 -12.9626 57.126 -8.50246C62.1021 -4.71791 65.8955 0.406702 68.0609 6.27021C69.1663 9.21039 69.8555 12.2905 70.1087 15.4212C70.3004 17.8262 70.0633 20.2563 69.9624 22.6613C69.8666 24.915 69.6648 27.1032 68.651 29.1603C62.5985 41.407 52.0065 50.1748 38.0352 51.1579C29.9393 51.7072 21.8764 49.6887 14.9951 45.39C14.405 45.0169 13.7846 44.1598 14.3495 43.7414C6.31469 37.6508 0.811907 28.0158 0.605111 17.932C0.443709 9.68355 3.84323 1.50564 9.52255 -4.48409Z" fill="url(#paint5_linear_1055_659)"/>
<path d="M9.62874 -4.40499C12.0722 -7.02535 14.9192 -9.23811 18.062 -10.9594C27.0954 -15.9357 38.2876 -16.6063 47.9969 -13.1526C57.1313 -9.90567 65.1459 -2.76134 67.9704 6.51065C65.7511 3.32419 63.5167 0.117559 60.8183 -2.67563C54.2481 -9.45894 45.2551 -13.3609 35.8111 -13.5257C31.1328 -13.5549 26.4999 -12.6086 22.208 -10.7474C17.9161 -8.88614 14.0596 -6.15079 10.8846 -2.71597C7.75248 0.759403 5.42458 4.88178 4.06642 9.35816C2.70825 13.8345 2.35317 18.555 3.0264 23.1841L3.26346 18.1977C3.73036 18.416 4.26385 18.4445 4.75133 18.277C5.23881 18.1096 5.64213 17.7593 5.87615 17.3002L8.20639 25.6597L7.48008 24.4748C7.92393 28.7705 10.2895 32.6779 13.2704 35.8089C16.5596 39.2116 20.5732 41.8301 25.0132 43.4701C29.4533 45.1102 34.2058 45.7297 38.9181 45.2826C43.625 44.7655 48.1549 43.1953 52.1715 40.6885C56.1881 38.1817 59.5883 34.8027 62.1196 30.8024C62.5937 31.0897 62.4474 31.8107 62.2205 32.3149C59.749 37.7803 54.7607 41.8239 49.2478 44.1936C36.8199 49.543 21.2951 46.4271 11.8783 36.7518C12.3301 37.4508 12.6339 38.235 12.771 39.0559C12.8123 39.3475 12.7928 39.6444 12.7138 39.9282C12.6348 40.2119 12.498 40.4762 12.312 40.7046C11.6463 41.2794 11.3739 40.8205 10.7989 40.3012C9.74081 39.3699 8.75604 38.3586 7.85332 37.2761C6.04574 35.0981 4.55175 32.6781 3.41478 30.0864C1.10055 24.8697 0.268158 19.1167 1.00888 13.4583C1.97738 6.75988 4.98723 0.522435 9.62874 -4.40499Z" fill="url(#paint6_linear_1055_659)"/>
<path d="M6.66749 3.018C7.5098 1.92896 8.18063 0.703782 8.99268 -0.400387C10.5429 -2.38764 12.3394 -4.16993 14.3391 -5.70443C14.4652 -5.61368 14.4753 -5.61872 14.5156 -5.4725L13.8751 -4.90781C13.4867 -4.61539 13.1538 -4.207 12.7856 -3.89944L12.7049 -3.81877C12.3115 -3.1482 11.3582 -2.4373 10.8589 -1.73648L10.1225 -0.697857C10.5764 -0.94995 10.8085 -1.58018 11.217 -1.75665L11.2674 -1.66589C11.217 -1.51464 11.0506 -1.39868 10.9295 -1.28776L11.0052 -1.21213C11.2775 -1.44405 12.4578 -2.78015 12.6242 -2.82048C12.7947 -2.72395 12.9882 -2.67518 13.1841 -2.67931L12.6343 -2.0995C12.6343 -1.91799 11.3481 -0.667605 11.0001 -0.375177L10.5916 0.189512C10.3242 0.416396 9.72908 1.19788 9.77447 1.57098C11.9332 -2.0037 16.1397 -5.53805 20.0235 -7.59513C21.1294 -8.21338 22.2675 -8.77214 23.4331 -9.26903C27.6144 -10.9278 33.6821 -11.5883 38.3022 -11.2152C40.8293 -10.9813 43.3151 -10.4185 45.6964 -9.54129C46.5135 -8.99173 47.6736 -8.18503 48.6924 -8.02873C49.2775 -7.93798 49.6508 -7.38337 50.3317 -7.27749C52.0869 -6.40525 54.7147 -4.38346 56.1623 -3.15325C56.3253 -3.01744 56.4533 -2.84454 56.5356 -2.64906C56.6818 -2.17512 57.398 -1.72136 57.7662 -1.36842L59.2794 0.189512C59.7394 0.638081 60.1364 1.1469 60.4596 1.70207C60.5633 1.9556 60.71 2.18929 60.8934 2.39281L61.7609 3.74907C61.9616 4.20521 62.1942 4.64664 62.457 5.07004C62.6285 5.86161 63.3043 6.5473 63.4657 7.34392L63.7129 7.8481C63.7574 7.96622 63.7928 8.08758 63.8188 8.21112L63.8894 8.28171C64.4594 8.97244 64.3938 10.1926 64.7065 11.0094C65.1046 12.334 65.4246 13.6808 65.6648 15.0428C65.6648 15.2395 65.5892 15.547 65.7708 15.6378H65.9473C66.0078 15.8042 66.1036 15.8294 66.2701 15.8647H66.4164C66.4793 15.8263 66.5499 15.8022 66.6232 15.7941L66.6585 15.7588C66.8905 15.5269 67.6218 15.1235 67.6672 14.8008L67.9043 14.6345L68.0909 17.1756C68.0909 18.9352 68.2473 20.6645 67.7328 22.3737V22.4594C67.7328 22.5653 67.7328 22.5199 67.6622 22.6056V22.6561C67.5399 23.6528 67.282 24.6282 66.8955 25.5551L66.835 25.6661C66.7744 25.7861 66.7351 25.9158 66.719 26.0492L66.6635 26.1702C66.6383 26.3618 66.4718 26.5131 66.4365 26.7148L66.3558 26.8307C66.1188 27.6979 65.3067 28.9281 65.0243 29.7752L64.767 30.3399C64.1436 31.5958 63.4481 32.8146 62.6839 33.9902L61.4684 35.7498C61.4432 35.5582 61.4987 35.5229 61.6096 35.3717L62.4872 33.9146C62.578 33.7885 62.6436 33.6524 62.7394 33.5263L63.2741 32.7196C63.3164 32.651 63.3519 32.5784 63.38 32.5028L63.3447 32.4373C62.4418 32.5331 62.8958 32.5633 62.1342 32.765L60.621 35.2859C60.3033 35.7195 59.8039 36.9901 59.2895 37.1867C59.4149 36.9068 59.5705 36.6413 59.7535 36.3951L60.9287 34.4944C61.2263 33.9902 62.7495 31.7213 62.7495 31.2625L62.6083 31.1667C62.4397 31.0713 62.2894 30.9467 62.1644 30.7987L61.7206 31.6306C61.2868 32.2911 60.7925 32.9314 60.3083 33.5667C55.9706 39.3093 50.0139 42.8639 42.7105 44.6235C27.7405 48.2032 13.6784 40.9026 8.14028 27.7736L7.59555 26.261C7.50103 25.9931 7.4351 25.7159 7.39884 25.4341L7.70147 25.1367C7.66112 24.8644 7.49467 24.4459 7.61068 24.209C7.60358 24.2855 7.62318 24.3621 7.66616 24.4258L7.70147 24.4711C7.817 24.8737 7.97597 25.2625 8.17559 25.6308L8.33699 25.8526C8.23011 25.4475 8.09183 25.0514 7.9234 24.6678L7.37362 22.9334C7.21769 22.7951 7.10844 22.6119 7.06091 22.409C6.85722 21.622 6.72055 20.8192 6.65236 20.0091C6.65236 19.641 6.43043 18.8343 6.50609 18.5671L6.42539 18.3453C5.62342 18.4058 5.96136 16.3588 5.82013 17.473L5.77474 17.7402C5.7581 17.8342 5.71515 17.9215 5.65086 17.992C5.58658 18.0625 5.50361 18.1133 5.41158 18.1386L5.1947 18.0377C5.06667 18.1791 4.91472 18.2969 4.7458 18.3856L4.24142 18.4814C4.13388 18.5582 4.01692 18.6209 3.8934 18.6679L3.8127 18.5369C3.67651 18.3654 3.48989 18.2243 3.37389 18.073L3.1217 18.2848C3.06621 18.6175 2.77872 18.789 3.16205 19.036L3.22762 19.0763C3.3268 19.4014 3.45861 19.7156 3.62103 20.0141L2.97543 20.2461C2.97543 20.6494 3.08135 21.0225 3.0763 21.4258C2.98047 22.0309 3.31336 22.6914 3.32345 23.3014C3.28153 23.2592 3.2549 23.2042 3.24779 23.1451L3.19231 22.888C2.9603 22.1569 2.96534 21.3149 2.77872 20.5637C2.63649 19.4596 2.55063 18.3489 2.52148 17.2361L2.64758 14.0647C2.81907 13.8832 3.06117 12.1539 3.15196 11.7858L3.77739 9.37579C4.48735 7.15031 5.45742 5.01631 6.66749 3.018Z" fill="url(#paint7_linear_1055_659)"/>
<path d="M20.0039 39.6172C20.9572 39.9449 20.2107 39.4609 21.517 40.2121C22.4402 40.7628 23.4009 41.248 24.392 41.6642C25.058 41.7637 25.6889 42.027 26.228 42.4305C25.6273 42.4224 25.0406 42.2478 24.5332 41.9264L24.4626 41.9869C22.9495 42.0171 21.4817 40.56 20.4276 40.0962C20.3272 40.0507 20.2375 39.9845 20.1645 39.902C20.0915 39.8194 20.0368 39.7224 20.0039 39.6172Z" fill="#FF5800"/>
<path d="M7.37328 22.9528L6.94455 20.9865C3.82749 4.28275 20.9058 -11.226 38.6751 -9.44624C51.7638 -8.12528 61.8766 1.35847 64.0807 13.2825C64.9382 19.4336 64.0807 24.5006 60.6913 29.9963H60.6308C59.9398 30.1475 59.0874 30.808 58.6133 30.8433L58.3661 30.7677C58.4447 30.6539 58.4933 30.5221 58.5073 30.3845C58.6844 30.008 58.9062 29.6542 59.1681 29.3307C63.415 22.6452 63.6268 13.827 60.424 6.68773C58.8503 3.15842 55.9148 0.29464 52.939 -2.08008C51.6377 -3.1187 50.1397 -3.79431 48.798 -4.7321C38.4481 -10.2782 26.6053 -8.69501 17.7786 -1.55573C10.5307 4.29788 7.81713 11.0489 8.58883 20.0638C8.77348 21.5487 9.1411 23.0051 9.68334 24.3998C10.0969 25.5493 11.4083 27.2787 11.4588 28.4333V28.4988C11.4724 28.6752 11.5412 28.8428 11.6555 28.9778L11.4033 29.1845C11.1259 29.5778 10.8081 29.6887 10.4601 29.3711L10.6316 29.7593C10.798 29.9862 10.793 30.319 10.9796 30.5206L11.03 30.6366C11.1136 30.7029 11.1808 30.7874 11.2267 30.8836L11.3175 30.9946C11.4093 31.1433 11.5121 31.2848 11.6252 31.4181H11.6504L11.6908 31.4635C11.9934 31.8063 12.1952 32.2097 12.4877 32.5626C13.0929 33.2785 16.5227 37.1708 17.3701 37.4381L17.9552 37.7154C18.1073 37.7626 18.2483 37.8401 18.3696 37.9432C18.491 38.0463 18.5902 38.1729 18.6613 38.3154C16.9313 37.8717 15.1306 35.8297 14.0614 34.4684C13.8394 34.5138 13.9655 34.8566 14.137 35.0079L15.9124 36.5961C13.4813 34.4499 11.4508 31.8892 9.91535 29.0333L8.35178 25.8519C8.2449 25.4468 8.10662 25.0506 7.93818 24.667L7.37328 22.9528Z" fill="url(#paint8_linear_1055_659)"/>
<path d="M8.64966 20.0385C7.82752 11.0438 10.5411 4.27261 17.789 -1.581C28.2549 -10.0362 42.5995 -9.64798 53.1915 -1.70704C62.7293 5.4272 65.6648 19.0856 59.1785 29.3055C58.9114 29.6362 58.6861 29.9986 58.5076 30.3844C58.4941 30.5402 58.4363 30.6889 58.3412 30.813L58.5883 30.8886C59.2995 30.8382 59.8493 30.1727 60.5453 30.1323C59.8241 32.2398 57.4535 34.3927 55.8344 35.8801C51.8145 39.4661 46.9587 41.9867 41.7118 43.2109C35.9051 44.6533 29.7819 44.1028 24.3258 41.648C22.8405 41.0069 21.4071 40.2517 20.0386 39.3892C18.37 38.3176 16.8107 37.0848 15.3831 35.7086C14.6434 34.9961 13.9356 34.2515 13.2597 33.4751C13.0882 33.2835 11.8726 31.4886 11.7012 31.4886L11.6608 31.4432H11.6356C11.5225 31.31 11.4197 31.1684 11.3279 31.0197L11.2472 30.8886C11.2013 30.7924 11.134 30.7079 11.0505 30.6416L11.0001 30.5256C10.7912 30.2209 10.6439 29.8784 10.5663 29.5172C10.7939 29.5399 11.0232 29.4969 11.227 29.3932C11.4308 29.2896 11.6007 29.1296 11.7163 28.9324C11.8121 28.8114 9.87026 24.9947 9.69877 24.5359C9.18147 23.0808 8.82955 21.5722 8.64966 20.0385Z" fill="#FF5800"/>
<path d="M11.4691 28.4336L11.5044 28.479C12.4122 29.7243 13.1587 31.0352 14.1574 32.2251C23.6851 43.5894 39.1494 45.0919 51.5875 37.2266C53.6593 35.8425 55.5081 34.1509 57.0701 32.21C57.5744 31.6251 57.9931 30.8991 58.5176 30.3596C58.5041 30.5154 58.4463 30.664 58.3512 30.7881L58.5983 30.8638C59.1027 30.8285 59.94 30.168 60.6159 30.0167H60.6764C60.14 30.9212 59.5364 31.7841 58.8707 32.5982L57.2718 34.4536C56.9467 34.7486 56.6511 35.0745 56.3892 35.4267C49.4892 41.5626 39.1696 45.6213 29.6015 43.4936C28.4515 43.2365 27.3671 42.7928 26.2373 42.4853C25.3249 42.1383 24.4325 41.741 23.5641 41.2954C22.387 40.7752 21.2536 40.1614 20.1747 39.4602C17.2762 37.5732 14.6896 35.2462 12.5081 32.5629C12.2155 32.21 12.0037 31.8066 11.7112 31.4638L11.6708 31.4184H11.6456C11.5325 31.2851 11.4297 31.1436 11.3379 30.9949L11.2471 30.889C11.2012 30.7927 11.1339 30.7083 11.0504 30.6419L11 30.526C10.8134 30.3243 10.8184 29.9915 10.652 29.7646L10.4805 29.3764C10.8285 29.6739 11.1463 29.5831 11.4237 29.1899L11.6758 28.9832C11.5616 28.8481 11.4928 28.6805 11.4791 28.5042L11.4691 28.4336Z" fill="url(#paint9_linear_1055_659)"/>
<path d="M47.0426 15.0316C47.547 11.7342 45.0251 9.98972 41.5953 8.78471L42.705 4.31762L39.9864 3.66217L38.907 8.00826C38.1908 7.8318 37.4544 7.66037 36.7281 7.50407L37.8276 3.10253L35.109 2.42188L33.9994 6.88393C33.4042 6.75284 32.8242 6.61671 32.2593 6.48058L28.5067 5.52766L27.7804 8.43178C27.7804 8.43178 29.7979 8.89563 29.7575 8.93596C30.1334 8.98278 30.4761 9.17449 30.7126 9.47022C30.949 9.76596 31.0606 10.1423 31.0235 10.5191L29.7575 15.5862C29.8532 15.6117 29.9474 15.6419 30.04 15.6769L29.7575 15.6064L27.972 22.7356C27.8888 22.9826 27.713 23.1878 27.4817 23.3081C27.2504 23.4284 26.9814 23.4545 26.7313 23.3809C26.7313 23.4162 24.7541 22.8767 24.7541 22.8767L23.4023 25.9976L26.933 26.88C27.5937 27.0413 28.2343 27.2178 28.8698 27.3842L27.74 31.8966L30.4586 32.5773L31.5733 28.1102C32.3147 28.3119 33.031 28.4934 33.7371 28.6698L32.6275 33.1168L35.3461 33.7924L36.4708 29.2849C41.1061 30.1622 44.5914 29.7891 46.0541 25.6195C47.2393 22.2465 45.9986 20.2953 43.5322 19.0298C45.3076 18.6163 46.6492 17.4517 47.0023 15.0366L47.0426 15.0316ZM40.8539 23.7389C39.9914 27.1169 34.297 25.2918 32.4661 24.838L33.9792 18.8533C35.8101 19.292 41.7113 20.2197 40.8539 23.7389ZM41.6912 14.9812C40.9245 18.0517 36.1934 16.4937 34.6601 16.1105L36.0118 10.6855C37.525 11.0687 42.4931 11.7796 41.6912 14.9812Z" fill="url(#paint10_linear_1055_659)"/>
<path d="M55.7489 75.9788C51.5878 75.3133 48.4707 72.2327 48.4707 67.6597H53.4641C53.4641 69.989 55.1285 71.6125 57.832 71.6125C60.7877 71.6125 62.205 70.1554 62.205 68.4916C62.205 63.7119 48.6825 66.2077 48.6825 57.097C48.6825 53.3156 51.5928 50.4468 55.7439 49.7813V46.252H60.3186V49.7813C63.8493 50.7896 66.5578 53.5627 66.5578 57.8886H61.7763C61.7763 55.5592 60.3186 54.1475 57.8219 54.1475C55.3252 54.1475 53.8726 55.5996 53.8726 57.0567C53.8726 61.5943 67.39 59.1793 67.39 68.6983C67.39 72.026 64.3133 75.1872 60.3287 75.9788V79.5081H55.754L55.7489 75.9788Z" fill="url(#paint11_linear_1055_659)"/>
<path d="M57.4989 74.6476C53.3378 73.9871 50.2207 70.9065 50.2207 66.3335H55.209C55.209 68.6629 56.8735 70.2813 59.577 70.2813C62.5326 70.2813 63.9499 68.8293 63.9499 67.1655C63.9499 62.3807 50.4275 64.8764 50.4275 55.7708C50.4275 51.9894 53.3378 49.1206 57.4888 48.4551V44.9258H62.0383V48.4551C65.569 49.4635 68.2775 52.2365 68.2775 56.5624H63.496C63.496 54.2331 62.0383 52.8213 59.5417 52.8213C57.045 52.8213 55.5924 54.2734 55.5924 55.7305C55.5924 60.2682 69.1097 57.8531 69.1097 67.3722C69.1097 70.6998 66.033 73.861 62.0484 74.6476V78.1769H57.4989V74.6476Z" fill="url(#paint12_linear_1055_659)"/>
</g>
<defs>
<linearGradient id="paint0_linear_1055_659" x1="35.5336" y1="55.0399" x2="35.5336" y2="-16" gradientUnits="userSpaceOnUse">
<stop stop-color="#DA0D02"/>
<stop offset="0.23" stop-color="#DC190A"/>
<stop offset="1" stop-color="#FCFFA3"/>
</linearGradient>
<linearGradient id="paint1_linear_1055_659" x1="50.6906" y1="25.7671" x2="66.8038" y2="97.5608" gradientUnits="userSpaceOnUse">
<stop offset="0.02" stop-color="#91C198"/>
<stop offset="0.58" stop-color="#08C7BD"/>
</linearGradient>
<linearGradient id="paint2_linear_1055_659" x1="51.4527" y1="27.8554" x2="60.7131" y2="96.7445" gradientUnits="userSpaceOnUse">
<stop stop-color="#91C198"/>
<stop offset="1" stop-color="#08C7BD"/>
</linearGradient>
<linearGradient id="paint3_linear_1055_659" x1="59.1283" y1="29.4616" x2="57.324" y2="86.5053" gradientUnits="userSpaceOnUse">
<stop stop-color="#4DA68B"/>
<stop offset="1" stop-color="#1FCDBF"/>
</linearGradient>
<linearGradient id="paint4_linear_1055_659" x1="58.6193" y1="94.1355" x2="58.5938" y2="82.7301" gradientUnits="userSpaceOnUse">
<stop stop-color="#007983"/>
<stop offset="1" stop-color="#0BD8BC"/>
</linearGradient>
<linearGradient id="paint5_linear_1055_659" x1="40.1031" y1="52.2811" x2="28.9476" y2="-12.0941" gradientUnits="userSpaceOnUse">
<stop stop-color="#D80001"/>
<stop offset="1" stop-color="#FFEE1A"/>
</linearGradient>
<linearGradient id="paint6_linear_1055_659" x1="21.5099" y1="46.3823" x2="41.2388" y2="-13.7516" gradientUnits="userSpaceOnUse">
<stop stop-color="#FF5A01"/>
<stop offset="1" stop-color="#FCFFA3"/>
</linearGradient>
<linearGradient id="paint7_linear_1055_659" x1="24.7717" y1="-9.14318" x2="40.2829" y2="46.52" gradientUnits="userSpaceOnUse">
<stop stop-color="#FF9D00"/>
<stop offset="1" stop-color="#FA350F"/>
</linearGradient>
<linearGradient id="paint8_linear_1055_659" x1="26.3087" y1="-7.5135" x2="37.9173" y2="37.2883" gradientUnits="userSpaceOnUse">
<stop stop-color="#FFF647"/>
<stop offset="1" stop-color="#FFA95D"/>
</linearGradient>
<linearGradient id="paint9_linear_1055_659" x1="33.1705" y1="45.6169" x2="33.8256" y2="30.5586" gradientUnits="userSpaceOnUse">
<stop stop-color="#FF5A2C"/>
<stop offset="1" stop-color="#FFB25A"/>
</linearGradient>
<linearGradient id="paint10_linear_1055_659" x1="36.3044" y1="54.8422" x2="34.49" y2="-5.25693" gradientUnits="userSpaceOnUse">
<stop offset="0.23" stop-color="#FFA50E"/>
<stop offset="1" stop-color="#FFFF77"/>
</linearGradient>
<linearGradient id="paint11_linear_1055_659" x1="58.296" y1="48.6216" x2="57.7668" y2="77.1687" gradientUnits="userSpaceOnUse">
<stop stop-color="#028D8F"/>
<stop offset="1" stop-color="#007983"/>
</linearGradient>
<linearGradient id="paint12_linear_1055_659" x1="59.9552" y1="50.8197" x2="59.426" y2="79.3668" gradientUnits="userSpaceOnUse">
<stop stop-color="#FEC33A"/>
<stop offset="0.35" stop-color="#FFF46C"/>
<stop offset="0.93" stop-color="#FECB43"/>
</linearGradient>
<clipPath id="clip0_1055_659">
<rect width="95" height="112" fill="white" transform="translate(0 -16)"/>
</clipPath>
</defs>
</svg>
