<svg width="100" height="100" viewBox="0 0 100 100" fill="none" xmlns="http://www.w3.org/2000/svg">
<g opacity="0.9" clip-path="url(#clip0_1070_4228)">
<g clip-path="url(#clip1_1070_4228)">
<path d="M76.0777 82.192C100.335 82.192 119.999 62.6747 119.999 38.5989C119.999 14.5231 100.335 -4.99414 76.0777 -4.99414C51.8206 -4.99414 32.1562 14.5231 32.1562 38.5989C32.1562 62.6747 51.8206 82.192 76.0777 82.192Z" fill="#FF5800"/>
<path d="M54.4799 4.04113L59.0263 1.65314C60.3432 1.04962 61.6909 0.514569 63.0639 0.0501716C66.9831 -1.26426 71.0952 -1.92285 75.2321 -1.89864C77.9391 -1.94336 80.644 -1.7227 83.3073 -1.23989C84.757 -0.951463 86.1898 -0.584946 87.5993 -0.141965C89.6055 0.492824 91.5539 1.29536 93.4235 2.257C95.6756 3.35638 97.8166 4.66705 99.8173 6.1711C103.724 9.2681 107.185 12.8808 110.105 16.9088L111.919 19.3736C112.323 19.8696 112.693 20.3923 113.025 20.9382V20.9766C113.748 21.9046 114.392 22.8906 114.95 23.9245C115.501 24.771 115.994 25.6531 116.427 26.565C116.678 27.1466 116.884 27.7468 117.041 28.3602C117.182 28.7049 117.38 29.024 117.627 29.3044H117.666C117.839 29.8188 117.963 30.3481 118.036 30.8854L118.462 33.471C118.88 36.3112 119.051 39.182 118.971 42.0513C118.916 43.517 118.739 44.9553 118.556 46.41C118.168 49.8635 117.291 53.2455 115.951 56.456C114.772 59.2541 113.324 61.9327 111.626 64.4544C110.293 66.3292 108.79 68.0785 107.135 69.6805C106.913 69.8946 106.659 70.0648 106.443 70.2734C103.52 73.1453 100.049 75.4092 96.2332 76.9323L86.4544 79.9022C85.9354 80.073 85.3962 80.1763 84.8504 80.2096C85.2896 79.3231 85.8059 78.4763 86.3936 77.6789C86.8084 77.7942 87.4223 77.344 87.898 77.3495L87.9865 77.3221L88.0473 77.1135C88.9518 76.9911 89.8413 76.7777 90.7022 76.4767C91.9135 76.1418 93.5175 75.8838 94.5739 75.1427L94.3748 75.1702C94.2934 75.1609 94.2111 75.1742 94.1369 75.2086C93.9586 75.3021 93.7738 75.3828 93.5838 75.4501L93.4124 75.5215C93.3146 75.5374 93.2197 75.5669 93.1303 75.6093C92.9838 75.6878 92.8301 75.7522 92.6712 75.8015L92.5662 75.8399C92.4739 75.8759 92.3797 75.9071 92.2841 75.9332L91.9688 76.0101L91.6867 76.0814L91.4046 76.1528L91.1226 76.2242L90.7354 76.3285C90.6339 76.3635 90.5305 76.3928 90.4257 76.4163H90.3482L89.9611 76.5206C89.8596 76.5556 89.7562 76.585 89.6513 76.6084H89.5739L89.2918 76.6798L89.0097 76.7457C88.9484 76.7683 88.8856 76.7866 88.8217 76.8006L88.1967 76.9213C88.3157 76.7941 88.4432 76.6749 88.5783 76.5645C88.7304 76.4078 88.8992 76.2679 89.0816 76.1473C89.7053 75.8765 90.3443 75.6419 90.9954 75.4446L93.0971 74.6047C93.3681 74.4949 93.6834 74.4181 93.9323 74.2863C94.1744 74.1223 94.4364 73.9895 94.7122 73.8911C94.9168 73.8472 95.0496 73.9954 95.2044 74.0997C95.3339 74.1271 95.4677 74.1271 95.5971 74.0997C95.7907 74.0393 95.7852 73.9954 95.8681 73.8252C95.84 73.6984 95.7675 73.5856 95.6635 73.5068C95.6635 73.688 95.7354 73.7703 95.6303 73.9295L95.4865 73.9624L95.3814 74.0338C95.2738 73.9973 95.1729 73.9435 95.0827 73.8746C95.1712 73.6001 95.9511 73.3805 96.1889 73.1664C96.742 72.6998 97.4113 73.0402 98.075 72.9743L98.0418 72.9249C97.7708 72.9249 97.5385 72.848 97.2841 72.848C97.1829 72.8546 97.0815 72.8416 96.9854 72.8096C97.3836 72.5296 97.8206 72.3155 98.2188 72.0411L101.687 69.6805C102.621 68.9813 103.515 68.2299 104.364 67.4298C105.225 66.6824 106.04 65.8831 106.803 65.0363C107.721 63.9823 108.567 62.8075 109.402 61.6822C109.715 61.2118 109.998 60.7223 110.249 60.2164C110.933 59.0178 111.549 57.7826 112.096 56.5164C112.478 55.6216 112.904 54.7652 113.202 53.843C113.662 52.431 114.031 50.9917 114.308 49.5336C114.579 48.1942 114.862 46.8712 114.989 45.5097C115.406 41.2716 115.246 36.997 114.513 32.8013L114.048 30.6823C113.081 26.8144 111.593 23.0936 109.624 19.6207C108.907 18.432 108.126 17.283 107.284 16.1787C107.046 15.8548 106.853 15.498 106.609 15.1796C106.366 14.8612 105.99 14.5483 105.702 14.2244L103.711 11.9297C101.599 9.61279 99.1625 7.60877 96.4765 5.97896C93.7192 4.20185 90.7455 2.77963 87.627 1.74646C87.0739 1.55982 86.46 1.45551 85.8792 1.3073C83.6521 0.702247 81.3725 0.307074 79.0706 0.127027C75.8258 -0.135983 72.5613 -0.0273044 69.3416 0.450914C64.6965 1.18728 60.2459 2.83516 56.2498 5.29825C54.8774 6.15567 53.5569 7.09234 52.2951 8.10345C45.2943 14.1438 40.514 22.3217 38.7055 31.352C38.523 32.2633 38.3737 33.1855 38.2575 34.0968C38.1175 33.9271 37.9232 33.81 37.7069 33.765C37.4905 33.7201 37.2652 33.75 37.0684 33.8498C37.3394 33.707 37.4998 31.0446 37.5827 30.6329C37.8095 29.5349 38.0805 28.437 38.3958 27.3391C39.027 25.1572 39.8392 23.031 40.8239 20.9821C42.0586 18.4539 43.4726 16.0159 45.0551 13.6864C46.5208 11.4905 47.9699 9.22882 49.9721 7.49959C51.4046 6.26991 52.9533 5.1665 54.4799 4.04113Z" fill="url(#paint0_linear_1070_4228)"/>
<path d="M113.811 25.4076C113.325 24.4579 112.998 23.4643 112.584 22.4926C112.368 21.9876 112.03 21.5758 111.881 21.0488C112.252 21.4276 112.434 21.9272 112.821 22.2785C112.936 22.4191 113.082 22.531 113.249 22.6054C113.415 22.6797 113.596 22.7144 113.778 22.7067H113.856L113.983 22.8714L114.365 23.7168C114.647 24.2657 114.99 24.8147 115.261 25.3637C115.288 25.4241 115.388 25.5887 115.377 25.6546C115.985 26.5439 116.306 27.543 117.036 28.3555C117.177 28.7003 117.376 29.0193 117.622 29.2997H117.661C117.834 29.8141 117.958 30.3434 118.032 30.8807L118.457 33.4664C118.876 36.3066 119.046 39.1773 118.966 42.0466C118.911 43.5124 118.734 44.9506 118.551 46.4054C118.163 49.8589 117.286 53.2408 115.946 56.4514C114.767 59.2495 113.319 61.9281 111.621 64.4498C110.288 66.3245 108.785 68.0739 107.13 69.6759C106.909 69.89 106.654 70.0602 106.439 70.2688C103.516 73.1407 100.044 75.4046 96.2284 76.9277L86.4497 79.8976C85.9306 80.0683 85.3915 80.1717 84.8457 80.205C85.2849 79.3184 85.8012 78.4716 86.3888 77.6743C86.8037 77.7896 87.4176 77.3394 87.8933 77.3449L87.9818 77.3175L88.0426 77.1089C88.947 76.9865 89.8366 76.7731 90.6975 76.4721C91.9088 76.1372 93.5127 75.8792 94.5692 75.1381C96.9696 74.1841 99.2402 72.9356 101.328 71.4216C101.881 71.0209 102.495 70.6421 103.026 70.1974C103.988 69.3904 104.851 68.4901 105.736 67.6063C106.035 67.3099 106.361 67.0574 106.654 66.7444C108.729 64.5467 110.524 62.1038 111.997 59.4707C112.845 57.8858 113.557 56.2331 114.127 54.53C114.718 52.9238 115.222 51.2874 115.637 49.6278C115.924 48.2481 116.133 46.8533 116.262 45.4502C116.605 42.5353 116.681 39.5954 116.488 36.6668C116.427 34.925 116.186 33.1941 115.769 31.5011C115.609 30.7161 115.366 29.953 115.161 29.179C115.001 28.4344 114.792 27.7009 114.536 26.9831C114.337 26.4561 114.049 25.9511 113.811 25.4076Z" fill="url(#paint1_linear_1070_4228)"/>
<path d="M116.731 26.2256C116.669 26.366 116.569 26.4873 116.444 26.5769C116.005 25.6659 115.508 24.7839 114.956 23.9364C114.4 22.9021 113.758 21.916 113.037 20.9885V20.95C112.699 20.4074 112.33 19.885 111.93 19.3855L110.111 16.9152C107.186 12.8911 103.723 9.28061 99.8175 6.18295C97.8228 4.67589 95.6852 3.36502 93.4348 2.26884C91.5653 1.3086 89.6169 0.507891 87.6106 -0.12463C86.1996 -0.568789 84.7649 -0.935321 83.3131 -1.22255C80.6512 -1.70241 77.9485 -1.92305 75.2434 -1.88131C68.4237 -1.82641 61.4713 0.726261 56.1339 3.8279C54.6674 4.67636 53.2744 5.64402 51.969 6.72093C50.4859 7.93238 49.0956 9.2517 47.8098 10.668C45.5283 13.2332 43.5312 16.0344 41.8529 19.0232C39.364 23.596 37.489 28.5751 37.2069 33.8067C37.3772 33.7305 37.5696 33.718 37.7485 33.7714C37.9274 33.8249 38.0807 33.9408 38.1803 34.0977C38.4679 33.7573 37.8595 33.1919 37.5332 33.4993C37.8228 33.3338 38.0678 33.1012 38.2474 32.8215C38.427 32.5418 38.5358 32.2231 38.5646 31.8927C38.5934 31.5622 38.5413 31.2297 38.4127 30.9236C38.2842 30.6174 38.083 30.3466 37.8264 30.1342L38.6394 30.5239C36.9822 40.1588 38.7882 50.0652 43.7419 58.5128C48.6956 66.9604 56.4821 73.4122 65.7412 76.7411L63.7556 79.6012C57.4986 77.7153 51.7382 74.4821 46.8852 70.1323C42.0322 65.7824 38.2062 60.4231 35.6803 54.4367C33.2654 48.5193 32.1892 42.1476 32.5277 35.772C32.8485 29.5083 34.4248 22.9043 37.594 17.4257C40.3629 12.6315 43.981 8.37275 48.2744 4.85446C53.4124 0.685116 59.435 -2.27545 65.8902 -3.80518C72.3455 -5.33492 79.066 -5.39412 85.5476 -3.97835C85.5476 -3.79719 85.5476 -3.62152 85.5476 -3.48428C85.9679 -3.35253 86.3496 -3.1549 86.7699 -3.01766C88.0863 -2.57849 89.4303 -2.12834 90.708 -1.58487C92.8021 -0.675642 94.8215 0.394424 96.7478 1.61558L99.2036 3.1362C101.157 4.4791 103.005 5.96547 104.735 7.5828C105.731 8.48208 106.671 9.44089 107.55 10.4539L109.137 12.496C109.548 13.1713 110.007 13.817 110.509 14.4284C112.943 18.1448 115.293 21.9931 116.731 26.2256Z" fill="url(#paint2_linear_1070_4228)"/>
<path d="M43.2522 66.1689C42.7786 65.7129 42.3524 65.2108 41.9801 64.6702C41.6869 64.2859 41.3496 63.9346 41.0619 63.5338C40.7743 63.1331 40.6195 62.8202 40.3761 62.4744V62.4359C40.4537 62.4983 40.5209 62.5724 40.5752 62.6555L40.6361 62.7598L40.9292 63.2319C41.0232 63.4015 41.1364 63.5599 41.2666 63.704L41.3219 63.7534C41.438 63.9236 41.3219 63.8083 41.4159 63.9071C41.6316 64.1212 41.8307 64.3902 42.0299 64.6318L42.063 64.6702L42.1349 64.6153C42.2282 64.6318 42.3237 64.6318 42.417 64.6153H42.4723C42.7489 64.5549 42.4723 64.6482 42.6825 64.5714C42.5743 64.3337 42.4307 64.1135 42.2566 63.9181C41.9924 63.5446 41.7504 63.156 41.5321 62.7543L41.3496 62.4359C41.1712 62.1955 41.0209 61.9359 40.9015 61.6619C40.9015 61.5631 40.9015 61.6125 40.8573 61.5301L40.531 60.9812C40.4494 60.8172 40.3589 60.6578 40.2599 60.5036C40.1549 60.3444 40.0996 60.1632 39.9945 60.0095C39.9367 59.9479 39.8966 59.8721 39.8783 59.7899C39.8783 59.6966 39.8783 59.7405 39.823 59.6637C39.7682 59.5913 39.7235 59.5119 39.6903 59.4276L39.6515 59.3288C39.4851 59.0388 39.3427 58.7359 39.2257 58.423C39.215 58.3552 39.1964 58.2889 39.1703 58.2254L39.0763 58.0662C38.9823 57.7862 39.1316 58.0662 39.021 57.8631L38.9215 57.6709V57.5831C38.8743 57.506 38.8336 57.4252 38.7998 57.3416L38.7555 57.2208L38.7002 57.122C38.6615 56.9914 38.6154 56.8631 38.5619 56.7377L38.4679 56.562V56.4687C38.3819 56.3553 38.3232 56.2239 38.2965 56.0844C38.2965 55.9691 38.2965 56.0076 38.2411 55.9252C38.1928 55.8576 38.1589 55.7807 38.1418 55.6995C38.1247 55.6182 38.1246 55.5344 38.1416 55.4531L39.6958 59.1751C40.0055 59.8393 40.3706 60.4432 40.7246 61.08C41.6357 62.7172 42.6441 64.2992 43.7445 65.8175L43.5343 65.8614L43.4734 65.8011C43.4052 65.8823 43.3527 65.9753 43.3186 66.0755L43.2522 66.1689Z" fill="#F4A71C"/>
<path d="M43.7387 65.7723C44.0881 66.1033 44.3997 66.4715 44.6679 66.8703C45.188 67.5831 45.7631 68.2549 46.388 68.8795L47.6767 70.0378C48.2962 70.6306 48.8935 71.2894 49.5628 71.8219L51.1391 72.8539C51.3826 72.9715 51.6158 73.1093 51.836 73.2657C51.9589 73.4083 52.0613 73.5672 52.1402 73.7378C52.1988 73.8411 52.2673 73.9385 52.3449 74.0287C52.3975 74.0985 52.4421 74.174 52.4776 74.2538L49.5904 72.1842C49.258 71.978 48.9532 71.7308 48.6834 71.4486C47.2907 70.3508 45.9664 69.1702 44.7176 67.9133C44.1977 67.3643 43.6999 66.7495 43.2188 66.1676L43.3072 66.0303C43.3413 65.9301 43.3939 65.8371 43.4621 65.7559L43.523 65.8162L43.7387 65.7723Z" fill="url(#paint3_linear_1070_4228)"/>
<path d="M36.9091 37.2988V37.4196C36.9224 37.5548 36.9074 37.6912 36.8649 37.8203L36.616 39.2971C36.5344 39.7244 36.4882 40.1577 36.4777 40.5926L36.5828 40.5322C36.7379 40.4739 36.9047 40.4531 37.0695 40.4718C37.1982 40.5467 37.2946 40.6659 37.3405 40.8067L37.418 40.384V40.2028L37.3737 40.1699C37.1946 40.2279 37.0087 40.263 36.8206 40.2742L36.71 40.2083V40.1425H36.7985C37.0363 40.1425 36.7708 40.1424 37.0087 40.0876H37.1304C37.2465 40.0546 37.335 39.9833 37.4677 39.9558C37.4595 39.832 37.4803 39.708 37.5286 39.5935V39.5002C37.537 39.4189 37.5575 39.3394 37.5894 39.2641V39.1104C37.5894 39.0226 37.5894 38.9622 37.6171 38.8689C37.678 38.5607 37.7186 38.249 37.7388 37.9356C37.6153 37.8234 37.4777 37.7275 37.3295 37.6502L37.2631 37.6062C37.1857 37.5568 37.1193 37.5459 37.0474 37.5074L36.9644 37.458L37.0419 37.3922C37.2576 37.48 37.595 37.727 37.8107 37.7105L37.8604 37.8588C37.6558 39.2806 37.3405 40.7244 37.241 42.1571C37.044 45.4385 37.3215 48.7309 38.0651 51.9342C38.4027 53.4854 38.8651 55.0072 39.4478 56.4851C39.8903 57.583 40.4655 58.637 41.0076 59.7075C41.3007 60.2564 41.5607 60.8768 41.8925 61.4367C42.2908 62.1174 42.8162 62.7268 43.2642 63.3745C43.7122 64.0223 44.1879 64.8073 44.7023 65.488L47.4677 68.7104C48.1923 69.3198 48.8062 70.0444 49.5142 70.6702C51.0465 72.0225 52.6956 73.2385 54.4423 74.3044C54.7465 74.4965 55.0341 74.7326 55.3439 74.9192C56.2676 75.4609 57.2245 75.9449 58.2089 76.3685C59.1547 76.7747 60.2111 76.9778 61.0352 77.6146C60.9037 77.8357 60.7459 78.0403 60.5651 78.224C60.3765 78.1945 60.1912 78.1467 60.012 78.0812C59.3583 77.86 58.7223 77.5903 58.1093 77.2743C56.6602 76.61 55.2056 75.9622 53.8284 75.1662C53.3638 74.8972 52.9158 74.5569 52.4788 74.255C52.4433 74.1752 52.3987 74.0997 52.3461 74.0299C52.2685 73.9397 52.2 73.8423 52.1414 73.7389C52.0625 73.5684 51.9601 73.4095 51.8372 73.2668C51.617 73.1104 51.3838 72.9727 51.1403 72.8551L49.564 71.8231C48.8947 71.2741 48.2974 70.6318 47.6779 70.0389L46.3837 68.8751C45.7588 68.2506 45.1837 67.5788 44.6635 66.8659C44.3954 66.4672 44.0838 66.099 43.7343 65.768C42.634 64.2497 41.6255 62.6677 40.7144 61.0305C40.3604 60.3937 39.9954 59.7898 39.6857 59.1256L38.137 55.3871C36.2233 49.5572 35.543 43.3429 36.9091 37.2988Z" fill="url(#paint4_linear_1070_4228)"/>
<path d="M43.473 45.6759C43.4232 44.6548 43.2241 43.4801 43.4343 42.459C43.4285 42.8042 43.4507 43.1493 43.5007 43.491C43.5312 43.7684 43.5312 44.0481 43.5007 44.3255C43.5959 44.206 43.6396 44.0541 43.6223 43.9028L43.6832 43.8149V43.7216C43.6542 43.5493 43.6875 43.3724 43.7772 43.222L43.838 43.1342C43.8049 43.8588 43.921 45.0995 43.473 45.6759Z" fill="#EECEC8"/>
<path d="M45.2492 36.0515C45.3529 34.486 45.6273 32.9361 46.0678 31.4293C46.2835 30.6443 46.4881 29.8208 46.7813 29.0578C48.682 24.3093 51.6657 20.0627 55.4981 16.6512C56.3527 15.9235 57.2503 15.2471 58.1861 14.6256C59.0672 13.9741 59.9911 13.3818 60.9516 12.8524C62.682 11.9668 64.5053 11.2727 66.3886 10.7828C67.84 10.3531 69.318 10.0175 70.8133 9.77822C72.9789 9.50018 75.1664 9.43032 77.3454 9.56961C82.4074 9.84364 87.3335 11.2954 91.7259 13.8076C93.3656 14.7979 94.9131 15.9315 96.3498 17.1947C97.3062 17.9865 98.2113 18.8372 99.06 19.7419C102.688 23.7658 105.697 28.9535 106.87 34.251C107.372 36.6525 107.535 39.1115 107.356 41.5576C107.302 42.8304 107.135 44.096 106.859 45.34V45.2961C106.833 44.8237 106.846 44.35 106.897 43.8798V41.3271C106.785 38.4618 106.303 35.6226 105.465 32.8785C105.31 32.3296 105.222 31.8136 105.033 31.2975C104.874 30.9196 104.69 30.5527 104.48 30.1996L104.447 30.0843C104.32 29.7275 104.104 29.3597 103.944 29.0139L102.672 26.56C102.002 25.3219 101.263 24.1215 100.459 22.9643C100.05 22.4153 99.5578 21.8664 99.1043 21.3503C96.4435 18.1669 93.1457 15.5666 89.4195 13.7143C85.97 11.9983 82.2486 10.8841 78.4184 10.4205C76.2525 10.2338 74.0744 10.2338 71.9085 10.4205L69.4582 10.6511C69.011 10.6937 68.5697 10.7839 68.1419 10.9201L67.2182 11.1506C66.8577 11.25 66.5104 11.3919 66.1839 11.5733C66.0954 11.9686 65.5755 12.3419 65.299 12.6712L65.1662 12.5066C64.9145 12.4494 64.6796 12.3348 64.4804 12.1717C58.5371 14.7325 53.5305 19.0444 50.1386 24.5233C49.2843 25.8557 48.5443 27.2568 47.9262 28.7119C46.8892 31.3251 46.1652 34.0502 45.7691 36.8311L45.6972 36.9354C45.5944 37.1111 45.5554 37.3165 45.5866 37.5173V37.6216L45.5147 37.7314C45.5242 37.8182 45.5165 37.906 45.4918 37.9899C45.4671 38.0737 45.426 38.1519 45.3709 38.22C45.3926 37.9029 45.3796 37.5845 45.3321 37.2702C45.2697 36.8671 45.2419 36.4594 45.2492 36.0515Z" fill="#F6F7EB"/>
<path d="M68.1406 10.9207C68.5741 10.8023 69.0191 10.7305 69.4681 10.7066L71.9183 10.476C74.0842 10.2893 76.2623 10.2893 78.4282 10.476C82.2585 10.9396 85.9798 12.0537 89.4293 13.7698C93.1503 15.6061 96.4478 18.1873 99.1141 21.3509C99.5676 21.8999 100.06 22.3995 100.469 22.9649C101.273 24.1221 102.011 25.3225 102.682 26.5606L103.954 29.0144C104.114 29.3603 104.33 29.7281 104.457 30.0849L104.49 30.2002C103.803 29.9939 103.147 29.6986 102.538 29.3219L99.2192 27.417L95.3475 25.2211L79.0698 16.5256L74.8331 14.2144C74.5012 14.0278 74.197 13.7917 73.8596 13.6161L70.2037 11.799C69.5234 11.4971 68.7822 11.283 68.1406 10.9207Z" fill="#E8F6A6"/>
<path d="M64.4737 12.1602C64.673 12.3232 64.9078 12.4379 65.1596 12.495L65.2923 12.6597C64.92 13.1162 64.6112 13.6203 64.3742 14.1584C63.8883 14.97 63.5161 15.8436 63.268 16.755C63.0007 18.564 62.9654 20.3993 63.1629 22.2171C63.2107 23.6241 63.3474 25.0267 63.5722 26.4167C63.8573 27.9001 64.2267 29.3663 64.6784 30.8084C65.3878 32.9298 66.3145 34.9735 67.4439 36.9074C68.8246 39.4712 70.439 41.9041 72.2669 44.1756C72.82 44.8344 73.4339 45.4273 74.0091 46.0531C75.7557 47.9797 77.6214 49.7966 79.5954 51.4933C81.758 53.3268 84.0202 54.9463 86.3487 56.5877C87.1452 57.1366 88.008 57.6856 88.7824 58.2346C89.5058 58.8867 90.287 59.4728 91.1164 59.9857C91.3092 60.0771 91.5232 60.1151 91.7359 60.0955L91.5036 60.1614C91.7138 60.3426 91.9627 60.5073 92.0014 60.7982C90.2702 59.854 88.5556 58.9757 86.57 58.7176H86.4483C83.9158 58.4483 81.375 59.145 79.341 60.6665C77.6342 62.0999 76.018 63.6362 74.5014 65.2668C73.7326 66.0243 72.6485 66.8203 72.1231 67.759L70.2259 70.5697C68.36 69.9184 66.5384 69.1482 64.7724 68.2641C64.341 68.039 63.9538 67.7151 63.5279 67.501C62.9748 67.1881 62.4217 66.9521 61.8686 66.5788C60.8288 65.8981 59.7392 65.1954 58.7768 64.4214C58.0025 63.7955 57.2945 63.0929 56.5644 62.4067C54.852 60.8043 53.2913 59.0494 51.9018 57.1641C51.5755 56.7029 51.3487 56.1869 51.0169 55.7148C48.9725 52.7092 47.4143 49.4048 46.3985 45.9213C46.0892 44.8537 45.8454 43.7684 45.6684 42.6715C45.5799 42.0347 45.602 41.3869 45.508 40.7501C45.4638 40.4317 45.3476 40.1243 45.2812 39.8059C45.8067 39.1307 45.6795 37.6869 45.7403 36.847C46.1365 34.0661 46.8605 31.341 47.8974 28.7278C48.5155 27.2727 49.2556 25.8716 50.1098 24.5393C53.5032 19.0466 58.5185 14.7244 64.4737 12.1602Z" fill="#FF5800"/>
<path d="M67.2183 11.1395L68.142 10.9199C68.7836 11.2932 69.5247 11.5073 70.205 11.8202L73.861 13.6373C74.1984 13.813 74.5026 14.049 74.8345 14.2357L79.0712 16.5358L95.3654 25.2423L99.2371 27.4382L102.556 29.3431C103.165 29.7198 103.821 30.0152 104.508 30.2214C104.717 30.5746 104.902 30.9414 105.061 31.3194C105.249 31.8354 105.338 32.3734 105.493 32.9004C106.307 35.6402 106.766 38.4719 106.859 41.3269V43.8577C106.807 44.3279 106.794 44.8016 106.82 45.274V45.3179C106.676 46.6941 106.388 48.0517 105.963 49.3692C105.534 50.8817 104.965 52.3518 104.265 53.7609C103.927 54.4032 103.513 54.9906 103.114 55.5945C101.802 57.6202 100.196 59.4423 98.3466 61.0017C97.7935 61.4684 97.1796 61.8746 96.5933 62.3083C96.1844 62.6373 95.7518 62.9364 95.2991 63.2031C95.0723 62.5882 92.6442 61.3256 91.9805 60.8096C91.9418 60.5187 91.6929 60.354 91.4827 60.1728L91.715 60.1069C91.5023 60.1265 91.2882 60.0885 91.0955 59.9971C90.2661 59.4842 89.4849 58.8981 88.7614 58.2459C87.9926 57.6586 87.1022 57.148 86.3278 56.5991C84.0269 54.9522 81.7371 53.3382 79.5745 51.5047C77.604 49.8041 75.742 47.9836 73.9993 46.0535C73.4462 45.4277 72.7935 44.8348 72.257 44.1761C70.428 41.8975 68.8136 39.4572 67.434 36.8858C66.3046 34.952 65.378 32.9083 64.6685 30.7869C64.2168 29.3448 63.8475 27.8786 63.5623 26.3952C63.3422 25.0122 63.2092 23.617 63.1641 22.2176C62.9831 20.3977 63.0351 18.5623 63.319 16.7554C63.5671 15.844 63.9392 14.9704 64.4252 14.1588C64.6622 13.6207 64.971 13.1166 65.3433 12.6601C65.6199 12.3527 66.1398 11.9794 66.2283 11.5622C66.5408 11.384 66.873 11.2421 67.2183 11.1395Z" fill="url(#paint5_linear_1070_4228)"/>
<g opacity="0.59">
<path d="M76.6759 10.4696C83.5308 10.4697 90.1737 12.8289 95.4725 17.1451C100.771 21.4614 104.399 27.4677 105.736 34.1406C107.073 40.8136 106.038 47.7403 102.806 53.7406C99.5748 59.7409 94.3472 64.4434 88.014 67.047C81.6809 69.6506 74.6341 69.9941 68.0744 68.0191C61.5147 66.044 55.8478 61.8726 52.0395 56.2155C48.2312 50.5584 46.5169 43.7657 47.1889 36.9948C47.8608 30.2239 50.8774 23.8937 55.7246 19.0829C58.4692 16.3431 61.7343 14.171 65.3307 12.6925C68.927 11.214 72.7833 10.4585 76.6759 10.4696ZM76.6759 6.33596C68.8574 6.33488 61.2804 9.02457 55.2359 13.9467C49.1914 18.8689 45.0535 25.7189 43.5272 33.3297C42.0009 40.9405 43.1806 48.8411 46.8654 55.6853C50.5502 62.5295 56.512 67.8939 63.7351 70.8644C70.9581 73.8349 78.9954 74.2277 86.4775 71.9759C93.9597 69.7241 100.424 64.9671 104.768 58.5153C109.113 52.0635 111.069 44.3161 110.303 36.5933C109.538 28.8705 106.098 21.6501 100.57 16.1624C97.4354 13.0432 93.711 10.5695 89.6106 8.88313C85.5101 7.1968 81.1144 6.33117 76.6759 6.33596Z" fill="url(#paint6_linear_1070_4228)"/>
</g>
<path d="M70.1263 50.1922C68.033 49.2997 66.2063 47.8875 64.8221 46.0915L68.5168 42.5342C70.0738 44.2809 72.0907 45.5622 74.3409 46.2342C75.7126 46.5526 76.4703 46.2342 76.6418 45.6852C77.4604 43.2259 67.0013 41.2935 68.7214 34.437C69.0591 33.0108 69.9002 31.7517 71.0923 30.8878C72.2844 30.0238 73.7488 29.612 75.2203 29.7269L77.7867 19.4394L73.8265 18.5391L72.2502 24.7533L63.0798 22.5026L62.0566 26.5759C62.0566 26.5759 64.9714 27.2127 64.9714 27.2401C65.5028 27.3061 65.9867 27.5768 66.3189 27.9938C66.651 28.4107 66.8047 28.9405 66.7469 29.4689L62.3221 46.5252C62.2161 46.87 61.9766 47.1589 61.6562 47.3288C61.3358 47.4986 60.9607 47.5353 60.613 47.4309H60.5743L57.6595 46.7667L55.7402 51.1035L60.7181 52.3167L64.9991 53.4146L63.4283 59.7167L67.3608 60.6994L70.1263 50.1922ZM84.2524 41.2881C85.5559 41.0262 86.7371 40.3476 87.6151 39.3562C88.4931 38.3648 89.0197 37.1151 89.1141 35.7984C89.3132 34.1831 88.9434 32.5491 88.0674 31.1734C87.1914 29.7978 85.8632 28.765 84.3077 28.2502H84.1363L85.7955 21.6023L81.8354 20.6196L80.3752 26.6582L79.4183 30.5009C81.8719 31.2864 83.9462 32.9444 85.2424 35.1561L81.3376 38.0437C80.1685 36.6301 78.5792 35.6194 76.7967 35.1561C75.4858 34.8652 74.7281 35.1561 74.5511 35.8478C74.0865 37.8735 84.3686 40.1572 82.7922 46.7173C82.0068 49.9562 78.9814 52.0093 74.0588 51.4274L73.0079 55.6489L71.6418 61.7479L75.6573 62.7031L77.3166 56.0826H77.8088C82.5876 56.4614 86.1385 55.2482 87.8254 50.4777C88.2177 49.6962 88.451 48.8457 88.5121 47.9748C88.5732 47.1038 88.4608 46.2294 88.1814 45.4016C87.902 44.5737 87.461 43.8086 86.8837 43.1499C86.3064 42.4912 85.6039 41.9518 84.8166 41.5625C84.634 41.4473 84.446 41.3649 84.2524 41.2881Z" fill="url(#paint7_linear_1070_4228)"/>
<path d="M70.1263 50.1922C68.033 49.2997 66.2063 47.8875 64.8221 46.0915L68.5168 42.5342C70.0738 44.2809 72.0907 45.5622 74.3409 46.2342C75.7126 46.5526 76.4703 46.2342 76.6418 45.6852C77.4604 43.2259 67.0013 41.2935 68.7214 34.437C69.0591 33.0108 69.9002 31.7517 71.0923 30.8878C72.2844 30.0238 73.7488 29.612 75.2203 29.7269L77.7867 19.4394L73.8265 18.5391L72.2502 24.7533L63.0798 22.5026L62.0566 26.5759C62.0566 26.5759 64.9714 27.2127 64.9714 27.2401C65.5028 27.3061 65.9867 27.5768 66.3189 27.9938C66.651 28.4107 66.8047 28.9405 66.7469 29.4689L62.3221 46.5252C62.2161 46.87 61.9766 47.1589 61.6562 47.3288C61.3358 47.4986 60.9607 47.5353 60.613 47.4309H60.5743L57.6595 46.7667L55.7402 51.1035L60.7181 52.3167L64.9991 53.4146L63.4283 59.7167L67.3608 60.6994L70.1263 50.1922ZM84.2524 41.2881C85.5559 41.0262 86.7371 40.3476 87.6151 39.3562C88.4931 38.3648 89.0197 37.1151 89.1141 35.7984C89.3132 34.1831 88.9434 32.5491 88.0674 31.1734C87.1914 29.7978 85.8632 28.765 84.3077 28.2502H84.1363L85.7955 21.6023L81.8354 20.6196L80.3752 26.6582L79.4183 30.5009C81.8719 31.2864 83.9462 32.9444 85.2424 35.1561L81.3376 38.0437C80.1685 36.6301 78.5792 35.6194 76.7967 35.1561C75.4858 34.8652 74.7281 35.1561 74.5511 35.8478C74.0865 37.8735 84.3686 40.1572 82.7922 46.7173C82.0068 49.9562 78.9814 52.0093 74.0588 51.4274L73.0079 55.6489L71.6418 61.7479L75.6573 62.7031L77.3166 56.0826H77.8088C82.5876 56.4614 86.1385 55.2482 87.8254 50.4777C88.2177 49.6962 88.451 48.8457 88.5121 47.9748C88.5732 47.1038 88.4608 46.2294 88.1814 45.4016C87.902 44.5737 87.461 43.8086 86.8837 43.1499C86.3064 42.4912 85.6039 41.9518 84.8166 41.5625C84.634 41.4473 84.446 41.3649 84.2524 41.2881Z" fill="url(#paint8_linear_1070_4228)"/>
<path d="M39.4809 85.7833C41.7475 85.7833 43.5849 83.9596 43.5849 81.71C43.5849 79.4604 41.7475 77.6367 39.4809 77.6367C37.2144 77.6367 35.377 79.4604 35.377 81.71C35.377 83.9596 37.2144 85.7833 39.4809 85.7833Z" fill="url(#paint9_linear_1070_4228)"/>
<path d="M46.2389 100C57.9689 100 67.4779 90.5622 67.4779 78.92C67.4779 67.2777 57.9689 57.8398 46.2389 57.8398C34.509 57.8398 25 67.2777 25 78.92C25 90.5622 34.509 100 46.2389 100Z" fill="url(#paint10_linear_1070_4228)"/>
<path d="M38.9056 69.3965C40.2258 69.3965 41.492 69.917 42.4255 70.8436C43.359 71.7701 43.8835 73.0268 43.8835 74.3371C43.8835 75.6475 43.359 76.9042 42.4255 77.8307C41.492 78.7573 40.2258 79.2778 38.9056 79.2778C37.5854 79.2778 36.3193 78.7573 35.3857 77.8307C34.4522 76.9042 33.9277 75.6475 33.9277 74.3371C33.9277 73.0268 34.4522 71.7701 35.3857 70.8436C36.3193 69.917 37.5854 69.3965 38.9056 69.3965ZM49.4145 69.5721H53.5074L39.7961 91.8161H35.7032L49.4145 69.5721ZM38.9056 72.3993C38.5179 72.3982 38.1386 72.5114 37.8157 72.7245C37.4929 72.9376 37.2411 73.2411 37.0922 73.5964C36.9433 73.9517 36.9041 74.3429 36.9795 74.7204C37.0548 75.0979 37.2414 75.4447 37.5156 75.7168C37.7898 75.9889 38.1391 76.1741 38.5195 76.2489C38.8998 76.3237 39.2939 76.2847 39.6519 76.137C40.0099 75.9892 40.3157 75.7393 40.5304 75.4189C40.7451 75.0984 40.8591 74.722 40.858 74.3371C40.861 74.0821 40.8125 73.829 40.7154 73.5929C40.6183 73.3568 40.4745 73.1423 40.2925 72.9622C40.1105 72.7821 39.8941 72.64 39.6559 72.5443C39.4177 72.4485 39.1626 72.4011 38.9056 72.4048V72.3993ZM50.2884 82.105C51.2729 82.105 52.2353 82.3947 53.0539 82.9376C53.8725 83.4805 54.5105 84.2521 54.8873 85.1549C55.2641 86.0577 55.3627 87.0511 55.1706 88.0095C54.9785 88.9679 54.5044 89.8482 53.8082 90.5392C53.1121 91.2302 52.2251 91.7007 51.2595 91.8913C50.2939 92.082 49.293 91.9841 48.3834 91.6102C47.4738 91.2362 46.6964 90.603 46.1494 89.7905C45.6024 88.978 45.3105 88.0228 45.3105 87.0456C45.2946 86.3925 45.4124 85.7429 45.657 85.1364C45.9015 84.5298 46.2676 83.9788 46.733 83.5169C47.1985 83.0549 47.7536 82.6916 48.3647 82.4489C48.9759 82.2062 49.6303 82.0892 50.2884 82.105ZM50.2884 88.9944C50.6756 88.9944 51.0542 88.8805 51.3761 88.6669C51.6981 88.4534 51.9491 88.1499 52.0973 87.7948C52.2455 87.4397 52.2842 87.049 52.2087 86.672C52.1331 86.295 51.9467 85.9487 51.6728 85.677C51.399 85.4052 51.0501 85.2201 50.6703 85.1451C50.2905 85.0701 49.8968 85.1086 49.5391 85.2557C49.1813 85.4028 48.8755 85.6519 48.6604 85.9715C48.4452 86.291 48.3304 86.6667 48.3304 87.0511C48.3274 87.3071 48.376 87.5611 48.4734 87.7983C48.5707 88.0354 48.7148 88.2508 48.8973 88.4318C49.0797 88.6128 49.2967 88.7559 49.5356 88.8525C49.7745 88.9491 50.0304 88.9974 50.2884 88.9944Z" fill="url(#paint11_linear_1070_4228)"/>
<path d="M40.8138 67.9199C42.134 67.9199 43.4002 68.4405 44.3337 69.367C45.2672 70.2936 45.7917 71.5502 45.7917 72.8606C45.7917 74.1709 45.2672 75.4276 44.3337 76.3542C43.4002 77.2807 42.134 77.8012 40.8138 77.8012C39.4936 77.8012 38.2275 77.2807 37.2939 76.3542C36.3604 75.4276 35.8359 74.1709 35.8359 72.8606C35.8359 71.5502 36.3604 70.2936 37.2939 69.367C38.2275 68.4405 39.4936 67.9199 40.8138 67.9199ZM51.3227 68.0956H55.4211L41.6988 90.3395H37.6114L51.3227 68.0956ZM40.8138 70.9227C40.4261 70.9217 40.0468 71.0348 39.724 71.248C39.4011 71.4611 39.1493 71.7645 39.0004 72.1199C38.8515 72.4752 38.8123 72.8664 38.8877 73.2438C38.9631 73.6213 39.1496 73.9681 39.4238 74.2402C39.698 74.5123 40.0473 74.6975 40.4277 74.7723C40.808 74.8471 41.2021 74.8082 41.5601 74.6604C41.9181 74.5126 42.2239 74.2627 42.4386 73.9423C42.6533 73.6219 42.7673 73.2454 42.7662 72.8606C42.77 72.6051 42.722 72.3514 42.6252 72.1146C42.5284 71.8779 42.3847 71.6628 42.2027 71.4821C42.0206 71.3014 41.8039 71.1588 41.5654 71.0627C41.3268 70.9666 41.0712 70.919 40.8138 70.9227ZM52.1966 80.6394C53.1811 80.6394 54.1435 80.9291 54.9621 81.472C55.7807 82.0149 56.4188 82.7865 56.7955 83.6893C57.1723 84.5921 57.2709 85.5855 57.0788 86.5439C56.8867 87.5023 56.4126 88.3826 55.7164 89.0736C55.0203 89.7646 54.1333 90.2351 53.1677 90.4258C52.2021 90.6164 51.2012 90.5186 50.2916 90.1446C49.382 89.7707 48.6046 89.1374 48.0576 88.3249C47.5106 87.5124 47.2187 86.5572 47.2187 85.58C47.2028 84.9269 47.3206 84.2774 47.5652 83.6708C47.8097 83.0642 48.1758 82.5133 48.6412 82.0513C49.1067 81.5893 49.6618 81.226 50.2729 80.9833C50.8841 80.7406 51.5385 80.6236 52.1966 80.6394ZM52.1966 87.5289C52.5836 87.5289 52.9619 87.415 53.2838 87.2017C53.6056 86.9884 53.8566 86.6852 54.0049 86.3305C54.1533 85.9757 54.1924 85.5852 54.1173 85.2084C54.0422 84.8316 53.8563 84.4853 53.583 84.2133C53.3097 83.9413 52.9614 83.7558 52.5819 83.6802C52.2025 83.6046 51.809 83.6423 51.4511 83.7886C51.0932 83.9348 50.7871 84.183 50.5713 84.5019C50.3554 84.8207 50.2397 85.1959 50.2386 85.58C50.2364 85.8356 50.2855 86.089 50.3832 86.3255C50.4809 86.562 50.6251 86.7767 50.8075 86.9572C50.9898 87.1376 51.2066 87.2802 51.4451 87.3764C51.6836 87.4727 51.9391 87.5208 52.1966 87.5179V87.5289Z" fill="url(#paint12_linear_1070_4228)"/>
</g>
</g>
<defs>
<linearGradient id="paint0_linear_1070_4228" x1="86.7835" y1="-0.493301" x2="70.7783" y2="73.137" gradientUnits="userSpaceOnUse">
<stop stop-color="#FFBF13"/>
<stop offset="1" stop-color="#FF9529"/>
</linearGradient>
<linearGradient id="paint1_linear_1070_4228" x1="111.538" y1="66.1735" x2="89.711" y2="39.3854" gradientUnits="userSpaceOnUse">
<stop stop-color="#F63E00"/>
<stop offset="1" stop-color="#FF8B0A"/>
</linearGradient>
<linearGradient id="paint2_linear_1070_4228" x1="45.2102" y1="7.58829" x2="90.1204" y2="54.2137" gradientUnits="userSpaceOnUse">
<stop stop-color="#FC4100"/>
<stop offset="1" stop-color="white"/>
</linearGradient>
<linearGradient id="paint3_linear_1070_4228" x1="46.9936" y1="70.7898" x2="48.687" y2="69.4077" gradientUnits="userSpaceOnUse">
<stop stop-color="#FD8A00"/>
<stop offset="1" stop-color="#FCDA42"/>
</linearGradient>
<linearGradient id="paint4_linear_1070_4228" x1="56.4058" y1="56.1529" x2="38.8121" y2="59.8981" gradientUnits="userSpaceOnUse">
<stop stop-color="#FEC03E"/>
<stop offset="1" stop-color="#FFDE69"/>
</linearGradient>
<linearGradient id="paint5_linear_1070_4228" x1="75.8715" y1="55.3172" x2="89.8258" y2="19.5031" gradientUnits="userSpaceOnUse">
<stop stop-color="#FFA101"/>
<stop offset="1" stop-color="#FBCF01"/>
</linearGradient>
<linearGradient id="paint6_linear_1070_4228" x1="52.7821" y1="63.5927" x2="100.211" y2="15.8065" gradientUnits="userSpaceOnUse">
<stop stop-color="#C10501"/>
<stop offset="1" stop-color="#FF5903"/>
</linearGradient>
<linearGradient id="paint7_linear_1070_4228" x1="86.3542" y1="19.6589" x2="48.8607" y2="79.3329" gradientUnits="userSpaceOnUse">
<stop stop-color="white"/>
<stop offset="0.03" stop-color="#FFFBF5"/>
<stop offset="1" stop-color="#FFA50E"/>
</linearGradient>
<linearGradient id="paint8_linear_1070_4228" x1="86.3542" y1="19.6589" x2="48.8607" y2="79.3329" gradientUnits="userSpaceOnUse">
<stop stop-color="white"/>
<stop offset="0.03" stop-color="#FFFBF5"/>
<stop offset="1" stop-color="#FFA50E"/>
</linearGradient>
<linearGradient id="paint9_linear_1070_4228" x1="39.102" y1="85.7655" x2="39.8527" y2="77.6517" gradientUnits="userSpaceOnUse">
<stop stop-color="#F63E00"/>
<stop offset="1" stop-color="#FF8B0A"/>
</linearGradient>
<linearGradient id="paint10_linear_1070_4228" x1="48.688" y1="98.2902" x2="47.4326" y2="56.1293" gradientUnits="userSpaceOnUse">
<stop stop-color="#1F6F62"/>
<stop offset="0.19" stop-color="#259186"/>
<stop offset="0.43" stop-color="#2AB4AB"/>
<stop offset="0.65" stop-color="#2FCEC6"/>
<stop offset="0.85" stop-color="#31DED6"/>
<stop offset="1" stop-color="#32E3DC"/>
</linearGradient>
<linearGradient id="paint11_linear_1070_4228" x1="33.9222" y1="80.6941" x2="55.2662" y2="80.6941" gradientUnits="userSpaceOnUse">
<stop stop-color="#028D8F"/>
<stop offset="1" stop-color="#007983"/>
</linearGradient>
<linearGradient id="paint12_linear_1070_4228" x1="33.701" y1="66.026" x2="59.7961" y2="93.3185" gradientUnits="userSpaceOnUse">
<stop offset="0.31" stop-color="#FEC33A"/>
<stop offset="0.61" stop-color="#FFF46C"/>
<stop offset="0.93" stop-color="#FECB43"/>
</linearGradient>
<clipPath id="clip0_1070_4228">
<rect width="100" height="100" fill="white"/>
</clipPath>
<clipPath id="clip1_1070_4228">
<rect width="95" height="105" fill="white" transform="translate(25 -5)"/>
</clipPath>
</defs>
</svg>
