<?xml version="1.0" encoding="UTF-8"?>
<svg width="100" height="100" id="Layer_1" data-name="Layer 1" xmlns="http://www.w3.org/2000/svg"
  viewBox="0 0 100 100">
  <defs>
    <style>
      .cls-1 {
      fill: #f95921;
      }

      .cls-1, .cls-2, .cls-3 {
      stroke-width: 0px;
      }

      .cls-2 {
      fill: #fff;
      opacity: .9;
      }

      .cls-3 {
      fill: #ff8a4d;
      }
    </style>
  </defs>
  <path class="cls-3"
    d="M63.6952,81.0538c-3.3275,1.391-8.2314,2.2739-13.6955,2.2739s-10.4681-.9163-13.7956-2.3184c-2.7227-1.161-4.366-2.6671-4.366-4.3104v-2.7933c.6454,3.3979,3.6205,4.3995,7.3188,5.6941,3.6984,1.2947,8.7099,1.6618,12.9795,1.3503,4.2697-.3116,8.8138-1.1017,11.2992-2.2739,2.4854-1.1723,4.9262-2.6189,4.7259-5.1229v3.1457c0,1.6656-1.6841,3.1865-4.4662,4.3513" />
  <path class="cls-1"
    d="M47.8742,74.6105c.612.1558,1.2872.2782,2.0069.3561.7753.0668,1.2056,0,1.302-.1224.1929-.2188-.7382-.4154-1.8177-.6788-1.48-.3635-3.2272-.8532-2.6671-1.6953.1929-.3004.6714-.5638,1.3428-.7456.6714-.1817,1.4986-.2671,2.3295-.2411l1.4504-2.1701-2.2405-.1892-.8903,1.3095-5.1896-.4749-.575.8606s1.6433.1335,1.6433.141c.3005.0148.5749.0704.7642.1595.1892.089.2745.2003.2411.3116l-2.5039,3.5982c-.0297.0371-.0779.0705-.1447.1002s-.1446.0556-.2374.0705c-.0927.0185-.1929.0297-.293.0297-.1038,0-.2077,0-.3078-.0149l-1.647-.1409-1.0869.9162,2.8192.2559.1373.0112,2.285.2188-.8903,1.3317,2.2257.2078,1.5654-2.2145c-.7419-.1188-1.4281-.282-2.0254-.4786-.3561-.1187-.6788-.2448-.9719-.3858l2.0922-.7493c.3821.1595.8161.3005,1.2835.4229Z" />
  <path class="cls-1"
    d="M57.6411,71.7871c-.0297-.0149-.0556-.0334-.089-.0482-.4859-.2671-1.2056-.4674-2.0328-.5676h-.1002l.9385-1.4022-2.2405-.2078-.8235,1.2686-.5416.8198c1.0905.1298,2.0476.3747,2.7635.6974.1966.089.371.1817.5305.2819l-2.2072.6084c-.178-.0817-.3709-.1559-.5824-.2226-.5712-.1854-1.2501-.3153-1.9883-.3895-.7419-.0593-1.1685,0-1.2649.1484-.1113.178.8532.3673,1.94.6306,1.4987.3598,3.2384.8606,2.7228,1.6618-.4451.6825-2.1589,1.1166-4.9448.9941l-.5935.8903-.7715,1.2872,2.2739.2003.9423-1.3948h.2782c2.7006.0779,4.7111-.178,5.6681-1.1833.2337-.1743.3709-.3635.3895-.5601.0259-.1929-.0631-.3895-.2522-.5713-.1929-.1817-.4823-.3487-.8532-.4859-.3747-.1373-.8235-.2449-1.3132-.3153.7382-.0557,1.4096-.2003,1.9067-.4118.497-.2114.7901-.4748.8458-.753.1112-.3412-.0964-.6863-.5935-.9756h-.0074Z" />
  <g>
    <path class="cls-2"
      d="M76.2148,45.0117l-26.0186-28.541c-.1016-.1094-.291-.1094-.3926,0l-26.0186,28.541c-.0703.0781-.0889.1895-.0459.2861.042.0957.1377.1572.2422.1572h7.6406v23.5762c0,.1465.1182.2646.2646.2646s.2646-.1182.2646-.2646v-23.8408c0-.1465-.1182-.2646-.2646-.2646h-7.3047l25.418-27.8828,25.418,27.8828h-7.3047c-.0703,0-.1377.0273-.1875.0771s-.0781.1182-.0771.1885l.0488,15.2676c0,.1455.1182.2637.2646.2637h.001c.1465,0,.2646-.1191.2637-.2656l-.0479-15.002h7.6396c.1045,0,.2002-.0615.2422-.1572.043-.0967.0244-.208-.0459-.2861Z" />
    <path class="cls-2"
      d="M68.1133,62.2754c-.1465,0-.2646.1182-.2646.2646v7.3887c0,.1465.1182.2646.2646.2646s.2646-.1182.2646-.2646v-7.3887c0-.1465-.1182-.2646-.2646-.2646Z" />
    <path class="cls-2"
      d="M56.8066,49.2061c-3.3975,0-6.2666,2.6846-6.2666,5.8623v2.0254c0,.0425.0211.0866.0471.1274.3585,2.887,3.13,5.2232,6.2234,5.2232,3.1064,0,5.8369-2.2764,6.2168-5.1807.0303-.2217.0459-.4512.0459-.6816v-1.5137c0-3.1777-2.8691-5.8623-6.2666-5.8623ZM62.502,57.1934c-.3467,2.6475-2.8457,4.7217-5.6914,4.7217-2.8604,0-5.4209-2.167-5.709-4.8291,0-.0002,0-.0005,0-.0007,0,0,0-.0002,0-.0002-.0176-.1689-.0283-.334-.0283-.5029,0-2.8906,2.6279-5.333,5.7373-5.333,3.1074,0,5.7334,2.4424,5.7334,5.333,0,.2061-.0146.4111-.042.6113ZM62.3792,53.957c-.1112-.2014-.2313-.3979-.3658-.5858-.0089-.0123-.0159-.0256-.0248-.0378-.1432-.1968-.3026-.3821-.4694-.5616-.0483-.0519-.0982-.102-.1483-.1524-.1415-.1422-.2897-.2778-.445-.4067-.0404-.0335-.0781-.0693-.1193-.1018-.1926-.152-.3954-.2921-.6059-.4222-.0554-.0342-.1128-.0649-.1694-.0975-.1723-.0994-.3494-.1909-.5315-.2747-.0606-.0279-.1198-.0573-.1815-.0833-.2325-.0984-.4708-.1852-.7161-.2565-.0449-.0131-.0914-.0218-.1368-.0339-.2098-.056-.4234-.1007-.6407-.1355-.0713-.0114-.1421-.0226-.214-.0316-.2631-.0331-.5291-.0561-.8-.0561-.2719,0-.5387.0231-.8027.0564-.0714.009-.1418.02-.2125.0313-.2206.0353-.4376.0808-.6505.1379-.0425.0114-.086.0194-.1281.0316-.2474.0718-.4876.1598-.7219.2592-.0596.0252-.1169.0535-.1755.0804-.1866.0858-.3679.1796-.5442.2818-.0529.0307-.1068.0593-.1588.0913-.2125.1313-.4167.2731-.611.4267-.041.0323-.0784.0677-.1185.101-.1567.1302-.3061.2674-.4487.4112-.0485.049-.097.0973-.1438.1477-.1672.1801-.3265.3666-.47.5642-.0136.0187-.0246.0389-.038.0577-.1298.1831-.2464.3741-.3541.57-.0163.0297-.0379.0565-.0537.0864.5254-2.4258,2.8896-4.3193,5.6279-4.3193,2.7334,0,5.0928,1.8867,5.625,4.3057-.0154-.0292-.0366-.0552-.0525-.084Z" />
    <path class="cls-2"
      d="M60.2569,56.045c-.0295-.166-.0708-.3323-.127-.4982-.0007-.002-.003-.0029-.0037-.0049-.4983-1.4227-1.8922-2.455-3.3156-2.455-1.4102,0-2.8389,1.0615-3.3223,2.4707-.1152.334-.1729.6787-.1729,1.0244,0,1.8281,1.666,3.4922,3.4951,3.4922,1.8301,0,3.4961-1.6641,3.4961-3.4922,0-.1711-.015-.3438-.0446-.5169-.0012-.0067-.0039-.0134-.0051-.0201ZM56.8105,53.6162c1.1591,0,2.335.8638,2.7795,2.0192-.1888.4969-.5236.9653-.9602,1.3255-1.1094.9209-2.5693.9141-3.6846-.0322-.4213-.3566-.7292-.8047-.9144-1.2924.443-1.1562,1.6171-2.0201,2.7796-2.0201ZM56.8105,59.5449c-1.5244,0-2.9658-1.4404-2.9658-2.9629,0-.0345.0074-.069.0088-.1035.2012.3151.4537.6038.749.8545,1.3066,1.1084,3.0645,1.1172,4.3652.0361.3146-.2594.5852-.5682.7993-.9045.0019.039.0103.0786.0103.1174,0,1.5225-1.4424,2.9629-2.9668,2.9629Z" />
    <path class="cls-2"
      d="M60.7603,35.0315c.0005-.007.0063-.0127.0063-.0198v-1.3438c0-.1465-.1182-.2646-.2646-.2646h-3.2207c-.0889,0-.1729.0449-.2217.1191l-17.7832,27.124c-.0283.043-.043.0938-.043.1455v1.3877c0,.0087.007.015.0078.0235.0032.035.0063.0704.0235.1025.0037.0068.0113.0097.0155.0161.0101.0157.0239.0253.037.0385.0244.0242.0496.0436.0811.0568.0092.0039.0139.0137.0236.0165.0254.0078.0508.0107.0762.0107h3.2314c.0898,0,.1729-.0449.2217-.1191l17.7725-27.1309c.0325-.0496.0406-.1063.0367-.1628ZM39.7627,60.8711l17.6621-26.9385h2.8125v.8516h-2.9668c-.0898,0-.1729.0449-.2217.1191l-17.2861,26.3877v-.4199ZM39.9884,61.915l17.4257-26.6016h2.5713l-17.3994,26.6016h-2.5975Z" />
    <path class="cls-2"
      d="M49.417,41.2744c.0273-.209.0391-.416.0391-.6279,0-.2629-.0215-.5088-.059-.7518.0375-.2461.059-.477.059-.6984,0-.0967-.0039-.1973-.0078-.2979-.1777-3.0703-2.9854-5.5684-6.2598-5.5684s-6.0811,2.498-6.2588,5.5732c-.0039.0957-.0068.1963-.0068.2959.0027.2552.0253.4851.0622.707-.0369.2365-.0583.4839-.0583.7402,0,.2119.0107.4199.0391.625.3525,2.9395,3.0879,5.2412,6.2275,5.2412,3.1377,0,5.8711-2.3018,6.2236-5.2383ZM43.1885,33.8594c2.6377,0,5.0156,1.8584,5.6006,4.2148-.0228-.042-.0533-.0795-.0772-.121-.0512-.089-.1093-.1725-.1652-.2588-.1228-.1898-.2547-.3723-.3987-.5479-.0694-.0847-.1382-.168-.2122-.2491-.1663-.1823-.3447-.3527-.5323-.5153-.0605-.0526-.1154-.1099-.1781-.1602-.2523-.2028-.5205-.3868-.8026-.5512-.0731-.0426-.1509-.0759-.2258-.1157-.2188-.1165-.4424-.2224-.6746-.3138-.1057-.0416-.2122-.078-.3203-.1142-.2227-.0746-.4495-.1353-.6809-.1854-.1037-.0225-.2052-.0483-.3103-.0657-.3329-.0549-.6704-.0912-1.0142-.0915-.0012,0-.0023-.0003-.0035-.0003-.0001,0-.0003,0-.0004,0-.0002,0-.0004,0-.0005,0-.3477,0-.6888.037-1.025.0925-.1013.0168-.199.0417-.299.0632-.2388.0513-.4727.114-.7021.1912-.1021.0344-.2029.0687-.3029.108-.2439.0958-.4791.2065-.7081.3297-.065.035-.1329.0637-.1965.1008-.2869.1671-.5593.3542-.8152.5609-.0555.0449-.104.0959-.1579.1425-.195.1685-.3795.3459-.5515.5355-.0713.0785-.1375.1593-.2045.2411-.1458.1782-.2791.3636-.403.5565-.055.0854-.1122.1682-.1626.2563-.0238.0416-.0544.0793-.0771.1216.583-2.3623,2.9629-4.2246,5.6016-4.2246ZM37.4912,41.2051c-.0244-.1855-.0352-.3701-.0352-.5586,0-.2412.0186-.4746.0557-.6992.3887-2.5975,2.8836-4.6335,5.6812-4.6337,2.0886.0002,4.0136,1.1415,5.0137,2.8052.3334.5546.564,1.1672.6636,1.8149v.0029c.0381.2285.0566.46.0566.71,0,.1885-.0117.374-.0352.5625-.3164,2.6318-2.8721,4.7744-5.6982,4.7744-2.8281,0-5.3857-2.1426-5.7021-4.7783Z" />
    <path class="cls-2"
      d="M46.6885,40.6465c0-.3418-.0596-.6895-.1768-1.0322-.0002-.0007-.0011-.001-.0013-.0018-.4875-1.4018-1.914-2.4582-3.317-2.4582-1.4079,0-2.8373,1.0583-3.3248,2.4621-.0002.0007-.0011.001-.0013.0018-.0319.0923-.0486.1875-.0717.2816-.0608.2458-.1021.4949-.1021.7468,0,1.8291,1.668,3.4951,3.5,3.4951,1.8291,0,3.4951-1.666,3.4951-3.4951ZM43.1934,43.6123c-.1908,0-.3803-.0225-.5659-.0649-1.2988-.2967-2.4039-1.567-2.4039-2.9009,0-.0054.0004-.0109.0004-.0163.0002-.0305.0065-.0605.0078-.0911.0345.0538.0706.1069.1031.1542.0439.0654.0938.127.1602.21.168.2051.3525.3877.5459.541.6436.5264,1.4062.8164,2.1484.8164.7354,0,1.5186-.2979,2.1504-.8174.0703-.0576.1406-.1172.2148-.1865l.1523-.1562c.0615-.0615.1191-.127.1963-.2217.0469-.0586.0967-.1201.1348-.1777.0387-.0534.0755-.1087.1115-.1639.0016.0362.0096.0734.0096.1093,0,1.5244-1.4414,2.9658-2.9658,2.9658ZM43.1934,37.6836c1.1614,0,2.3389.8657,2.7814,2.0223-.0119.031-.0219.0606-.0363.0939-.084.2051-.1953.4043-.3359.5986-.0342.0527-.0742.1016-.1279.168-.0469.0557-.0928.1094-.1475.165l-.1416.1445c-.0586.0557-.1211.1074-.1826.1582-.5381.4434-1.1992.6973-1.8135.6973-.6201,0-1.2637-.248-1.8154-.6992-.167-.1328-.3252-.2891-.4854-.4854-.0381-.0469-.0781-.0957-.1162-.1533-.041-.0586-.083-.1211-.126-.1904-.0361-.0557-.0674-.1152-.1045-.1855-.0534-.1007-.095-.207-.1358-.3127.4447-1.1568,1.6234-2.0212,2.7872-2.0212Z" />
    <path class="cls-2"
      d="M66.9971,50.4492c-.1465,0-.2646.1182-.2646.2646v6.2129c0,.1465.1182.2646.2646.2646s.2646-.1182.2646-.2646v-6.2129c0-.1465-.1182-.2646-.2646-.2646Z" />
    <path class="cls-2"
      d="M33.1807,57.9902c-.1465,0-.2646.1182-.2646.2646v8.8174c0,.1465.1182.2646.2646.2646s.2646-.1182.2646-.2646v-8.8174c0-.1465-.1182-.2646-.2646-.2646Z" />
  </g>
  <g>
    <path class="cls-2"
      d="M66.2051,73.9277c0,1.0742-.9111,2.1309-2.6357,3.0566-3.0254,1.627-8.0986,2.5986-13.5693,2.5986-4.6123,0-9.0215-.7021-12.0957-1.9248-.1367-.0547-.29.0127-.3438.1484-.0547.1357.0117.29.1484.3438,3.1338,1.2471,7.6143,1.9619,12.291,1.9619,5.5547,0,10.7217-.9941,13.8203-2.6611,1.9072-1.0234,2.9141-2.2422,2.9141-3.5234s-1.0068-2.5-2.9141-3.5234c-.126-.0693-.2891-.0215-.3584.1084-.0693.1289-.0205.2891.1084.3584,1.7236.9258,2.6348,1.9824,2.6348,3.0566Z" />
    <path class="cls-2"
      d="M36.1104,77.4102c.041.0225.084.0322.127.0322.0938,0,.1846-.0498.2324-.1377.0703-.1289.0225-.29-.1055-.3594-1.6836-.916-2.5742-1.959-2.5742-3.0176,0-1.0605.8906-2.1064,2.5742-3.0244,3.0244-1.6494,8.1221-2.6348,13.6357-2.6348,4.8066,0,9.3408.7539,12.4414,2.0674.1367.0586.291-.0068.3477-.1406.0566-.1348-.0059-.29-.1406-.3477-3.1631-1.3398-7.7734-2.1084-12.6484-2.1084-5.5986,0-10.791,1.0088-13.8896,2.6992-1.8643,1.0166-2.8496,2.2227-2.8496,3.4893,0,1.2646.9854,2.4688,2.8496,3.4824Z" />
    <path class="cls-2"
      d="M68.371,73.4398c-.2657-1.6466-1.854-3.1978-4.5673-4.4095-3.4805-1.5635-8.5117-2.46-13.8037-2.46-5.3281,0-10.3838.9072-13.8721,2.4902-2.9353,1.3271-4.5518,3.0541-4.5543,4.8632,0,.0004-.0004.0007-.0004.0011v2.793c0,1.6914,1.6074,3.3096,4.5283,4.5547,3.5264,1.4863,8.5928,2.3389,13.8984,2.3389,5.2812,0,10.3105-.8359,13.7979-2.2949.0026-.001.0029-.0043.0054-.0054,2.9808-1.2487,4.6226-2.8804,4.6226-4.5932v-3.1455c0-.0518-.0291-.0917-.0547-.1325ZM36.3467,69.543c3.4219-1.5527,8.3984-2.4434,13.6533-2.4434,5.2207,0,10.1729.8799,13.5869,2.415,2.7793,1.2402,4.3096,2.8076,4.3096,4.4131s-1.5303,3.1729-4.3096,4.4131c-3.4141,1.5352-8.3662,2.415-13.5869,2.415-5.2549,0-10.2314-.8906-13.6533-2.4434-2.7363-1.2373-4.2441-2.7949-4.2441-4.3848s1.5078-3.1475,4.2441-4.3848ZM67.8965,76.7178c0,1.4863-1.5283,2.9453-4.3037,4.1074-.0022.0009-.0025.0037-.0046.0046-3.4247,1.4305-8.3765,2.2522-13.5881,2.2522-5.2383,0-10.2285-.8379-13.6924-2.2979-2.7109-1.1562-4.2051-2.6006-4.2051-4.0664v-1.0463c.6918,1.1568,2.0524,2.2314,4.0254,3.1235,3.4883,1.583,8.5439,2.4902,13.8721,2.4902,5.292,0,10.3242-.8965,13.8037-2.46,2.0097-.8975,3.3934-1.9827,4.0928-3.1532v1.0458Z" />
  </g>
</svg>