<svg width="100" height="100" viewBox="0 0 100 100" fill="none" xmlns="http://www.w3.org/2000/svg">
<path d="M66.2347 77.9573C62.896 79.3519 57.9726 80.2394 52.4997 80.2394C47.0268 80.2394 41.9977 79.3202 38.6591 77.915C35.9226 76.7528 34.2744 75.242 34.2744 73.5938V70.794C34.9189 74.2066 37.9089 75.2103 41.6174 76.5098C45.3258 77.8094 50.3549 78.1792 54.6339 77.8622C58.9129 77.5452 63.4771 76.7528 65.9706 75.5801C68.464 74.4073 70.9152 72.9493 70.7144 70.4453V73.6044C70.7144 75.2737 69.024 76.8057 66.2347 77.9679" fill="#FF8A4D"/>
<g opacity="0.9">
<path d="M52.5 78.2095C47.1539 78.2095 42.0825 77.3009 38.5748 75.7055C35.6271 74.3743 34 72.631 34 70.8137C34 68.9965 35.6271 67.2532 38.5748 65.922C42.072 64.3372 47.1539 63.418 52.5 63.418C57.8461 63.418 62.8541 64.316 66.3512 65.8903C69.3412 67.2321 71 68.9754 71 70.8137C71 72.6521 69.3518 74.406 66.3512 75.7372C62.8541 77.3009 57.8144 78.2095 52.5 78.2095ZM52.5 63.9779C47.2279 63.9779 42.241 64.876 38.8072 66.4291C36.0708 67.6653 34.56 69.2289 34.56 70.8137C34.56 72.3985 36.0708 73.9622 38.8072 75.1984C42.241 76.7515 47.2279 77.6495 52.5 77.6495C57.7721 77.6495 62.6956 76.7726 66.1188 75.2301C68.8975 73.9834 70.4295 72.4197 70.4295 70.8137C70.4295 69.2078 68.8975 67.6441 66.1188 66.3974C62.6956 64.8549 57.7299 63.9779 52.5 63.9779ZM52.5 77.0262C47.809 77.0262 43.3081 76.3077 40.1702 75.061C40.0223 75.0082 39.9589 74.8392 40.0117 74.7018C40.0645 74.5539 40.2336 74.4905 40.3709 74.5433C43.456 75.7689 47.8723 76.4768 52.5 76.4768C57.9834 76.4768 63.0654 75.5048 66.1082 73.8671C67.8304 72.9374 68.7495 71.8808 68.7495 70.8137C68.7495 69.7466 67.8409 68.6901 66.1082 67.7603C65.9709 67.6864 65.918 67.5173 65.992 67.38C66.0659 67.2426 66.235 67.1898 66.3723 67.2638C68.2952 68.2886 69.299 69.5248 69.299 70.8137C69.299 72.1027 68.2847 73.3283 66.3723 74.3637C63.2556 76.033 58.0785 77.0368 52.5 77.0368V77.0262ZM38.691 74.3531C38.691 74.3531 38.5959 74.3531 38.5537 74.3214C36.6836 73.3072 35.6905 72.0922 35.6905 70.8137C35.6905 69.5353 36.6836 68.3203 38.5537 67.2955C41.6705 65.5944 46.8792 64.5907 52.4894 64.5907C57.3812 64.5907 62.0088 65.362 65.1785 66.7038C65.3158 66.7672 65.3898 66.9257 65.3264 67.0736C65.263 67.2109 65.1045 67.2849 64.9566 67.2215C61.8504 65.9008 57.2967 65.1507 52.4789 65.1507C46.9532 65.1507 41.8395 66.1333 38.8072 67.792C37.1274 68.7112 36.2293 69.7572 36.2293 70.8137C36.2293 72.145 37.6345 73.1909 38.8072 73.8249C38.9446 73.8988 38.9974 74.0679 38.9235 74.2052C38.8706 74.3003 38.7756 74.3531 38.6805 74.3531H38.691Z" fill="white"/>
</g>
<g opacity="0.9">
<path d="M52.4999 23.2604C51.1158 23.2604 49.7423 23.1547 48.4217 22.9434C48.2737 22.9223 48.1681 22.7744 48.1892 22.6264C48.2103 22.4785 48.3583 22.3729 48.5062 22.394C49.8057 22.6053 51.1475 22.711 52.4999 22.711C54.8665 22.711 57.117 22.394 59.1878 21.7706C59.3357 21.7284 59.4942 21.8129 59.5364 21.9608C59.5787 22.1087 59.4942 22.2672 59.3463 22.3095C57.2226 22.9434 54.9088 23.2709 52.4893 23.2709L52.4999 23.2604Z" fill="white"/>
</g>
<g opacity="0.9">
<path d="M52.5 80.5367C47.175 80.5367 42.0931 79.6809 38.5537 78.1912C35.5742 76.9233 34 75.3385 34 73.6058V70.806C34 70.6475 34.1268 70.5312 34.2747 70.5312C34.4226 70.5312 34.5494 70.658 34.5494 70.806V73.6058C34.5494 75.0744 36.0497 76.5113 38.7544 77.6735C42.2304 79.142 47.2384 79.9767 52.4894 79.9767C57.7404 79.9767 62.685 79.1526 66.1188 77.7157C66.2667 77.6523 66.4252 77.7157 66.4886 77.8636C66.5519 78.0115 66.4886 78.17 66.3406 78.2334C62.8435 79.702 57.7932 80.5367 52.4894 80.5367H52.5Z" fill="white"/>
</g>
<g opacity="0.9">
<path d="M66.2351 78.2544C66.1294 78.2544 66.0238 78.191 65.9815 78.0853C65.9181 77.948 65.9815 77.779 66.1294 77.7156C68.9081 76.5534 70.4401 75.0953 70.4401 73.6056V70.4466C70.4401 70.2881 70.5669 70.1719 70.7148 70.1719C70.8627 70.1719 70.9895 70.2987 70.9895 70.4466V73.6056C70.9895 75.3278 69.3413 76.976 66.3407 78.2333C66.309 78.2438 66.2668 78.2544 66.2351 78.2544Z" fill="white"/>
</g>
<g opacity="0.69">
<path d="M57.9416 71.7349L60.3611 55.834C56.79 57.7041 48.4011 57.7252 44.6504 55.8551L46.9959 71.7455C48.6864 73.4993 56.6421 73.457 57.9522 71.7455L57.9416 71.7349Z" fill="#F95921"/>
</g>
<g opacity="0.9">
<path d="M52.5316 57.2363C49.6684 57.2363 46.9003 56.8242 44.7344 56.0741C44.5865 56.0212 44.5125 55.8628 44.5548 55.7148C44.6076 55.5669 44.7661 55.493 44.914 55.5352C47.0271 56.2642 49.7318 56.6657 52.5316 56.6657C55.3315 56.6657 58.0256 56.2642 60.107 55.5458C60.2549 55.493 60.4134 55.5775 60.4662 55.7148C60.5191 55.8628 60.4345 56.0212 60.2972 56.0741C58.1524 56.8136 55.3948 57.2257 52.5316 57.2257V57.2363Z" fill="white"/>
</g>
<g opacity="0.9">
<path d="M60.2019 56.1067H60.1808C60.0223 56.1067 59.9061 55.9588 59.9167 55.8109L60.2125 51.1938C60.2125 51.0353 60.3499 50.9297 60.5083 50.9297C60.6668 50.9297 60.783 51.0776 60.7725 51.2255L60.4766 55.8426C60.4766 55.9905 60.3393 56.1067 60.2019 56.1067Z" fill="white"/>
</g>
<g opacity="0.9">
<path d="M44.819 56.0992C44.6711 56.0992 44.5549 55.983 44.5443 55.8351L44.2168 50.8271C44.2168 50.6686 44.3225 50.5418 44.4809 50.5312C44.6394 50.5312 44.7662 50.6369 44.7768 50.7954L45.1043 55.8034C45.1043 55.9619 44.9986 56.0886 44.8402 56.0992H44.819Z" fill="white"/>
</g>
<g opacity="0.9">
<path d="M38.8172 59.6797C38.8172 59.6797 38.7432 59.6797 38.7115 59.6586C38.6376 59.6269 38.5742 59.5635 38.5425 59.479C37.581 56.415 36.6302 52.939 36.8626 50.3716C37.1267 47.4133 40.6978 44.0535 43.8674 42.7645C44.0048 42.7011 44.1738 42.7645 44.2267 42.923C44.2901 43.0709 44.2267 43.2294 44.0682 43.2822C40.7401 44.6346 37.6339 47.9733 37.412 50.4244C37.1901 52.8016 38.0565 56.0558 38.9651 58.9824L41.1627 57.7568C41.0148 56.1509 41.7861 53.7314 44.5859 53.1926C44.7444 53.1609 44.8817 53.2665 44.9134 53.4144C44.9451 53.5624 44.8395 53.7103 44.6915 53.742C42.1559 54.2385 41.5325 56.4784 41.7332 57.873C41.7544 57.9893 41.691 58.1055 41.5959 58.1583L38.9334 59.648C38.9334 59.648 38.8489 59.6797 38.7961 59.6797H38.8172Z" fill="white"/>
</g>
<g opacity="0.9">
<path d="M66.1933 59.6797C66.1933 59.6797 66.0982 59.6691 66.056 59.648L63.3935 58.1583C63.2878 58.1054 63.235 57.9892 63.2561 57.873C63.4569 56.4784 62.8335 54.2385 60.2978 53.7419C60.1499 53.7102 60.0443 53.5623 60.076 53.4144C60.1077 53.2665 60.245 53.1608 60.4035 53.1925C63.2033 53.7419 63.9746 56.1508 63.8267 57.7568L66.0243 58.9824C66.9329 56.0558 67.7887 52.8016 67.5774 50.4244C67.3555 47.9732 64.2387 44.6346 60.9212 43.2822C60.7733 43.2294 60.7099 43.0603 60.7627 42.923C60.8155 42.7751 60.9846 42.7117 61.1219 42.7645C64.2915 44.0535 67.8626 47.4133 68.1268 50.3716C68.3592 52.9284 67.4083 56.4044 66.4469 59.4789C66.4258 59.5635 66.3624 59.6269 66.2778 59.6585C66.2461 59.6691 66.2144 59.6797 66.1722 59.6797H66.1933Z" fill="white"/>
</g>
<g opacity="0.9">
<path d="M56.9892 17.6711C56.8836 17.6711 56.7885 17.6183 56.7357 17.5232L53.3653 10.9621C53.1962 10.6346 52.8687 10.4338 52.4989 10.4338C52.1291 10.4338 51.8122 10.6346 51.6326 10.9621L48.3045 17.4281C48.2305 17.5654 48.0615 17.6183 47.9241 17.5443C47.7868 17.4704 47.7339 17.3013 47.8079 17.164L51.136 10.6979C51.4001 10.1802 51.9178 9.86328 52.4989 9.86328C53.0695 9.86328 53.5977 10.1802 53.8619 10.6979L57.2322 17.2591C57.3062 17.3964 57.2534 17.5654 57.116 17.6394C57.0737 17.6605 57.0315 17.6711 56.9892 17.6711Z" fill="white"/>
</g>
<g opacity="0.9">
<path d="M44.2577 47.5283C44.1098 47.5283 43.9936 47.4121 43.983 47.2642L42.7786 28.743C42.7152 27.7182 42.9265 26.6934 43.3914 25.7742L47.8183 17.1634C47.8922 17.026 48.0613 16.9732 48.1986 17.0472C48.336 17.1211 48.3888 17.2902 48.3148 17.4275L43.8879 26.0383C43.4653 26.8624 43.2752 27.7922 43.328 28.7113L44.5324 47.2325C44.5324 47.391 44.4268 47.5177 44.2683 47.5283H44.2472H44.2577Z" fill="white"/>
</g>
<g opacity="0.9">
<path d="M60.709 48.2043H60.6879C60.5294 48.2043 60.4132 48.0564 60.4238 47.9085L61.6705 28.7217C61.7233 27.8025 61.5331 26.8728 61.1105 26.0487L56.7259 17.533C56.6519 17.3956 56.7047 17.2266 56.8421 17.1526C56.9794 17.0787 57.1485 17.1315 57.2224 17.2689L61.6071 25.7846C62.072 26.7037 62.2938 27.718 62.2304 28.7534L60.9837 47.9402C60.9837 48.0881 60.8464 48.2043 60.709 48.2043Z" fill="white"/>
</g>
<path d="M45.7487 63.5998C45.6113 63.5998 45.4951 63.5047 45.474 63.3568L44.8084 58.8665C44.7872 58.708 44.8929 58.5707 45.0408 58.5496C45.1993 58.5284 45.3366 58.6341 45.3578 58.782L46.0234 63.2723C46.0445 63.4308 45.9389 63.5681 45.7909 63.5893C45.7804 63.5893 45.7592 63.5893 45.7487 63.5893V63.5998Z" fill="white"/>
<path d="M59.1348 64.1492C59.1348 64.1492 59.1031 64.1492 59.0926 64.1492C58.9446 64.1281 58.839 63.9802 58.8601 63.8323L59.6314 58.782C59.6525 58.6341 59.7899 58.5284 59.9483 58.5496C60.0963 58.5707 60.2019 58.7186 60.1808 58.8665L59.4095 63.9168C59.3884 64.0541 59.2722 64.1492 59.1348 64.1492Z" fill="white"/>
<path d="M58.0995 71.0578C58.0995 71.0578 58.0783 71.0578 58.0572 71.0578C57.8987 71.0367 57.7931 70.8888 57.8142 70.7408L58.11 68.7123C58.1312 68.5644 58.2685 68.4482 58.427 68.4693C58.5855 68.4904 58.6911 68.6383 58.67 68.7863L58.3742 70.8148C58.353 70.9522 58.2368 71.0578 58.0995 71.0578Z" fill="white"/>
<path d="M52.5104 39.7967C49.4676 39.7967 47.0059 37.3244 47.0059 34.2922C47.0059 34.028 47.027 33.7533 47.0798 33.4364C47.1009 33.299 47.2172 33.1934 47.3545 33.1934C47.4919 33.1934 47.6081 33.2884 47.6292 33.4258C48.0201 35.8453 50.0804 37.5991 52.521 37.5991C54.9616 37.5991 57.0218 35.8453 57.4128 33.4258C57.4339 33.2884 57.5501 33.1934 57.6875 33.1934C57.8248 33.1934 57.941 33.299 57.9622 33.4364C58.0044 33.7322 58.0256 34.028 58.0256 34.2922C58.0256 37.335 55.5533 39.7967 52.521 39.7967H52.5104ZM47.6503 35.2642C48.1047 37.5252 50.1121 39.2368 52.4999 39.2368C54.8876 39.2368 56.8951 37.5252 57.3494 35.2642C56.4091 37.0075 54.5812 38.1591 52.4999 38.1591C50.4185 38.1591 48.5801 37.0075 47.6503 35.2642Z" fill="white"/>
<path d="M57.6669 33.4683C57.2654 35.9934 55.1207 37.8846 52.5005 37.8846C49.8802 37.8846 47.746 35.9934 47.334 33.4788C47.7249 30.9643 49.8802 29.0625 52.5005 29.0625C55.1207 29.0625 57.276 30.9748 57.6669 33.4683Z" fill="#F95921"/>
<path d="M52.5105 38.1594C49.7952 38.1594 47.5025 36.2048 47.0693 33.5212C47.0693 33.5106 47.0693 33.4367 47.0693 33.4155C47.492 30.7214 49.7846 28.7773 52.5105 28.7773C55.2364 28.7773 57.5291 30.7319 57.9517 33.4155C57.9517 33.4261 57.9517 33.4472 57.9517 33.4578C57.5185 36.2048 55.2258 38.1594 52.5105 38.1594ZM47.6187 33.4684C48.0202 35.8667 50.0699 37.5994 52.4999 37.5994C54.93 37.5994 56.9797 35.8667 57.3812 33.4684C56.9902 31.07 54.9405 29.3373 52.4999 29.3373C50.0593 29.3373 48.0097 31.07 47.6187 33.4684Z" fill="white"/>
</svg>
