<?xml version="1.0" encoding="UTF-8"?>
<svg width="100" height="100" id="Layer_1" data-name="Layer 1" xmlns="http://www.w3.org/2000/svg"
  viewBox="0 0 100 100">
  <defs>
    <style>
      .cls-1 {
      fill: #f95921;
      fill-rule: evenodd;
      }

      .cls-1, .cls-2, .cls-3 {
      stroke-width: 0px;
      }

      .cls-2 {
      fill: #fff;
      opacity: .9;
      }

      .cls-3 {
      fill: #ff8a4d;
      }
    </style>
  </defs>
  <path class="cls-3"
    d="M70.8486,41.709l-3.1742,1.1955c.0885-.5143.1567-1.0388.2043-1.5701.1465-1.6177.0954-3.2219-.1328-4.7886-1.2806-8.8346-8.1671-16.4433-17.0359-18.0269-6.529-1.1648-12.5913,1.2057-16.4535,5.7694,4.5366-6.2395,12.4074-9.1855,20.4213-6.8355,8.9369,2.6191,15.2989,11.0144,16.1538,20.2544.1226,1.3215.1328,2.66.017,4.0019Z" />
  <path class="cls-1"
    d="M55.6349,34.5295l-4.4786,2.9426,3.4024,10.3639-2.1082.7935-2.4488-7.2271-1.4236-4.1994-.3303-.9741,1.7539-1.1478,2.6838-1.7574-1.6825-3.0721v-.0034l-1.3657-2.4965-2.5748.8992v19.7912l-2.258-.8481v-10.0471l-.9434.6744-1.1478-1.4815,2.0912-1.4884v-1.4373l-2.7758,1.9822-1.1511-1.4781,3.0039-2.1422.0033-.0034.9196-.654v-4.7817l5.5378-2.0333,1.4509,2.6294,2.4896-1.7677,1.1512,1.4747-2.7281,1.9413.5688,1.0286,2.7962-1.9925,1.1512,1.4816-2.8405,2.0196h-.0034l-.1975.1431,1.0149,1.9993.4393.8685Z" />
  <g>
    <path class="cls-2"
      d="M50.0016,58.3754c-.1475,0-.2671.1201-.2671.2676v21.1357c0,.1475.1196.2676.2671.2676s.2671-.1201.2671-.2676v-21.1357c0-.1475-.1196-.2676-.2671-.2676Z" />
    <path class="cls-2"
      d="M83.9967,52.2592l-7.626-12.6934c-.0154-.0253-.0449-.0305-.0664-.0486-.0048-.0041-.0098-.0063-.0142-.0104-.0214-.0169-.0312-.0442-.0581-.0543l-5.1568-1.9388c-.9538-9.5766-7.4918-17.7299-16.3222-20.3181-7.8403-2.2958-15.9627.4177-20.6999,6.9191-.0002.0003-.0005.0005-.0008.0009-.0038.0045-.0071.0094-.0109.0139-.0004.0006-.0009.0011-.0013.0017-2.4298,2.8764-3.902,6.4806-4.2563,10.4248-.0787.8726-.0952,1.7658-.0612,2.6578l-5.9554,2.2397c-.0032.0012-.0038.0051-.0068.0064-.0242.0098-.036.0336-.0563.0501-.025.0197-.0577.0269-.075.0558l-7.6255,12.6934c-.1982.3291-.2388.7275-.1108,1.0908.1284.3643.4102.6494.772.7822l6.9297,2.5438v15.7775c0,.8164.5132,1.5576,1.2764,1.8438l24.4385,9.1865c.2251.083.4604.125.6948.125s.4673-.042.6875-.126c3.8008-1.4307,24.4399-9.1885,24.4399-9.1885.7637-.2861,1.2773-1.0273,1.2773-1.8447v-15.7747l6.9258-2.5427c.3623-.1328.6436-.418.7725-.7822.1279-.3633.0879-.7617-.1104-1.0908ZM75.3823,39.7036l-4.2499,1.5974c.0699-1.0538.0629-2.1258-.0145-3.2007l4.2645,1.6033ZM54.6027,17.7094c8.6743,2.542,15.0894,10.5889,15.9634,20.0225.1166,1.2678.1261,2.5343.0308,3.7704l-2.5837.9711c.0539-.3688.0984-.7421.1315-1.1146.0728-.8032.0978-1.6131.0753-2.4235-.0225-.811-.0925-1.6224-.21-2.428-1.3286-9.1699-8.4233-16.6748-17.2529-18.251-.0019-.0003-.0037-.0004-.0056-.0007-.4971-.0887-.9927-.1504-1.4871-.1991-.137-.0135-.2733-.0234-.41-.0338-.3997-.0306-.7976-.0485-1.1939-.0533-.074-.0009-.1489-.0099-.2227-.0099-.0383,0-.076.0034-.1142.0036-.2076.0012-.4134.0113-.6198.0195-.179.0071-.3584.0118-.5364.0242-.2119.0148-.4216.0381-.632.0602-.1702.0179-.3408.0334-.5098.056-.2136.0286-.425.0657-.6367.1019-.1632.0279-.3268.0536-.4888.086-.213.0425-.4233.0932-.6341.1435-.1576.0377-.3157.0732-.4719.1151-.2094.0561-.4158.12-.6226.1837-.1545.0476-.3095.0935-.4625.1454-.2032.0689-.4034.1452-.6038.2215-.1523.058-.3049.1146-.4554.1768-.1958.081-.3884.1689-.581.257-.1506.0688-.3016.1366-.4502.2098-.1867.092-.3701.1905-.5535.2893-.1022.0551-.2075.1042-.3087.1613,4.4839-3.1553,10.2412-4.1504,15.8462-2.5049ZM30.3161,34.6039c.3447-3.8418,1.7778-7.3486,4.1445-10.1426,1.7259-2.0394,3.8558-3.5926,6.225-4.6023,3.046-1.2977,6.4881-1.697,9.9772-1.0774,8.606,1.5371,15.522,8.8584,16.8188,17.8027.2285,1.5713.2725,3.1611.1309,4.7256-.001.0112-.0031.0218-.0042.033-.0411.4523-.1031.9034-.1752,1.3484l-1.9293.7252c.1868-.7952.3201-1.6198.3962-2.4601.1587-1.7822.0532-3.5898-.314-5.374-.4512-2.2041-1.29-4.3125-2.4932-6.2637-2.8638-4.6494-7.436-7.8398-12.5439-8.7539-.9932-.1777-1.9814-.2656-2.9565-.2656-3.4209,0-6.6753,1.0791-9.3838,3.1484-3.5591,2.7188-5.7515,6.8066-6.1733,11.5107-.0483.5303-.0728,1.0674-.0728,1.5977-.0034,2.1425.3647,4.2645,1.0929,6.3178l-2.0045-.7534c-.4479-1.5489-.7147-3.142-.7916-4.7363-.0444-.9326-.0254-1.8682.0566-2.7803ZM65.3678,40.9086c-.0851.9402-.249,1.8588-.4764,2.7381l-14.8901,5.5967-16.2791-6.1188c-.8128-2.1293-1.2289-4.3371-1.2256-6.5685,0-.5137.0239-1.0352.0708-1.5498.4082-4.5527,2.5269-8.5078,5.9653-11.1338,3.3604-2.5664,7.5947-3.5508,11.9224-2.7822,4.958.8877,9.3984,3.9883,12.1826,8.5088,1.1704,1.8984,1.9858,3.9473,2.4248,6.0908.3564,1.7334.4595,3.4893.3052,5.2188ZM29.7539,37.773c.0914,1.3859.3229,2.7663.6876,4.1184l-5.8209-2.1879,5.1333-1.9305ZM16.8488,53.6303c-.2119-.0771-.377-.2441-.4521-.458-.0747-.2129-.0513-.4453.0649-.6377l7.5115-12.5037,6.7458,2.5356c.0107.0058.0124.0214.0239.0257l2.6802,1.0088c.0198.0078.0401.002.0605.0046l16.1209,6.0594-7.5154,12.2924c-.269.4453-.8193.6396-1.3105.457l-23.9297-8.7842ZM75.8737,72.4496c0,.5957-.373,1.1357-.9297,1.3447,0,0-20.6401,7.7578-24.4419,9.1885-.3193.123-.6768.1211-1.0059,0l-24.4375-9.1855c-.5562-.209-.9302-.749-.9302-1.3438v-15.5814l16.4653,6.0443c.1836.0674.373.0996.5605.0996.5557,0,1.0908-.2852,1.3911-.7803l7.189-11.7584v5.689c0,.1475.1196.2676.2671.2676s.2671-.1201.2671-.2676v-5.6882l7.188,11.7566c.3013.4961.8364.7812,1.3921.7812.187,0,.3765-.0322.5601-.0996l16.4648-6.0449v15.5781ZM83.6032,53.1723c-.0752.2139-.2402.3809-.4521.458l-23.9268,8.7842c-.4907.1807-1.0405-.0107-1.311-.458l-7.5151-12.2918,14.7203-5.5328c.0311-.0002.0621-.0057.0917-.0172l2.5566-.9596c.0006-.0002.0013-.0001.002-.0004l3.1733-1.1953c.0182-.0068.0289-.023.0448-.0333l5.0396-1.8942,7.5123,12.5026c.1152.1924.1396.4248.0645.6377Z" />
  </g>
  <path class="cls-3"
    d="M32.6864,65.0425c.1703.7152.2691,1.5802.2691,2.6258v9.5159l5.7183,2.1491v-9.5806c0-4.0904-1.5223-5.4118-2.8472-5.7592-.2964-.0783-.5824-.1056-.8379-.1056-1.0183,0-1.7506.4326-2.3023,1.1512v.0034Z" />
  <path class="cls-3"
    d="M21.5154,76.1691l5.7184,2.0912c4.0733-1.6076,3.0584-10.0948,5.4527-13.218.5518-.7186,1.284-1.1512,2.3024-1.1512.2554,0,.5415.0273.8378.1056l-5.3744-1.9753-.0681-.0238c-.3917-.1431-.78-.1941-1.1171-.1941-5.4323,0-2.7382,12.3904-7.7516,14.3657Z" />
  <path class="cls-3"
    d="M67.3134,65.0425c-.1703.7152-.269,1.5803-.269,2.6258v9.4477l-5.7184,2.1491v-9.5091c0-4.0904,1.5224-5.4118,2.8472-5.7592.2963-.0783.5824-.1056.8379-.1056,1.0183,0,1.7506.4326,2.3023,1.1512Z" />
  <path class="cls-3"
    d="M78.4845,76.1691l-5.7183,2.0912c-4.0734-1.6076-3.0584-10.0948-5.4528-13.218-.5517-.7186-1.284-1.1512-2.3023-1.1512-.2554,0-.5415.0273-.8379.1056l5.3744-1.9753.0681-.0238c.3917-.1431.78-.1941,1.1171-.1941,5.4323,0,2.7383,12.3904,7.7516,14.3657Z" />
  <g>
    <path class="cls-2"
      d="M35.9134,63.7434l-5.3746-1.9754-.0635-.0215c-.3779-.1377-.7959-.2109-1.2085-.2109-3.0444,0-3.7178,3.5869-4.3696,7.0557-.5942,3.1631-1.2085,6.4346-3.48,7.3291-.103.041-.1704.1416-.1689.252.0015.1113.0713.21.1753.248l5.7183,2.0908c.0298.0107.0605.0166.0918.0166.0332,0,.0664-.0068.0981-.0195,2.5444-1.0039,3.1875-4.4229,3.8091-7.7295.3613-1.9232.7077-3.751,1.3958-5.0061.0904.5775.1521,1.1967.1521,1.8958v9.3799c0,.1113.0688.2109.1733.25l5.7183,2.1484c.0303.0117.062.0176.0938.0176.0537,0,.1069-.0166.1523-.0479.0718-.0498.1147-.1318.1147-.2197v-9.4404c0-4.2944-1.6419-5.6407-3.0277-6.0129ZM30.6154,70.6801c-.5864,3.1211-1.1929,6.3467-3.3877,7.2939l-5.0381-1.8428c2.0723-1.2637,2.6616-4.4004,3.2329-7.4414.6392-3.4043,1.2432-6.6191,3.8442-6.6191.3511,0,.7056.0615,1.0308.1797l3.9512,1.4502s-.0004.0001-.0006.0002c-.0026.0006-.0049.0018-.0074.0024-.207.0464-.4009.1196-.5881.2072-.0584.0273-.1142.0607-.1708.092-.1332.074-.2616.1594-.3848.256-.0527.0413-.1064.0809-.1573.1264-.1571.1405-.3079.2958-.4484.4765-.0053.0068-.0117.0112-.017.0181-.0003.0004,0,.001-.0003.0015-1.0178,1.3273-1.426,3.4998-1.8586,5.7993ZM38.4069,78.8109l-5.1841-1.9473v-9.1953c0-.9527-.0827-1.8079-.2455-2.5472.0672-.0815.1386-.1528.2101-.2237.0587-.0582.1144-.1237.1762-.1747.0931-.077.1945-.1353.2947-.1963.063-.0384.1221-.0856.188-.1176.1146-.0557.2389-.0911.3624-.1279.0604-.018.1158-.046.1783-.0594.1904-.0411.3903-.0629.6018-.0629.2676,0,.5264.0322.77.0967,1.208.3164,2.6479,1.5283,2.6479,5.501v9.0547Z" />
    <path class="cls-2"
      d="M78.5817,75.9203c-2.2705-.8945-2.8848-4.166-3.4795-7.3291-.6514-3.4688-1.3252-7.0557-4.3691-7.0557-.4121,0-.8301.0732-1.2041.209l-5.4396,1.998c-1.3864.3712-3.0306,1.7164-3.0306,6.0137v9.4404c0,.0879.043.1699.1147.2197.0454.0312.0986.0479.1523.0479.0317,0,.0635-.0059.0938-.0176l5.7183-2.1484c.1045-.0391.1733-.1387.1733-.25v-9.3799c0-.6989.0616-1.3184.152-1.8965.6881,1.2557,1.0345,3.0836,1.3958,5.0069.6221,3.3066,1.2646,6.7256,3.8096,7.7295.0312.0127.0645.0195.0977.0195.0312,0,.0625-.0059.0918-.0166l5.7178-2.0908c.1045-.0381.1738-.1367.1758-.248.001-.1104-.0664-.2109-.1699-.252ZM66.777,76.8637l-5.1841,1.9473v-9.0547c0-3.9727,1.4399-5.1846,2.6479-5.501.0002,0,.0003,0,.0005,0s.0003.0001.0005,0c.2427-.0645.5015-.0967.769-.0967.2115,0,.4113.0219.6016.0629.0652.0141.1231.0431.1859.062.1204.0363.2418.0705.3537.1248.0706.0342.134.0844.2013.1259.095.0586.1917.1136.2803.1867.0677.0558.129.127.1931.1913.0662.0665.1329.1321.1954.2078-.1624.7405-.2452,1.5962-.2452,2.5484v9.1953ZM72.7721,77.974c-2.1943-.9473-2.8008-4.1729-3.3877-7.2939-.4326-2.2998-.8408-4.4727-1.8589-5.8008-.1466-.1909-.3052-.3522-.47-.4991-.0472-.0421-.097-.0784-.1456-.1169-.127-.1002-.2597-.1885-.3976-.2645-.0536-.0296-.1065-.0613-.1619-.0872-.1904-.0893-.3876-.1643-.5988-.211l3.8828-1.4268.0732-.0254c.3193-.1162.6748-.1777,1.0254-.1777,2.6006,0,3.2051,3.2148,3.8447,6.6191.5713,3.041,1.1602,6.1777,3.2324,7.4414l-5.0381,1.8428Z" />
  </g>
</svg>