<svg width="100" height="100" viewBox="0 0 100 100" fill="none" xmlns="http://www.w3.org/2000/svg">
<g clip-path="url(#clip0_188_9423)">
<path d="M38.5466 60.8913C55.3678 60.8913 69.004 47.2603 69.004 30.4457C69.004 13.631 55.3678 0 38.5466 0C21.7255 0 8.08929 13.631 8.08929 30.4457C8.08929 47.2603 21.7255 60.8913 38.5466 60.8913Z" fill="url(#paint0_linear_188_9423)"/>
<path d="M57.9755 96.0002C75.3936 96.0002 89.5137 81.8855 89.5137 64.4742C89.5137 47.0628 75.3936 32.9481 57.9755 32.9481C40.5575 32.9481 26.4373 47.0628 26.4373 64.4742C26.4373 81.8855 40.5575 96.0002 57.9755 96.0002Z" fill="url(#paint1_linear_188_9423)"/>
<path d="M64.1107 33.6822C69.9211 35.1861 74.0844 37.0833 78.6498 40.761C84.1706 45.303 87.8237 52.3515 88.844 59.1537C89.1134 60.7506 89.2579 62.366 89.2763 63.9853C89.2763 65.0311 89.3325 66.1115 89.2504 67.153C87.9534 83.8344 73.5397 96.0515 55.8532 94.781C51.3931 94.4379 47.0556 93.1578 43.1244 91.0242C39.1931 88.8907 35.7565 85.9518 33.0394 82.3996C32.7299 82.0163 32.4413 81.6167 32.1747 81.2025C31.5673 80.4534 31.025 79.6539 30.5535 78.8127C30.1212 77.8619 29.5592 76.963 29.1312 75.9993C27.9596 73.3459 26.8787 69.6811 26.9695 66.79C26.8312 62.5894 27.2895 58.2808 28.9064 54.3481C29.1182 53.5961 30.2725 51.6255 30.065 50.96V50.692C32.7324 51.4742 36.0095 51.4267 38.8239 51.4267H39.4076L39.1654 51.6601L37.9204 53.0559C37.8339 53.151 37.488 53.635 37.3886 53.648C37.0342 54.0849 36.7256 54.5569 36.4677 55.0568C35.9014 55.5495 35.0324 57.9437 34.8811 58.6178L34.8508 58.7648C34.7243 59.1223 34.6416 59.4937 34.6044 59.8711V59.9057C34.5489 59.9722 34.5197 60.0568 34.5223 60.1434V60.2212C34.4061 60.5336 34.3475 60.8645 34.3493 61.1978C34.3493 61.3016 34.1764 62.7406 34.1764 63.1944V64.4909C34.1495 64.746 34.1597 65.0036 34.2067 65.2558C34.4185 65.93 34.1807 67.2697 34.5136 68.0044C34.5964 68.2768 34.6557 68.5559 34.6909 68.8384L35.0756 70.2084C35.7674 72.6933 38.6899 78.1126 40.938 79.543L41.0115 79.6165C41.0979 79.8628 44.1588 82.5206 44.5738 82.5249L44.6906 82.6503C44.8867 82.8244 45.1065 82.9699 45.3434 83.0824L46.8652 83.9122C47.4229 84.206 48.3178 84.4696 48.8063 84.7765L48.8668 84.8197C49.1306 84.7894 49.4721 85.0963 49.7315 85.1352H49.8093C50.216 85.3354 50.6552 85.4613 51.1063 85.5068L51.2835 85.563C51.743 85.7863 52.2469 85.903 52.7578 85.9044L53.0258 86.0211C53.0855 86.0449 53.152 86.0449 53.2117 86.0211L53.5057 86.06C53.5965 86.1464 53.6786 86.1162 53.804 86.1162L54.0158 86.2026C55.2831 86.4507 56.5685 86.5953 57.8592 86.6348C58.8103 86.7169 59.7528 86.5181 60.6953 86.6002L61.4302 86.5483L61.5167 86.4662C62.182 86.484 62.8467 86.4113 63.4924 86.2501L63.9637 86.1637C65.2909 86.0341 66.4236 85.3858 67.7163 85.1654C68.395 85.0444 69.5407 84.2276 69.9687 84.1498H70.0422C70.267 83.9122 70.7512 83.7955 71.0452 83.601L72.0222 83.0349C72.0871 83.0003 72.1303 82.9484 72.1995 82.9096L72.5799 82.6978C72.6545 82.6649 72.722 82.6179 72.7788 82.5595L72.848 82.4904C72.982 82.4169 72.8739 82.4904 72.9604 82.4385L73.116 82.3218C74.4935 81.3974 75.7423 80.2944 76.8297 79.0417C83.6215 71.5567 83.414 61.2324 78.0488 52.5244C73.5786 45.2641 70.7987 42.0921 62.23 39.8405C61.7977 39.7238 61.3351 39.6979 60.8941 39.5855H60.8466L62.2689 37.4636C62.7594 36.7086 63.1763 35.9083 63.514 35.0738L63.7691 34.499C63.8314 34.2079 63.9472 33.931 64.1107 33.6822Z" fill="url(#paint2_linear_188_9423)"/>
<path d="M57.9754 88.4804C71.4896 88.4804 82.4451 77.5292 82.4451 64.0202C82.4451 50.5111 71.4896 39.5599 57.9754 39.5599C44.4612 39.5599 33.5058 50.5111 33.5058 64.0202C33.5058 77.5292 44.4612 88.4804 57.9754 88.4804Z" fill="url(#paint3_linear_188_9423)"/>
<path d="M76.3053 85.4206C76.6426 85.1354 76.9668 84.8458 77.2911 84.5563L79.0593 82.8968C78.9898 82.9464 78.9324 83.011 78.8912 83.0858C78.8501 83.1606 78.8262 83.2437 78.8215 83.3289V83.4067C79.0376 83.5882 79.0031 83.6919 79.0895 83.9469C77.0575 86.1643 74.6574 88.0138 71.9951 89.4137C70.3666 90.2681 68.6542 90.9516 66.885 91.4535C63.355 92.4246 59.6729 92.7179 56.0336 92.3179C50.5909 91.7356 45.3922 89.7522 40.9454 86.5615C41.0512 86.5757 41.1584 86.5478 41.2437 86.4837L40.7595 86.2244C41.715 86.4751 42.3721 87.0887 43.2195 87.5511C47.3741 89.7508 51.3904 91.6394 56.1892 91.8727C63.3658 92.2617 70.7759 90.0966 76.3053 85.4206Z" fill="url(#paint4_linear_188_9423)"/>
<path d="M16.2517 9.87059C16.7186 9.38369 17.2 8.91263 17.6957 8.45743C23.424 3.24126 31.2275 0.466789 38.9748 0.531613C45.4727 0.539951 51.8014 2.60331 57.0546 6.42627C61.3199 9.67017 64.5714 14.0627 66.4275 19.0886C67.3749 21.6087 67.9657 24.2488 68.1827 26.9323C68.347 28.9937 68.1438 31.0767 68.0573 33.1381C67.9752 35.0698 67.8023 36.9454 66.9333 38.7086C61.7454 49.2058 52.6665 56.721 40.6911 57.5638C33.7518 58.0346 26.8407 56.3044 20.9425 52.6198C20.4366 52.3 19.9049 51.5654 20.3891 51.2067C13.5021 45.9862 8.78545 37.7276 8.6082 29.0844C8.46986 22.0143 11.3837 15.0046 16.2517 9.87059Z" fill="url(#paint5_linear_188_9423)"/>
<path d="M16.3424 9.9394C18.4368 7.69339 20.8771 5.79673 23.5709 4.32132C31.3138 0.055904 40.9072 -0.518868 49.2294 2.44143C57.0588 5.22454 63.9285 11.3482 66.3495 19.2957C64.4473 16.5644 62.5321 13.8159 60.2191 11.4217C54.5876 5.60745 46.8792 2.26294 38.7844 2.12163C34.7745 2.09664 30.8033 2.90771 27.1246 4.50306C23.4458 6.09842 20.1402 8.443 17.4189 11.3871C14.7342 14.366 12.7388 17.8995 11.5747 21.7364C10.4106 25.5733 10.1062 29.6194 10.6832 33.5872L10.8864 29.3131C11.2866 29.5003 11.7439 29.5247 12.1618 29.3811C12.5796 29.2376 12.9253 28.9374 13.1259 28.5439L15.1232 35.7091L14.5007 34.6935C14.8811 38.3755 16.9087 41.7248 19.4638 44.4085C22.2831 47.325 25.7233 49.5695 29.5291 50.9752C33.3348 52.381 37.4084 52.912 41.4476 52.5288C45.482 52.0855 49.3648 50.7396 52.8076 48.5909C56.2504 46.4422 59.1649 43.546 61.3345 40.1171C61.7409 40.3635 61.6156 40.9815 61.421 41.4136C59.3026 46.0982 55.0269 49.5642 50.3016 51.5953C39.6491 56.1805 26.3421 53.5098 18.2706 45.2166C18.6578 45.8158 18.9183 46.4879 19.0358 47.1916C19.0711 47.4415 19.0544 47.6961 18.9867 47.9392C18.919 48.1824 18.8018 48.409 18.6424 48.6048C18.0717 49.0974 17.8382 48.7042 17.3454 48.259C16.4385 47.4608 15.5944 46.5939 14.8206 45.6661C13.2713 43.7992 11.9907 41.7249 11.0161 39.5035C9.03252 35.032 8.31904 30.1009 8.95395 25.2508C9.78409 19.5093 12.364 14.1629 16.3424 9.9394Z" fill="url(#paint6_linear_188_9423)"/>
<path d="M13.8042 16.3012C14.5262 15.3677 15.1012 14.3175 15.7973 13.3711C17.126 11.6678 18.6659 10.1401 20.3799 8.82479C20.488 8.90258 20.4966 8.89826 20.5312 9.02359L19.9822 9.50761C19.6493 9.75826 19.3639 10.1083 19.0484 10.3719L18.9792 10.4411C18.642 11.0158 17.8249 11.6252 17.3969 12.2259L16.7657 13.1161C17.1548 12.9001 17.3536 12.3599 17.7038 12.2086L17.747 12.2864C17.7038 12.416 17.5611 12.5154 17.4574 12.6105L17.5222 12.6753C17.7557 12.4765 18.7673 11.3313 18.91 11.2967C19.0562 11.3795 19.222 11.4213 19.3899 11.4178L18.9187 11.9147C18.9187 12.0703 17.8162 13.1421 17.5179 13.3927L17.1677 13.8767C16.9386 14.0712 16.4285 14.7411 16.4674 15.0609C18.3177 11.9968 21.9233 8.96741 25.2522 7.20419C26.2002 6.67426 27.1757 6.19532 28.1747 5.76942C31.7587 4.34762 36.9596 3.78149 40.9197 4.10128C43.0858 4.30179 45.2164 4.78412 47.2576 5.53606C47.958 6.00711 48.9523 6.69857 49.8256 6.83254C50.3271 6.91032 50.6471 7.3857 51.2307 7.47645C52.7352 8.22409 54.9876 9.95705 56.2284 11.0115C56.3681 11.1279 56.4778 11.2761 56.5483 11.4437C56.6737 11.8499 57.2876 12.2389 57.6032 12.5414L58.9002 13.8767C59.2944 14.2612 59.6347 14.6974 59.9118 15.1732C60.0006 15.3905 60.1264 15.5908 60.2836 15.7653L61.0272 16.9278C61.1992 17.3188 61.3985 17.6971 61.6238 18.0601C61.7708 18.7385 62.3501 19.3263 62.4885 20.0091L62.7003 20.4412C62.7385 20.5425 62.7688 20.6465 62.7911 20.7524L62.8516 20.8129C63.3401 21.405 63.2839 22.4508 63.552 23.1509C63.8932 24.2863 64.1675 25.4407 64.3734 26.6082C64.3734 26.7767 64.3085 27.0403 64.4642 27.1181H64.6155C64.6674 27.2607 64.7495 27.2823 64.8922 27.3126H65.0176C65.0715 27.2797 65.132 27.2591 65.1948 27.2521L65.2251 27.2218C65.424 27.023 66.0508 26.6773 66.0897 26.4007L66.2929 26.2581L66.4529 28.4362C66.4529 29.9444 66.5869 31.4268 66.1459 32.8918V32.9652C66.1459 33.056 66.1459 33.0171 66.0854 33.0906V33.1338C65.9806 33.9881 65.7595 34.8242 65.4283 35.6187L65.3764 35.7138C65.3244 35.8167 65.2908 35.9278 65.277 36.0422L65.2294 36.1459C65.2078 36.3102 65.0651 36.4398 65.0349 36.6127L64.9657 36.7121C64.7625 37.4554 64.0664 38.5099 63.8243 39.2359L63.6039 39.7199C63.0695 40.7964 62.4733 41.8411 61.8184 42.8487L60.7764 44.357C60.7548 44.1928 60.8024 44.1625 60.8975 44.0329L61.6497 42.7839C61.7276 42.6759 61.7838 42.5592 61.8659 42.4512L62.3242 41.7597C62.3605 41.7009 62.3909 41.6386 62.415 41.5739L62.3847 41.5177C61.6108 41.5998 61.9999 41.6257 61.3471 41.7986L60.0501 43.9594C59.7778 44.3311 59.3498 45.4201 58.9088 45.5886C59.0163 45.3487 59.1497 45.1212 59.3065 44.9101L60.3139 43.2809C60.5689 42.8487 61.8746 40.904 61.8746 40.5108L61.7535 40.4286C61.609 40.3469 61.4802 40.24 61.3731 40.1132L60.9926 40.8262C60.6208 41.3924 60.1971 41.9412 59.7821 42.4857C56.0641 47.408 50.9583 50.4548 44.6982 51.963C31.8668 55.0313 19.8136 48.7737 15.0666 37.5202L14.5997 36.2237C14.5187 35.9941 14.4622 35.7565 14.4311 35.515L14.6905 35.26C14.6559 35.0266 14.5133 34.668 14.6127 34.4648C14.6066 34.5304 14.6234 34.5961 14.6602 34.6507L14.6905 34.6896C14.7895 35.0346 14.9258 35.3679 15.0969 35.6835L15.2352 35.8737C15.1436 35.5265 15.0251 35.1869 14.8807 34.8581L14.4095 33.3715C14.2758 33.2529 14.1822 33.0959 14.1415 32.922C13.9669 32.2474 13.8497 31.5593 13.7913 30.8649C13.7913 30.5495 13.601 29.858 13.6659 29.629L13.5967 29.4388C12.9093 29.4907 13.199 27.7361 13.0779 28.6912L13.039 28.9202C13.0248 29.0007 12.9879 29.0756 12.9328 29.136C12.8777 29.1964 12.8066 29.24 12.7277 29.2616L12.5418 29.1752C12.4321 29.2964 12.3019 29.3974 12.1571 29.4734L11.7248 29.5555C11.6326 29.6214 11.5323 29.6751 11.4264 29.7154L11.3573 29.603C11.2405 29.4561 11.0806 29.3351 10.9811 29.2055L10.765 29.387C10.7174 29.6722 10.471 29.8191 10.7996 30.0309L10.8558 30.0655C10.9408 30.3441 11.0538 30.6134 11.193 30.8693L10.6396 31.0681C10.6396 31.4138 10.7304 31.7336 10.7261 32.0793C10.6439 32.5979 10.9293 33.164 10.9379 33.687C10.902 33.6508 10.8792 33.6036 10.8731 33.553L10.8255 33.3326C10.6266 32.7059 10.631 31.9842 10.471 31.3403C10.3491 30.3939 10.2755 29.4419 10.2505 28.4881L10.3586 25.7698C10.5056 25.6142 10.7131 24.1319 10.7909 23.8164L11.327 21.7507C11.9355 19.8431 12.767 18.014 13.8042 16.3012Z" fill="url(#paint7_linear_188_9423)"/>
<path d="M25.2354 47.6719C26.0524 47.9528 25.4126 47.5379 26.5323 48.1818C27.3236 48.6538 28.147 49.0697 28.9966 49.4264C29.5675 49.5117 30.1082 49.7375 30.5703 50.0833C30.0554 50.0763 29.5525 49.9267 29.1176 49.6512L29.0571 49.703C27.7601 49.729 26.5021 48.48 25.5985 48.0824C25.5124 48.0435 25.4356 47.9867 25.373 47.916C25.3104 47.8452 25.2635 47.762 25.2354 47.6719Z" fill="#FF5800"/>
<path d="M14.4092 33.389L14.0418 31.7035C11.37 17.3861 26.0085 4.09284 41.2394 5.61836C52.4582 6.75062 61.1264 14.8796 63.0156 25.1001C63.7506 30.3725 63.0156 34.7157 60.1104 39.4262H60.0585C59.4662 39.5559 58.7356 40.122 58.3292 40.1523L58.1174 40.0874C58.1847 39.9899 58.2264 39.8769 58.2384 39.759C58.3902 39.4363 58.5804 39.133 58.8048 38.8558C62.445 33.1253 62.6265 25.5669 59.8813 19.4475C58.5324 16.4224 56.0163 13.9677 53.4656 11.9322C52.3502 11.042 51.0662 10.4629 49.9162 9.65906C41.0448 4.9053 30.8938 6.26228 23.3281 12.3817C17.1156 17.399 14.7897 23.1857 15.4511 30.9127C15.6094 32.1855 15.9245 33.4338 16.3893 34.6293C16.7438 35.6146 17.8678 37.0969 17.9111 38.0865V38.1427C17.9228 38.2939 17.9817 38.4375 18.0797 38.5533L17.8635 38.7305C17.6257 39.0675 17.3534 39.1626 17.0551 38.8904L17.2021 39.2231C17.3447 39.4176 17.3404 39.7028 17.5004 39.8757L17.5436 39.9751C17.6152 40.0319 17.6729 40.1043 17.7122 40.1868L17.79 40.2819C17.8687 40.4094 17.9568 40.5307 18.0537 40.6449H18.0754L18.11 40.6838C18.3693 40.9777 18.5423 41.3234 18.793 41.6259C19.3118 42.2396 22.2516 45.5759 22.9779 45.8049L23.4794 46.0426C23.6098 46.0831 23.7307 46.1495 23.8347 46.2379C23.9387 46.3263 24.0237 46.4348 24.0847 46.5569C22.6018 46.1766 21.0584 44.4263 20.1419 43.2595C19.9517 43.2984 20.0597 43.5923 20.2067 43.7219L21.7285 45.0832C19.6447 43.2436 17.9043 41.0487 16.5882 38.6008L15.248 35.8739C15.1563 35.5267 15.0378 35.1871 14.8934 34.8583L14.4092 33.389Z" fill="url(#paint8_linear_188_9423)"/>
<path d="M15.5033 30.891C14.7986 23.1813 17.1245 17.3774 23.3371 12.36C32.3078 5.11267 44.6032 5.44543 53.682 12.252C61.8573 18.367 64.3734 30.0742 58.8137 38.8341C58.5848 39.1176 58.3917 39.4282 58.2387 39.7589C58.2271 39.8924 58.1776 40.0199 58.0961 40.1263L58.3079 40.1911C58.9175 40.1479 59.3887 39.5774 59.9853 39.5429C59.3671 41.3493 57.3352 43.1946 55.9474 44.4695C52.5017 47.5433 48.3396 49.7037 43.8423 50.7531C38.8651 51.9894 33.6167 51.5176 28.94 49.4134C27.6669 48.8639 26.4383 48.2166 25.2652 47.4773C23.8351 46.5588 22.4985 45.5021 21.2749 44.3225C20.6408 43.7118 20.0341 43.0736 19.4548 42.4081C19.3078 42.2439 18.2659 40.7054 18.1189 40.7054L18.0843 40.6665H18.0627C17.9658 40.5523 17.8776 40.4309 17.799 40.3035L17.7298 40.1911C17.6904 40.1086 17.6328 40.0362 17.5612 39.9793L17.518 39.8799C17.339 39.6188 17.2127 39.3252 17.1462 39.0156C17.3412 39.0351 17.5378 38.9982 17.7125 38.9093C17.8872 38.8205 18.0328 38.6834 18.1319 38.5143C18.214 38.4106 16.5496 35.1391 16.4026 34.7459C15.9592 33.4987 15.6575 32.2056 15.5033 30.891Z" fill="url(#paint9_linear_188_9423)"/>
<path d="M17.9198 38.0859L17.9501 38.1248C18.7283 39.1923 19.3681 40.3159 20.2241 41.3358C28.3907 51.0767 41.6458 52.3645 52.307 45.6228C54.0829 44.4364 55.6675 42.9865 57.0064 41.3228C57.4387 40.8215 57.7975 40.1992 58.2472 39.7368C58.2355 39.8703 58.186 39.9977 58.1045 40.1041L58.3163 40.1689C58.7487 40.1387 59.4663 39.5726 60.0456 39.4429H60.0975C59.6378 40.2182 59.1204 40.9578 58.5498 41.6556L57.1793 43.2459C56.9007 43.4988 56.6473 43.7781 56.4227 44.08C50.5085 49.3394 41.6631 52.8183 33.4619 50.9946C32.4762 50.7742 31.5467 50.3939 30.5783 50.1302C29.7963 49.8328 29.0313 49.4923 28.287 49.1103C27.2781 48.6644 26.3066 48.1384 25.3818 47.5373C22.8973 45.9199 20.6803 43.9253 18.8104 41.6253C18.5596 41.3228 18.3781 40.9771 18.1273 40.6832L18.0927 40.6443H18.0711C17.9742 40.5301 17.8861 40.4088 17.8074 40.2813L17.7296 40.1906C17.6902 40.1081 17.6326 40.0356 17.561 39.9788L17.5177 39.8794C17.3578 39.7065 17.3621 39.4213 17.2194 39.2268L17.0724 38.8941C17.3708 39.1491 17.6431 39.0713 17.8809 38.7342L18.0971 38.557C17.9991 38.4412 17.9401 38.2976 17.9285 38.1464L17.9198 38.0859Z" fill="url(#paint10_linear_188_9423)"/>
<path d="M55.8741 78.8389C52.3074 78.2685 49.6356 75.628 49.6356 71.7083H53.9156C53.9156 73.7049 55.3423 75.0964 57.6596 75.0964C60.193 75.0964 61.4079 73.8475 61.4079 72.4214C61.4079 68.3245 49.8172 70.4637 49.8172 62.6546C49.8172 59.4134 52.3117 56.9544 55.8698 56.3839V53.3588H59.791V56.3839C62.8172 57.2482 65.1388 59.6251 65.1388 63.333H61.0404C61.0404 61.3365 59.791 60.1264 57.6509 60.1264C55.5109 60.1264 54.2658 61.371 54.2658 62.62C54.2658 66.5094 65.8522 64.4394 65.8522 72.5986C65.8522 75.4508 63.215 78.1604 59.7996 78.8389V81.8641H55.8784L55.8741 78.8389Z" fill="url(#paint11_linear_188_9423)"/>
<path d="M57.3741 77.6979C53.8074 77.1318 51.1356 74.4913 51.1356 70.5716H55.4113C55.4113 72.5682 56.838 73.9554 59.1553 73.9554C61.6887 73.9554 62.9035 72.7108 62.9035 71.2847C62.9035 67.1835 51.3129 69.3226 51.3129 61.5178C51.3129 58.2766 53.8074 55.8176 57.3654 55.2472V52.2221H61.265V55.2472C64.2913 56.1115 66.6129 58.4884 66.6129 62.1963H62.5144C62.5144 60.1997 61.265 58.9897 59.125 58.9897C56.985 58.9897 55.7399 60.2343 55.7399 61.4833C55.7399 65.3727 67.3262 63.3027 67.3262 71.4618C67.3262 74.3141 64.689 77.0237 61.2737 77.6979V80.723H57.3741V77.6979Z" fill="url(#paint12_linear_188_9423)"/>
<path fill-rule="evenodd" clip-rule="evenodd" d="M51.8509 14.2723L52.7912 16.5966L47.6342 18.6801L47.8902 20.0529L53.1585 17.9273L54.0987 20.2516L48.3474 22.5745L48.9308 26.7187L40.6035 29.7994L39.7178 49.2178L36.1444 47.7452L36.8318 27.474L45.059 24.4381L43.6193 16.4537L39.3684 17.1486L28.1221 44.4394L24.9708 43.1407L30.9116 28.7244L29.2056 29.4145L28.2652 27.0901L32.249 25.4789L32.9792 23.7072L27.8109 25.7957L26.8706 23.4713L34.3164 20.462L36.9713 14.0196L46.4549 12.3552L47.165 16.1633L51.8509 14.2723Z" fill="url(#paint13_linear_188_9423)"/>
</g>
<defs>
<linearGradient id="paint0_linear_188_9423" x1="38.5466" y1="60.8913" x2="38.5466" y2="0" gradientUnits="userSpaceOnUse">
<stop stop-color="#DA0D02"/>
<stop offset="0.23" stop-color="#DC190A"/>
<stop offset="1" stop-color="#FCFFA3"/>
</linearGradient>
<linearGradient id="paint1_linear_188_9423" x1="51.5382" y1="35.8004" x2="65.3495" y2="97.3379" gradientUnits="userSpaceOnUse">
<stop offset="0.02" stop-color="#91C198"/>
<stop offset="0.58" stop-color="#08C7BD"/>
</linearGradient>
<linearGradient id="paint2_linear_188_9423" x1="52.1914" y1="37.5896" x2="60.129" y2="96.6374" gradientUnits="userSpaceOnUse">
<stop stop-color="#91C198"/>
<stop offset="1" stop-color="#08C7BD"/>
</linearGradient>
<linearGradient id="paint3_linear_188_9423" x1="58.7709" y1="38.9678" x2="57.2244" y2="87.8625" gradientUnits="userSpaceOnUse">
<stop stop-color="#4DA68B"/>
<stop offset="1" stop-color="#1FCDBF"/>
</linearGradient>
<linearGradient id="paint4_linear_188_9423" x1="58.3344" y1="94.4019" x2="58.3126" y2="84.6258" gradientUnits="userSpaceOnUse">
<stop stop-color="#007983"/>
<stop offset="1" stop-color="#0BD8BC"/>
</linearGradient>
<linearGradient id="paint5_linear_188_9423" x1="42.4636" y1="58.5264" x2="32.9017" y2="3.34773" gradientUnits="userSpaceOnUse">
<stop stop-color="#D80001"/>
<stop offset="1" stop-color="#FFEE1A"/>
</linearGradient>
<linearGradient id="paint6_linear_188_9423" x1="26.5263" y1="53.4714" x2="43.4367" y2="1.92802" gradientUnits="userSpaceOnUse">
<stop stop-color="#FF5A01"/>
<stop offset="1" stop-color="#FCFFA3"/>
</linearGradient>
<linearGradient id="paint7_linear_188_9423" x1="29.3221" y1="5.87729" x2="42.6174" y2="53.5886" gradientUnits="userSpaceOnUse">
<stop stop-color="#FF9D00"/>
<stop offset="1" stop-color="#FA350F"/>
</linearGradient>
<linearGradient id="paint8_linear_188_9423" x1="30.6396" y1="7.275" x2="40.5899" y2="45.6766" gradientUnits="userSpaceOnUse">
<stop stop-color="#FFF647"/>
<stop offset="1" stop-color="#FFA95D"/>
</linearGradient>
<linearGradient id="paint9_linear_188_9423" x1="38.5866" y1="7.03545" x2="38.5866" y2="51.4278" gradientUnits="userSpaceOnUse">
<stop stop-color="#FFC452"/>
<stop offset="1" stop-color="#FF6B00"/>
</linearGradient>
<linearGradient id="paint10_linear_188_9423" x1="36.5211" y1="52.8145" x2="37.0826" y2="39.9073" gradientUnits="userSpaceOnUse">
<stop stop-color="#FF5A2C"/>
<stop offset="1" stop-color="#FFB25A"/>
</linearGradient>
<linearGradient id="paint11_linear_188_9423" x1="58.0573" y1="55.3899" x2="57.6037" y2="79.8588" gradientUnits="userSpaceOnUse">
<stop stop-color="#028D8F"/>
<stop offset="1" stop-color="#007983"/>
</linearGradient>
<linearGradient id="paint12_linear_188_9423" x1="59.4795" y1="57.274" x2="59.0259" y2="81.7429" gradientUnits="userSpaceOnUse">
<stop stop-color="#FEC33A"/>
<stop offset="0.35" stop-color="#FFF46C"/>
<stop offset="0.93" stop-color="#FECB43"/>
</linearGradient>
<linearGradient id="paint13_linear_188_9423" x1="32.9929" y1="-2.63605" x2="34.3442" y2="47.9532" gradientUnits="userSpaceOnUse">
<stop stop-color="#D48E3D"/>
<stop offset="0.5" stop-color="#555535"/>
<stop offset="1" stop-color="#2C303B"/>
</linearGradient>
<clipPath id="clip0_188_9423">
<rect width="81.4286" height="96" fill="white" transform="translate(8.08929)"/>
</clipPath>
</defs>
</svg>
