<svg width="100" height="100" viewBox="0 0 100 100" fill="none" xmlns="http://www.w3.org/2000/svg">
<g clip-path="url(#clip0_188_9348)">
<path d="M50 68H85V76.5L88 77.5V84.5L85 85.75V94H50V68Z" fill="url(#paint0_linear_188_9348)"/>
<path d="M86.7625 76.0441V66.4646C86.7625 65.5457 86.3975 64.6645 85.7477 64.0147C85.098 63.365 84.2168 63 83.2979 63H51.8223C50.9035 63 50.0222 63.365 49.3725 64.0147C48.7228 64.6645 48.3577 65.5457 48.3577 66.4646V92.5354C48.3577 93.4543 48.7228 94.3355 49.3725 94.9853C50.0222 95.635 50.9035 96 51.8223 96H83.3499C84.2687 96 85.15 95.635 85.7997 94.9853C86.4494 94.3355 86.8144 93.4543 86.8144 92.5354V86.4031C87.4226 86.3512 87.9892 86.0735 88.4028 85.6246C88.8164 85.1757 89.047 84.5883 89.0491 83.978V78.4866C89.0504 77.8649 88.8145 77.2662 88.3897 76.8124C87.9648 76.3585 87.3829 76.0838 86.7625 76.0441ZM51.8223 64.7323H83.3499C83.8093 64.7323 84.2499 64.9148 84.5748 65.2397C84.8997 65.5645 85.0822 66.0051 85.0822 66.4646V67.0189C84.5578 66.7089 83.959 66.5472 83.3499 66.5512H51.8223C51.2132 66.5472 50.6144 66.7089 50.09 67.0189V66.4646C50.09 66.0051 50.2725 65.5645 50.5974 65.2397C50.9223 64.9148 51.3629 64.7323 51.8223 64.7323ZM83.3499 94.1811H51.8223C51.3629 94.1811 50.9223 93.9986 50.5974 93.6737C50.2725 93.3489 50.09 92.9082 50.09 92.4488V69.9291C50.09 69.4697 50.2725 69.0291 50.5974 68.7042C50.9223 68.3794 51.3629 68.1968 51.8223 68.1968H83.3499C83.8093 68.1968 84.2499 68.3794 84.5748 68.7042C84.8997 69.0291 85.0822 69.4697 85.0822 69.9291V76.0268H76.8711C75.4928 76.0268 74.171 76.5743 73.1964 77.5489C72.2218 78.5235 71.6743 79.8453 71.6743 81.2236C71.6743 82.6019 72.2218 83.9237 73.1964 84.8983C74.171 85.8729 75.4928 86.4205 76.8711 86.4205H85.0302V92.5354C85.0086 92.9708 84.8236 93.3821 84.5121 93.6871C84.2007 93.9922 83.7856 94.1686 83.3499 94.1811ZM87.2648 83.926C87.2648 84.1189 87.1882 84.304 87.0517 84.4404C86.9153 84.5769 86.7302 84.6535 86.5373 84.6535H76.8711C75.9523 84.6535 75.071 84.2885 74.4213 83.6388C73.7716 82.9891 73.4066 82.1078 73.4066 81.189C73.4066 80.2701 73.7716 79.3889 74.4213 78.7392C75.071 78.0894 75.9523 77.7244 76.8711 77.7244H86.468C86.6609 77.7244 86.846 77.8011 86.9824 77.9375C87.1189 78.0739 87.1955 78.259 87.1955 78.452L87.2648 83.926Z" fill="url(#paint1_linear_188_9348)" stroke="url(#paint2_linear_188_9348)" stroke-width="1.10854"/>
<path d="M76.9402 82.4708C77.7247 82.4708 78.3607 81.8349 78.3607 81.0504C78.3607 80.2658 77.7247 79.6299 76.9402 79.6299C76.1557 79.6299 75.5197 80.2658 75.5197 81.0504C75.5197 81.8349 76.1557 82.4708 76.9402 82.4708Z" fill="#08C7BD" stroke="#0FC7BD" stroke-width="1.10854"/>
<mask id="mask0_188_9348" style="mask-type:alpha" maskUnits="userSpaceOnUse" x="50" y="34" width="38" height="33">
<rect width="37.895" height="31.5791" transform="matrix(1 0 0 -1 50 66.0791)" fill="#D9D9D9"/>
</mask>
<g mask="url(#mask0_188_9348)">
<path d="M83.5601 58.8476C80.9452 66.7998 72.3788 71.1265 64.4267 68.5115C56.4745 65.8966 52.1478 57.3302 54.7627 49.378C57.3776 41.4258 65.944 37.0992 73.8962 39.7141C81.8484 42.329 86.1751 50.8954 83.5601 58.8476Z" fill="url(#paint3_linear_188_9348)"/>
<path d="M76.4875 52.1486L75.8747 49.3158L79.6888 47.4401L79.1382 46.322L75.5505 48.0847L75.1754 46.6607L78.5984 44.9769L78.0478 43.8588L74.8512 45.4296L74.1519 42.7745L68.0413 44.3147L66.5409 48.8778L61.6688 51.2751L62.2194 52.3932L65.9958 50.5352L65.3646 52.4548L62.8176 53.7088L63.3683 54.8269L64.8196 54.1122L61.3331 64.7148L63.1111 65.2994L69.4756 45.9446L72.7525 45.1592L74.266 51.0478L68.6886 53.5835L69.2283 67.311L71.2798 67.9856L70.9126 54.6887L76.4875 52.1486Z" fill="#2C303B"/>
<path fill-rule="evenodd" clip-rule="evenodd" d="M73.8321 39.9086C65.9873 37.329 57.5368 41.5972 54.9571 49.4419C52.3775 57.2866 56.6458 65.7372 64.4905 68.3168C72.3352 70.8964 80.7858 66.6282 83.3654 58.7835C85.945 50.9388 81.6768 42.4882 73.8321 39.9086ZM54.568 49.3139C57.2183 41.2543 65.9004 36.8691 73.96 39.5194C82.0197 42.1697 86.4049 50.8518 83.7546 58.9115C81.1043 66.9711 72.4222 71.3563 64.3625 68.706C56.3029 66.0557 51.9177 57.3736 54.568 49.3139ZM78.141 43.5846L78.8726 45.0701L75.416 46.7704L75.6847 47.7903L79.2314 46.0478L79.963 47.5334L76.1087 49.4288L76.7225 52.2664L71.121 54.8186L71.4924 68.2711L69.0291 67.461L68.4784 53.4539L74.0247 50.9323L72.6041 45.4053L69.6344 46.117L63.2416 65.5579L61.0744 64.8453L64.4726 54.5113L63.2749 55.1011L62.5432 53.6154L65.1968 52.3089L65.6489 50.934L62.126 52.6673L61.3944 51.1817L66.373 48.7319L67.8818 44.1436L74.2982 42.5262L74.9854 45.1352L78.141 43.5846ZM77.9543 44.1327L74.7168 45.7237L74.0053 43.0225L68.2006 44.4857L66.7084 49.0234L61.9429 51.3683L62.3126 52.119L66.3425 50.1362L65.5322 52.6004L63.0917 53.802L63.4614 54.5526L65.1663 53.713L61.5916 64.5841L62.9804 65.0408L69.3166 45.7719L72.9006 44.913L74.507 51.1631L68.8986 53.7128L69.4272 67.1607L71.0669 67.6999L70.704 54.5585L76.2523 52.0305L75.6406 49.2025L79.4144 47.3467L79.0447 46.596L75.4161 48.3788L74.9345 46.5507L78.324 44.8834L77.9543 44.1327Z" fill="#1E2128"/>
</g>
<path d="M63.1917 16.0877C66.1537 29.7352 57.4914 43.2 43.8438 46.162C30.1962 49.124 16.7315 40.4617 13.7695 26.8141C10.8074 13.1665 19.4698 -0.298238 33.1174 -3.26026C46.765 -6.22227 60.2297 2.44009 63.1917 16.0877Z" fill="url(#paint4_linear_188_9348)"/>
<path d="M47.3564 12.4323L44.0803 8.87623L47.98 2.95425L46.2428 1.81165L42.5732 7.37975L40.8299 5.64886L44.3294 0.333457L42.5921 -0.809141L39.3228 4.15238L36.0724 0.925005L28.5863 8.30615L30.2859 16.1372L25.3056 23.704L27.0428 24.8466L30.9033 18.9818L31.6183 22.2762L29.0153 26.2329L30.7526 27.3755L32.2357 25.1207L36.1849 43.3168L39.2362 42.6545L32.027 9.43767L36.0759 5.53787L43.2309 12.7273L37.3531 21.0892L49.7346 40.376L53.2554 39.6119L41.486 20.7986L47.3564 12.4323Z" fill="#2C303B"/>
<path fill-rule="evenodd" clip-rule="evenodd" d="M33.19 -2.92638C19.7269 -0.00439312 11.1816 13.2784 14.1036 26.7415C17.0255 40.2047 30.3083 48.75 43.7715 45.828C57.2346 42.906 65.7799 29.6232 62.8579 16.1601C59.9359 2.69693 46.6532 -5.84837 33.19 -2.92638ZM13.4357 26.8865C10.4336 13.0545 19.2131 -0.592207 33.0451 -3.59425C46.8771 -6.5963 60.5238 2.18312 63.5258 16.0151C66.5278 29.8471 57.7484 43.4938 43.9164 46.4959C30.0844 49.4979 16.4377 40.7185 13.4357 26.8865ZM42.4948 -1.28231L44.8029 0.23576L41.2691 5.60324L42.5178 6.84301L46.1455 1.3385L48.4536 2.85657L44.5127 8.84105L47.7944 12.4032L41.896 20.8094L53.803 39.8427L49.5753 40.7602L36.9417 21.0805L42.7867 12.7652L36.071 6.01713L32.4015 9.55146L39.6428 42.9159L35.9236 43.7231L32.0744 25.9879L30.8504 27.8487L28.5422 26.3306L31.2541 22.2083L30.7419 19.8486L27.1406 25.3197L24.8324 23.8016L29.9217 16.0693L28.2126 8.19479L36.0734 0.444239L39.2674 3.61561L42.4948 -1.28231ZM42.6897 -0.336099L39.3785 4.68902L36.0717 1.40565L28.9603 8.41738L30.6505 16.2051L25.7791 23.6063L26.9454 24.3733L31.065 18.1148L31.9828 22.3439L29.4888 26.1352L30.655 26.9022L32.3972 24.2533L36.4465 42.9103L38.83 42.393L31.6528 9.32376L36.0811 5.05849L43.6754 12.6893L37.7649 21.0978L49.8941 39.9917L52.7081 39.381L41.0763 20.7877L46.9187 12.4613L43.6482 8.91128L47.5067 3.0518L46.3404 2.28468L42.6289 7.91637L40.3909 5.69435L43.8561 0.431029L42.6897 -0.336099Z" fill="#2C303B"/>
<path d="M86.9084 13.6619C86.0992 18.6843 81.3717 22.0998 76.3493 21.2906C71.3269 20.4814 67.9114 15.7539 68.7206 10.7315C69.5299 5.70908 74.2573 2.29362 79.2797 3.10284C84.3021 3.91207 87.7176 8.63953 86.9084 13.6619Z" fill="url(#paint5_linear_188_9348)"/>
<path d="M82.0235 10.3176L81.3849 8.6761L83.4946 7.18588L83.0573 6.56746L81.0727 7.96825L80.7115 7.1495L82.6048 5.81182L82.1674 5.19341L80.3992 6.44165L79.7257 4.91506L76.2057 6.42353L75.7414 9.30543L73.0466 11.2099L73.484 11.8283L75.5727 10.3522L75.3774 11.5646L73.9687 12.5606L74.406 13.179L75.2087 12.6114L74.1298 19.3077L75.2527 19.4886L77.2223 7.26458L79.1138 6.48003L80.585 9.86934L77.4802 11.9242L79.1162 20.1111L80.4119 20.3199L78.9205 12.3749L82.0235 10.3176Z" fill="#2C303B"/>
<path fill-rule="evenodd" clip-rule="evenodd" d="M79.26 3.22576C74.3055 2.42747 69.6419 5.79677 68.8436 10.7513C68.0453 15.7058 71.4147 20.3694 76.3692 21.1677C81.3237 21.966 85.9873 18.5967 86.7856 13.6422C87.5839 8.68763 84.2146 4.02404 79.26 3.22576ZM68.5979 10.7117C69.418 5.62143 74.2094 2.15982 79.2996 2.97998C84.3899 3.80013 87.8515 8.59149 87.0314 13.6818C86.2112 18.772 81.4199 22.2337 76.3296 21.4135C71.2393 20.5933 67.7777 15.802 68.5979 10.7117ZM82.1974 5.02001L82.7784 5.84164L80.8665 7.19243L81.1253 7.77887L83.0872 6.39408L83.6683 7.21571L81.5363 8.72166L82.1759 10.366L79.0582 12.4331L80.567 20.471L79.0112 20.2203L77.3418 11.8666L80.4294 9.82317L79.0485 6.64195L77.3342 7.35297L75.3559 19.6313L73.9872 19.4108L75.0388 12.8841L74.3764 13.3526L73.7953 12.5309L75.2629 11.4932L75.4028 10.6248L73.4543 12.0018L72.8732 11.1801L75.6269 9.23399L76.0938 6.33612L79.79 4.75215L80.4518 6.25226L82.1974 5.02001ZM82.1377 5.36684L80.3468 6.63109L79.6616 5.078L76.3178 6.51098L75.8561 9.37691L73.2202 11.2397L73.5138 11.6548L75.7428 10.0797L75.4921 11.6361L74.1423 12.5904L74.4359 13.0056L75.3789 12.3387L74.2726 19.2046L75.1497 19.346L77.1106 7.17623L79.1794 6.31816L80.7409 9.91555L77.6187 11.9819L79.2214 20.002L80.257 20.1688L78.7831 12.3168L81.8712 10.2693L81.2338 8.63058L83.3212 7.15609L83.0276 6.74089L81.0203 8.15768L80.5566 7.10661L82.4314 5.78204L82.1377 5.36684Z" fill="#2C303B"/>
</g>
<defs>
<linearGradient id="paint0_linear_188_9348" x1="56.9209" y1="70.554" x2="70.9042" y2="148.79" gradientUnits="userSpaceOnUse">
<stop offset="0.0231234" stop-color="#2CA8B5"/>
<stop offset="0.748954" stop-color="#20C9BE"/>
<stop offset="1" stop-color="#1FCDBF"/>
</linearGradient>
<linearGradient id="paint1_linear_188_9348" x1="55.0001" y1="64.5" x2="69.0606" y2="112.888" gradientUnits="userSpaceOnUse">
<stop stop-color="#1FCDBF"/>
<stop offset="0.588451" stop-color="#20C9BE"/>
<stop offset="1" stop-color="#2CA8B5"/>
</linearGradient>
<linearGradient id="paint2_linear_188_9348" x1="55.0001" y1="61" x2="69.3303" y2="112.944" gradientUnits="userSpaceOnUse">
<stop stop-color="#1FCDBF"/>
<stop offset="0.57" stop-color="#20C9BE"/>
<stop offset="1" stop-color="#2CA8B5"/>
</linearGradient>
<linearGradient id="paint3_linear_188_9348" x1="73.8962" y1="39.7141" x2="64.4267" y2="68.5115" gradientUnits="userSpaceOnUse">
<stop stop-color="#FFC452"/>
<stop offset="1" stop-color="#FF6B00"/>
</linearGradient>
<linearGradient id="paint4_linear_188_9348" x1="33.1174" y1="-3.26026" x2="43.8438" y2="46.162" gradientUnits="userSpaceOnUse">
<stop stop-color="#FFC452"/>
<stop offset="1" stop-color="#FF6B00"/>
</linearGradient>
<linearGradient id="paint5_linear_188_9348" x1="79.2797" y1="3.10284" x2="76.3493" y2="21.2906" gradientUnits="userSpaceOnUse">
<stop stop-color="#FFC452"/>
<stop offset="1" stop-color="#FF6B00"/>
</linearGradient>
<clipPath id="clip0_188_9348">
<rect width="100" height="100" fill="white"/>
</clipPath>
</defs>
</svg>
