<?xml version="1.0" encoding="UTF-8"?>
<svg width="100" height="100" id="Layer_1" data-name="Layer 1" xmlns="http://www.w3.org/2000/svg"
  viewBox="0 0 100 100">
  <defs>
    <style>
      .cls-1 {
      fill: #f95921;
      fill-rule: evenodd;
      }

      .cls-1, .cls-2, .cls-3 {
      stroke-width: 0px;
      }

      .cls-2 {
      fill: #fff;
      opacity: .9;
      }

      .cls-3 {
      fill: #ff8a4d;
      }

      .cls-4 {
      isolation: isolate;
      opacity: .9;
      }
    </style>
  </defs>
  <path class="cls-1"
    d="M59.9334,46.4122l-1.3649,1.0358-4.6977,3.5584-3.6841,2.7927-3.6916-2.7927-.0148-.0111-6.0552-4.583h-.3292l4.6089,4.5941.3958.3921,5.075,5.0676,5.4744-5.4597,3.8358-3.8321.7694-.762h-.3218Z" />
  <path class="cls-1"
    d="M50.168,49.9115h1.0838l-1.2577.958h-2.3525l.1812.1369,2.3451,1.7866,2.3562-1.7866,3.1219-2.3637h-7.1094l-1.2614-.958h9.6321l1.6978-1.2725h-16.8635l4.6385,3.4993h3.7877Z" />
  <g>
    <path class="cls-2"
      d="M70.5916,71.3325c0-.0718-.0297-.1363-.0763-.1838.0336-.1782.0724-.356.0724-.5378v-2.0527c0-.0686-.0298-.1288-.0729-.1758.0341-.1796.0729-.3587.0729-.542v-2.0527c0-.0693-.0298-.1304-.0736-.1775.0348-.1813.0736-.3621.0736-.5471v-2.0537c0-.0692-.0298-.1304-.0736-.1774.0348-.1813.0736-.3621.0736-.5472v-2.0527c0-.069-.0298-.1298-.0733-.1768.0345-.1805.0733-.3607.0733-.5449v-2.0527c0-.0576-.0298-.1041-.0612-.1475.0382-.1899.0612-.3813.0612-.5742v-2.0566c0-.0689-.0298-.1295-.0732-.1765.0344-.1803.0732-.3602.0732-.5442v-2.9521c0-.0101-.0096-.016-.0107-.0258-.1453-4.4478-9.1189-7.9283-20.4532-7.9283-11.3511,0-20.3364,3.4902-20.457,7.9541v.085c0,.0414.0137.0812.0153.1224-.0022.0137-.0153.0224-.0153.0367v2.708c0,.184.0388.3639.0732.5442-.0434.047-.0732.1076-.0732.1765v2.0566c0,.1843.0388.3644.0733.5449-.0435.047-.0733.1078-.0733.1768v2.0527c0,.1843.0388.3644.0733.5449-.0435.047-.0733.1078-.0733.1768v2.0527c0,.1851.0388.3659.0736.5472-.0438.0471-.0736.1082-.0736.1774v2.0537c0,.184.0388.3639.0732.5442-.0434.047-.0732.1076-.0732.1765v2.0527c0,.184.0377.3652.0726.5466-.0428.0469-.0726.1068-.0726.1751v2.0527c0,.1924.0258.3826.0635.5716-.0336.0443-.0635.0933-.0635.153v2.0537c0,.184.0388.3639.0732.5442-.0434.047-.0732.1076-.0732.1765v2.0566c0,4.1719,8.9873,7.4395,20.4604,7.4395s20.4604-3.2676,20.4604-7.4395v-2.0566c0-.0594-.0299-.108-.0631-.1521.0375-.1894.067-.3796.067-.5725v-2.0527ZM50.1238,43.5796c10.8779,0,19.8179,3.335,19.9282,7.4268v.085c0,.0205.0024.04.0068.0596-.0845,4.1143-8.9932,7.4521-19.9316,7.4521-10.9907,0-19.9321-3.3701-19.9321-7.5117l-.0005-.0781c.1108-4.0986,9.0508-7.4336,19.9292-7.4336ZM50.1272,59.1304c9.866,0,17.8767-2.6142,19.9321-6.2122v1.0403c0,3.8115-8.9414,6.9121-19.9321,6.9121s-19.9321-3.1006-19.9321-6.9121v-1.0403c2.0554,3.598,10.0661,6.2122,19.9321,6.2122ZM50.1272,64.1753c5.0386,0,9.875-.6621,13.6187-1.8652.1392-.0439.2153-.1934.1709-.332-.0444-.1377-.1929-.2158-.332-.1699-3.6929,1.1865-8.4722,1.8398-13.4575,1.8398-10.9907,0-19.9321-3.1006-19.9321-6.9121v-1.0866c2.0554,3.3298,10.0661,5.7487,19.9321,5.7487s17.8767-2.4189,19.9321-5.7487v1.0866c0,1.4277-1.2939,2.8105-3.7422,3.998-.1313.0635-.186.2217-.1221.3525.0454.0938.1396.1484.2373.1484.0391,0,.0781-.0078.1152-.0264,1.7064-.8272,2.8847-1.7661,3.5117-2.7695v1.0713c0,3.8115-8.9414,6.9121-19.9321,6.9121s-19.9321-3.1006-19.9321-6.9121v-1.0837c2.0554,3.3298,10.0661,5.7487,19.9321,5.7487ZM50.1272,66.9497c9.866,0,17.8767-2.4189,19.9321-5.7487v1.0837c0,3.8135-8.9414,6.916-19.9321,6.916s-19.9321-3.1025-19.9321-6.916v-1.0837c2.0554,3.3298,10.0661,5.7487,19.9321,5.7487ZM50.1272,69.728c9.866,0,17.8767-2.4204,19.9321-5.7518v1.0868c0,3.8115-8.9414,6.9121-19.9321,6.9121s-19.9321-3.1006-19.9321-6.9121v-1.0868c2.0554,3.3314,10.0661,5.7518,19.9321,5.7518ZM35.7571,73.1606c.0293.0098.0591.0146.0884.0146.1084,0,.2104-.0674.2485-.1758.0488-.1367-.0229-.2881-.1602-.3369-3.647-1.2949-5.7388-3.0547-5.7388-4.8262v-1.0827c2.0554,3.3298,10.0661,5.7487,19.9321,5.7487s17.8767-2.4189,19.9321-5.7487v1.0866c0,3.8115-8.9414,6.9131-19.9321,6.9131-4.4375,0-8.6514-.5068-12.1855-1.4639-.1401-.0332-.2856.0459-.3237.1855-.0381.1406.0449.2861.186.3242,3.5786.9697,7.8398,1.4814,12.3232,1.4814,9.866,0,17.8767-2.419,19.9321-5.7494v1.0795c0,3.8115-8.9414,6.9121-19.9321,6.9121-4.2275,0-8.2671-.4609-11.6831-1.3311-5.1655-1.3145-8.249-3.4014-8.249-5.5811v-1.0911c.8545,1.382,2.7452,2.64,5.562,3.6409ZM70.0593,76.1665c0,3.8115-8.9414,6.9121-19.9321,6.9121s-19.9321-3.1006-19.9321-6.9121v-1.0866c2.0554,3.3298,10.0661,5.7487,19.9321,5.7487,2.3853,0,4.7163-.1445,6.9282-.4316.8452-.1074,1.6992-.2422,2.6118-.4121.1436-.0273.2378-.165.2109-.3086s-.1704-.2363-.3076-.2109c-.9023.1689-1.7466.3018-2.582.4082-2.1904.2832-4.499.4277-6.8613.4277-10.9907,0-19.9321-3.1006-19.9321-6.9121v-1.0667c1.1069,1.7699,3.9289,3.3149,8.1187,4.3811,3.458.8809,7.543,1.3467,11.8135,1.3467,9.8717,0,17.8863-2.4216,19.936-5.7544v1.0894c0,1.5811-1.6357,3.1387-4.606,4.3877-.1348.0566-.1978.2109-.1411.3457.0425.1006.1401.1611.2432.1611.0342,0,.0688-.0059.1021-.0205,2.1978-.9237,3.6705-2.0031,4.3979-3.1755v1.0827Z" />
    <path class="cls-2"
      d="M63.8479,78.3726c-.7476.251-1.5854.4893-2.4897.707-.1416.0342-.229.1768-.1948.3184.0293.1211.1372.2021.2568.2021.02,0,.041-.002.062-.0068.9189-.2217,1.772-.4639,2.5337-.7207.1382-.0459.2129-.1963.166-.334-.0464-.1377-.1938-.2129-.334-.166Z" />
    <path class="cls-2"
      d="M35.116,55.1147c.1309.0654.2891.0137.355-.1162s.0142-.2881-.1157-.3545c-2.0908-1.0625-3.1958-2.291-3.1958-3.5527,0-3.4141,8.2285-6.2979,17.9683-6.2979s17.9678,2.8838,17.9678,6.2979-8.228,6.2988-17.9678,6.2988c-4.334,0-8.5244-.5586-11.7993-1.5723-.1406-.043-.2881.0342-.3301.1738-.0435.1396.0347.2871.1738.3301,3.3242,1.0293,7.5698,1.5957,11.9556,1.5957,10.3716,0,18.4961-2.998,18.4961-6.8262s-8.1245-6.8252-18.4961-6.8252-18.4966,2.998-18.4966,6.8252c0,1.4736,1.2051,2.8652,3.4849,4.0234Z" />
  </g>
  <g class="cls-4">
    <path class="cls-2"
      d="M34.5486,54.7622h-.0049c-.146,0-.2642-.1182-.2642-.2637s.1182-.2637.2642-.2637.2666.1182.2666.2637-.1157.2637-.2617.2637Z" />
  </g>
  <path class="cls-1"
    d="M60.7993,28.4132l-1.5276.7694-5.2636,2.6521-4.128,2.0788-3.1257-3.4141-.0147-.0148-5.1268-5.604-.3217-.0592,3.7026,5.3524.3181.4586,4.0725,5.8999,6.3696-4.3758,4.4684-3.0739.8951-.614-.3181-.0555Z" />
  <path class="cls-1"
    d="M50.5604,30.0892l1.0652.1961-1.4056.7139-2.3118-.4254.1516.1664,1.9826,2.1787,2.641-1.328,3.4956-1.7607-1.1282-.2072-5.8628-1.0801-1.069-1.1689,9.473,1.7421,1.9012-.9469-16.5824-3.0517,3.9246,4.2834,3.7249.688Z" />
  <path class="cls-3"
    d="M70.187,34.8127l-.381,2.1231-.111.603c-.0259.1405-.0629.2774-.111.4143-.0407.1147-.0888.2293-.1443.3403-.0259.0592-.0629.1147-.0924.1739-.8101,1.3722-2.8149,2.3784-5.6114,2.948-.8359.1738-1.7422.307-2.7076.3994h-.0222c-.0407,0-.085.0074-.1258.0111h-.0184c-3.5362.3218-7.853.1036-12.4249-.7361-4.5977-.847-8.7221-2.1897-11.918-3.7581-.0333-.0185-.0666-.0333-.0999-.0481-.8988-.4402-1.72-.9026-2.4561-1.3797-2.3377-1.4981-3.821-3.1145-4.1132-4.6533-.0185-.0887-.0296-.1701-.037-.2552-.0111-.1258-.0148-.2478-.0148-.3699,0-.1442.0185-.2811.0444-.4254l.111-.6029.5697-2.3303c-.2035,1.9937.1442,2.5633.6214,3.2254.4771.6622,2.7557,3.085,6.0921,4.657,3.3328,1.5721,7.0947,2.9,11.3965,3.6879,4.3019.7879,6.3696,1.1652,11.796.773,5.4226-.3921,9.5544-2.2971,9.7578-4.7975Z" />
  <g>
    <path class="cls-2"
      d="M70.3313,16.394c-.146,0-.2642.1182-.2642.2637v13.0312c0,.1455.1182.2637.2642.2637s.2642-.1182.2642-.2637v-13.0312c0-.1455-.1182-.2637-.2642-.2637Z" />
    <path class="cls-2"
      d="M38.2991,24.6411c3.6216-.6328,8.2925-.4902,13.1528.4072,4.7607.876,9.1099,2.3652,12.2461,4.1924,3.0146,1.7559,4.5762,3.6709,4.2837,5.2539-.1611.8848-.8716,1.6475-2.1113,2.2676-.1304.0654-.1831.2236-.1177.3545.0459.0928.1392.1455.2358.1455.04,0,.0801-.0088.1182-.0273,1.396-.6992,2.2017-1.5889,2.3945-2.6445.3398-1.8418-1.2715-3.9043-4.5376-5.8066-3.1875-1.8564-7.5967-3.3672-12.416-4.2549-4.9209-.9072-9.6582-1.0527-13.3394-.4072-.1436.0244-.2397.1621-.2148.3057s.1655.2412.3057.2139Z" />
    <path class="cls-2"
      d="M29.9329,24.7104v-8.0078c0-.1455-.1182-.2637-.2642-.2637s-.2642.1182-.2642.2637v8.0078c0,.1455.1182.2637.2642.2637s.2642-.1182.2642-.2637Z" />
    <path class="cls-2"
      d="M69.1731,27.7192c.146,0,.2642-.1182.2642-.2637v-6.6211c0-.1455-.1182-.2637-.2642-.2637s-.2642.1182-.2642.2637v6.6211c0,.1455.1182.2637.2642.2637Z" />
    <path class="cls-2"
      d="M36.6575,33.6987c3.1875,1.8564,7.5972,3.3672,12.416,4.2549,2.915.5381,5.7588.8066,8.3452.8066,2.4644,0,4.6948-.2441,6.5293-.7344.1411-.0371.2246-.1826.187-.3232-.0366-.1406-.1826-.2217-.3228-.1865-3.6885.9834-9.0264.9531-14.6431-.082-4.7607-.876-9.1099-2.3652-12.2456-4.1924-3.0151-1.7559-4.5762-3.6709-4.2837-5.2539.1787-.9756,1.0576-1.8291,2.541-2.4697.1338-.0576.1958-.2129.1377-.3467s-.2134-.1963-.3467-.1377c-1.6528.7129-2.6392,1.7012-2.8516,2.8584-.3403,1.8418,1.271,3.9033,4.5371,5.8066Z" />
    <path class="cls-2"
      d="M51.7625,23.3335c-10.9193-2.0121-20.197-.3215-21.4581,3.8207-.009.0178-.0292.0262-.0341.0464l-.0433.1772c-.0038.0167-.0132.0317-.0167.0484-.0107.0371-.0215.082-.0244.1064-.0011.0059,0,.012-.001.0178l-.4877,1.9949-.1108.6035c-.0288.1602-.0488.3125-.0488.4727,0,.1299.0039.2598.0156.3926.0083.0957.021.1865.041.2812.2988,1.5762,1.7617,3.2451,4.229,4.8262.7451.4834,1.5811.9531,2.4707,1.3887l.1128.0586c3.3516,1.6465,7.4951,2.9541,11.9824,3.7803,3.1919.5859,6.3086.8838,9.1714.8838,1.145,0,2.249-.0469,3.3013-.1436.0098,0,.0732-.0039.083-.0049l.1089-.0068c.98-.0938,1.9004-.2295,2.7349-.4033,2.9541-.6025,4.9546-1.665,5.7949-3.0889l.0337-.0625c.0234-.041.0459-.0811.0591-.1123.0601-.1211.1128-.2451.1567-.3701.0527-.1494.0933-.2998.1216-.4541l.4767-2.6421c.0002-.0009.0006-.0016.0008-.0024,0-.0002.0009-.0064.001-.0077l.0136-.0753c.0007-.0038-.0028-.0067-.0023-.0105.683-4.4033-7.5206-9.4609-18.6818-11.5149ZM42.9822,23.022c2.6753,0,5.6279.2676,8.6846.8311,10.7002,1.9697,18.8896,6.8672,18.2495,10.9697,0,.002-.0024.0146-.0039.0234-.3545,1.9277-2.7002,3.3926-6.6035,4.125-3.9883.748-9.0879.626-14.3613-.3457-5.2729-.9697-10.082-2.6709-13.541-4.79-3.3754-2.0676-5.0431-4.264-4.7021-6.1882l.0408-.1668c.679-2.8199,5.6095-4.4584,12.2371-4.4584ZM69.4348,37.4907c-.0234.127-.0562.25-.1001.374-.0371.1055-.0811.21-.1367.3223-.0112.0254-.0259.0498-.04.0752l-.0386.0713c-.7529,1.2754-2.6328,2.252-5.4375,2.8232-.8164.1699-1.7178.3027-2.6758.3945-.0391,0-.0811.0039-.1685.0117-3.6597.332-7.9316.0781-12.353-.7334-4.4404-.8174-8.5366-2.1094-11.8457-3.7354l-.1162.2373.0161-.2891c-.8838-.4326-1.7007-.8916-2.4297-1.3652-2.3433-1.501-3.7251-3.0508-3.9976-4.4844-.0161-.0781-.0259-.1494-.0322-.2246-.0107-.1182-.0137-.2324-.0137-.3467,0-.1289.0171-.251.04-.3779l.1074-.5879.0988-.404c.5167,1.6691,2.1624,3.4068,4.8187,5.0339,3.5132,2.1523,8.3862,3.8779,13.7212,4.8594,3.0259.5566,5.998.8379,8.7432.8379,2.0947,0,4.0581-.1641,5.811-.4922,2.9709-.558,5.0782-1.5548,6.1857-2.8691l-.1569.8691Z" />
  </g>
</svg>