<?xml version="1.0" encoding="UTF-8"?>
<svg width="100" height="100" id="Layer_1" data-name="Layer 1" xmlns="http://www.w3.org/2000/svg"
  viewBox="0 0 100 100">
  <defs>
    <style>
      .cls-1 {
      fill-rule: evenodd;
      }

      .cls-1, .cls-2 {
      fill: #f95921;
      }

      .cls-1, .cls-2, .cls-3, .cls-4 {
      stroke-width: 0px;
      }

      .cls-5 {
      opacity: .49;
      }

      .cls-3 {
      fill: #fff;
      opacity: .9;
      }

      .cls-4 {
      fill: #ff8a4d;
      }

      .cls-6 {
      isolation: isolate;
      opacity: .49;
      }
    </style>
  </defs>
  <path class="cls-4"
    d="M67.5711,55.8012l.8182,2.3949c3.3924,9.9306-1.9092,20.7317-11.8398,24.1241-9.9269,3.3887-20.728-1.9129-24.1166-11.8435l-.8182-2.3948c3.3886,9.9269,14.1898,15.2284,24.1166,11.8397,9.9306-3.3924,15.2322-14.1898,11.8435-24.1166l-.0038-.0038Z" />
  <g class="cls-5">
    <path class="cls-3"
      d="M33.4673,67.4433c1.4707,4.3076,4.5303,7.7842,8.6157,9.7891,2.3721,1.1641,4.9248,1.752,7.4922,1.752,1.854,0,3.7158-.3066,5.522-.9238,4.3071-1.4697,7.7832-4.5293,9.7886-8.6152,2.0049-4.085,2.2993-8.7061.8286-13.0137-.7822-2.2842-2.0054-4.333-3.6367-6.0889-.1001-.1094-.271-.1152-.3799-.0146-.1084.1016-.1147.2715-.0137.3799,1.5791,1.7012,2.7642,3.6855,3.5215,5.8975,1.4243,4.1709,1.1392,8.6475-.8027,12.6035s-5.3081,6.9189-9.4795,8.3438c-4.1719,1.4219-8.6475,1.1377-12.6035-.8027-3.9565-1.9424-6.9194-5.3086-8.3438-9.4805-1.9565-5.7285-.6226-12.0586,3.4814-16.5215.1006-.1094.0933-.2793-.0156-.3799-.1089-.0977-.2798-.0918-.3799.0166-4.2378,4.6074-5.6152,11.1436-3.5947,17.0586Z" />
    <path class="cls-3"
      d="M68.6436,58.1094l-.7271-2.1289c-.0283-.0879-.0576-.1758-.0874-.2627-.0013-.0038-.0045-.0065-.006-.0103-.8956-2.6155-2.3042-4.9592-4.1884-6.9644-.1016-.1094-.272-.1133-.3799-.0127-.1079.1016-.1133.2725-.0117.3799,1.8325,1.9521,3.2036,4.2314,4.0737,6.7773.1235.362.2142.7292.3151,1.0948.0764.2774.1624.5541.2253.8323.0684.3005.1135.6031.1669.9052.0552.3153.118.6305.1566.9457.031.2496.0423.4998.0631.7499.0302.3715.0643.7432.0721,1.1131.0044.19-.0068.3795-.0082.5695-.004.4277-.0097.8552-.0429,1.279-.0106.1373-.0329.2734-.0466.4103-.0473.4689-.1014.9368-.1836,1.3986-.019.1066-.0475.2118-.0684.3181-.0948.4837-.1994.965-.3314,1.4382-.0292.1042-.0684.2063-.0994.3102-.1396.4688-.2879.9348-.4631,1.3906-.0458.1187-.1038.2339-.152.3519-.1796.4401-.3638.8784-.5759,1.3035-.02.04-.0443.0768-.0645.1166-1.3202,2.6002-3.2393,4.8976-5.6508,6.6591-.0116.0085-.0221.0183-.0337.0268-.3204.233-.6629.4406-1.0002.6542-.1906.1201-.3717.2531-.567.3665-.1514.0883-.3152.16-.4696.2443-.9289.5046-1.8975.9495-2.9183,1.298-8.481,2.8911-17.6249-.6718-22.0776-8.0473-.0403-.0671-.0876-.1291-.1271-.1967-.2127-.3627-.3983-.7462-.5878-1.1266-.0925-.1865-.1989-.3641-.2855-.5542-.1036-.2267-.1844-.4686-.2797-.701-.1413-.3459-.2921-.6866-.4138-1.0432-.0007-.0021-.0034-.0026-.0042-.0048-2.2695-6.6442-.6651-13.9271,4.1882-19.005.1025-.1074.0986-.2773-.0088-.3799-.106-.1016-.2769-.0986-.3799.0088-4.9922,5.2236-6.6431,12.7148-4.3081,19.5508.0059.0171.014.033.0198.05l.8019,2.3484c1.6621,4.8701,5.1221,8.8018,9.7427,11.0713,2.6836,1.3174,5.5723,1.9824,8.4766,1.9824,2.0947,0,4.1982-.3457,6.2388-1.043,4.8711-1.6641,8.8027-5.125,11.0703-9.7461,2.2681-4.6211,2.6011-9.8477.937-14.7188ZM56.4624,82.0664c-4.7319,1.6152-9.813,1.29-14.3047-.9141-3.6548-1.7949-6.563-4.6602-8.3896-8.2158.0157.0226.0338.043.0496.0655.1921.2747.4001.5362.6061.7999.1398.1785.2776.3584.4232.5312.2234.2657.4561.5221.6937.7753.1454.1547.2928.3063.4429.4557.2489.248.501.4919.7637.7262.1571.1403.3205.272.4819.4068.2687.2242.5346.4505.8163.6604.2323.1735.476.3298.7155.4926.3953.2679.7999.5228,1.2175.7627.2868.1652.5735.3298.8683.48.0861.0438.1655.0969.2524.1395.7663.3761,1.5506.6928,2.3458.9623.0214.0072.0429.0137.0643.0209.4698.1574.9434.2965,1.4207.4166.0057.0015.0113.0031.017.0045.9758.2444,1.9648.4094,2.9608.4971.0486.0043.0972.0085.1459.0126.5063.0406,1.0134.0685,1.5217.0685.35,0,.7003-.024,1.0505-.0434.1676-.009.3345-.0073.5024-.0208.1424-.0117.2841-.0366.4264-.0515,1.424-.1461,2.8528-.441,4.2639-.9235.5844-.1996,1.1487-.4308,1.7007-.6796.119-.0534.2323-.1154.3499-.171.4086-.1943.8102-.3976,1.1996-.6176.1901-.1069.3743-.2213.5602-.3343.3008-.1837.5962-.3729.8843-.5715.2156-.148.4282-.2989.6373-.4554.2391-.1797.4701-.367.6994-.5568.2243-.1849.4496-.3677.6652-.5627.1926-.1746.3729-.36.5576-.5417.4183-.4108.8167-.8406,1.1966-1.29.1545-.1827.3156-.3602.463-.5482.1867-.2385.3592-.4886.5351-.7366.1605-.2258.3203-.4515.4708-.6838.155-.2396.3027-.484.4476-.7314.1569-.2672.3055-.5383.4493-.8127.0803-.1533.1738-.2969.2503-.4528.042-.0855.0718-.1745.1125-.2604.1455-.3076.2753-.6216.4045-.9365.142-.3453.2755-.6918.3966-1.0424.1279-.3711.2539-.7429.3592-1.1218.0845-.3031.1487-.6093.218-.9152.0557-.2463.113-.4918.1591-.7405.0578-.312.1036-.6248.1457-.9387.0343-.255.0632-.5105.0872-.7675.0281-.303.0533-.6055.0668-.9095.0135-.2953.0131-.5919.0129-.8888-.0006-.2667.0054-.5327-.0064-.7994-.0017-.0401.001-.0798-.001-.1199,1.6348,8.9639-3.4995,18.0439-12.3779,21.0771Z" />
  </g>
  <g class="cls-6">
    <path class="cls-2"
      d="M56.9903,66.6471c0-3.7436-2.7834-4.9989-5.522-5.8807v-3.6988h-2.8357v2.7834c-1.401-.5342-2.4097-1.2105-2.4097-2.4883,0-1.4459,1.4459-1.9203,3.695-1.9203,2.0885,0,3.5344.4745,3.5344,2.5667h3.0524c0-1.4048-.4297-2.6265-1.1583-3.5979l-5.4398.4371-5.6826-.5119c-.6687.8818-1.061,1.9317-1.061,3.0301,0,3.5717,2.746,4.7635,5.4659,5.6452v6.4411c-1.7298-.3736-2.5704-1.5692-2.5704-3.4074h-3.0524c0,3.5344,2.4098,5.9479,5.6266,6.1086v2.8917h2.8357v-2.9067c3.1607-.3625,5.522-2.746,5.522-5.4809v-.0112ZM51.4683,69.4006v-5.451c1.4309.5716,2.4659,1.3114,2.4659,2.6975,0,1.2889-.7996,2.3574-2.4659,2.7535Z" />
  </g>
  <path class="cls-1"
    d="M56.4112,31.4823l-.4559-.7809-1.0499-1.7896,3.1496-3.0823-1.1919-1.2143-2.8954,2.8357-.5903-.9079,2.8245-2.7647-1.1919-1.2143-2.5779,2.5219-1.5056-2.3239-5.7349,3.6353v4.9541l-4.0687,3.9865,1.1919,1.2143,2.8768-2.8208v1.4869l-2.167,2.1221,1.1918,1.2143.9752-.9602v11.1636h2.3388v-21.0007l2.6676-1.644,3.157,4.9317-4.5954,4.2368.34.9153,4.6851,12.5609h2.6601l-4.6739-12.9943,4.6403-4.2815Z" />
  <path class="cls-4"
    d="M67.5711,29.5246l.8182,2.3948c3.3924,9.9306-1.9092,20.7317-11.8398,24.1242-9.9269,3.3887-20.728-1.9129-24.1166-11.8435l-.8182-2.3949c3.3886,9.9269,14.1898,15.2285,24.1166,11.8398,9.9306-3.3924,15.2322-14.1898,11.8435-24.1167l-.0038-.0037Z" />
  <g>
    <path class="cls-3"
      d="M33.2769,21.1504c-.0747-.127-.2393-.1719-.3677-.0947-10.2217,6.0225-16.5713,17.1143-16.5713,28.9473,0,4.7979.9922,9.4307,2.9487,13.7695.0449.0996.1431.1582.2451.1582.0371,0,.0747-.0078.1104-.0234.1353-.0615.1958-.2207.1348-.3555-1.9253-4.2695-2.9019-8.8271-2.9019-13.5488,0-11.6436,6.2485-22.5586,16.3066-28.4844.1279-.0752.1709-.2402.0952-.3682Z" />
    <path class="cls-3"
      d="M20.9966,65.9863c-.0723-.1309-.2358-.1777-.3657-.1055s-.1768.2354-.105.3652c1.312,2.3691,2.9087,4.5742,4.7461,6.5537.0527.0576.1245.0859.1968.0859.0654,0,.1309-.0234.1826-.0713.1089-.1016.1152-.2715.0142-.3799-1.8076-1.9482-3.3784-4.1172-4.6689-6.4482Z" />
    <path class="cls-3"
      d="M28.1338,74.833c-.1108-.0977-.2808-.0869-.3794.0244-.0977.1123-.0869.2812.0249.3799,2.3096,2.0283,4.877,3.7275,7.6304,5.0498.0376.0186.0771.0264.1162.0264.1001,0,.1958-.0557.2422-.1523.0645-.1338.0078-.2939-.126-.3584-2.709-1.3008-5.2354-2.9727-7.5083-4.9697Z" />
    <path class="cls-3"
      d="M77.4731,68.4765c-2.5552,3.7793-5.8057,6.9424-9.6616,9.4023-.125.0801-.1621.2461-.082.3711.0513.0801.1382.124.2271.124.0493,0,.0991-.0137.144-.042,3.918-2.499,7.2212-5.7139,9.8179-9.5547.083-.123.0508-.29-.0723-.373-.1216-.083-.2905-.0518-.373.0723Z" />
    <path class="cls-3"
      d="M71.3838,24.0566c-.1147-.0947-.2837-.0771-.3779.0371-.0942.1152-.0776.2842.0371.3789,7.6782,6.3086,12.082,15.6143,12.082,25.5303,0,5.2188-1.186,10.2178-3.5244,14.8564-.0669.1328-.0137.2939.1187.3613.0391.0195.0801.0283.1211.0283.0981,0,.1929-.0537.2402-.1475,2.3765-4.7148,3.5815-9.7949,3.5815-15.0986,0-10.0771-4.4751-19.5342-12.2783-25.9463Z" />
    <path class="cls-3"
      d="M68.1558,22.3515c.0454.0303.0967.0439.147.0439.0879,0,.1738-.043.2251-.1211.0815-.124.0469-.291-.0771-.3721-1.6362-1.0723-3.3618-2.001-5.1299-2.7607-.1372-.0576-.2939.0049-.353.1406-.0586.1367.0044.2949.1411.3535,1.7393.7471,3.437,1.6611,5.0469,2.7158Z" />
    <path class="cls-3"
      d="M49.5894,52.6992c9.394,0,17.0361-7.6426,17.0361-17.0361s-7.6421-17.0361-17.0361-17.0361-17.0366,7.6426-17.0366,17.0361,7.6426,17.0361,17.0366,17.0361ZM49.5894,19.164c9.0977,0,16.499,7.4014,16.499,16.499s-7.4014,16.499-16.499,16.499-16.4995-7.4014-16.4995-16.499,7.4019-16.499,16.4995-16.499Z" />
    <path class="cls-3"
      d="M68.6436,31.832l-.7275-2.1299c-.0283-.0869-.0571-.1738-.0869-.2607-.0007-.0021-.0026-.0035-.0033-.0056-.0002-.0007-.0004-.0015-.0006-.0022-1.6641-4.8711-5.125-8.8018-9.7461-11.0703-4.6206-2.2676-9.8472-2.5996-14.7192-.9355-4.8691,1.6621-8.7993,5.1221-11.0669,9.7422-2.2681,4.6211-2.6006,9.8477-.9365,14.7188.0067.0194.0158.0374.0225.0568l.7993,2.3416c1.6621,4.8701,5.1221,8.8018,9.7427,11.0713,2.6836,1.3174,5.5723,1.9824,8.4766,1.9824,2.0947,0,4.1982-.3457,6.2388-1.043,4.8711-1.6641,8.8022-5.125,11.0703-9.7461s2.6011-9.8486.937-14.7197ZM32.7754,27.4072c2.2041-4.4922,6.0249-7.8555,10.7583-9.4717,1.9858-.6777,4.0327-1.0146,6.0718-1.0146,2.8223,0,5.6289.6455,8.2368,1.9248,4.4854,2.2021,7.8467,6.0156,9.4668,10.7402.002.0088.0044.0176.0073.0254.1249.366.2169.7373.3187,1.1071.0746.2719.1591.543.2209.8156.0704.309.1172.6203.1717.9308.0532.3057.1144.6113.152.917.0327.2626.045.526.0664.7891.0285.3573.0618.7148.0696,1.0707.0049.2079-.0069.4153-.009.6231-.0048.4088-.0093.8176-.0408,1.2228-.0123.1608-.038.3203-.0546.4808-.0461.4446-.0965.8884-.174,1.3266-.0242.1368-.0603.2718-.0876.4081-.0906.4526-.187.9039-.3102,1.3472-.0401.1438-.0934.2849-.137.4279-.1304.429-.2642.8569-.4245,1.2748-.0643.1673-.145.3301-.2143.496-.1628.3906-.3242.7821-.5128,1.1608-.0534.1072-.1175.2065-.1727.3124-1.515,2.9029-3.7872,5.4069-6.6539,7.2026-.1653.1031-.3216.219-.4905.3171-.197.1149-.4091.2099-.6114.3181-.8885.4734-1.8102.8961-2.7817,1.2277-4.7334,1.6133-9.814,1.292-14.3047-.9141-1.1229-.5513-2.1754-1.2035-3.1475-1.9457-.0164-.0126-.0308-.0273-.0472-.0399-.4671-.3591-.9174-.7369-1.3461-1.1365-2.2238-2.0736-3.9162-4.6755-4.926-7.6338-.0008-.0023-.0037-.0029-.0046-.0052-1.6168-4.7336-1.2934-9.8148.9108-14.3053ZM56.4624,55.79c-4.7319,1.6152-9.813,1.29-14.3047-.9141-3.6411-1.7881-6.541-4.6387-8.3696-8.1768.0301.0432.0638.0836.0942.1265.0739.1043.1526.2044.2286.3071.2722.3683.5571.726.8547,1.0732.0775.0904.1516.1833.2308.2722.3558.3995.7299.7823,1.1187,1.151.0948.0898.1924.1763.2891.2642.3669.3339.7452.6556,1.1387.9614.0541.0419.1051.087.1596.1284.4432.3368.9059.6507,1.3805.9502.1014.064.2037.1261.3065.1883.491.2974.992.5821,1.5135.8383.0286.014.0586.0238.0873.0377.478.2316.9635.4374,1.4531.6276.1179.0459.2349.0942.3534.1376.4868.1783.9787.3344,1.4744.4721.1414.0394.2829.0759.4249.1119.4963.1258.9951.2364,1.4977.3216.1232.0209.247.0349.3705.0534.449.0671.8995.1187,1.3515.1534.1161.0089.2315.0231.3478.03.37.0217.7406.0331,1.1116.0331.1026,0,.2053-.011.3079-.0127.2739-.0044.547-.0177.8209-.0339.3069-.0182.6132-.0445.9197-.0776.2729-.0295.5451-.0604.8174-.1017.3165-.048.6313-.1107.9465-.1747.2582-.0524.5164-.0985.7734-.1617.3926-.0966.7819-.2155,1.1707-.3374.1617-.0507.3257-.0853.4867-.1403.5811-.1984,1.1423-.4279,1.6914-.675.1328-.0596.2593-.1285.3903-.1908.3947-.1885.7831-.3846,1.1599-.5971.1976-.111.3892-.2297.5822-.3474.2932-.1794.5813-.3639.8624-.5574.2206-.1512.4379-.3055.6516-.4656.2346-.1764.4611-.3603.6863-.5464.2275-.1874.456-.3728.6745-.5706.1885-.171.365-.3526.546-.5305.4243-.4162.8282-.8519,1.2132-1.3076.1521-.18.3108-.3547.4559-.5399.1865-.2381.3586-.4879.5343-.7354.1611-.2266.3215-.4531.4725-.6862.1543-.2386.3014-.4818.4457-.7281.158-.269.3076-.542.4523-.8182.0796-.152.1723-.2944.2482-.449.0417-.0849.0714-.1733.1118-.2586.1471-.3109.2786-.6285.4091-.9468.1257-.3061.2477-.6123.3571-.9225.1432-.4076.2798-.8177.3956-1.2347.0829-.298.1459-.599.2141-.8997.0571-.2515.1157-.5021.1627-.7561.0569-.3076.1019-.6159.1436-.9254.0352-.2603.0648-.5211.0893-.7833.0275-.2977.0521-.5948.0656-.8936.014-.3016.014-.6044.0137-.9078-.0007-.2603.0051-.5198-.0063-.7802-.0019-.0447.0011-.089-.0011-.1337,1.6348,8.9648-3.499,18.0459-12.3779,21.0791Z" />
  </g>
</svg>