<svg width="100" height="100" viewBox="0 0 100 100" fill="none" xmlns="http://www.w3.org/2000/svg">
<g opacity="0.9" clip-path="url(#clip0_188_9377)">
<path d="M60 95V69L68.0769 79.1961L81 72.5686V85.3137L60 95Z" fill="url(#paint0_linear_188_9377)"/>
<path d="M42 85.5V73L54 78L60.5 70.5V94.5L42 85.5Z" fill="url(#paint1_linear_188_9377)"/>
<path fill-rule="evenodd" clip-rule="evenodd" d="M53.7714 42.8319C53.9045 42.8319 54.1264 42.8885 54.2595 42.9563C54.4037 43.0242 55.9457 44.5401 60.8934 49.5628L64.0772 46.3274C65.841 44.5401 67.383 43.0242 67.5161 42.9563C67.6603 42.8885 67.86 42.8319 67.9598 42.8319C68.0708 42.8319 69.8346 43.522 71.8758 44.3704C73.917 45.2188 78.2878 47.0288 81.5825 48.3976C84.8773 49.7664 87.6617 50.9655 87.7726 51.0673C87.8836 51.1804 88.0167 51.4067 88.0611 51.599C88.1054 51.7913 88.1054 52.0854 88.05 52.2777C87.9945 52.504 86.9074 53.6918 81.3939 59.2914L84.7331 63.8503C87.5175 67.6399 88.0722 68.4544 88.0722 68.7712C88.0722 68.9635 87.9834 69.2915 87.8614 69.4725C87.7491 69.6634 86.9493 70.1327 80.9483 73.2182C80.2615 73.5714 79.5066 73.9587 78.6769 74.3839C76.0157 75.7474 72.5843 77.4994 68.1595 79.7555L67.7158 79.6197C67.2942 79.5066 67.0724 79.2351 64.1104 75.1966C62.3688 72.8323 60.9155 70.9092 60.8712 70.9205C60.8268 70.9318 59.429 72.7984 57.7539 75.0721C56.0788 77.3459 54.6145 79.2916 54.5036 79.3935C54.3926 79.4953 54.1375 79.6197 53.96 79.665C53.6716 79.7215 52.2183 79.0202 43.8317 74.7441C43.5812 74.6163 43.335 74.4907 43.0933 74.3673C42.2964 73.9603 41.5478 73.577 40.8488 73.2179C36.4097 70.9372 33.973 69.6359 33.8809 69.4951C33.7922 69.3594 33.7145 69.0427 33.7145 68.7938C33.7145 68.3752 33.9919 67.968 40.3817 59.2914L33.6591 52.4474V51.9384C33.6591 51.5537 33.7256 51.3727 33.9364 51.1578C34.125 50.9655 37.4641 49.5175 43.865 46.8591C49.1676 44.6532 53.6272 42.8432 53.7603 42.8319H53.7714ZM62.9567 50.8524C63.5558 51.1126 67.2499 52.6397 71.5541 54.4271C75.8583 56.2144 79.4193 57.6964 79.4859 57.719C79.5524 57.7416 80.7838 56.5538 82.237 55.0832L84.8773 52.3909C82.9359 51.5651 80.0295 50.3546 77.1563 49.1555C74.2831 47.9677 71.1104 46.6442 70.0898 46.2256L68.2372 45.4564L62.9567 50.8524ZM37.1091 52.2551C36.9094 52.3343 37.2644 52.7302 39.5497 55.0379L42.2121 57.7416C47.4482 55.5583 49.6225 54.6533 50.4212 54.314C51.2088 53.9859 53.3609 53.0922 55.1913 52.3343C57.0218 51.5764 58.5637 50.9202 58.6303 50.8976C58.6858 50.8637 57.5653 49.642 56.1343 48.194C54.6921 46.7347 53.4719 45.5469 53.4164 45.5469C53.3498 45.5469 49.7112 47.0401 45.3182 48.8614C40.9252 50.6827 37.2311 52.2099 37.1091 52.2551ZM49.2009 57.4814C47.4925 58.1828 45.8174 58.8841 45.4846 59.0312L44.8745 59.314L60.9044 67.4929C73.5842 61.0335 76.8789 59.2914 76.8235 59.2348C76.7569 59.1896 74.2165 58.1149 71.1658 56.8592C68.1152 55.5923 64.5875 54.133 63.345 53.6126C62.0914 53.0922 60.971 52.6737 60.849 52.685C60.727 52.6963 58.7523 53.4882 56.4671 54.4497C54.1708 55.4113 50.9093 56.7687 49.2009 57.4814ZM36.6987 68.3639C36.7098 68.4205 40.4482 70.3323 44.9965 72.64C49.5448 74.9364 53.3055 76.8369 53.3609 76.8482C53.4164 76.8708 54.7254 75.174 56.2674 73.0812C58.5416 70.0042 59.0408 69.2689 58.9076 69.1784C58.8078 69.1218 55.0693 67.1987 50.5876 64.9136C46.1059 62.6285 42.4007 60.7507 42.3674 60.7281C42.3341 60.7168 41.0362 62.4023 39.4831 64.4951C37.9411 66.5766 36.6876 68.3187 36.6987 68.3639ZM62.6683 69.2463C66.9836 75.1174 68.2816 76.8369 68.337 76.8482C68.3925 76.8708 72.1864 74.9703 76.768 72.64L85.088 68.3978C84.611 67.7191 83.3686 65.9883 82.0263 64.1218C80.6729 62.2439 79.5302 60.7054 79.4748 60.7054C79.4193 60.7168 75.6143 62.6399 71.0216 64.9815L62.6683 69.2463ZM43.0933 74.3673C43.1352 76.2021 43.1439 79.4745 43.1439 84.3483L51.353 88.5338C55.868 90.8303 59.5954 92.7194 59.6176 92.7194C59.6509 92.7194 59.6731 88.9298 59.6731 84.2917C59.6731 77.0292 59.7064 71.8188 59.8395 71.5246C59.9393 71.3323 60.1612 71.1061 60.3387 71.0156C60.5273 70.9251 60.7713 70.8459 60.8934 70.8459C61.0154 70.8459 61.2705 70.9364 61.448 71.0382C61.6366 71.1513 61.8363 71.3436 61.9028 71.4681C61.9805 71.6151 62.0249 78.5111 62.036 84.1447C62.0582 88.7827 62.0914 92.6176 62.1136 92.6629C62.1469 92.6968 65.8854 90.8416 78.6428 84.3483V80.1061C78.6428 77.0581 78.6513 75.3572 78.6769 74.3839C78.7207 74.3614 80.9483 73.2182 80.9483 73.2182C81.0743 73.6352 81.0808 74.6678 81.0611 80.7057C81.0389 84.9818 81.0168 85.4569 80.8393 85.7397C80.6951 85.9773 78.3876 87.199 70.8774 91.0226C65.5082 93.7602 61.0154 96 60.8934 96C60.7713 96 56.2785 93.7602 50.9093 91.0226C43.4102 87.199 41.1027 85.9773 40.9585 85.7397C40.781 85.4569 40.7588 85.0157 40.7588 80.6039C40.7588 77.4619 40.7787 74.522 40.8488 73.2179C40.8488 73.2179 43.033 74.3365 43.0933 74.3673Z" fill="#F57118"/>
<path d="M40.8488 73.2179C40.7787 74.522 40.7588 77.4619 40.7588 80.6039C40.7588 85.0157 40.781 85.4569 40.9585 85.7397C41.1027 85.9773 43.4102 87.199 50.9093 91.0226C56.2785 93.7602 60.7713 96 60.8934 96C61.0154 96 65.5082 93.7602 70.8774 91.0226C78.3876 87.199 80.6951 85.9773 80.8393 85.7397C81.0168 85.4569 81.0389 84.9818 81.0611 80.7057C81.0808 74.6678 81.0743 73.6352 80.9483 73.2182M40.8488 73.2179C36.4097 70.9372 33.973 69.6359 33.8809 69.4951C33.7922 69.3594 33.7145 69.0426 33.7145 68.7938C33.7145 68.3752 33.9919 67.968 40.3817 59.2914L33.6591 52.4474V51.9384C33.6591 51.5537 33.7256 51.3727 33.9364 51.1578C34.125 50.9655 37.4641 49.5175 43.865 46.8591C49.1676 44.6532 53.6272 42.8432 53.7603 42.8319H53.7714C53.9045 42.8319 54.1264 42.8885 54.2595 42.9563C54.4037 43.0242 55.9457 44.5401 60.8934 49.5628L64.0772 46.3274C65.841 44.5401 67.383 43.0242 67.5161 42.9563C67.6603 42.8885 67.86 42.8319 67.9598 42.8319C68.0708 42.8319 69.8346 43.522 71.8758 44.3704C73.917 45.2188 78.2878 47.0288 81.5825 48.3976C84.8773 49.7664 87.6617 50.9655 87.7726 51.0673C87.8836 51.1804 88.0167 51.4067 88.0611 51.599C88.1054 51.7913 88.1054 52.0854 88.05 52.2777C87.9945 52.504 86.9074 53.6918 81.3939 59.2914L84.7331 63.8503C87.5175 67.6399 88.0722 68.4544 88.0722 68.7712C88.0722 68.9635 87.9834 69.2915 87.8614 69.4725C87.7491 69.6634 86.9493 70.1327 80.9483 73.2182M40.8488 73.2179C41.5478 73.577 42.2964 73.9603 43.0933 74.3673M40.8488 73.2179C40.8488 73.2179 43.033 74.3365 43.0933 74.3673M43.0933 74.3673C43.335 74.4907 43.5812 74.6163 43.8317 74.7441C52.2183 79.0202 53.6716 79.7215 53.96 79.665C54.1375 79.6197 54.3926 79.4953 54.5036 79.3935C54.6145 79.2916 56.0788 77.3459 57.7539 75.0721C59.429 72.7984 60.8268 70.9318 60.8712 70.9205C60.9155 70.9092 62.3688 72.8323 64.1104 75.1966C67.0724 79.2351 67.2942 79.5066 67.7158 79.6197L68.1595 79.7555C72.5843 77.4994 76.0157 75.7474 78.6769 74.3839M43.0933 74.3673C43.1352 76.2021 43.1439 79.4745 43.1439 84.3483L51.353 88.5338C55.868 90.8303 59.5954 92.7194 59.6176 92.7194C59.6509 92.7194 59.6731 88.9298 59.6731 84.2917C59.6731 77.0292 59.7064 71.8188 59.8395 71.5246C59.9393 71.3323 60.1612 71.1061 60.3387 71.0156C60.5273 70.9251 60.7713 70.8459 60.8934 70.8459C61.0154 70.8459 61.2705 70.9364 61.448 71.0382C61.6366 71.1513 61.8363 71.3436 61.9028 71.4681C61.9805 71.6151 62.0249 78.5111 62.036 84.1447C62.0582 88.7827 62.0914 92.6176 62.1136 92.6629C62.1469 92.6968 65.8854 90.8416 78.6428 84.3483V80.1061C78.6428 77.0581 78.6513 75.3572 78.6769 74.3839M80.9483 73.2182C80.2615 73.5714 79.5066 73.9587 78.6769 74.3839M80.9483 73.2182C80.9483 73.2182 78.7207 74.3614 78.6769 74.3839M62.9567 50.8524C63.5558 51.1126 67.2499 52.6397 71.5541 54.4271C75.8583 56.2144 79.4193 57.6964 79.4859 57.719C79.5524 57.7416 80.7838 56.5538 82.237 55.0832L84.8773 52.3909C82.9359 51.5651 80.0295 50.3546 77.1563 49.1555C74.2831 47.9677 71.1104 46.6442 70.0898 46.2256L68.2372 45.4564L62.9567 50.8524ZM37.1091 52.2551C36.9094 52.3343 37.2644 52.7302 39.5497 55.0379L42.2121 57.7416C47.4482 55.5583 49.6225 54.6533 50.4212 54.314C51.2088 53.9859 53.3609 53.0922 55.1913 52.3343C57.0218 51.5764 58.5637 50.9202 58.6303 50.8976C58.6858 50.8637 57.5653 49.642 56.1343 48.194C54.6921 46.7347 53.4719 45.5469 53.4164 45.5469C53.3498 45.5469 49.7112 47.0401 45.3182 48.8614C40.9252 50.6827 37.2311 52.2099 37.1091 52.2551ZM49.2009 57.4814C47.4925 58.1828 45.8174 58.8841 45.4846 59.0312L44.8745 59.314L60.9044 67.4929C73.5842 61.0335 76.8789 59.2914 76.8235 59.2348C76.7569 59.1896 74.2165 58.1149 71.1658 56.8592C68.1151 55.5923 64.5875 54.133 63.345 53.6126C62.0914 53.0922 60.971 52.6737 60.849 52.685C60.727 52.6963 58.7523 53.4882 56.4671 54.4497C54.1708 55.4113 50.9093 56.7687 49.2009 57.4814ZM36.6987 68.3639C36.7098 68.4205 40.4482 70.3323 44.9965 72.64C49.5448 74.9364 53.3055 76.8369 53.3609 76.8482C53.4164 76.8708 54.7254 75.1739 56.2674 73.0812C58.5416 70.0042 59.0408 69.2689 58.9076 69.1784C58.8078 69.1218 55.0693 67.1987 50.5876 64.9136C46.1059 62.6285 42.4007 60.7507 42.3674 60.7281C42.3341 60.7168 41.0362 62.4023 39.4831 64.4951C37.9411 66.5766 36.6876 68.3187 36.6987 68.3639ZM62.6683 69.2463C66.9836 75.1174 68.2816 76.8369 68.337 76.8482C68.3925 76.8708 72.1864 74.9703 76.768 72.64L85.088 68.3978C84.611 67.7191 83.3686 65.9883 82.0263 64.1218C80.6729 62.2439 79.5302 60.7054 79.4748 60.7054C79.4193 60.7168 75.6143 62.6399 71.0216 64.9815L62.6683 69.2463Z" stroke="#F57118" stroke-width="0.886135"/>
<circle cx="49.1236" cy="32.9785" r="4.97544" transform="rotate(-122.178 49.1236 32.9785)" fill="#24D0C6"/>
<path d="M46.0413 34.9178L47.234 32.8523L46.3266 30.6465L48.6596 31.1427L50.477 29.598L50.7261 31.9701L52.7567 33.2212L50.5777 34.1911L50.0153 36.509L48.4195 34.7364L46.0413 34.9178Z" fill="white"/>
<circle cx="58.7336" cy="59.0452" r="3.39238" transform="rotate(-37.2959 58.7336 59.0452)" fill="#24D0C6"/>
<path d="M57.2294 57.0701L58.7046 57.7545L60.1474 57.0041L59.9523 58.6186L61.1118 59.7589L59.5161 60.0723L58.7899 61.5274L57.9987 60.1066L56.3905 59.8657L57.4972 58.6742L57.2294 57.0701Z" fill="white"/>
<circle cx="66.2998" cy="47.6228" r="8.62331" transform="rotate(-20.2168 66.2998 47.6228)" fill="#24D0C6"/>
<path d="M64.119 41.7005L67.1927 44.4648L71.2586 43.7185L69.5794 47.4959L71.5456 51.1322L67.4341 50.7025L64.5834 53.6962L63.7215 49.6531L59.9935 47.867L63.5723 45.798L64.119 41.7005Z" fill="white"/>
<circle cx="33.5426" cy="17.397" r="7.18862" transform="rotate(1.40113 33.5426 17.397)" fill="#24D0C6"/>
<path d="M33.6709 12.1373L35.204 15.2236L38.5842 15.894L36.1227 18.3057L36.5297 21.7277L33.4753 20.132L30.3466 21.5765L30.9204 18.1785L28.5798 15.6493L31.9888 15.145L33.6709 12.1373Z" fill="white"/>
<path d="M76.2856 17.1465C76.4073 17.3826 76.5012 17.632 76.5654 17.8897L76.6177 18.858C76.3641 18.0206 76.3432 18.1305 76.2856 17.1465Z" fill="#FFD267"/>
<path d="M76.2857 17.0885L76.4374 16.7117C76.4184 16.6407 76.3893 16.5729 76.3511 16.5102L76.3799 16.4578C76.5446 16.6018 76.7485 17.4339 76.7145 17.7009V17.7427L76.5864 17.8945C76.514 17.6327 76.4086 17.3812 76.2727 17.1461L76.2857 17.0885Z" fill="#FFBA29"/>
<path d="M76.2727 9.70122L76.3093 8.76698C76.5102 9.3041 76.6488 9.86254 76.7223 10.4313C76.6928 10.386 76.6556 10.3462 76.6125 10.3136L76.5315 10.4287L76.2727 9.70122Z" fill="#FFD267"/>
<path d="M76.2566 9.70166L76.518 10.4292L76.5991 10.314C76.6422 10.3466 76.6793 10.3865 76.7089 10.4318C76.7365 10.6982 76.7908 10.9612 76.8709 11.2168L76.6775 11.1069C76.6561 11.2683 76.6465 11.4309 76.6487 11.5937V11.8554L76.5546 11.6748C76.5679 11.6429 76.5748 11.6086 76.5748 11.574C76.5748 11.5395 76.5679 11.5052 76.5546 11.4733L76.5206 11.366C76.4474 11.2352 76.3978 11.0703 76.3141 10.9473C76.3133 11.0762 76.3019 11.2049 76.2801 11.332L76.2566 9.70166Z" fill="#FFBA29"/>
<path d="M76.5338 10.4289L76.6149 10.3138C76.658 10.3464 76.6951 10.3862 76.7247 10.4315C76.7523 10.698 76.8066 10.961 76.8867 11.2166L76.6933 11.1067C76.6719 11.268 76.6623 11.4307 76.6645 11.5934L76.5338 10.4289Z" fill="#FCEA8E"/>
<path d="M76.2461 -0.208954C76.5476 -0.00237855 76.7735 0.297203 76.8892 0.644154H76.8055C76.8055 0.806402 76.9938 1.03931 76.9702 1.16753C76.8578 1.13351 76.6905 0.720042 76.6513 0.589198V0.620601C76.6761 0.823963 76.6761 1.02959 76.6513 1.23296L76.6696 1.25651C76.7063 1.38239 76.7256 1.51269 76.7271 1.64381L76.8343 2.34775C76.8756 2.4943 76.8975 2.64561 76.8997 2.79786L76.7533 2.82141C76.7205 3.10022 76.7152 3.38159 76.7376 3.66143C76.6565 3.44161 76.6931 3.37357 76.5363 3.16422L76.5546 3.13544C76.5546 3.00983 76.4291 2.84496 76.3794 2.71673L76.2879 2.40009L76.2461 -0.208954Z" fill="url(#paint2_linear_188_9377)"/>
<path d="M74.8555 34.1405C84.3241 34.1405 91.9999 26.457 91.9999 16.9789C91.9999 7.50083 84.3241 -0.182678 74.8555 -0.182678C65.387 -0.182678 57.7112 7.50083 57.7112 16.9789C57.7112 26.457 65.387 34.1405 74.8555 34.1405Z" fill="url(#paint3_linear_188_9377)"/>
<path d="M78.189 0.217865C81.3497 1.03695 83.611 2.07062 86.0919 4.07255C89.0931 6.5429 91.0773 10.3819 91.6316 14.0848C91.7818 14.9537 91.8631 15.8331 91.8747 16.7148C91.8747 17.2826 91.9034 17.8714 91.859 18.4393C91.1741 27.5199 83.3313 34.1694 73.7056 33.476C71.2814 33.2898 68.9238 32.5933 66.787 31.432C64.6503 30.2708 62.7826 28.6711 61.3061 26.7375C61.1327 26.5284 60.972 26.3091 60.8251 26.0806C60.4949 25.6702 60.2002 25.2325 59.9441 24.7722C59.7062 24.2488 59.4029 23.7673 59.1729 23.2413C58.535 21.8099 57.9468 19.8132 58.0069 18.2299C57.9285 15.9454 58.1794 13.598 59.0526 11.4574C59.1676 11.0492 59.7951 9.97626 59.6826 9.6256V9.48167C61.144 9.90561 62.9191 9.88729 64.4511 9.87944H64.7648L64.6367 10.005L63.9648 10.7639C63.8795 10.8803 63.7832 10.9881 63.6772 11.0858C63.4837 11.3232 63.3154 11.5802 63.1753 11.8526C62.8668 12.1143 62.391 13.4227 62.3126 13.7891L62.2969 13.8702C62.2281 14.0646 62.1833 14.2668 62.1636 14.4721V14.493C62.1343 14.5291 62.1194 14.5748 62.1217 14.6213V14.6631C62.0587 14.8304 62.0268 15.0077 62.0276 15.1865C62.0276 15.2441 61.9309 16.0239 61.9335 16.2725V16.9895C61.919 17.1283 61.9243 17.2684 61.9492 17.4056C62.0642 17.772 61.9335 18.4995 62.1165 18.9025C62.1603 19.0507 62.1927 19.202 62.2132 19.3552L62.4198 20.101C62.7962 21.454 64.3857 24.4032 65.6092 25.1804L65.6484 25.2223C65.6928 25.3557 67.3581 26.7924 67.5856 26.8055L67.6483 26.8735C67.7558 26.9649 67.8744 27.0423 68.0012 27.1038L68.8299 27.5539C69.1332 27.7162 69.6142 27.8575 69.8757 28.025L69.907 28.0485C70.0508 28.0328 70.2364 28.2003 70.3802 28.2212H70.422C70.6396 28.3281 70.874 28.3963 71.1148 28.4227L71.2115 28.4541C71.4607 28.5759 71.7342 28.6395 72.0115 28.6399L72.1579 28.7028C72.1867 28.7263 72.2259 28.7158 72.2599 28.7028L72.4193 28.7263C72.469 28.7734 72.5134 28.7577 72.5814 28.7577L72.6964 28.8022C73.3861 28.9373 74.0855 29.0161 74.7879 29.0377C75.3107 29.0822 75.8179 28.9723 76.3277 29.0168L76.7276 28.9906L76.7773 28.9435C77.1391 28.9532 77.5006 28.9135 77.8518 28.8257L78.1132 28.7813C78.8321 28.708 79.4491 28.3573 80.1523 28.2369C80.5209 28.1715 81.1431 27.7267 81.3758 27.6848H81.415C81.5877 27.5696 81.7706 27.4706 81.9614 27.3891L82.4843 27.0803C82.5182 27.0593 82.5444 27.0306 82.581 27.0122L82.7875 26.8945C82.8276 26.8772 82.864 26.8523 82.8947 26.8212L82.9339 26.7846C83.0071 26.7427 82.9339 26.7846 82.994 26.7558L83.0777 26.6904C83.8316 26.1852 84.514 25.5805 85.1064 24.8926C88.7977 20.8181 88.6879 15.21 85.7704 10.4604C83.3391 6.50888 81.8307 4.78173 77.1721 3.5544C76.9316 3.4916 76.6832 3.47851 76.4453 3.41832H76.4192L77.2034 2.26428C77.4695 1.85028 77.6962 1.41221 77.8805 0.955829L78.0191 0.641802C78.0492 0.491231 78.1068 0.347512 78.189 0.217865Z" fill="url(#paint4_linear_188_9377)"/>
<path d="M75.1064 30.2986C82.4525 30.2986 88.4077 24.3374 88.4077 16.9839C88.4077 9.63035 82.4525 3.66913 75.1064 3.66913C67.7602 3.66913 61.805 9.63035 61.805 16.9839C61.805 24.3374 67.7602 30.2986 75.1064 30.2986Z" fill="url(#paint5_linear_188_9377)"/>
<path d="M59.9592 17.8294C59.9749 18.0676 59.9958 18.3057 60.0246 18.5438L60.1788 19.8523C60.1796 19.8067 60.1704 19.7616 60.1519 19.72C60.1334 19.6784 60.106 19.6414 60.0716 19.6115L60.022 19.5749C59.8729 19.6115 59.839 19.5618 59.6978 19.5199C59.3831 17.9129 59.3486 16.2635 59.5958 14.6447C59.7494 13.6572 60.0043 12.6881 60.3566 11.753C61.0694 9.89189 62.1276 8.18263 63.4754 6.71548C65.4889 4.51811 68.037 2.88075 70.8712 1.9632C70.8311 2.00549 70.8095 2.06196 70.811 2.12021L71.0725 1.98937C70.6516 2.32956 70.1679 2.41592 69.6974 2.64097C67.3942 3.74792 65.2714 4.89935 63.6218 6.90913C61.1383 9.95257 59.7004 13.8936 59.9592 17.8294Z" fill="#24D0C6"/>
<path d="M71.4347 6.68829L76.8627 11.6763L84.1272 10.4233L81.0607 17.127L84.4971 23.6488L77.174 22.8039L72.0333 28.0875L70.5739 20.8617L63.9603 17.6053L70.3815 13.9844L71.4347 6.68829Z" fill="white"/>
</g>
<defs>
<linearGradient id="paint0_linear_188_9377" x1="49.5" y1="89" x2="101" y2="69" gradientUnits="userSpaceOnUse">
<stop stop-color="#F57118"/>
<stop offset="1" stop-color="#FFC452"/>
</linearGradient>
<linearGradient id="paint1_linear_188_9377" x1="68.5" y1="82" x2="40.5" y2="83.5" gradientUnits="userSpaceOnUse">
<stop stop-color="#FFC452"/>
<stop offset="1" stop-color="#F57118"/>
</linearGradient>
<linearGradient id="paint2_linear_188_9377" x1="75.1084" y1="1.10572" x2="76.3289" y2="3.67271" gradientUnits="userSpaceOnUse">
<stop stop-color="#FF9B1B"/>
<stop offset="1" stop-color="#FFC32E"/>
</linearGradient>
<linearGradient id="paint3_linear_188_9377" x1="71.355" y1="1.37176" x2="78.8828" y2="34.8648" gradientUnits="userSpaceOnUse">
<stop offset="0.01" stop-color="#2CC5B3"/>
<stop offset="0.58" stop-color="#08C7BD"/>
</linearGradient>
<linearGradient id="paint4_linear_188_9377" x1="71.9007" y1="2.54392" x2="76.2276" y2="34.6833" gradientUnits="userSpaceOnUse">
<stop stop-color="#2CC5B3"/>
<stop offset="1" stop-color="#08C7BD"/>
</linearGradient>
<linearGradient id="paint5_linear_188_9377" x1="66.6501" y1="6.28493" x2="83.1811" y2="27.1459" gradientUnits="userSpaceOnUse">
<stop stop-color="#2CA8B5"/>
<stop offset="0.43" stop-color="#20C9BE"/>
<stop offset="1" stop-color="#1FCDBF"/>
</linearGradient>
<clipPath id="clip0_188_9377">
<rect width="100" height="100" fill="white"/>
</clipPath>
</defs>
</svg>
