<svg width="33" height="32" viewBox="0 0 33 32" fill="none" xmlns="http://www.w3.org/2000/svg">
<path d="M22.1361 29V20.1607H17.6474V24.5458H14.4363C14.4363 24.0279 14.2291 23.4754 17.1295 19.6428C17.9582 18.5724 18.8904 17.3984 19.6501 16.3625C21.8254 13.5312 21.8944 12.1846 21.8944 9.38778V7.93758C21.8944 4.62284 19.9263 3 16.6806 3H15.7483C12.2264 3 11.0525 5.38247 11.0525 7.79947V12.3227H15.3685V8.35192C15.3685 7.52324 15.5757 7.17795 16.2317 7.17795C16.8533 7.17795 17.095 7.52324 17.095 8.35192V9.90571C17.095 10.838 17.0604 11.5631 15.8174 13.6348C15.1959 14.6707 14.2636 16.1899 13.6076 17.2948C10.8453 21.8871 10.5 23.2683 10.5 26.3758V29H22.1361Z" fill="#24D0C6"/>
</svg>
