<svg width="33" height="32" viewBox="0 0 33 32" fill="none" xmlns="http://www.w3.org/2000/svg">
<path d="M15.9241 11.0995V8.27487C15.9241 7.39005 16.1963 7.1178 16.7749 7.1178C17.3874 7.1178 17.6597 7.35602 17.6597 8.27487V11.7461C17.6597 12.5628 17.4555 12.8691 16.7068 12.8691H14.5969V17.3953H16.945C17.7277 17.3953 17.7958 17.7016 17.7958 18.4162V23.3508C17.7958 24.1335 17.5236 24.5419 16.877 24.5419C16.2304 24.5419 15.9241 24.1335 15.9241 23.3508V19.3351H11.5V24.4398C11.5 26.7539 12.6911 29 16.4346 29H17.3874C20.4503 29 22.4241 26.9921 22.4241 23.7592V17.4293C22.4241 15.966 21.7775 14.945 20.5524 14.5366C21.3691 14.0602 22.1859 13.1414 22.1859 10.6911V7.86649C22.1859 4.97382 20.6545 3 17.2173 3H16.2644C12.8613 3 11.7723 5.51832 11.7723 7.83246V11.0995H15.9241Z" fill="#24D0C6"/>
</svg>
