<svg width="20" height="20" viewBox="0 0 20 20" fill="none" xmlns="http://www.w3.org/2000/svg">
<g opacity="0.9">
<rect width="20" height="20" rx="10" fill="#1E2128"/>
<path d="M10.0024 7.29822C10.8953 7.29822 11.6191 6.55989 11.6191 5.64911C11.6191 4.73833 10.8953 4 10.0024 4C9.10955 4 8.38574 4.73833 8.38574 5.64911C8.38574 6.55989 9.10955 7.29822 10.0024 7.29822Z" fill="white"/>
<path d="M14.4981 10.747C13.7244 10.2921 12.736 10.563 12.29 11.3522C12.1365 11.6238 12.0675 11.9212 12.0741 12.2131C12.0903 12.9399 11.4495 13.3181 10.8403 12.9428C10.8163 12.9278 10.7916 12.9132 10.7667 12.8995C10.1506 12.5487 10.1509 11.8015 10.7673 11.4509C11.272 11.1721 11.615 10.6267 11.615 10.0002C11.615 9.98743 11.6143 9.97502 11.614 9.9626L11.6146 9.96356C11.5987 9.23578 12.241 8.85789 12.8509 9.2361C13.3393 9.53854 13.9704 9.56688 14.5 9.25457C15.2731 8.79899 15.5377 7.7901 15.0911 7.00152C14.6445 6.21294 13.6555 5.94297 12.8824 6.39854C12.3531 6.71054 12.0625 7.28136 12.0747 7.86364C12.0906 8.58983 11.4505 8.96772 10.8419 8.59301C10.5963 8.43956 10.3079 8.35106 9.99891 8.35106C9.68993 8.35106 9.40156 8.43956 9.15625 8.59269C8.54891 8.96613 7.91067 8.58887 7.92689 7.86428C7.93938 7.28072 7.64725 6.70863 7.11638 6.39695C6.34237 5.94297 5.35396 6.21485 4.90891 7.00439C4.46386 7.79392 4.73039 8.80217 5.50439 9.25616C6.0334 9.56656 6.66259 9.53759 7.15008 9.2361C7.75836 8.85948 8.3991 9.23706 8.38287 9.96292L8.38349 9.96197C8.38349 9.9747 8.38256 9.98743 8.38256 10.0005C8.38256 10.6273 8.72524 11.1724 9.23021 11.4513C9.84692 11.8021 9.84661 12.5502 9.22959 12.9004C9.20462 12.9141 9.18028 12.9288 9.15625 12.9437C8.54891 13.3165 7.91098 12.939 7.92721 12.2144C7.93407 11.9212 7.86447 11.6222 7.70999 11.3497C7.26244 10.5614 6.2734 10.2927 5.50065 10.749C4.72633 11.2052 4.46292 12.2141 4.91016 13.0023C5.3577 13.7906 6.34674 14.0593 7.1195 13.6031C7.12948 13.597 7.13916 13.5906 7.14915 13.5846L7.14821 13.5859C7.75711 13.2089 8.39785 13.5868 8.38131 14.313L8.38193 14.3121C8.38193 14.3254 8.381 14.3391 8.381 14.3525C8.38193 15.2633 9.10631 16.001 9.99922 16C10.8921 15.9991 11.6153 15.2601 11.6143 14.3493C11.6143 14.3372 11.6137 14.3251 11.6134 14.313L11.614 14.314C11.5978 13.5859 12.2404 13.2077 12.8505 13.5859L12.8496 13.5843C12.8608 13.5913 12.8715 13.5983 12.8827 13.605C13.6564 14.0599 14.6448 13.789 15.0908 12.9998C15.5368 12.2106 15.2712 11.2023 14.4975 10.7474L14.4981 10.747Z" fill="white"/>
</g>
</svg>
