<svg width="36" height="36" viewBox="0 0 36 36" fill="none" xmlns="http://www.w3.org/2000/svg">
<g transform="translate(6, 6)">
<path d="M10.8374 6.59098C12.6574 6.59098 14.1328 5.11554 14.1328 3.29549C14.1328 1.47544 12.6574 0 10.8374 0C9.01731 0 7.54187 1.47544 7.54187 3.29549C7.54187 5.11554 9.01731 6.59098 10.8374 6.59098Z" fill="#ff9100"/>
<path d="M19.9947 13.4802C18.4188 12.5732 16.401 13.1095 15.494 14.6855C15.1834 15.2231 15.0398 15.8196 15.0521 16.405C15.0877 17.8619 13.7744 18.6143 12.5336 17.8619C12.4857 17.8386 12.4378 17.8018 12.3789 17.7785C11.1258 17.074 11.1258 15.5815 12.3789 14.8892C13.4062 14.3283 14.1095 13.2421 14.1095 11.9877V11.9165C14.0739 10.4597 15.3872 9.70727 16.6281 10.4597C17.6185 11.0684 18.9085 11.1163 19.9825 10.4952C21.5584 9.58822 22.096 7.57042 21.1877 5.99448C20.2807 4.41853 18.2629 3.88094 16.687 4.7892C15.613 5.41025 15.0153 6.55661 15.0398 7.71402C15.0754 9.17091 13.7621 9.92329 12.5323 9.17091C12.0303 8.86039 11.4461 8.68119 10.8128 8.68119C10.1795 8.68119 9.59523 8.86039 9.09323 9.15864C7.85113 9.89874 6.55012 9.14636 6.58571 7.70175C6.60903 6.53206 6.01253 5.39797 4.93858 4.77693C3.36264 3.8699 1.34484 4.41853 0.437814 5.99448C-0.469213 7.57042 0.0794217 9.58822 1.65537 10.4952C2.72931 11.1163 4.01928 11.0562 5.00977 10.4597C6.25187 9.70727 7.55288 10.4597 7.51729 11.9165V11.9877C7.51729 13.2409 8.20952 14.3283 9.24788 14.8892C10.501 15.5937 10.501 17.0862 9.24788 17.7785C9.20001 17.8018 9.15214 17.8386 9.10428 17.8619C7.86218 18.602 6.56116 17.8496 6.59676 16.405C6.60903 15.8196 6.46543 15.2231 6.15491 14.6744C5.24788 13.0985 3.23008 12.5609 1.65414 13.4692C0.0781945 14.4007 -0.459394 16.4185 0.44886 17.9945C1.35589 19.5704 3.37368 20.108 4.94963 19.1998C4.97295 19.1875 4.98522 19.1764 5.00977 19.1642C6.25187 18.4118 7.55288 19.1642 7.51729 20.6211V20.7045C7.51729 22.5198 8.9975 24 10.8128 24C12.6281 24 14.1083 22.5198 14.1083 20.7045V20.6333C14.0727 19.1764 15.386 18.4241 16.6268 19.1764C16.6502 19.1887 16.6747 19.1998 16.698 19.2243C18.274 20.1313 20.2918 19.595 21.1988 18.019C22.1058 16.4075 21.5695 14.3897 19.9935 13.4827L19.9947 13.4802Z" fill="#ff9100"/>
</g>
</svg>
