<svg width="14" height="14" viewBox="0 0 14 14" fill="none" xmlns="http://www.w3.org/2000/svg">
<g clip-path="url(#clip0_370_65252)">
<circle cx="7" cy="7" r="6.4" stroke="#72EADE" stroke-width="1.2"/>
<path d="M11 4.6C11 4.75353 10.9442 4.90712 10.8326 5.02412L6.26116 9.82412C6.15 9.94187 6.00357 10 5.85714 10C5.71071 10 5.56464 9.94141 5.45321 9.82422L3.1675 7.42422C3.05589 7.3075 3 7.15375 3 7C3 6.65725 3.26696 6.4 3.57143 6.4C3.71764 6.4 3.86393 6.45859 3.97536 6.57578L5.85714 8.5525L10.025 4.17625C10.1357 4.05869 10.2821 4 10.4286 4C10.7339 4 11 4.25688 11 4.6Z" fill="#72EADE"/>
</g>
<defs>
<clipPath id="clip0_370_65252">
<rect width="14" height="14" fill="white"/>
</clipPath>
</defs>
</svg>
