<svg width="14" height="14" viewBox="0 0 14 14" fill="none" xmlns="http://www.w3.org/2000/svg">
<g clip-path="url(#clip0_522_26746)">
<path d="M11 4.6C11 4.75353 10.9442 4.90712 10.8326 5.02412L6.26116 9.82412C6.15 9.94187 6.00357 10 5.85714 10C5.71071 10 5.56464 9.94141 5.45321 9.82422L3.1675 7.42422C3.05589 7.3075 3 7.15375 3 7C3 6.65725 3.26696 6.4 3.57143 6.4C3.71764 6.4 3.86393 6.45859 3.97536 6.57578L5.85714 8.5525L10.025 4.17625C10.1357 4.05869 10.2821 4 10.4286 4C10.7339 4 11 4.25688 11 4.6Z" fill="#FFDAA7"/>
<path d="M4.59829 1.5C2.48012 2.42626 1 4.54028 1 7C1 10.0417 3.26333 12.5547 6.1977 12.9468" stroke="#FFDAA7" stroke-linecap="round"/>
<path d="M6.10149 0.806038C6.25372 0.829052 6.32396 1.00823 6.22791 1.12856L4.50402 3.28829C4.40797 3.40862 4.21769 3.37985 4.1615 3.23651L3.15307 0.663709C3.09688 0.520367 3.21694 0.369956 3.36917 0.39297L6.10149 0.806038Z" fill="#FFDAA7"/>
<path d="M9.57456 12.5007C11.6929 11.5749 13.1735 9.46119 13.174 7.00147C13.1747 3.84059 10.731 1.25008 7.62958 1.01724" stroke="#FFDAA7" stroke-linecap="round"/>
<path d="M8.07076 13.1944C7.91854 13.1713 7.84834 12.9921 7.94441 12.8718L9.66876 10.7125C9.76483 10.5921 9.95511 10.621 10.0113 10.7643L11.0192 13.3373C11.0753 13.4807 10.9552 13.6311 10.803 13.608L8.07076 13.1944Z" fill="#FFDAA7"/>
</g>
<defs>
<clipPath id="clip0_522_26746">
<rect width="14" height="14" fill="white"/>
</clipPath>
</defs>
</svg>
