<svg fill="none" viewBox="0 0 600 600" xmlns="http://www.w3.org/2000/svg"
    class="sc-ed99b3fd-0 jrAENr">
    <path
        d="M0 0 C1.79492967 -0.00374013 3.58985772 -0.00834309 5.38478321 -0.01373065 C10.30047426 -0.02593146 15.21609709 -0.02570362 20.13179982 -0.02334189 C25.4401212 -0.02293298 30.74842094 -0.03398004 36.05673218 -0.04345703 C46.45114042 -0.06005253 56.84552598 -0.06556594 67.23994637 -0.06668179 C75.69255966 -0.06763305 84.14516549 -0.07174726 92.59777641 -0.07808304 C116.57974483 -0.09569232 140.56169537 -0.10492252 164.5436703 -0.10342209 C166.48198492 -0.10330222 166.48198492 -0.10330222 168.4594574 -0.10317993 C170.40014802 -0.10305729 170.40014802 -0.10305729 172.38004451 -0.10293217 C193.33890036 -0.1021196 214.29768428 -0.12125089 235.25651933 -0.14945666 C256.79382946 -0.17821141 278.33110456 -0.1919955 299.86843437 -0.19026911 C311.95312821 -0.18960606 324.03774666 -0.19506125 336.12242317 -0.21662521 C346.41339603 -0.23487119 356.70425935 -0.23915636 366.99524141 -0.22560637 C372.24090889 -0.2190937 377.48636643 -0.21889785 382.7320137 -0.23631287 C387.54434858 -0.25212427 392.35630846 -0.24909819 397.16863465 -0.2317446 C398.89944945 -0.22869235 400.63029282 -0.23223924 402.36107392 -0.24346475 C429.3184435 -0.40657264 453.01635624 8.56988806 472.54710388 27.43148804 C485.14757634 40.13696443 493.80717741 54.9718615 498.35960388 72.26742554 C498.5322217 72.9037316 498.70483951 73.54003766 498.88268816 74.19562572 C500.89314571 82.68609736 500.64417164 91.24236866 500.62702942 99.90782166 C500.63076955 101.70275133 500.63537251 103.49767938 500.64076006 105.29260486 C500.65296088 110.20829591 500.65273303 115.12391875 500.65037131 120.03962147 C500.6499624 125.34794286 500.66100945 130.65624259 500.67048645 135.96455383 C500.68708195 146.35896208 500.69259536 156.75334764 500.69371121 167.14776803 C500.69466247 175.60038132 500.69877667 184.05298714 500.70511246 192.50559807 C500.72272173 216.48756649 500.73195194 240.46951703 500.73045151 264.45149196 C500.73033164 266.38980657 500.73033164 266.38980657 500.73020935 268.36727905 C500.73012759 269.6610728 500.73004583 270.95486655 500.72996159 272.28786617 C500.72914902 293.24672201 500.74828031 314.20550593 500.77648608 335.16434098 C500.80524083 356.70165112 500.81902492 378.23892621 500.81729853 399.77625602 C500.81663548 411.86094986 500.82209067 423.94556832 500.84365463 436.03024483 C500.86190061 446.32121769 500.86618578 456.612081 500.85263579 466.90306307 C500.84612312 472.14873055 500.84592727 477.39418808 500.86334229 482.63983536 C500.87915368 487.45217024 500.87612761 492.26413012 500.85877402 497.0764563 C500.85572177 498.80727111 500.85926866 500.53811448 500.87049417 502.26889557 C501.03360206 529.22626515 492.05714136 552.92417789 473.19554138 572.45492554 C460.49006499 585.05539799 445.65516792 593.71499906 428.35960388 598.26742554 C427.72329782 598.44004335 427.08699176 598.61266116 426.4314037 598.79050982 C417.94093206 600.80096736 409.38466076 600.5519933 400.71920776 600.53485107 C398.92427809 600.5385912 397.12935004 600.54319416 395.33442456 600.54858172 C390.41873351 600.56078254 385.50311067 600.56055469 380.58740795 600.55819297 C375.27908656 600.55778406 369.97078683 600.56883111 364.66247559 600.57830811 C354.26806734 600.59490361 343.87368178 600.60041702 333.47926139 600.60153286 C325.0266481 600.60248412 316.57404228 600.60659833 308.12143135 600.61293411 C284.13946293 600.63054339 260.15751239 600.6397736 236.17553746 600.63827316 C234.23722285 600.6381533 234.23722285 600.6381533 232.25975037 600.63803101 C230.96595662 600.63794924 229.67216287 600.63786748 228.33916325 600.63778324 C207.38030741 600.63697067 186.42152349 600.65610197 165.46268844 600.68430774 C143.9253783 600.71306249 122.38810321 600.72684657 100.85077339 600.72512019 C88.76607956 600.72445713 76.6814611 600.72991233 64.59678459 600.75147629 C54.30581173 600.76972227 44.01494842 600.77400744 33.72396635 600.76045744 C28.47829887 600.75394477 23.23284134 600.75374892 17.98719406 600.77116394 C13.17485918 600.78697534 8.3628993 600.78394926 3.55057312 600.76659568 C1.81975831 600.76354343 0.08891494 600.76709031 -1.64186615 600.77831583 C-28.59923573 600.94142372 -52.29714847 591.96496301 -71.82789612 573.10336304 C-84.42836857 560.39788665 -93.08796964 545.56298958 -97.64039612 528.26742554 C-97.81301393 527.63111948 -97.98563174 526.99481341 -98.1634804 526.33922535 C-100.17393795 517.84875372 -99.92496388 509.29248242 -99.90782166 500.62702942 C-99.91156178 498.83209974 -99.91616475 497.0371717 -99.9215523 495.24224621 C-99.93375312 490.32655516 -99.93352527 485.41093232 -99.93116355 480.4952296 C-99.93075464 475.18690822 -99.94180169 469.87860848 -99.95127869 464.57029724 C-99.96787419 454.17588899 -99.9733876 443.78150343 -99.97450344 433.38708305 C-99.9754547 424.93446976 -99.97956891 416.48186393 -99.98590469 408.02925301 C-100.00351397 384.04728459 -100.01274418 360.06533405 -100.01124375 336.08335911 C-100.01116383 334.79114937 -100.01108392 333.49893963 -100.01100159 332.16757202 C-100.01091983 330.87377827 -100.01083806 329.57998453 -100.01075383 328.24698491 C-100.00994125 307.28812906 -100.02907255 286.32934514 -100.05727832 265.37051009 C-100.08603307 243.83319996 -100.09981715 222.29592486 -100.09809077 200.75859505 C-100.09742771 188.67390121 -100.10288291 176.58928276 -100.12444687 164.50460625 C-100.14269285 154.21363339 -100.14697802 143.92277007 -100.13342802 133.63178801 C-100.12691535 128.38612053 -100.1267195 123.14066299 -100.14413452 117.89501572 C-100.15994592 113.08268084 -100.15691984 108.27072096 -100.13956626 103.45839477 C-100.13651401 101.72757996 -100.14006089 99.9967366 -100.15128641 98.2659555 C-100.3143943 71.30858592 -91.33793359 47.61067318 -72.47633362 28.07992554 C-59.77085723 15.47945308 -44.93596016 6.81985201 -27.64039612 2.26742554 C-27.00409006 2.09480772 -26.367784 1.92218991 -25.71219593 1.74434125 C-17.2217243 -0.26611629 -8.665453 -0.01714222 0 0 Z "
        fill="#181818" transform="translate(99.64039611816406,-0.267425537109375)"></path>
    <path
        d="M0 0 C1.07509323 -0.02236725 2.15018646 -0.0447345 3.25785828 -0.06777954 C4.42033585 -0.07425507 5.58281342 -0.08073059 6.78051758 -0.08740234 C7.97808182 -0.09975922 9.17564606 -0.11211609 10.40950012 -0.12484741 C12.94726669 -0.14443673 15.48510951 -0.15564978 18.02294922 -0.15917969 C21.89331341 -0.17322468 25.76041552 -0.24049407 29.63012695 -0.31005859 C32.09690948 -0.32246199 34.5637105 -0.33167901 37.03051758 -0.33740234 C38.18287399 -0.36412018 39.33523041 -0.39083801 40.52250671 -0.41836548 C42.15878777 -0.40463394 42.15878777 -0.40463394 43.828125 -0.390625 C45.25350838 -0.4003685 45.25350838 -0.4003685 46.70768738 -0.41030884 C49.87826601 0.49169296 50.96020069 1.31241212 53.35902119 3.46912766 C54.06693705 4.10506847 54.77485292 4.74100929 55.50422078 5.39622104 C59.31501232 8.9034756 63.07945865 12.45615622 66.82385254 16.03414917 C67.70456814 16.8737931 68.58528375 17.71343703 69.4926877 18.57852471 C71.91617692 20.89091036 74.33788201 23.20512794 76.7582736 25.52075362 C78.30922658 27.00445003 79.86074299 28.48755549 81.41231918 29.97060013 C101.13099051 48.82368749 120.69569547 67.83352452 140.19429395 86.91396409 C143.38573332 90.03680476 146.57835983 93.15842916 149.77172852 96.27929688 C150.72492984 97.21091891 150.72492984 97.21091891 151.69738775 98.16136159 C161.94511336 108.17116142 172.29043595 118.07381513 182.67699021 127.93925665 C193.38884765 138.11815117 203.9862317 148.40659176 214.4898591 158.80025589 C220.37262022 164.61534867 226.29376708 170.37255252 232.35014343 176.00707626 C273.60067104 214.46320474 273.60067104 214.46320474 274.89173746 241.31079447 C275.14662694 253.43474293 274.91555359 266.66299977 271.73754883 278.45166016 C269.20669481 280.98251418 268.28235264 280.72569443 264.7722168 280.78979492 C263.73708954 280.8122377 262.70196228 280.83468048 261.63546753 280.85780334 C260.51157623 280.86944016 259.38768494 280.88107697 258.22973633 280.89306641 C257.07514923 280.90683823 255.92056213 280.92061005 254.73098755 280.93479919 C252.28140073 280.95811354 249.83174989 280.97535728 247.38208008 280.98706055 C243.64781238 281.01390664 239.91641116 281.08876397 236.18286133 281.16455078 C233.80267206 281.18121473 231.42246038 281.19497886 229.04223633 281.20556641 C227.37461746 281.25034874 227.37461746 281.25034874 225.67330933 281.29603577 C224.6192691 281.2901091 223.56522888 281.28418243 222.47924805 281.27807617 C221.56150604 281.28758804 220.64376404 281.29709991 219.69821167 281.30690002 C215.03515608 279.95989388 212.16143775 276.78938282 208.73754883 273.45166016 C208.11601173 272.84857308 207.49447464 272.24548601 206.85410309 271.62412357 C204.92203018 269.71702703 203.01636478 267.7865524 201.11572266 265.84814453 C199.63613704 264.34891448 198.15654806 262.84968774 196.67695618 261.35046387 C195.90577265 260.56705124 195.13458912 259.78363861 194.34003639 258.97648621 C190.2273715 254.80266719 186.09914547 250.64426569 181.97387695 246.48291016 C176.73824539 241.199249 171.50733451 235.91112577 166.29150391 230.60791016 C162.061223 226.30756515 157.81660081 222.0218575 153.56189537 217.74568176 C151.94451667 216.11468655 150.33257494 214.47828137 148.72617531 212.83647156 C146.48809541 210.55036918 144.23222981 208.28338426 141.97119141 206.02001953 C141.30978149 205.33546692 140.64837158 204.65091431 139.96691895 203.94561768 C136.59622725 200.41103024 136.59622725 200.41103024 132.06089783 199.32778931 C129.4527053 200.58944718 127.51671775 201.95861305 125.33032227 203.86523438 C124.49321213 204.59427475 123.65610199 205.32331512 122.79362488 206.07444763 C117.96367287 210.43012525 113.18535788 214.8293002 108.48754883 219.32666016 C107.75032656 220.02856413 107.75032656 220.02856413 106.99821091 220.74464798 C90.44486265 236.42853507 90.44486265 236.42853507 84.58422852 257.77441406 C84.74198947 263.44623221 85.37083185 269.00696512 86.50341797 274.56469727 C86.73754883 277.45166016 86.73754883 277.45166016 85.48743534 279.1082859 C82.47909052 281.4177688 78.81046992 280.86657731 75.16699219 280.83984375 C73.85442192 280.84772919 73.85442192 280.84772919 72.51533508 280.85577393 C69.61917339 280.86899204 66.72355998 280.8602302 63.82739258 280.85009766 C61.81864822 280.85211769 59.80990457 280.85502853 57.80116272 280.85879517 C53.59035259 280.86322082 49.37973328 280.85677896 45.16894531 280.84277344 C39.76247717 280.82567048 34.35645542 280.83552832 28.95000362 280.85349083 C24.80225743 280.86431273 20.6546177 280.86088985 16.50686836 280.85310745 C14.51289378 280.8511016 12.51890963 280.85357815 10.52494621 280.86054611 C7.74260583 280.86813563 4.96099663 280.85659223 2.17871094 280.83984375 C1.34904816 280.84591644 0.51938538 280.85198914 -0.3354187 280.85824585 C-2.62538147 280.83261108 -2.62538147 280.83261108 -6.26245117 280.45166016 C-14.82599578 267.60634324 -12.13813764 240.36359185 -9.30704498 225.99189758 C-3.85814142 207.52499482 15.37575508 193.52367184 29.34436035 181.41802979 C35.30465398 176.19240333 41.07236584 170.75626351 46.87163448 165.35347939 C51.37108462 161.16893392 55.89100734 157.01975218 60.50111389 152.9571228 C61.33297714 152.21576584 62.16484039 151.47440887 63.02191162 150.71058655 C64.57664124 149.32802212 66.14269033 147.95804553 67.72160339 146.60316467 C68.40177521 145.99422867 69.08194702 145.38529266 69.7827301 144.75790405 C70.38097375 144.23662619 70.9792174 143.71534832 71.59558964 143.17827415 C72.98349788 141.45028253 72.98349788 141.45028253 72.61397362 138.96599102 C71.66005795 136.22935048 70.71682396 134.94086881 68.66957092 132.91612244 C67.68738838 131.93002739 67.68738838 131.93002739 66.68536377 130.92401123 C65.96274353 130.21891418 65.24012329 129.51381714 64.49560547 128.78735352 C63.73789352 128.03227005 62.98018158 127.27718658 62.19950867 126.4992218 C59.69130072 124.00400204 57.16945802 121.52302732 54.64770508 119.04150391 C52.90413374 117.31047261 51.1615882 115.57840751 49.42002869 113.84535217 C44.83096777 109.28291292 40.23091466 104.73173216 35.62762451 100.18365479 C28.26022754 92.90245224 20.90616716 85.60784127 13.55856133 78.30667305 C10.98736268 75.75594529 8.40945787 73.21214005 5.83082581 70.66893005 C4.25661651 69.1083757 2.68262496 67.54760165 1.10888672 65.98657227 C0.38829071 65.27945099 -0.3323053 64.57232971 -1.07473755 63.84378052 C-2.06114983 62.86191521 -2.06114983 62.86191521 -3.06748962 61.86021423 C-3.92557425 61.0126879 -3.92557425 61.0126879 -4.80099392 60.14803982 C-7.77332394 56.69792166 -8.5137813 53.86003142 -8.53710938 49.36352539 C-8.54664139 48.35245224 -8.5561734 47.34137909 -8.56599426 46.29966736 C-8.56508286 45.21416092 -8.56417145 44.12865448 -8.56323242 43.01025391 C-8.56751755 41.89103043 -8.57180267 40.77180695 -8.57621765 39.6186676 C-8.5819578 37.25416745 -8.58246354 34.88964963 -8.578125 32.52514648 C-8.57496014 28.89943539 -8.59844602 25.27453628 -8.6237793 21.64892578 C-8.62605174 19.35270286 -8.62675604 17.05647773 -8.62573242 14.76025391 C-8.63494217 13.67272324 -8.64415192 12.58519257 -8.65364075 11.46470642 C-8.64741196 10.45678543 -8.64118317 9.44886444 -8.63476562 8.41040039 C-8.63539505 7.52311752 -8.63602448 6.63583466 -8.63667297 5.72166443 C-8.26245117 3.45166016 -8.26245117 3.45166016 -7.06808472 1.66996765 C-4.62632896 0.0224521 -2.93725446 0.0448579 0 0 Z "
        fill="#FDFDFD" transform="translate(167.262451171875,158.54833984375)"></path>
    <path
        d="M0 0 C0.99 0.495 0.99 0.495 2 1 C2.16280949 8.29335874 2.28687754 15.58632039 2.3626852 22.88113403 C2.3990865 26.2692319 2.44838402 29.65607898 2.52807617 33.04345703 C2.613287 36.94596986 2.65276043 40.84672451 2.68359375 44.75 C2.71972275 45.95551514 2.75585175 47.16103027 2.79307556 48.40307617 C2.79556629 53.77621507 2.776359 57.86389575 -0.80004883 62.07055664 C-2.17937288 63.40210968 -3.58220858 64.70948235 -5 66 C-6.34228273 67.37716955 -7.68404616 68.75488406 -9.01694775 70.14113522 C-11.61118332 72.82846169 -14.24981546 75.47182741 -16.8828125 78.12109375 C-17.44384548 78.68620226 -18.00487846 79.25131077 -18.58291245 79.83354378 C-21.54241901 82.8137484 -24.5050728 85.79078369 -27.47021484 88.76538086 C-30.52623095 91.8325421 -33.57037281 94.91122228 -36.61215401 97.99249172 C-38.96297829 100.36942104 -41.32260743 102.7374589 -43.68471909 105.10316658 C-44.81160431 106.23491862 -45.93511269 107.37004362 -47.05511856 108.50860405 C-48.61749561 110.09528405 -50.19197895 111.66890905 -51.77001953 113.23999023 C-52.66157745 114.1374144 -53.55313538 115.03483856 -54.47171021 115.9594574 C-57.13870572 118.11194719 -58.57691848 118.97824978 -62 119 C-63.78547668 117.85917664 -63.78547668 117.85917664 -65 116 C-65.39872742 113.81697083 -65.39872742 113.81697083 -65.43237305 111.25317383 C-65.45216721 110.29240433 -65.47196136 109.33163483 -65.49235535 108.3417511 C-65.49874527 107.30729355 -65.50513519 106.272836 -65.51171875 105.20703125 C-65.52966995 104.14586594 -65.54762115 103.08470062 -65.56611633 101.99137878 C-65.62034524 98.59845975 -65.6541559 95.20568238 -65.6875 91.8125 C-65.7206619 89.5136521 -65.7551505 87.21482294 -65.79101562 84.91601562 C-65.87607882 79.27747079 -65.94437534 73.6389079 -66 68 C-66.91415176 67.99120064 -66.91415176 67.99120064 -67.84677124 67.98222351 C-74.17322316 67.91843349 -80.49915954 67.83405216 -86.82519531 67.73754883 C-89.18808203 67.7042344 -91.55104958 67.67622303 -93.9140625 67.65356445 C-97.30503893 67.6201383 -100.69527016 67.56782853 -104.0859375 67.51171875 C-105.14743011 67.50532883 -106.20892273 67.4989389 -107.30258179 67.49235535 C-108.28344757 67.47256119 -109.26431335 67.45276703 -110.27490234 67.43237305 C-111.14094086 67.42126999 -112.00697937 67.41016693 -112.89926147 67.39872742 C-113.59250519 67.26714737 -114.2857489 67.13556732 -115 67 C-117 64 -117 64 -116.9140625 61.68647766 C-115.72923065 58.20419467 -113.73644368 55.76405549 -111.375 53.01635742 C-110.64723279 52.15232615 -110.64723279 52.15232615 -109.90476322 51.27083969 C-103.4825748 43.71762029 -96.79650533 36.40390435 -90 29.1875 C-89.34913044 28.49383835 -88.69826088 27.8001767 -88.027668 27.085495 C-61.50423615 -0.98562029 -38.99022529 -10.04696476 0 0 Z "
        fill="#EC792F" transform="translate(438,160)"></path>
</svg>
