<svg width="79" height="79" viewBox="0 0 79 79" fill="none" xmlns="http://www.w3.org/2000/svg">
<g clip-path="url(#clip0_2580_6860)">
<path d="M3.68654 54.9733C1.49996 50.1263 0.282776 44.7446 0.282776 39.0804C0.282776 24.8524 7.95972 12.4154 19.4099 5.6687" stroke="white" stroke-width="0.56512" stroke-linecap="round" stroke-linejoin="round"/>
<path d="M10.5941 65.3936C8.47705 63.1114 6.63389 60.5683 5.11676 57.8297" stroke="white" stroke-width="0.56512" stroke-linecap="round" stroke-linejoin="round"/>
<path d="M22.2961 74.0355C19.0923 72.4966 16.1319 70.5274 13.4889 68.2061" stroke="white" stroke-width="0.56512" stroke-linecap="round" stroke-linejoin="round"/>
<path d="M71.3619 60.7508C68.3841 65.1544 64.5196 68.9146 60.0291 71.7793" stroke="white" stroke-width="0.56512" stroke-linecap="round" stroke-linejoin="round"/>
<path d="M63.8197 9.13336C72.4747 16.2452 77.9912 27.0216 77.9912 39.0804C77.9912 45.3489 76.5001 51.2653 73.8571 56.5079" stroke="white" stroke-width="0.56512" stroke-linecap="round" stroke-linejoin="round"/>
<path d="M54.5126 3.46039C56.5861 4.35154 58.5641 5.42092 60.4333 6.6468" stroke="white" stroke-width="0.56512" stroke-linecap="round" stroke-linejoin="round"/>
<g opacity="0.49">
<path d="M52.9609 39.6893C54.7693 41.6368 56.2081 43.9842 57.1254 46.662C60.6074 56.8603 55.1648 67.9497 44.9666 71.4317C34.7683 74.9137 23.6789 69.4712 20.1969 59.2729C17.8017 52.2611 19.6275 44.8319 24.3136 39.7371" stroke="white" stroke-width="0.56512" stroke-linecap="round" stroke-linejoin="round"/>
<path d="M54.7736 37.8288C56.8646 40.0545 58.5295 42.7497 59.5815 45.8274C63.5243 57.3776 57.3558 69.945 45.8012 73.8878C34.251 77.8306 21.6836 71.6621 17.7408 60.1119C14.9804 52.0307 17.167 43.4539 22.6835 37.681" stroke="white" stroke-width="0.56512" stroke-linecap="round" stroke-linejoin="round"/>
<path d="M59.5815 45.8274L60.5335 48.6139C64.4806 60.1684 58.3121 72.7358 46.7576 76.683C35.2074 80.6258 22.64 74.4573 18.6972 62.9027L17.7452 60.1162C21.688 71.6664 34.2554 77.8349 45.8056 73.8921C57.3601 69.945 63.5286 57.3819 59.5858 45.8317L59.5815 45.8274Z" fill="#FF8A4D"/>
<path d="M59.5815 45.8274L60.5335 48.6139C64.4806 60.1684 58.3121 72.7358 46.7576 76.683C35.2074 80.6258 22.64 74.4573 18.6972 62.9027L17.7452 60.1162C21.688 71.6664 34.2554 77.8349 45.8056 73.8921C57.3601 69.945 63.5286 57.3819 59.5858 45.8317L59.5815 45.8274Z" stroke="white" stroke-width="0.56512" stroke-linecap="round" stroke-linejoin="round"/>
</g>
<path opacity="0.49" d="M47.2703 58.4466C47.2703 54.0908 44.0318 52.6302 40.8453 51.6043V47.3007H37.5459V50.5393C35.9158 49.9176 34.742 49.1308 34.742 47.6441C34.742 45.9618 36.4244 45.4097 39.0413 45.4097C41.4713 45.4097 43.1536 45.9618 43.1536 48.3962H46.7052C46.7052 46.7617 46.2053 45.3402 45.3576 44.2099L39.0283 44.7185L32.4164 44.123C31.6382 45.1489 31.1818 46.3704 31.1818 47.6485C31.1818 51.8043 34.3769 53.191 37.5416 54.2169V61.7113C35.5289 61.2766 34.5508 59.8855 34.5508 57.7467H30.9992C30.9992 61.8591 33.8031 64.6673 37.5459 64.8542V68.2189H40.8453V64.8368C44.523 64.4152 47.2703 61.6417 47.2703 58.4597V58.4466ZM40.8453 61.6504V55.308C42.5103 55.9731 43.7144 56.8338 43.7144 58.4466C43.7144 59.9464 42.7841 61.1896 40.8453 61.6504Z" fill="#F95921"/>
<path d="M38.6588 41.906C49.4337 41.906 58.1685 33.1712 58.1685 22.3963C58.1685 11.6214 49.4337 2.8866 38.6588 2.8866C27.8839 2.8866 19.1491 11.6214 19.1491 22.3963C19.1491 33.1712 27.8839 41.906 38.6588 41.906Z" stroke="white" stroke-width="0.56512" stroke-linecap="round" stroke-linejoin="round"/>
<path fill-rule="evenodd" clip-rule="evenodd" d="M46.5965 17.5319L46.0662 16.6234L44.8447 14.5411L48.5093 10.9548L47.1225 9.542L43.7535 12.8414L43.0667 11.7851L46.3531 8.56826L44.9664 7.15546L41.9669 10.0897L40.215 7.38585L33.5423 11.6156V17.3798L28.8083 22.0181L30.195 23.4309L33.5423 20.1489V21.879L31.021 24.3482L32.4077 25.761L33.5423 24.6438V26.6652V37.6328H36.2635V24.4829V13.1979L39.3673 11.2852L43.0406 17.0233L37.6937 21.9529L38.0893 23.018L43.5405 37.6328H46.6357L41.1975 22.5137L46.5965 17.5319Z" fill="#F95921"/>
<path d="M59.5813 15.254C63.5241 26.8042 57.3556 39.3716 45.801 43.3144C34.2508 47.2572 21.6834 41.0887 17.7406 29.5385C13.7935 17.984 19.962 5.4166 31.5122 1.4738C43.0667 -2.47335 55.6341 3.69515 59.5813 15.2497V15.254Z" stroke="white" stroke-width="0.56512" stroke-linecap="round" stroke-linejoin="round"/>
<path d="M59.5813 15.254L60.5333 18.0405C64.4804 29.595 58.3119 42.1625 46.7574 46.1096C35.2072 50.0524 22.6398 43.8839 18.697 32.3294L17.745 29.5429C21.6878 41.0931 34.2552 47.2616 45.8054 43.3188C57.3599 39.3716 63.5284 26.8086 59.5856 15.2584L59.5813 15.254Z" fill="#FF8A4D"/>
<path d="M59.5813 15.254L60.5333 18.0405C64.4804 29.595 58.3119 42.1625 46.7574 46.1096C35.2072 50.0524 22.6398 43.8839 18.697 32.3294L17.745 29.5429C21.6878 41.0931 34.2552 47.2616 45.8054 43.3188C57.3599 39.3716 63.5284 26.8086 59.5856 15.2584L59.5813 15.254Z" stroke="white" stroke-width="0.56512" stroke-linecap="round" stroke-linejoin="round"/>
</g>
<defs>
<clipPath id="clip0_2580_6860">
<rect width="78.2735" height="78.1562" fill="white"/>
</clipPath>
</defs>
</svg>
