<svg width="73" height="72" viewBox="0 0 73 72" fill="none" xmlns="http://www.w3.org/2000/svg">
<g clip-path="url(#clip0_2580_6825)">
<path d="M58.6377 26.969L55.2529 28.2437C55.3474 27.6953 55.42 27.136 55.4708 26.5695C55.627 24.8444 55.5725 23.1339 55.3292 21.4633C53.9637 12.0427 46.6204 3.92946 37.1634 2.24072C30.2014 0.998672 23.737 3.52634 19.6187 8.39282C24.4561 1.73954 32.8489 -1.40188 41.3943 1.10399C50.9239 3.89677 57.708 12.8489 58.6195 22.7017C58.7503 24.1108 58.7612 25.5381 58.6377 26.969Z" fill="#FF8A4D" stroke="white" stroke-width="0.49028" stroke-linecap="round" stroke-linejoin="round"/>
<path d="M55.4706 26.5697C55.4198 27.1362 55.3472 27.6955 55.2527 28.2439L52.5253 29.268C52.7941 28.2693 52.9793 27.2234 53.0773 26.1411C53.248 24.2236 53.1246 22.3278 52.7469 20.4938C52.2675 18.1514 51.3668 15.9215 50.1248 13.9059C47.2303 9.20649 42.5055 5.69827 36.9417 4.70318C27.1216 2.94907 18.4382 9.70767 17.5339 19.7965C17.483 20.3558 17.4576 20.9187 17.4576 21.4744C17.454 23.9875 17.9406 26.4389 18.8304 28.7196L15.9722 27.6447C15.4674 25.945 15.1587 24.1727 15.0716 22.3714C15.0244 21.3763 15.0425 20.374 15.1333 19.368C15.5183 15.0753 17.1453 11.3129 19.6185 8.39299C23.7368 3.52651 30.2012 0.998842 37.1632 2.24088C46.6202 3.92963 53.9635 12.0429 55.329 21.4635C55.5723 23.1341 55.6268 24.8446 55.4706 26.5697Z" stroke="white" stroke-width="0.49028" stroke-linecap="round" stroke-linejoin="round"/>
<path d="M58.6195 22.7017L64.2777 24.8298" stroke="white" stroke-width="0.49028" stroke-linecap="round" stroke-linejoin="round"/>
<path d="M15.0716 22.3714L8.53448 24.8301" stroke="white" stroke-width="0.49028" stroke-linecap="round" stroke-linejoin="round"/>
<path fill-rule="evenodd" clip-rule="evenodd" d="M42.4149 19.3133L37.6392 22.4511L41.2672 33.5024L39.0192 34.3486L36.408 26.6421L34.89 22.1642L34.5377 21.1256L36.408 19.9017L39.2698 18.0277L37.4757 14.7519V14.7483L36.0194 12.0863L33.2739 13.045V34.1489L30.866 33.2446V22.531L29.8601 23.2501L28.6362 21.6703L30.866 20.0833V18.5507L27.9062 20.6643L26.6787 19.0882L29.8818 16.8038L29.8855 16.8002L30.866 16.1029V11.004L36.7712 8.83588L38.3183 11.6396L40.9731 9.7547L42.2006 11.3272L39.2916 13.3973L39.8981 14.4941L42.8797 12.3695L44.1072 13.9493L41.0784 16.1029H41.0748L40.8641 16.2554L41.9464 18.3873L42.4149 19.3133Z" fill="#F95921"/>
<path d="M8.53448 24.83L36.4078 35.3075" stroke="white" stroke-width="0.49028" stroke-linecap="round" stroke-linejoin="round"/>
<path d="M64.2811 42.7306V59.7488C64.2811 60.5042 63.8126 61.1833 63.1045 61.4484C63.1045 61.4484 41.0963 69.7214 37.0434 71.2467C36.633 71.4029 36.179 71.3993 35.7686 71.2467L9.71116 61.452C9.00297 61.1869 8.53448 60.5078 8.53448 59.7524V42.7342" stroke="white" stroke-width="0.49028" stroke-linecap="round" stroke-linejoin="round"/>
<path d="M36.408 42.3855V35.3073L64.2814 24.8298" stroke="white" stroke-width="0.49028" stroke-linecap="round" stroke-linejoin="round"/>
<path d="M54.868 51.8501C54.6864 52.6127 54.5811 53.5352 54.5811 54.6501V64.7245L48.4835 67.0161V56.8764C48.4835 52.5147 50.1069 51.1056 51.5196 50.7351C51.8356 50.6516 52.1406 50.6226 52.413 50.6226C53.4989 50.6226 54.2797 51.0838 54.868 51.8501Z" fill="#FF8A4D"/>
<path d="M66.78 63.7145L60.6824 65.9444C56.3388 64.2302 57.4211 55.18 54.868 51.8498C54.2797 51.0835 53.4989 50.6222 52.413 50.6222C52.1406 50.6222 51.8355 50.6513 51.5196 50.7348L57.2504 48.6284L57.323 48.603C57.7407 48.4505 58.1547 48.396 58.5142 48.396C64.3068 48.396 61.4341 61.6081 66.78 63.7145Z" fill="#FF8A4D"/>
<path d="M17.9444 51.85C18.126 52.6126 18.2313 53.5351 18.2313 54.65C18.2313 64.6009 18.2313 64.797 18.2313 64.797L24.329 67.0886C24.329 67.0886 24.329 66.8235 24.329 56.8726C24.329 52.511 22.7056 51.1019 21.2929 50.7314C20.9769 50.6479 20.6718 50.6188 20.3995 50.6188C19.3136 50.6188 18.5328 51.0801 17.9444 51.8463V51.85Z" fill="#FF8A4D"/>
<path d="M6.03249 63.7145L12.1301 65.9444C16.4736 64.2302 15.3914 55.18 17.9445 51.8498C18.5328 51.0835 19.3136 50.6222 20.3995 50.6222C20.6719 50.6222 20.9769 50.6513 21.2929 50.7348L15.5621 48.6284L15.4894 48.603C15.0718 48.4505 14.6578 48.396 14.2982 48.396C8.50568 48.396 11.3784 61.6081 6.03249 63.7145Z" fill="#FF8A4D"/>
<path d="M54.868 51.8501C54.6864 52.6127 54.5811 53.5352 54.5811 54.6501V64.6518L48.4835 66.9434V56.8764C48.4835 52.5147 50.1069 51.1056 51.5196 50.7351C51.8356 50.6516 52.1406 50.6226 52.413 50.6226C53.4989 50.6226 54.2797 51.0838 54.868 51.8501Z" stroke="white" stroke-width="0.49028" stroke-linecap="round" stroke-linejoin="round"/>
<path d="M66.78 63.7145L60.6824 65.9444C56.3388 64.2302 57.4211 55.18 54.868 51.8498C54.2797 51.0835 53.4989 50.6222 52.413 50.6222C52.1406 50.6222 51.8355 50.6513 51.5196 50.7348L57.2504 48.6284L57.323 48.603C57.7407 48.4505 58.1547 48.396 58.5142 48.396C64.3068 48.396 61.4341 61.6081 66.78 63.7145Z" stroke="white" stroke-width="0.49028" stroke-linecap="round" stroke-linejoin="round"/>
<path d="M17.9444 51.8501C18.126 52.6127 18.2313 53.5352 18.2313 54.6501C18.2313 64.601 18.2313 64.6518 18.2313 64.6518L24.329 66.9434C24.329 66.9434 24.329 66.8272 24.329 56.8764C24.329 52.5147 22.7056 51.1056 21.2929 50.7351C20.9769 50.6516 20.6718 50.6226 20.3995 50.6226C19.3136 50.6226 18.5328 51.0838 17.9444 51.8501Z" stroke="white" stroke-width="0.49028" stroke-linecap="round" stroke-linejoin="round"/>
<path d="M6.03249 63.7145L12.1301 65.9444C16.4736 64.2302 15.3914 55.18 17.9445 51.8498C18.5328 51.0835 19.3136 50.6222 20.3995 50.6222C20.6719 50.6222 20.9769 50.6513 21.2929 50.7348L15.5621 48.6284L15.4894 48.603C15.0718 48.4505 14.6578 48.396 14.2982 48.396C8.50568 48.396 11.3784 61.6081 6.03249 63.7145Z" stroke="white" stroke-width="0.49028" stroke-linecap="round" stroke-linejoin="round"/>
<path d="M36.408 45.0258V67.5641" stroke="white" stroke-width="0.49028" stroke-linecap="round" stroke-linejoin="round"/>
<path d="M36.4078 35.3075L28.2147 48.7085C27.8551 49.3004 27.1251 49.5547 26.4751 49.315L0.95872 39.9488C0.315908 39.7127 0.0471624 38.9501 0.399438 38.3654L8.53082 24.83" stroke="white" stroke-width="0.49028" stroke-linecap="round" stroke-linejoin="round"/>
<path d="M36.408 35.3073L44.6012 48.7083C44.9607 49.3003 45.6907 49.5545 46.3407 49.3148L71.8535 39.9486C72.4963 39.7126 72.765 38.9499 72.4127 38.3652L64.2814 24.8298" stroke="white" stroke-width="0.49028" stroke-linecap="round" stroke-linejoin="round"/>
</g>
<defs>
<clipPath id="clip0_2580_6825">
<rect width="72.8157" height="71.6063" fill="white"/>
</clipPath>
</defs>
</svg>
