<svg width="32" height="32" viewBox="0 0 32 32" fill="none" xmlns="http://www.w3.org/2000/svg">
<path d="M9.66667 9.66667H9.68M27.7867 18.2133L18.2267 27.7733C17.979 28.0213 17.6849 28.218 17.3612 28.3522C17.0374 28.4864 16.6904 28.5554 16.34 28.5554C15.9896 28.5554 15.6426 28.4864 15.3188 28.3522C14.9951 28.218 14.701 28.0213 14.4533 27.7733L3 16.3333V3H16.3333L27.7867 14.4533C28.2833 14.953 28.5621 15.6288 28.5621 16.3333C28.5621 17.0378 28.2833 17.7137 27.7867 18.2133Z" stroke="#24D0C6" stroke-width="2" stroke-linecap="round" stroke-linejoin="round"/>
<path d="M15.2359 19.0228C14.8211 19.468 14.339 19.6979 13.7895 19.7123C13.2401 19.7268 12.7171 19.5027 12.2205 19.0401C11.895 18.7368 11.6712 18.4072 11.5492 18.0514C11.4272 17.6956 11.4078 17.3459 11.4909 17.0022C11.5738 16.6478 11.7517 16.324 12.0248 16.031C12.4448 15.5801 12.9323 15.35 13.4873 15.3407C14.0367 15.3262 14.557 15.5477 15.048 16.0053C15.5446 16.4679 15.8051 16.9738 15.8295 17.5229C15.8538 18.072 15.656 18.572 15.2359 19.0228ZM15.36 12.6006L16.4942 11.3833L18.5226 20.8218L17.3885 22.0391L15.36 12.6006ZM14.4497 18.2903C14.5914 18.1381 14.6381 17.9553 14.5897 17.7417C14.5413 17.5282 14.3764 17.2903 14.095 17.0281C13.8136 16.766 13.5647 16.6183 13.3483 16.5851C13.1319 16.5519 12.9528 16.6113 12.811 16.7635C12.6745 16.91 12.6306 17.0955 12.6792 17.3198C12.7276 17.5333 12.8898 17.7686 13.1656 18.0256C13.4415 18.2827 13.6904 18.4304 13.9124 18.4687C14.1341 18.4963 14.3132 18.4368 14.4497 18.2903ZM21.8579 17.3914C21.4378 17.8423 20.953 18.0749 20.4036 18.0894C19.8594 18.0982 19.339 17.8713 18.8425 17.4087C18.3514 16.9511 18.0937 16.4478 18.0693 15.8987C18.0394 15.3445 18.2319 14.8448 18.6467 14.3996C19.0668 13.9487 19.5543 13.7186 20.1093 13.7093C20.6587 13.6948 21.179 13.9164 21.67 14.3739C22.1666 14.8365 22.427 15.3424 22.4514 15.8915C22.4758 16.4406 22.2779 16.9406 21.8579 17.3914ZM21.0716 16.6589C21.2134 16.5067 21.2601 16.3239 21.2117 16.1103C21.1633 15.8968 20.9984 15.6589 20.717 15.3967C20.4356 15.1346 20.1867 14.9869 19.9703 14.9537C19.7538 14.9205 19.5747 14.98 19.433 15.1321C19.2912 15.2843 19.2445 15.4671 19.2929 15.6807C19.3413 15.8942 19.5062 16.1321 19.7876 16.3943C20.069 16.6564 20.3179 16.8041 20.5343 16.8373C20.7508 16.8705 20.9299 16.811 21.0716 16.6589Z" fill="#24D0C6"/>
</svg>
