<svg width="74" height="74" viewBox="0 0 74 74" fill="none" xmlns="http://www.w3.org/2000/svg">
<path fill-rule="evenodd" clip-rule="evenodd" d="M37 74C57.4345 74 74 57.4345 74 37C74 16.5655 57.4345 0 37 0C16.5655 0 0 16.5655 0 37C0 57.4345 16.5655 74 37 74ZM22.5279 15.1072C22.5279 14.9972 22.6171 14.908 22.7271 14.908H36.0408C36.1508 14.908 36.24 14.9972 36.24 15.1072V28.4209C36.24 28.531 36.1508 28.6202 36.0408 28.6202H22.7271C22.6171 28.6202 22.5279 28.531 22.5279 28.4209V15.1072ZM22.7251 30.144C22.6151 30.144 22.5259 30.2331 22.5259 30.3432V43.6569C22.5259 43.7669 22.6151 43.8561 22.7251 43.8561H36.0388C36.1488 43.8561 36.238 43.7669 36.238 43.6569V30.3432C36.238 30.2331 36.1488 30.144 36.0388 30.144H22.7251ZM22.7251 45.3798C22.6151 45.3798 22.5259 45.469 22.5259 45.579V58.8927C22.5259 59.0028 22.6151 59.092 22.7251 59.092H36.0388C36.1488 59.092 36.238 59.0028 36.238 58.8927V45.579C36.238 45.469 36.1488 45.3798 36.0388 45.3798H22.7251ZM37.9612 30.1439C37.8512 30.1439 37.762 30.2331 37.762 30.3431V43.6568C37.762 43.7669 37.8512 43.8561 37.9612 43.8561H51.2749C51.385 43.8561 51.4742 43.7669 51.4742 43.6568V30.3431C51.4742 30.2331 51.385 30.1439 51.2749 30.1439H37.9612ZM37.762 45.579C37.762 45.4689 37.8512 45.3797 37.9612 45.3797H51.2749C51.385 45.3797 51.4742 45.4689 51.4742 45.579V58.8927C51.4742 59.0027 51.385 59.0919 51.2749 59.0919H37.9612C37.8512 59.0919 37.762 59.0027 37.762 58.8927V45.579Z" fill="#24D0C6"/>
</svg>
