<svg width="32" height="32" viewBox="0 0 32 32" fill="none" xmlns="http://www.w3.org/2000/svg">
<path d="M18.4675 17.7954C18.4675 18.6516 19.1622 19.3459 20.0179 19.3459C20.6192 19.3459 21.1344 19.0003 21.3917 18.5003L21.396 18.5042L24.2263 13.3979L19.2576 16.4448L19.2623 16.4495C18.7904 16.7157 18.4675 17.2153 18.4675 17.7954Z" fill="#24D0C6"/>
<path d="M26.2642 10.4077C24.6754 9.01915 22.6227 8.13252 20.2771 8V10.3561C22.2317 10.4804 23.3834 11.1012 24.5398 12.0699L26.2642 10.4077Z" fill="#24D0C6"/>
<path d="M27.3709 17.0609H29.7243C29.5663 14.7154 28.6488 12.7881 27.2243 11.2087L25.5593 12.8635C26.5624 14.0129 27.2223 15.4972 27.3709 17.0609Z" fill="#24D0C6"/>
<path d="M27.3818 18.2338C27.1328 22.1431 23.894 25.2435 19.9378 25.2435C15.8193 25.2435 12.3456 21.9034 12.3456 17.7854C12.3456 13.8652 15.586 10.6576 19.1043 10.3566V8.00049C14.0223 8.30502 10 12.581 10 17.7956C10 23.2072 14.4644 27.5891 19.876 27.5891C25.1269 27.5891 29.4889 23.3159 29.7395 18.2338H27.3818Z" fill="#24D0C6"/>
<path d="M1 7H13.6" stroke="#24D0C6" stroke-width="2" stroke-linecap="round"/>
<path d="M1 11.5H9.1" stroke="#24D0C6" stroke-width="2" stroke-linecap="round"/>
<path d="M1 16H6.4" stroke="#24D0C6" stroke-width="2" stroke-linecap="round"/>
</svg>
