<svg width="32" height="32" viewBox="0 0 32 32" fill="none" xmlns="http://www.w3.org/2000/svg">
<path d="M26 3.5H6C5.20435 3.5 4.44129 3.81607 3.87868 4.37868C3.31607 4.94129 3 5.70435 3 6.5V25.5C3 26.2956 3.31607 27.0587 3.87868 27.6213C4.44129 28.1839 5.20435 28.5 6 28.5H26C26.7956 28.5 27.5587 28.1839 28.1213 27.6213C28.6839 27.0587 29 26.2956 29 25.5V6.5C29 5.70435 28.6839 4.94129 28.1213 4.37868C27.5587 3.81607 26.7956 3.5 26 3.5ZM27 25.5C27 25.7652 26.8946 26.0196 26.7071 26.2071C26.5196 26.3946 26.2652 26.5 26 26.5H6C5.73478 26.5 5.48043 26.3946 5.29289 26.2071C5.10536 26.0196 5 25.7652 5 25.5V6.5C5 6.23478 5.10536 5.98043 5.29289 5.79289C5.48043 5.60536 5.73478 5.5 6 5.5H26C26.2652 5.5 26.5196 5.60536 26.7071 5.79289C26.8946 5.98043 27 6.23478 27 6.5V25.5Z" fill="#24D0C6"/>
<path d="M22.5 14.5C22.7652 14.5 23.0196 14.3947 23.2071 14.2071C23.3946 14.0196 23.5 13.7652 23.5 13.5C23.5 13.2348 23.3946 12.9805 23.2071 12.7929C23.0196 12.6054 22.7652 12.5 22.5 12.5H11.415L12.705 11.205C12.8688 11.0137 12.9544 10.7676 12.9447 10.516C12.935 10.2643 12.8307 10.0256 12.6526 9.84746C12.4745 9.66937 12.2357 9.56503 11.9841 9.55531C11.7324 9.54559 11.4863 9.6312 11.295 9.79502L8.295 12.795C8.15456 12.9345 8.05869 13.1126 8.01952 13.3066C7.98036 13.5007 7.99967 13.702 8.075 13.885C8.15111 14.0675 8.27961 14.2233 8.44425 14.3328C8.6089 14.4422 8.80229 14.5004 9 14.5H22.5Z" fill="#24D0C6"/>
<path d="M23.5 18H10C9.73478 18 9.48043 18.1054 9.29289 18.2929C9.10536 18.4804 9 18.7348 9 19C9 19.2652 9.10536 19.5196 9.29289 19.7071C9.48043 19.8946 9.73478 20 10 20H21.085L19.795 21.295C19.6903 21.3846 19.6053 21.495 19.5453 21.619C19.4853 21.7431 19.4515 21.8782 19.4462 22.0159C19.4409 22.1537 19.4641 22.291 19.5144 22.4193C19.5646 22.5477 19.6409 22.6642 19.7383 22.7617C19.8358 22.8591 19.9524 22.9354 20.0807 22.9856C20.209 23.0359 20.3463 23.0591 20.4841 23.0538C20.6218 23.0485 20.7569 23.0148 20.881 22.9547C21.005 22.8947 21.1154 22.8097 21.205 22.705L24.205 19.705C24.3454 19.5655 24.4413 19.3874 24.4805 19.1934C24.5196 18.9994 24.5003 18.7981 24.425 18.615C24.3489 18.4325 24.2204 18.2767 24.0557 18.1673C23.8911 18.0578 23.6977 17.9996 23.5 18Z" fill="#24D0C6"/>
</svg>
