<svg width="100" height="100" viewBox="0 0 100 100" fill="none" xmlns="http://www.w3.org/2000/svg">
<g opacity="0.9" clip-path="url(#clip0_124_436)">
<path d="M54.4035 97.7325H54.5459L54.8663 98.5121C55.0989 98.57 55.34 98.5856 55.5782 98.5584V98.6616L55.1652 98.9926C54.8627 99.2845 55.1652 99.5906 55.1652 99.9786H55.0549L54.5637 99.5764L54.343 99.4589C54.1863 99.6459 54.0042 99.8101 53.802 99.9466C53.8832 99.701 53.9229 99.4435 53.9194 99.1848C53.8126 98.9285 53.4531 98.9036 53.4531 98.569C53.6751 98.5385 53.8942 98.4897 54.1081 98.4231L54.4035 97.7325Z" fill="#FF5800"/>
<path d="M95.4877 86.4525C95.6764 86.8085 95.8935 87.3673 96.2352 87.5773L96.8759 88.0401C96.2546 88.4034 95.7515 88.9387 95.4272 89.5813C95.0678 88.9894 94.5739 88.4907 93.9856 88.1255L93.8682 88.0543C94.5523 87.6892 95.1152 87.1326 95.4877 86.4525Z" fill="#F6F7EB"/>
<path d="M31.6728 43.3824L32.1604 45.3259L34.257 45.988L32.1675 46.4009L31.7119 48.3159C31.4414 48.0525 31.2171 46.8209 31.089 46.408C30.4572 46.1944 29.8064 46.0418 29.1455 45.9524L31.1673 45.3153C31.2968 44.6614 31.4656 44.016 31.6728 43.3824Z" fill="#24D0C6"/>
<path d="M6.93096 67.2382L7.3759 67.1564L7.66065 67.3913C7.66065 68.3986 6.05175 70.0396 5.43596 70.7906C6.08379 71.8122 7.21572 72.8445 7.62506 73.9622L7.48624 74.2434C6.47178 74.3039 5.04797 72.4316 4.1047 71.9831L1.41727 74.2825L1.0898 74.343C0.972332 74.2184 0.805035 74.1295 0.733845 73.9871C0.538072 73.5528 2.20036 71.5773 2.5136 71.1395C2.56343 71.0754 2.95142 70.6126 2.95498 70.5735C2.95498 70.2674 0.904701 68.6371 0.730284 68.0142C0.707093 67.837 0.707093 67.6575 0.730284 67.4803L1.00437 67.3059C2.18968 67.7508 3.27178 68.7083 4.23996 69.495C5.05306 68.648 5.9553 67.8914 6.93096 67.2382Z" fill="#FF5800"/>
<path d="M96.7263 46.5184L97.3137 47.8924C97.7942 48.9104 98.6449 49.2343 99.638 49.5867L98.442 50.021C97.2959 50.5442 97.125 51.2846 96.7157 52.3987L96.0038 50.8361C95.5019 50.0032 94.5622 49.8466 93.6865 49.6223L94.9537 49.1276C96.1177 48.5473 96.3348 47.6753 96.7263 46.5184Z" fill="#FF5800"/>
<path d="M0.769755 18.5085C1.15452 18.4508 1.54702 18.4726 1.92304 18.5726C2.17378 18.6757 2.40055 18.8295 2.58918 19.0243C2.77782 19.219 2.92426 19.4506 3.01937 19.7045C3.12793 19.9543 3.17397 20.2269 3.1535 20.4985C3.13304 20.7702 3.04668 21.0328 2.9019 21.2636C2.80061 21.4963 2.6507 21.7047 2.46222 21.8748C2.27374 22.0449 2.05106 22.1726 1.80913 22.2495C1.43612 22.2818 1.06036 22.2566 0.695005 22.1748C0.454064 22.1039 0.229926 21.985 0.036032 21.8254C-0.157862 21.6658 -0.317518 21.4686 -0.433359 21.2458C-0.559377 20.9896 -0.629614 20.7096 -0.639431 20.4243C-0.649249 20.139 -0.598424 19.8548 -0.490313 19.5906C-0.361885 19.3361 -0.184457 19.1095 0.0317819 18.9238C0.248021 18.7381 0.498812 18.597 0.769755 18.5085Z" fill="#FF5800"/>
<path d="M94.4627 -5.66412L90.4796 -0.467232C90.088 0.0560164 88.4364 2.44445 88.0342 2.59039L90.3835 -3.19738C90.9601 -4.5144 91.7717 -5.90973 92.1312 -7.30505L94.4627 -5.66412Z" fill="#FF5800"/>
<path d="M47.1925 79.9244C47.4879 81.2059 47.6588 82.651 48.3173 83.8079C48.7907 84.6372 49.8728 84.7511 50.72 84.9576L52.6741 85.4452C51.5422 85.6624 49.8692 85.8012 48.9046 86.417C47.7905 87.1289 47.4808 89.6846 47.221 90.8806L46.5091 88.1754C46.3997 87.6774 46.2058 87.2019 45.936 86.7694C45.2704 85.8866 42.7324 85.609 41.6396 85.4488C42.9994 85.011 44.4196 84.9184 45.726 84.3026C46.6443 83.0568 46.865 81.4016 47.1925 79.9244Z" fill="#FF5800"/>
<path d="M57.3438 57.5529C58.4472 56.421 59.362 54.9331 60.3587 53.6908L67.0612 45.2441L70.1331 41.2361L72.2474 44.2546C72.7849 44.9949 73.5395 45.8279 73.9453 46.6323L78.8468 53.6374C80.1531 55.4706 90.4258 69.5556 90.5326 70.271H65.8189C65.2103 69.7157 64.6906 68.7369 64.2243 68.0392L60.8855 62.9206L57.3438 57.5529Z" fill="#FF5800"/>
<path d="M60.6571 22.7371C60.8132 22.4678 61.0008 22.2181 61.216 21.9932L62.6398 20.2135L71.9835 8.74114L73.7241 6.58408C74.1541 5.93252 74.6608 5.33499 75.2333 4.80432C74.8871 5.5756 74.4998 6.32774 74.0729 7.05749L71.1826 12.1369L67.5484 18.601L62.9601 26.3073L60.586 30.2904C60.1707 30.9248 59.8212 31.5998 59.543 32.3051L27.7886 74.8021C26.792 75.6244 25.6244 76.2259 24.5245 76.8987L19.9328 79.7463C18.6051 80.5579 17.1777 81.6649 15.7539 82.2771C16.1623 81.6138 16.6229 80.9842 17.1314 80.3941L19.3953 77.3899L27.8171 65.9496L41.5426 47.4402L46.5259 40.8337C47.341 39.7658 48.1205 38.6517 48.9926 37.6301L29.8211 10.7736L52.2709 10.8092L60.6571 22.7371Z" fill="#FF5800"/>
<path d="M59.5581 32.3053C59.9513 31.9592 60.2961 31.5617 60.5832 31.1235L62.2882 28.9202L68.2148 21.2459L75.9425 11.3896L82.2784 3.31661L86.6068 -2.16148L76.8786 17.1311C78.5658 15.4617 80.4809 14.0521 82.2927 12.5286L100.532 -2.1686L102.45 -3.56749C102.793 -3.86183 103.183 -4.09647 103.603 -4.2616L60.1489 54.9544L57.0557 58.9767L50.3532 67.4199C49.3601 68.6657 48.4453 70.1536 47.3418 71.2819L46.8506 70.4846L51.6061 59.4893L36.5707 75.3932L41.1981 64.8356L28.2913 78.554C25.6857 81.277 23.1336 84.1104 20.2966 86.5914C19.6037 87.2651 18.8399 87.8618 18.0186 88.3711L59.5581 32.3053Z" fill="#F6F7EB"/>
<path d="M62.7549 92.6567C62.051 92.123 61.4129 91.5077 60.8541 90.8236C59.4414 89.0045 58.7962 86.7049 59.0565 84.4164C59.3098 82.182 60.4309 80.1366 62.1782 78.7212C63.8341 77.4166 65.9051 76.7533 68.0107 76.8534C70.1164 76.9534 72.1152 77.8101 73.6399 79.2658C74.0352 79.6564 74.4016 80.0751 74.7362 80.5188C74.9192 80.6466 75.0782 80.8056 75.2061 80.9886C75.6201 81.4787 75.9872 82.0066 76.3024 82.5655C76.4059 82.7165 76.4941 82.8775 76.5658 83.046C76.591 83.226 76.6464 83.4005 76.7295 83.5622L76.9467 84.2527C77.2996 85.5068 77.3953 86.8192 77.2279 88.1112L77.0926 88.161V88.186C77.0665 88.3208 77.0534 88.4579 77.0534 88.5953C77.0102 88.8115 76.9519 89.0244 76.879 89.2325C76.4151 90.7082 75.5396 92.0209 74.3553 93.0162L75.3022 95.6075L72.5791 94.2087C70.7962 95.2084 68.6965 95.4825 66.7166 94.9739C65.5059 94.699 64.3918 94.1026 63.4917 93.2476C63.4383 93.1906 63.4276 93.2049 63.3671 93.1728L63.2603 93.0767L63.1963 93.0198C63.2394 93.0269 63.2814 93.0401 63.3208 93.0589V93.0055L62.7549 92.6567Z" fill="#24D0C6"/>
<path d="M67.2037 79.0415H67.2286C68.8696 78.8956 70.6244 79.6039 71.856 80.6397C73.1133 81.7179 73.9043 83.2411 74.0629 84.8898C74.1369 85.7515 74.0398 86.6194 73.7771 87.4435C73.5144 88.2676 73.0914 89.0316 72.5323 89.6916C71.9816 90.3294 71.3105 90.8523 70.5574 91.2304C69.8042 91.6085 68.9839 91.8343 68.1434 91.8949C66.4896 92.0125 64.8519 91.5043 63.5552 90.4711C62.877 89.9281 62.3153 89.2538 61.9037 88.4887C61.4921 87.7236 61.239 86.8833 61.1597 86.0181C61.0035 84.351 61.5085 82.6892 62.5657 81.3908C63.1443 80.7111 63.8523 80.1533 64.6486 79.75C65.4449 79.3467 66.3135 79.1058 67.2037 79.0415Z" fill="#FF5800"/>
<path d="M65.3059 82.5334C65.6143 82.4928 65.9274 82.5061 66.2313 82.5725H66.2919C66.8342 82.7366 67.2977 83.0937 67.5946 83.5763C67.7051 83.3913 67.8391 83.2214 67.9933 83.0709C68.2106 82.8742 68.4646 82.7224 68.7407 82.6241C69.0167 82.5257 69.3095 82.4828 69.6022 82.4978C70.1785 82.5267 70.7199 82.7826 71.1079 83.2097C71.2996 83.4214 71.4468 83.6694 71.541 83.939C71.6351 84.2086 71.6743 84.4944 71.656 84.7794C71.5813 86.0715 70.428 87.2711 69.5203 88.0862C68.9198 88.6316 68.2784 89.1302 67.6018 89.5777C66.4327 88.8731 65.3876 87.9808 64.5085 86.9365C64.0538 86.4405 63.72 85.846 63.5332 85.1995C63.4005 84.6311 63.4951 84.0333 63.7966 83.5336C63.9658 83.272 64.1872 83.0482 64.4469 82.876C64.7066 82.7039 64.999 82.5873 65.3059 82.5334Z" fill="white"/>
<path d="M0.705078 38.4525C1.17 37.8487 1.72883 37.3236 2.36025 36.897H11.0277C12.5049 36.897 14.071 36.7973 15.5304 36.9611C15.8323 36.9951 16.1247 37.087 16.3918 37.2316L16.4595 37.2636C17.1908 37.6476 17.7455 38.2993 18.0079 39.0825L18.1467 39.7553C18.3033 40.7057 18.1858 41.8198 18.1787 42.788L18.1609 49.0705L18.1823 50.1704C18.1697 50.2756 18.1697 50.382 18.1823 50.4872C18.4 50.8494 18.6605 51.184 18.9583 51.4839C19.9308 52.613 20.8444 53.7916 21.6955 55.0149L20.795 55.9261C20.6691 56.0865 20.5131 56.2207 20.3358 56.3212C19.9386 56.3896 19.5342 56.4064 19.1327 56.3711H16.4951V53.1497C16.4618 52.5496 16.4678 51.9479 16.5129 51.3486C16.4505 51.1082 16.436 50.8578 16.4702 50.6118V49.3019V43.3575L13.8753 43.3148C13.5918 43.2447 13.302 43.203 13.0103 43.1902C13.0277 42.7664 12.9931 42.342 12.9071 41.9266C12.7932 41.4638 12.5832 41.026 12.4977 40.5562C12.4033 39.7851 12.3819 39.0069 12.4337 38.2318H5.05124C3.88372 38.2318 2.63433 38.1393 1.49173 38.2318C1.22294 38.2795 0.959472 38.3535 0.705078 38.4525Z" fill="#009B86"/>
<path d="M16.5202 56.3746V53.1533C16.4869 52.5532 16.4929 51.9515 16.538 51.3522L19.3856 54.9829C19.6526 55.3388 20.2328 55.9226 20.368 56.3213C19.9708 56.3896 19.5664 56.4064 19.1649 56.3711L16.5202 56.3746Z" fill="#FF5800"/>
<path d="M13.0104 43.1938C13.0278 42.77 12.9931 42.3456 12.9072 41.9302C12.7932 41.4674 12.5832 41.0296 12.4978 40.5598C12.4034 39.7887 12.3819 39.0105 12.4337 38.2354C13.6724 38.2354 14.7189 38.1108 15.6729 39.0434C16.6268 39.976 16.5058 41.3073 16.5058 42.5673V43.3575L13.8753 43.3148C13.5917 43.2459 13.302 43.2054 13.0104 43.1938Z" fill="#FF5800"/>
<path d="M13.181 56.3746H4.99409H2.78363C2.30818 56.4001 1.83139 56.3798 1.35982 56.314C0.791804 56.1845 0.271436 55.8984 -0.142287 55.4882C-0.586467 55.0563 -0.890344 54.5006 -1.01437 53.8936C-1.08201 53.4389 -1.10703 52.9789 -1.08912 52.5196V50.569V43.45V43.3681C-0.953857 41.7948 -1.50558 40.0791 -0.0746585 38.9187C0.167713 38.7394 0.42493 38.581 0.694197 38.4453C0.944614 38.3532 1.20326 38.2853 1.46661 38.2424C2.62345 38.1356 3.87284 38.2424 5.02612 38.2424H12.4513C12.3995 39.0175 12.4209 39.7957 12.5153 40.5668C12.6008 41.0366 12.8108 41.4744 12.9247 41.9372C13.0107 42.3526 13.0453 42.777 13.0279 43.2008C13.3133 43.2112 13.597 43.2494 13.8751 43.3147L16.5055 43.3539V49.3018V50.6117C16.4714 50.8577 16.4859 51.1081 16.5483 51.3485C16.5032 51.9479 16.4972 52.5495 16.5305 53.1496V56.371L13.181 56.3746Z" fill="#FEAE6F"/>
<path d="M12.6892 50.8859H6.76976C5.83716 50.8859 4.82271 50.9678 3.90079 50.8859C3.74548 50.8752 3.59794 50.814 3.48077 50.7115C3.4128 50.6474 3.35948 50.5694 3.32449 50.4827C3.2895 50.3961 3.27367 50.303 3.27806 50.2096C3.28246 50.1163 3.30698 50.025 3.34996 49.9421C3.39294 49.8591 3.45335 49.7865 3.52704 49.7291C3.63419 49.63 3.77008 49.5677 3.91503 49.5511C4.4276 49.5012 4.98288 49.5511 5.50613 49.5511H11.1658C11.6056 49.5279 12.0464 49.5279 12.4863 49.5511C12.5663 49.5604 12.6451 49.5783 12.7213 49.6045C12.8216 49.6794 12.9025 49.7772 12.9572 49.8898C13.012 50.0024 13.0389 50.1265 13.0357 50.2517C13.0326 50.3769 12.9995 50.4994 12.9392 50.6092C12.8789 50.7189 12.7932 50.8126 12.6892 50.8823V50.8859Z" fill="white"/>
<path d="M12.9565 47.7998H6.3999H4.69133C4.3916 47.823 4.09051 47.823 3.79078 47.7998C3.65995 47.7709 3.54234 47.6995 3.45618 47.5969C3.38659 47.53 3.33312 47.4481 3.29982 47.3574C3.26652 47.2668 3.25426 47.1698 3.26397 47.0737C3.27755 46.9574 3.31645 46.8455 3.37795 46.7459C3.43945 46.6462 3.52205 46.5613 3.61992 46.497C4.02745 46.4067 4.44655 46.3803 4.86219 46.4187H6.91247L13.3196 46.4543C13.4452 46.4603 13.5674 46.4969 13.6755 46.5611C13.7557 46.6062 13.826 46.6669 13.8822 46.7397C13.9385 46.8124 13.9796 46.8958 14.003 46.9847C14.0258 47.0655 14.031 47.1502 14.0181 47.2331C14.0052 47.316 13.9745 47.3952 13.9283 47.4652C13.7005 47.7607 13.2947 47.7714 12.9565 47.7998Z" fill="white"/>
<path d="M13.1282 44.5784H6.19068H4.48567C4.15909 44.63 3.82455 44.579 3.52816 44.4325C3.36452 44.308 3.25698 44.1236 3.22916 43.9199C3.21869 43.8374 3.22633 43.7535 3.25153 43.6742C3.27674 43.5949 3.3189 43.5221 3.3751 43.4607C3.5315 43.3095 3.73505 43.2165 3.95174 43.1973C4.92843 43.1397 5.90747 43.1338 6.88478 43.1795H13.0107C13.3028 43.1958 13.5925 43.2411 13.8757 43.3148C14.0647 43.4581 14.192 43.6682 14.2316 43.9021C14.2365 43.9808 14.2252 44.0597 14.1982 44.1338C14.1713 44.2079 14.1293 44.2756 14.075 44.3328C13.8045 44.6247 13.477 44.5748 13.1282 44.5784Z" fill="white"/>
<path d="M13.1808 56.3746C13.0693 55.9535 12.9253 55.5418 12.7501 55.143C12.252 53.7662 12.2307 52.262 12.6896 50.8716C12.7936 50.8018 12.8793 50.7081 12.9396 50.5984C12.9999 50.4887 13.033 50.3661 13.0361 50.2409C13.0393 50.1158 13.0124 49.9917 12.9576 49.8791C12.9029 49.7664 12.822 49.6686 12.7216 49.5937C12.8996 49.0028 12.8427 48.387 12.9566 47.7855C13.3125 47.757 13.7005 47.7463 13.9248 47.4295C13.971 47.3595 14.0017 47.2803 14.0146 47.1974C14.0275 47.1145 14.0223 47.0297 13.9995 46.949C13.9761 46.8601 13.935 46.7767 13.8787 46.704C13.8225 46.6312 13.7522 46.5705 13.672 46.5254C13.5639 46.4612 13.4417 46.4246 13.3161 46.4186C13.1333 46.373 12.9456 46.3502 12.7572 46.351C12.7359 46.3296 12.7039 46.3118 12.6967 46.2834C12.7809 45.9502 12.894 45.625 13.0349 45.3116C13.0886 45.0952 13.1126 44.8724 13.1061 44.6495V44.5463C13.462 44.5463 13.7824 44.5926 14.0422 44.3043C14.0966 44.2471 14.1385 44.1794 14.1655 44.1053C14.1924 44.0311 14.2038 43.9523 14.1988 43.8736C14.1592 43.6396 14.0319 43.4296 13.8429 43.2863L16.4734 43.3254V49.2733V50.5833C16.4392 50.8293 16.4538 51.0796 16.5161 51.3201C16.471 51.9194 16.465 52.5211 16.4983 53.1212V56.3425L13.1808 56.3746Z" fill="#FE914A"/>
</g>
<defs>
<clipPath id="clip0_124_436">
<rect width="100" height="100" fill="white"/>
</clipPath>
</defs>
</svg>
