<svg width="100" height="100" viewBox="0 0 100 100" fill="none" xmlns="http://www.w3.org/2000/svg">
<g clip-path="url(#clip0_124_220)">
<path d="M74.899 95.2488C74.9736 95.2496 75.0473 95.2659 75.1153 95.2968C75.1832 95.3277 75.244 95.3725 75.2936 95.4282C75.3701 95.5757 75.3872 95.7469 75.3415 95.9066C75.291 95.9739 75.2271 96.0299 75.1538 96.0711C75.0805 96.1122 74.9994 96.1377 74.9157 96.1458C74.838 96.1414 74.7621 96.121 74.6925 96.086C74.623 96.0511 74.5614 96.0022 74.5115 95.9425C74.472 95.8742 74.45 95.7971 74.4475 95.7183C74.445 95.6394 74.462 95.5611 74.4971 95.4904C74.5856 95.3302 74.7387 95.3015 74.899 95.2488Z" fill="#F6F7EB"/>
<path d="M43.7438 5.43204C43.868 5.40069 43.9973 5.39419 44.1241 5.4129C44.2635 5.45401 44.3823 5.54628 44.4566 5.67123C44.499 5.75401 44.5229 5.84502 44.5266 5.93795C44.5303 6.03089 44.5137 6.12352 44.4781 6.20942C44.38 6.41991 44.258 6.46535 44.0595 6.55146C43.9701 6.567 43.8786 6.567 43.7892 6.55146C43.7028 6.53693 43.6205 6.50372 43.5482 6.45415C43.4759 6.40458 43.4153 6.33983 43.3706 6.26443C43.334 6.19068 43.3127 6.11033 43.3077 6.02815C43.3028 5.94597 43.3144 5.86364 43.3419 5.78605C43.4385 5.6314 43.5782 5.50835 43.7438 5.43204Z" fill="#F6F7EB"/>
<path d="M35.5489 61.2237C35.6216 61.2007 35.699 61.1966 35.7738 61.2117C35.8704 61.2198 35.9639 61.2502 36.0469 61.3004C36.1299 61.3506 36.2001 61.4193 36.2522 61.5011C36.3066 61.5911 36.3406 61.692 36.3518 61.7965C36.363 61.9011 36.351 62.0069 36.3167 62.1063C36.2799 62.2083 36.2209 62.3009 36.1439 62.3775C36.067 62.454 35.9741 62.5125 35.8718 62.5488C35.7624 62.5703 35.6503 62.5751 35.5394 62.5631C35.4539 62.5507 35.3721 62.5204 35.2991 62.4743C35.2262 62.4281 35.1638 62.3671 35.116 62.2953C35.0564 62.2123 35.0166 62.1168 34.9996 62.016C34.9826 61.9153 34.9889 61.812 35.0179 61.714C35.0662 61.599 35.1385 61.4957 35.2301 61.4111C35.3218 61.3265 35.4305 61.2626 35.5489 61.2237Z" fill="#F6F7EB"/>
<path d="M19.9564 37.6632C20.048 37.6638 20.139 37.6775 20.2267 37.7039C20.3136 37.7299 20.3939 37.774 20.4623 37.8334C20.5308 37.8928 20.5858 37.966 20.6238 38.0483C20.6664 38.1418 20.6885 38.2434 20.6885 38.3461C20.6885 38.4489 20.6664 38.5504 20.6238 38.6439C20.5783 38.7421 20.512 38.8292 20.4294 38.899C20.3467 38.9689 20.2498 39.0198 20.1454 39.0482C20.0225 39.0731 19.8951 39.064 19.777 39.0219C19.6815 38.9758 19.5959 38.9113 19.5253 38.8321C19.4547 38.7528 19.4004 38.6605 19.3656 38.5602C19.3379 38.4732 19.3282 38.3814 19.3373 38.2905C19.3463 38.1996 19.3739 38.1115 19.4182 38.0316C19.4734 37.9328 19.5507 37.8481 19.644 37.7842C19.7374 37.7202 19.8444 37.6789 19.9564 37.6632Z" fill="#F6F7EB"/>
<path d="M45.1125 87.4177C45.4091 87.4655 45.6387 87.5014 45.83 87.7693C45.8841 87.8527 45.9202 87.9465 45.9361 88.0447C45.952 88.1429 45.9473 88.2433 45.9224 88.3395C45.8974 88.4358 45.8527 88.5258 45.7911 88.6039C45.7295 88.6819 45.6524 88.7463 45.5645 88.793C45.4833 88.8333 45.3947 88.8564 45.3042 88.861C45.2137 88.8655 45.1232 88.8513 45.0383 88.8193C44.8553 88.7494 44.7057 88.6126 44.6198 88.4366C44.57 88.3079 44.5402 88.1724 44.5312 88.0348C44.6636 87.7788 44.8649 87.5651 45.1125 87.4177Z" fill="#F6F7EB"/>
<path d="M30.3494 93.0363C30.4651 93.01 30.5853 93.01 30.701 93.0363C30.8016 93.0565 30.8965 93.0984 30.9791 93.1592C31.0618 93.2199 31.1301 93.298 31.1794 93.3879C31.2556 93.5544 31.2709 93.7424 31.2225 93.9189C31.1881 94.0236 31.1288 94.1184 31.0496 94.1951C30.9704 94.2718 30.8738 94.3281 30.768 94.359C30.6551 94.3849 30.5389 94.393 30.4236 94.383C30.3329 94.3671 30.2465 94.3326 30.1699 94.2815C30.0933 94.2305 30.0281 94.164 29.9786 94.0864C29.9152 93.9951 29.8731 93.8908 29.8553 93.7811C29.8375 93.6714 29.8445 93.5591 29.8758 93.4525C29.9208 93.3536 29.9863 93.2653 30.0679 93.1935C30.1495 93.1218 30.2455 93.0682 30.3494 93.0363Z" fill="#F6F7EB"/>
<path d="M79.0995 44.3606C79.2595 44.3266 79.426 44.3408 79.5779 44.4013C79.6953 44.4819 79.7926 44.5882 79.8625 44.7122C79.9391 44.9075 79.9391 45.1245 79.8625 45.3198C79.8166 45.4211 79.7505 45.5119 79.6682 45.5867C79.5859 45.6616 79.4893 45.7189 79.3842 45.7551C79.2436 45.7827 79.099 45.7827 78.9584 45.7551C78.7908 45.6974 78.6526 45.5763 78.5733 45.4179C78.4891 45.2343 78.478 45.0256 78.5422 44.8342C78.5944 44.719 78.6714 44.6168 78.7678 44.5349C78.8641 44.453 78.9774 44.3935 79.0995 44.3606Z" fill="#F6F7EB"/>
<path d="M94.7787 67.5025C94.9221 67.4713 95.0706 67.4713 95.214 67.5025C95.3222 67.5341 95.423 67.5869 95.5105 67.658C95.598 67.7291 95.6704 67.8169 95.7235 67.9163C95.8147 68.1061 95.8284 68.324 95.7618 68.5238C95.709 68.6556 95.6298 68.7752 95.529 68.8752C95.4282 68.9752 95.308 69.0534 95.1758 69.1051H95.1064L94.7978 69.0907C94.6968 69.0686 94.6017 69.0248 94.5191 68.9625C94.4365 68.9001 94.3684 68.8207 94.3194 68.7295C94.258 68.6216 94.2194 68.5022 94.2063 68.3787C94.1931 68.2553 94.2056 68.1304 94.2429 68.012C94.293 67.8951 94.3664 67.7898 94.4585 67.7022C94.5506 67.6146 94.6595 67.5467 94.7787 67.5025Z" fill="#F6F7EB"/>
<path d="M18.868 7.13748C19.0854 7.101 19.3081 7.11161 19.521 7.16857C19.6589 7.21771 19.7853 7.29465 19.8923 7.39463C19.9993 7.49462 20.0846 7.61551 20.1429 7.74981C20.2073 7.89254 20.2424 8.04675 20.2461 8.20329C20.2498 8.35983 20.222 8.51552 20.1645 8.66113C20.0938 8.8108 19.9939 8.94483 19.8706 9.05533C19.7474 9.16583 19.6033 9.25057 19.4469 9.30456C19.2565 9.33087 19.063 9.32358 18.8752 9.28303C18.7384 9.25314 18.6093 9.19519 18.4961 9.11285C18.3829 9.0305 18.288 8.92556 18.2174 8.80465C18.148 8.68105 18.1036 8.54497 18.0867 8.40419C18.0699 8.26342 18.081 8.12071 18.1193 7.98422C18.2294 7.5441 18.4805 7.35036 18.868 7.13748Z" fill="#F6F7EB"/>
<path d="M29.7702 42.7724C29.8802 42.8059 30.1673 42.9183 30.2654 42.868L30.672 42.99L31.0834 43.1096C31.1808 43.1388 31.281 43.1572 31.3824 43.1646L31.4422 43.2244H31.5618L31.6216 43.2842C31.7506 43.2865 31.8758 43.3283 31.9803 43.4038H32.0999L32.1884 43.478C32.2998 43.5253 32.4174 43.5559 32.5377 43.5689C32.6205 43.5893 32.7007 43.619 32.7769 43.6574C32.8335 43.6812 32.8918 43.7004 32.9515 43.7148C33.0455 43.7442 33.1368 43.7818 33.2242 43.8272C33.3509 43.8822 33.2242 43.8272 33.3605 43.8511C33.4622 43.8762 33.5608 43.9123 33.6547 43.9588C33.7443 44.003 33.8455 44.018 33.9441 44.0018L34.0039 44.0616C34.132 44.0917 34.2576 44.1317 34.3795 44.1812C34.4568 44.2096 34.537 44.2296 34.6186 44.241L34.9272 44.3415C35.0324 44.3646 35.1405 44.371 35.2477 44.3606L35.3362 44.4204H35.5156L35.573 44.3128L35.6017 44.2769L35.6352 44.3463L34.7622 45.7814L34.7024 45.7384L34.7837 45.5805C34.7622 45.4489 34.7191 45.4489 34.6186 45.3652C34.3974 45.2287 34.1548 45.1301 33.9011 45.0734L32.5855 44.65C31.4326 44.2889 30.2175 43.9325 29.0957 43.4899C29.3742 43.3075 29.6054 43.0616 29.7702 42.7724Z" fill="#386C77"/>
<path d="M48.8894 75.7546C48.9073 75.8872 48.9073 76.0215 48.8894 76.1541L46.4305 91.7016C46.4201 91.7762 46.4008 91.8493 46.373 91.9193L47.8321 76.8741C48.1592 76.4777 48.5124 76.1038 48.8894 75.7546Z" fill="#325A67"/>
<path d="M23.9634 49.5941L30.0077 49.6372H31.6558C31.9278 49.6192 32.2008 49.6264 32.4714 49.6587L31.8663 50.6609L22.2627 50.5557C23.0018 50.4552 23.8438 50.5222 24.5948 50.515L24.5661 50.4839H23.2506C23.3115 50.3323 23.3313 50.1673 23.308 50.0056C23.2936 49.8142 23.2243 49.7855 23.0688 49.6755C23.2379 49.6432 23.4115 49.6432 23.5806 49.6755C23.8977 49.7192 24.2188 49.7256 24.5374 49.6946L23.9634 49.5941Z" fill="#05999E"/>
<path d="M53.8907 79.8687C53.8907 79.3282 53.8117 78.5771 53.9433 78.0652C54.0294 77.7232 58.1507 73.4799 58.7128 72.8437L59.8346 76.2545L60.2891 77.6634C60.4316 77.9886 60.5228 78.334 60.5594 78.6871C60.5188 78.5774 60.4597 78.4755 60.3847 78.3858L60.3991 78.2949L60.3249 78.2064L60.3393 78.1155C60.2723 78.0078 60.2604 78.0293 60.2795 77.893L60.179 77.6801C60.0857 77.4936 60.1982 77.7328 60.1455 77.5175C60.1168 77.4098 60.0666 77.3429 60.0403 77.2185C60.0283 77.1563 59.9973 77.0989 59.9829 77.0295C59.9542 76.8788 59.8824 76.7449 59.8465 76.5918C59.8216 76.5101 59.7913 76.4302 59.7557 76.3526L59.7126 76.1732C59.6887 76.0752 59.6432 75.9914 59.6241 75.8934C59.5979 75.7936 59.5618 75.6966 59.5165 75.6039C59.4861 75.5058 59.4614 75.4059 59.4423 75.305L59.3969 75.2165L58.9783 73.9296C58.9415 73.8333 58.9167 73.7329 58.9041 73.6306L58.8898 73.5421L58.7989 73.6019L58.7104 73.6306C58.6267 73.7358 58.6243 73.7598 58.4999 73.81C58.4082 73.854 58.3267 73.9168 58.2607 73.9942C58.1315 74.1233 58.2272 74.0492 58.0837 74.109L57.9043 74.1999L57.756 74.1401L57.6651 74.1999L57.5623 74.2453L56.7681 75.0371C56.7897 75.1423 56.7681 75.1662 56.859 75.2452L56.8423 75.3647L56.859 75.5154V75.7235L56.9188 75.7833V75.8623C56.9092 75.9553 56.9092 76.0491 56.9188 76.1421L56.9786 76.2019V76.2809C56.9636 76.339 56.962 76.3998 56.974 76.4587C56.9861 76.5176 57.0114 76.5729 57.048 76.6205L57.0313 76.7162C57.014 76.8039 57.0198 76.8945 57.048 76.9793L57.1078 77.0391L57.0911 77.1013C57.0762 77.1955 57.0819 77.2918 57.1078 77.3835L57.1676 77.4577V77.5342C57.1581 77.648 57.1581 77.7625 57.1676 77.8763L57.2274 77.9361L57.2107 78.0557C57.2137 78.1427 57.229 78.2288 57.2561 78.3116C57.273 78.3837 57.2779 78.458 57.2705 78.5317C57.268 78.62 57.2834 78.7078 57.3159 78.79C57.347 78.8921 57.347 79.0012 57.3159 79.1033L57.3757 79.2086C57.4427 79.364 57.3542 79.5411 57.4499 79.6702V79.7348C57.4393 79.7964 57.4412 79.8595 57.4556 79.9203C57.47 79.9812 57.4965 80.0385 57.5336 80.0888L57.5168 80.1845C57.4995 80.2722 57.5053 80.3628 57.5336 80.4476L57.5934 80.5074C57.5952 80.601 57.5747 80.6936 57.5336 80.7777L57.5934 80.8662C57.6388 80.9523 57.6221 80.9666 57.5934 81.0551C57.5767 81.1349 57.5825 81.2177 57.6101 81.2943C57.6603 81.5024 57.6651 81.7392 57.6938 81.9521C57.8804 83.3059 59.9087 98.9348 59.9087 98.9348L56.8997 82.531C56.846 82.287 56.8124 82.039 56.7992 81.7895L56.7394 81.6986C56.6629 81.5694 56.706 81.5311 56.694 81.3996C56.6847 81.3532 56.6694 81.3081 56.6485 81.2656C56.6175 81.184 56.6175 81.0937 56.6485 81.0121L56.6031 80.9188C56.559 80.8264 56.5488 80.7214 56.5744 80.6222L56.5002 80.5337L56.5146 80.4428C56.5263 80.3409 56.5106 80.2377 56.4691 80.1438C56.4405 80.0467 56.4356 79.9442 56.4548 79.8448L56.3806 79.7563L56.395 79.6654C56.395 79.5243 56.4117 79.5076 56.3209 79.3975L56.3352 79.3066C56.3538 79.182 56.3276 79.0549 56.2611 78.9478C56.2823 78.8806 56.292 78.8102 56.2898 78.7398C56.2706 78.6273 56.1917 78.7063 56.218 78.5412C56.234 78.4777 56.2354 78.4113 56.2222 78.3471C56.2089 78.2829 56.1813 78.2225 56.1415 78.1705C56.1726 77.9552 56.0841 77.8787 56.096 77.6921C56.0939 77.6011 56.0786 77.5108 56.0506 77.4242C56.0267 77.3361 56.0218 77.244 56.0362 77.1539C55.931 76.9865 56.0171 76.9913 55.9908 76.8262C55.9645 76.6612 55.9071 76.7114 55.9166 76.5559C55.9212 76.5131 55.917 76.4698 55.9043 76.4287C55.8915 76.3875 55.8705 76.3494 55.8425 76.3167C55.8425 76.2306 55.8784 76.1684 55.8281 76.0943L55.7779 76.1517C55.642 76.2689 55.5134 76.3943 55.3928 76.5272C55.321 76.6373 55.4143 76.6014 55.2756 76.7186C55.0481 76.896 54.851 77.1093 54.692 77.35C54.5556 77.5725 54.2925 77.7471 54.137 77.9911L54.0174 78.1107C54.0174 78.3307 54.0772 78.711 53.9576 78.8881C53.9767 79.0668 53.9816 79.2467 53.972 79.4262L53.9433 80.4285L53.8835 80.383C53.9093 80.2127 53.9117 80.0397 53.8907 79.8687Z" fill="#325A67"/>
<path d="M62.8438 64.1921L63.2145 63.752L80.3598 85.9705L79.3839 85.7314C79.073 85.2263 78.7124 84.7535 78.3076 84.3201L76.8126 82.464L67.8836 71.0091L64.7477 66.9284C64.1856 66.1941 63.5518 65.4646 63.0423 64.6896C62.9504 64.5352 62.8833 64.3673 62.8438 64.1921Z" fill="#FE9D27"/>
<path d="M90.7452 81.3852L73.7314 70.2197L76.9869 70.1623C77.4126 70.8536 78.367 71.3583 79.0009 71.8725L83.9139 75.7857L85.9303 77.5079C87.5281 78.7685 89.4297 79.8185 90.7452 81.3852Z" fill="#FEC36D"/>
<path d="M35.9706 79.5722L38.4486 78.9646L36.3079 81.5048L32.1722 86.3246L25.4461 94.1892L22.6404 97.5714C22.0974 98.2459 21.5497 99.0639 20.9062 99.6356C21.0211 99.1883 21.3535 98.8295 21.6238 98.466L22.7385 96.9519L25.0491 93.8591L31.0935 85.8294L35.6381 80.2443C35.82 80.063 35.9369 79.8267 35.9706 79.5722Z" fill="#FF5800"/>
<path d="M18.8441 50.5437H9.77868C10.0527 50.9706 10.2827 51.4242 10.4652 51.8976L4.48535 49.9194L10.4843 47.9724C10.2731 48.5179 10.0287 49.0499 9.75238 49.5654L9.70931 49.6348L19.5497 49.5822H23.9771L24.5679 49.6826C24.2494 49.7137 23.9283 49.7072 23.6112 49.6635C23.4421 49.6312 23.2684 49.6312 23.0993 49.6635C23.25 49.7735 23.3194 49.8022 23.3385 49.9936C23.3618 50.1553 23.342 50.3203 23.2811 50.472H24.5966L24.6253 50.5031C23.8743 50.5031 23.0323 50.4433 22.2932 50.5437H18.8441Z" fill="#24D0C6"/>
<path d="M41.1132 64.2279L41.338 64.2518C41.2764 64.5127 41.1756 64.7627 41.039 64.9933C40.5404 66.0489 39.9765 67.0722 39.3503 68.0574C38.8719 68.3492 38.4797 68.9352 38.1233 69.3754L35.4921 72.8365L29.2731 81.0886L27.472 83.27L26.1086 84.777C25.8632 85.0155 25.6486 85.2839 25.47 85.5759L24.207 85.949L35.7433 71.0282L39.5704 66.1032C40.0536 65.4885 40.5415 64.7661 41.1132 64.2279Z" fill="#FE9D27"/>
<path d="M41.1126 64.2279L44.0403 64.1777L38.5389 72.3102L35.7403 76.8549L34.3626 79.1225C34.1716 79.417 34.0113 79.7304 33.8842 80.0577C33.4058 80.4691 32.583 80.7107 31.9922 80.9284L35.5586 75.1877L37.7567 71.1621C38.2901 70.1838 39.0173 69.1027 39.3498 68.0407C39.9759 67.0555 40.5399 66.0321 41.0384 64.9766C41.175 64.746 41.2758 64.496 41.3374 64.2351L41.1126 64.2279Z" fill="#FF5800"/>
<path d="M73.6437 49.8094L90.9564 49.1708V47.274L95.781 49.575L95.8408 49.5989L96.1326 49.7592C94.829 50.594 93.3579 51.2278 91.9993 51.9741C91.8175 52.0746 91.0665 52.5697 90.9469 52.5506V50.4576L72.8232 50.7184L73.6437 49.8094Z" fill="#24D0C6"/>
<path d="M51.6543 35.1164C51.5682 34.3749 51.6185 23.2644 51.6209 22.5181L51.75 17.6601H50.877L51.1712 14.6056L51.8361 8.31007L52.2165 4.67435C52.2665 4.11239 52.3463 3.55349 52.4556 3L54.0989 17.7558L53.2928 17.7247L53.4291 19.8009C53.4321 20.2017 53.4673 20.6017 53.5344 20.9968V35.523C53.4603 36.0014 51.6543 35.1164 51.6543 35.1164Z" fill="#24D0C6"/>
<path d="M67.9551 60.4272C68.3354 60.4272 71.4401 62.6995 72.0883 63.0248L85.33 71.4253L84.512 71.4898L82.6654 71.6381L80.9696 71.7171L91.9365 81.1269L93.7281 82.7271C94.2173 83.116 94.6807 83.5363 95.1154 83.9853L90.7453 81.3852C89.4226 79.8185 87.5282 78.7685 85.9304 77.5079L83.914 75.7857L79.001 71.8725C78.3671 71.3559 77.4128 70.8536 76.987 70.1623H79.4004C79.6767 70.2031 79.9561 70.2199 80.2352 70.2126L77.0564 67.8206L69.7777 62.037L68.6081 61.0802C68.3591 60.8962 68.139 60.6761 67.9551 60.4272Z" fill="#FEEF9E"/>
<path d="M51.6294 81.5194L51.5931 81.0182L53.6777 79L53.5823 82.0691V82.1075L53.2657 88.6316L54 88.6416L52.6402 99C52.5379 98.6401 52.469 98.2736 52.4342 97.904L52.1157 95.8992L51 88.6283C51.225 88.6283 51.6313 88.6901 51.8353 88.6283L51.7343 85.3203L51.7171 84.5584C51.7293 84.4546 51.7228 84.3498 51.698 84.2477L51.6294 81.5194Z" fill="#24D0C6"/>
<path d="M21.136 71.5066L19.7463 71.2674L31.706 64.3906C32.158 64.1514 32.7201 64.2567 33.2176 64.2854L27.6038 68.476L25.1951 70.246L25.7285 70.3154C25.7836 70.2867 25.8266 70.1934 25.8601 70.1384L28.0894 70.4015L28.2472 70.5785L28.13 70.6646L28.2472 70.6862L30.3162 70.966L25.2932 74.1473C25.0068 74.2792 24.7344 74.4395 24.4799 74.6257L22.1765 76.0249L16.1178 79.6726L11.7525 82.2918C10.8484 82.8036 9.92747 83.4877 8.9707 83.8633L24.2503 71.9347C23.9696 71.8627 23.6814 71.8233 23.3916 71.8175L21.136 71.5066Z" fill="#3DFCEF"/>
<path d="M19.1075 -0.856351L16.5625 -4.73605C16.9626 -4.3278 17.332 -3.89048 17.6676 -3.42767L19.263 -1.43998L27.7519 9.50308L29.632 11.9357C29.7704 12.1495 29.9307 12.3483 30.1104 12.5289L33.538 16.9109C33.9542 17.4467 38.0013 22.8572 38.1927 22.9361L38.8026 23.7087L39.2547 23.7398L39.8623 24.5818C39.8119 24.6789 39.7437 24.7657 39.6613 24.8377L39.9005 25.2276C39.513 25.1917 38.8266 24.51 38.4965 24.2708C38.3027 23.8522 32.8515 20.2883 32.0215 19.7262L26.7043 16.0833C26.0321 15.6455 25.3098 15.2963 24.6161 14.8873C24.3602 14.7414 24.011 14.6051 23.8364 14.3659L23.877 14.2056L24.4056 14.3946L30.6246 16.8965C30.5202 16.6838 30.3927 16.4833 30.2443 16.2985L28.9264 14.2869L24.2143 6.99156L21.4038 2.56649L19.1075 -0.856351Z" fill="url(#paint0_linear_124_220)"/>
<path d="M38.7861 23.7087L39.2382 23.7398L39.8457 24.5818C39.7953 24.6789 39.7272 24.7657 39.6448 24.8377L38.7861 23.7087Z" fill="#01040D"/>
<path d="M21.3896 2.57129C21.5171 2.59876 21.6326 2.66572 21.7197 2.76264C22.0087 3.10171 22.2725 3.46146 22.5091 3.83901L24.3365 6.58255L29.747 14.9543C30.1034 15.5403 30.522 16.1 30.8569 16.698L30.9693 16.9372C30.8593 16.9946 30.8067 17.0257 30.6847 16.9587L30.6105 16.8965C30.5061 16.6838 30.3786 16.4833 30.2302 16.2985L28.9122 14.2869L24.2002 6.99157L21.3896 2.57129Z" fill="#FF5800"/>
<path d="M82.2018 2.64066C83.5412 0.789313 85.0721 -0.947224 86.5072 -2.72203L87.6816 -4.15719C87.8036 -4.31027 87.9687 -4.58534 88.1433 -4.66428C87.8419 -4.11413 87.4544 -3.59509 87.1028 -3.07604L85.2897 -0.389905L83.8067 1.78196C83.5736 2.16574 83.3205 2.537 83.0485 2.89421L79.2477 8.9984L75.9564 14.275L74.8155 16.0378C74.5668 16.351 74.3557 16.6921 74.1864 17.0544L83.18 13.0216C83.0772 13.2608 82.8117 13.335 82.6036 13.4737L81.6253 14.1721L78.169 17.0424C78.0198 17.0552 77.8741 17.0941 77.7384 17.1573C76.7816 17.6356 75.9014 18.2264 74.9734 18.7288L69.2495 21.6565L67.0848 22.7376C66.8456 22.8572 66.4485 23.0055 66.2907 23.216C66.1328 23.4265 66.1711 23.6035 65.9893 23.8116L65.7955 23.8857C65.7898 23.7788 65.8249 23.6737 65.8936 23.5915C66.6614 22.4434 67.5967 21.3336 68.441 20.2428L73.464 13.7846L82.2018 2.64066Z" fill="#FE9D27"/>
<path d="M82.5796 3.23626C82.7203 3.09543 82.8816 2.97686 83.058 2.88464L79.2573 8.98884L75.966 14.2654L74.825 16.0283C74.5763 16.3414 74.3652 16.6826 74.196 17.0448C74.0166 17.2553 73.2799 17.4754 73 17.583L79.1185 8.27126L81.1612 5.23112C81.6085 4.58052 82.051 3.80554 82.5796 3.23626Z" fill="#FF5800"/>
<path d="M83.1896 13.0121C83.3816 12.886 83.588 12.7832 83.8043 12.7059L71.6055 27.323L66.4198 32.1523L67.9291 27.9496L70.0412 22.3286L65.9893 23.7997C66.171 23.5916 66.1567 23.3858 66.2906 23.2041C66.4246 23.0223 66.8456 22.8429 67.0847 22.7257L69.2495 21.6445L74.9733 18.7168C75.9014 18.2145 76.7936 17.6117 77.7384 17.1453C77.8741 17.0821 78.0198 17.0433 78.169 17.0305L81.6253 14.1602L82.6036 13.4617C82.8212 13.3254 83.0867 13.2417 83.1896 13.0121Z" fill="#FF5800"/>
<path d="M25.4624 85.5759C25.641 85.2839 25.8556 85.0155 26.101 84.777L27.4644 83.27L29.2656 81.0886L35.4846 72.8365L38.1157 69.3754C38.4721 68.9352 38.8548 68.3492 39.3427 68.0574C39.0103 69.1194 38.2831 70.2101 37.7497 71.1789L35.5515 75.2045L31.9852 80.9451C32.576 80.7274 33.394 80.4859 33.8772 80.0744L35.9677 79.5793C35.9321 79.8348 35.8126 80.0712 35.6281 80.2514L31.0834 85.8366L25.039 93.8663L22.7284 96.959L21.6138 98.4731C21.3411 98.8367 21.0086 99.1907 20.8962 99.6428L18.6239 102.513L16.1865 105.544C16.4001 105.158 16.6399 104.787 16.9041 104.434L18.1479 102.506L21.6569 97.0643C22.4677 95.8181 23.3719 94.536 24.0823 93.2372L29.8564 84.3871C29.4067 84.4014 28.8374 84.6263 28.3997 84.7578L25.4624 85.5759Z" fill="url(#paint1_linear_124_220)"/>
<path d="M75.7435 29.0331C76.6854 28.2303 77.6725 27.482 78.6999 26.7919L83.4838 23.4576L90.4778 18.6139L96.2591 14.8586C96.6609 14.6027 97.9334 13.6626 98.3042 13.61L93.3672 17.571L82.4624 26.9689L84.5673 27.5813C84.8711 27.6554 85.4523 27.897 85.7418 27.8826L86.622 28.1505L72.6866 36.173L69.9 37.7996L68.3046 38.7563C68.0849 38.9152 67.835 39.0275 67.5703 39.0864L77.3222 31.0089C77.5689 30.8374 77.7966 30.6402 78.0015 30.4205C78.2214 30.2685 78.4286 30.0989 78.621 29.9134L79.817 28.8849L75.7435 29.0331Z" fill="#3DFCEF"/>
<path d="M82.4618 26.9689L81.0625 26.6651C81.395 26.3638 81.8207 26.1222 82.1771 25.8399L88.0493 21.1852L91.0105 19.0851L92.4265 18.0159C92.6139 17.8405 92.8268 17.6946 93.058 17.583C93.1607 17.5745 93.2639 17.5745 93.3665 17.583L82.4618 26.9689Z" fill="#24D0C6"/>
<path d="M76.2146 52.95C76.4538 53.1246 76.7169 53.2681 76.7743 53.5934C76.7922 53.6917 76.7884 53.7927 76.7632 53.8894C76.738 53.9861 76.692 54.0761 76.6284 54.1532L76.4131 54.3756C76.2194 54.3062 75.9897 54.4737 75.729 54.3302C75.5486 54.2248 75.4164 54.0532 75.3607 53.8518C75.3176 53.6588 75.3529 53.4566 75.4587 53.2897C75.6525 53.0146 75.906 52.9931 76.2146 52.95Z" fill="#F6F7EB"/>
<path d="M10.934 17.6237L8.69277 15.569C8.23352 15.1552 7.68339 14.7749 7.2959 14.2965L27.6775 27.9951L28.462 28.5883L29.4667 29.2484L26.4289 29.2652C26.0055 29.2652 25.0607 29.1288 24.7139 29.3321L25.4123 29.8703L34.0855 36.893L35.6498 38.2277C35.9568 38.4543 36.2447 38.7054 36.5109 38.9788C35.5161 38.4885 34.557 37.929 33.6406 37.3044C32.8728 36.9624 32.1265 36.4218 31.3993 35.9961L27.6057 33.8194L21.1475 30.0282L17.4544 27.8755L18.8489 27.4975L20.961 26.9426L13.1776 19.6879L13.1035 19.6066C12.7973 19.3674 12.5151 19.0756 12.2328 18.8172L10.934 17.6237Z" fill="#F6F7EB"/>
<path d="M24.7138 29.3322C24.3036 29.0737 23.9156 28.7817 23.5537 28.4591H24.2235L27.5722 28.5333C27.8257 28.5333 28.2251 28.6672 28.4548 28.5811L29.4594 29.2413L26.4216 29.258C26.0054 29.2604 25.0606 29.1288 24.7138 29.3322Z" fill="#FEC36D"/>
<path d="M5.47363 17.0162C5.64274 16.9841 5.81689 16.9906 5.98311 17.0353C6.29264 17.1906 6.57985 17.387 6.83702 17.6189C7.26039 17.937 7.73878 18.2456 8.13345 18.5972L8.26263 18.7288L17.6988 26.2657L13.9985 27.3971L15.0031 27.6937L17.8255 29.4829C18.234 29.7611 18.6589 30.0143 19.098 30.2411L23.6427 33.3315L27.3047 35.9171C27.5846 36.1324 28.0223 36.3716 28.173 36.6897C27.4076 36.3501 26.6613 35.8071 25.9318 35.3814L22.1382 33.2071L15.68 29.4135L11.9868 27.2608L13.3814 26.8828L15.4934 26.3279L7.71008 19.0708L7.63594 18.9919C7.32978 18.7527 7.04753 18.4609 6.76528 18.2002L5.47363 17.0162Z" fill="#FEC36D"/>
<path d="M21.1289 13.1197C21.3681 13.0766 21.7771 13.2967 21.9996 13.4235L22.0259 13.445L23.3558 13.9927L23.8701 14.2104L23.8294 14.3707C24.004 14.6099 24.3532 14.7462 24.6092 14.8921C25.3028 15.2892 26.0252 15.6384 26.6973 16.0881L32.0241 19.719C32.8541 20.2811 38.3053 23.8451 38.4991 24.2637C38.8292 24.5196 39.5156 25.1917 39.9031 25.2204C40.0163 25.3464 40.1143 25.4853 40.195 25.6342L40.1543 25.718C39.9523 25.5993 39.7411 25.4969 39.5228 25.4118L38.1977 24.8019L35.9732 23.9216C35.6314 23.7619 35.2705 23.6469 34.8992 23.5796L38.8722 31.1046C39.3961 31.7982 39.7549 32.7789 40.14 33.5683C40.3504 33.9988 40.9436 34.9149 40.8814 35.3789L40.7714 35.4124C40.2189 34.934 39.719 34.3863 39.2119 33.8696L36.5808 31.1572L27.6732 21.3671L25.4798 18.6546C25.0014 18.0375 24.5374 17.3821 24.0112 16.808L23.9634 16.7578C23.5017 15.99 22.8368 15.2653 22.289 14.5548L21.1289 13.1197Z" fill="#FF5800"/>
<path d="M62.8439 64.1921C62.8832 64.3682 62.9503 64.5369 63.0424 64.692C63.5399 65.467 64.1858 66.1965 64.7479 66.9308L67.8837 71.0115L76.8127 82.4664L78.3077 84.3225C78.7125 84.7559 79.0731 85.2287 79.384 85.7338L73.9759 84.4254L74.825 85.5352L87.1147 103.102L88.3107 104.812C88.4183 104.965 88.6719 105.249 88.6934 105.429C88.4536 105.23 88.244 104.997 88.0715 104.738L86.5287 102.86C86.4522 102.769 86.2632 102.487 86.1723 102.449L66.6327 78.9431L72.3111 80.9379L61.5283 65.742L62.8439 64.1921Z" fill="#FF5800"/>
<path d="M59.9564 5.68559C59.9792 5.4656 60.0299 5.2494 60.1071 5.04216C60.2646 4.3485 60.4798 3.66922 60.7505 3.01141C60.7236 4.00185 60.6043 4.98762 60.3941 5.95587C60.3577 6.57207 60.2842 7.18551 60.1741 7.79287L59.6502 11.73L58.3778 20.9437L57.2774 28.4376C57.6183 28.3002 57.9674 28.1843 58.3227 28.0907C58.0835 28.3586 57.6052 28.4998 57.2942 28.6433L54.876 29.6766L59.9564 5.68559Z" fill="url(#paint2_linear_124_220)"/>
<path fill-rule="evenodd" clip-rule="evenodd" d="M43.7894 53.3303H51.9435L55.3903 48.4054H40.3139L24.8525 26.4905H80.6035L74.5998 35.013L44.2271 35.001L47.6954 39.9164L71.1219 39.9379L52.728 66.041L43.7894 53.3303Z" fill="#FF5800"/>
<path d="M79.8096 26.9043L74.3871 34.6015L43.4332 34.5896L47.4827 40.3302L70.328 40.3493L52.7282 65.3258L44.5813 53.7441H52.159L56.1822 48.0035H40.527L25.6468 26.9139H79.8096M81.3978 26.0887H24.0586L24.9747 27.3875L39.8525 48.4771L40.0917 48.8263H54.5915L51.7212 52.9285H42.9859L43.8996 54.2273L52.0465 65.809L52.7187 66.7658L53.3932 65.809L71.0121 40.8253L71.9258 39.5265H70.3376L47.918 39.5074L45.0214 35.41L74.3847 35.4244H74.8129L75.0521 35.0728L80.4769 27.3755L81.3907 26.0767L81.3978 26.0887Z" fill="#F7F7F7"/>
<path fill-rule="evenodd" clip-rule="evenodd" d="M19.6602 26.4953H21.6096L52.7405 70.6598L83.857 26.4905H85.8017L52.7357 88.3146L19.6602 26.4953Z" fill="#FF5800"/>
<path d="M85.1243 26.9043L52.7448 87.444L20.3462 26.9091H21.3962L52.7304 71.375L84.0647 26.9043H85.1243ZM86.4996 26.0791H83.6413L83.4021 26.4284L52.74 69.9446L22.0684 26.4355L21.8292 26.0863H18.9756L19.6238 27.299L52.0129 87.8315L52.7304 89.1901L53.448 87.8315L85.8419 27.2918L86.4901 26.0791H86.4996Z" fill="#F7F7F7"/>
<path d="M54.826 41.9543C56.3162 42.1385 57.9355 42.0237 59.428 42.0261H68.039C67.8174 42.3239 67.5648 42.5973 67.2855 42.8418L65.4724 44.7553L53.0201 57.765L51.8241 58.9609C51.9485 58.5328 52.2738 58.0544 52.4532 57.6262C52.8742 56.624 53.2689 55.6098 53.7688 54.6411C54.6036 53.0146 55.6488 51.4766 56.6391 49.9386L59.4544 45.547L48.1143 44.7098L54.826 41.9543Z" fill="#FE9E45"/>
<path d="M78.4438 27.4736H76.26L65.3672 34.0634L74.0762 34.0466L78.2692 27.4736" fill="#FE9D27"/>
<path d="M65.0323 61.2428L51.1592 81.0958L52.9005 85.2338C52.9005 85.2338 65.2931 61.2428 65.0323 61.2428Z" fill="#FE9E45"/>
</g>
<defs>
<linearGradient id="paint0_linear_124_220" x1="31.1269" y1="5.87453" x2="24.9378" y2="15.2162" gradientUnits="userSpaceOnUse">
<stop stop-color="#FF9B23"/>
<stop offset="1" stop-color="#FFB22B"/>
</linearGradient>
<linearGradient id="paint1_linear_124_220" x1="23.1123" y1="80.8279" x2="31.9876" y2="92.2051" gradientUnits="userSpaceOnUse">
<stop stop-color="#FF7320"/>
<stop offset="1" stop-color="#FF9421"/>
</linearGradient>
<linearGradient id="paint2_linear_124_220" x1="52.9086" y1="17.1333" x2="62.7263" y2="15.5571" gradientUnits="userSpaceOnUse">
<stop stop-color="#0096A2"/>
<stop offset="1" stop-color="#00B4AF"/>
</linearGradient>
<clipPath id="clip0_124_220">
<rect width="100" height="100" fill="white"/>
</clipPath>
</defs>
</svg>
