<svg width="100" height="100" viewBox="0 0 100 100" fill="none" xmlns="http://www.w3.org/2000/svg">
<g opacity="0.9" clip-path="url(#clip0_124_289)">
<path d="M57.7457 -16.9612L57.4851 -17.0416L57.4541 -16.957C58.1031 -15.6598 58.6298 -14.0813 58.1471 -12.6332C57.8863 -11.8508 57.405 -11.4321 56.7404 -10.9866C55.9183 -11.4136 55.092 -11.8794 54.2284 -12.2178C49.6189 -14.0231 44.4937 -13.8782 39.8129 -12.3988C35.4396 -11.0168 31.2401 -8.42902 27.9655 -5.23236C26.7482 -4.04405 25.6602 -2.68276 24.4134 -1.53874C25.1579 -1.87586 25.9131 -2.25229 26.6906 -2.5072C28.2699 -3.02488 30.0632 -3.0595 31.6315 -2.48033C33.6937 -1.71861 35.0338 -0.149311 35.9136 1.80877C36.4967 3.10601 36.8369 4.52245 37.0787 5.91825C37.6987 9.49835 37.5492 13.1315 36.9966 16.7075C36.8729 17.5073 36.7804 18.3461 36.5764 19.1287C36.4162 19.7434 36.1505 20.3831 35.9215 20.9781L34.5928 24.2377C33.4403 27.3943 32.5527 30.8508 32.2226 34.1989C32.0692 35.7541 31.9691 37.3093 31.9796 38.8725L32.0485 40.3289C32.0561 40.4414 32.1104 40.6994 32.0806 40.7897C32.0611 40.8486 31.8464 41.0335 31.7969 41.0852L31.0097 41.9314C29.241 43.9061 26.984 47.0879 28.1677 49.8711C28.6324 50.9638 29.684 51.6566 30.753 52.0601C32.3622 52.6677 34.1082 52.6969 35.8043 52.6807C38.9183 52.6513 41.832 52.5773 44.7008 54.0054C45.7914 54.5483 46.7496 55.1824 47.5021 56.1532C46.548 57.4539 45.6066 58.562 45.8275 60.3C45.9224 61.0471 46.3187 61.759 46.9189 62.2173L47.0964 62.3425L47.1945 62.4115C48.5541 63.3403 50.5351 63.1812 52.0684 62.8725C53.0386 62.6771 54.0862 62.3564 54.9488 61.8698L55.8008 61.3453C55.8827 61.2903 56.0668 61.1282 56.1516 61.1037C56.2961 61.062 56.7255 61.147 56.8853 61.1622L59.1183 61.3479C61.536 61.5045 64.0021 61.5282 66.4225 61.4027C71.1256 61.1586 75.7764 60.1991 80.3339 59.0688C80.9739 60.3521 81.8054 61.5138 82.6822 62.645C85.7523 66.6055 89.6593 69.6944 94.4424 71.2932C97.6339 72.3599 101.027 72.6494 104.31 71.8297C102.838 71.4021 100.703 70.5138 99.9495 69.0654C99.8335 68.8422 99.7612 68.5819 99.7298 68.3332C99.7205 68.2592 99.717 67.9142 99.6897 67.8721C99.682 67.8605 99.504 67.7763 99.4775 67.7626C99.1669 67.6013 98.8465 67.4446 98.5492 67.2598C97.5474 66.6369 96.7115 65.383 97.1636 64.1728C97.4374 63.4396 97.9659 62.857 98.4045 62.2223C97.4248 61.8827 96.3919 61.6021 95.9132 60.5732C95.6027 59.906 95.7347 59.1287 95.9934 58.4673C96.2604 57.7844 96.6515 57.1517 97.0994 56.5734L89.3931 56.0513C93.3295 54.3977 97.0171 52.3541 100.625 50.0762C102.498 51.0797 104.37 52.1144 106.35 52.895C111.677 54.9948 117.583 55.2104 123.067 53.5568C129.81 51.5236 136.48 46.7311 139.813 40.4398C140.256 39.6032 140.666 38.6989 140.979 37.8052C141.093 37.4823 141.229 37.1561 141.284 36.8172C141.461 36.5653 141.555 35.9155 141.638 35.6062L141.043 36.2039C140.311 36.7641 139.555 37.2399 138.713 37.6199C134.018 39.7384 128.252 40.184 123.208 39.2944C120.912 38.8896 118.76 38.2107 116.586 37.3836L116.59 37.3152C118.446 34.8296 120.337 32.4053 121.761 29.6331L122.85 27.4639C122.88 27.4044 122.878 27.3124 122.939 27.2854C123.081 27.2223 123.798 27.3264 123.992 27.3334C124.901 27.3662 125.816 27.3286 126.722 27.2429C129.679 26.963 132.731 26.3671 135.496 25.2668C141.632 22.8257 146.71 18.2365 149.17 12.031C149.851 10.3137 150.276 8.51573 150.559 6.6929L151.334 0.828953C151.522 -0.25967 151.77 -1.4361 152.216 -2.44931C152.445 -2.97015 152.707 -3.55212 153.041 -4.01226C153.392 -4.49467 153.863 -4.93458 154.304 -5.33207C155.044 -5.99725 155.909 -6.66759 156.78 -7.14772C157.491 -7.53968 158.25 -7.82215 159.005 -8.11626C158.372 -8.33761 157.485 -8.3938 156.809 -8.47699C152.902 -8.9581 149.357 -8.06315 146.237 -5.64686C145.089 -4.7577 143.915 -3.38059 142.528 -2.91163C140.76 -2.31383 138.876 -3.33433 137.066 -2.96497C134.193 -2.37896 133.526 0.977455 132.626 3.28578C132.244 4.26356 131.789 5.172 131.208 6.04547C130.279 7.44019 128.843 8.98724 127.136 9.32798C127.455 9.00279 127.87 8.75657 128.222 8.46251C129.269 7.58903 130.197 6.66472 130.954 5.52514C133.142 2.23245 133.554 -1.99275 132.795 -5.8022C132.123 -9.17448 130.614 -12.2554 128.486 -14.9502C126.679 -17.2389 124.489 -19.3149 122.095 -20.9827C120.076 -22.3887 117.853 -23.5571 115.668 -24.6838C112.579 -26.2767 109.571 -27.8204 106.889 -30.067C103.533 -32.8777 101.981 -37.2984 98.2956 -39.798C97.7484 -40.1692 96.9308 -40.6744 96.2853 -40.8006C96.2241 -40.6563 96.7968 -39.6226 96.8869 -39.3889C97.4539 -37.9181 97.5181 -36.5382 97.302 -34.989C97.018 -32.9534 96.5592 -30.9383 96.3879 -28.8864C96.1719 -26.299 96.2431 -23.6604 96.8039 -21.1178C97.7078 -17.0197 99.9495 -13.131 102.972 -10.2319C105.63 -7.68344 108.634 -5.50263 111.373 -3.04157L113.076 -1.43545C113.254 -1.26281 113.512 -1.07813 113.661 -0.886013C113.777 -0.736858 113.871 -0.218517 113.919 -0.0244961C114.482 2.24892 114.657 5.09965 113.369 7.17636C112.864 7.991 111.998 8.49095 111.076 8.68858C110.235 8.86883 109.033 8.79402 108.302 8.30501C107.903 8.03842 107.492 7.32694 107.249 6.91628C106.344 5.38842 105.65 3.68941 105.211 1.96688C104.906 0.768916 104.737 -0.463753 104.483 -1.67346C104.038 -1.28283 103.709 -0.600919 103.402 -0.0911611L102.708 -0.652079C101.364 -1.93673 101.23 -4.18777 101.191 -5.92483C100.658 -5.43293 100.144 -5.00324 99.5423 -4.5945C99.1716 -4.82295 98.8346 -5.08362 98.5357 -5.4013C96.969 -7.06584 96.118 -9.20703 95.9152 -11.4669C95.8315 -12.4007 95.8717 -13.3281 95.9039 -14.2626C94.8352 -13.127 93.7557 -11.9737 92.0968 -11.8466C91.1646 -11.775 90.1457 -12.129 89.4441 -12.7465L89.3456 -12.8342C88.0326 -13.9841 87.3399 -15.7156 86.8973 -17.364L86.412 -16.4027C86.0654 -15.7627 85.4166 -15.0914 84.6997 -14.9018C84.048 -14.7294 83.4286 -14.8489 82.8603 -15.197C81.3627 -16.1142 80.6271 -17.8674 80.2504 -19.5039C80.0105 -19.2756 79.8346 -18.9368 79.6457 -18.6641C79.047 -17.7989 78.2581 -17.0839 77.2287 -16.7918C75.3018 -16.245 73.1129 -17.5028 71.4879 -18.423L69.2833 -19.9164C69.065 -20.1437 68.7948 -20.3251 68.544 -20.5151C68.7093 -19.6811 68.6491 -18.9098 68.3117 -18.1247C67.9227 -17.2192 67.0825 -16.4677 66.1736 -16.1025C65.0101 -15.6349 63.6488 -15.6543 62.4235 -15.7825C60.7783 -15.9548 59.2709 -16.3055 57.7457 -16.9612Z" fill="#262B34"/>
<path d="M82.5588 60.0792L81.7044 58.7865L81.1689 58.9443C81.2712 59.3332 81.6274 59.8187 81.8766 60.1349L82.5588 60.0792Z" fill="#008A87"/>
<path d="M34.3379 29.4895C33.815 30.8846 33.6599 32.5959 33.503 34.0689C33.3665 35.3504 33.2555 36.6175 33.2525 37.9078C33.251 38.5351 33.2456 39.1853 33.3716 39.8026C33.6006 39.6482 33.9232 39.4857 34.1168 39.2966C34.0181 39.1678 33.9074 39.0313 33.8575 38.8748C33.6848 38.3336 33.7217 37.6205 33.7156 37.0565C33.6971 35.3716 33.7707 33.7269 33.9836 32.0538C34.0911 31.2097 34.3224 30.3386 34.3379 29.4895Z" fill="#FF5800"/>
<path d="M81.8784 60.1343C84.7655 64.3976 88.8434 68.1883 93.6998 70.0603C94.5854 70.4016 95.5147 70.6287 96.4371 70.8466L96.3835 70.7489C96.0654 70.6692 95.7299 70.4786 95.419 70.3563C93.9304 69.7706 92.5711 69.0932 91.2119 68.2457C90.6633 67.9039 90.0714 67.5482 89.6022 67.1026C86.8919 65.2707 84.4342 62.7541 82.5605 60.0786L81.8784 60.1343Z" fill="#24D0C6"/>
<path d="M38.7839 10.6552L38.4312 16.299L39.8868 13.9524L41.0197 12.3649C41.1171 12.2263 41.3178 12.0145 41.3705 11.8661C41.4394 11.6714 41.4204 11.285 41.4333 11.0694C41.487 10.1671 41.4723 9.26636 41.4515 8.36343C41.4375 7.75649 41.4417 7.10289 41.3174 6.50715L38.7839 10.6552Z" fill="#008A87"/>
<path d="M43.7143 10.7685C38.862 15.9069 36.0168 22.7144 34.3414 29.489C34.3259 30.338 34.0946 31.2091 33.987 32.0533C33.7742 33.7263 33.7006 35.3711 33.719 37.0559C33.7252 37.6199 33.6882 38.3331 33.8609 38.8742C33.9109 39.0307 34.0216 39.1672 34.1203 39.296L34.8555 38.9029L34.8499 36.3688C34.944 33.9591 35.2508 31.6101 35.668 29.2378L36.2385 26.1821C37.0362 22.7831 38.3492 19.2973 40.1485 16.2935L41.6319 13.9007L42.7277 12.3207C43.0712 11.855 43.5661 11.3345 43.7143 10.7685Z" fill="white"/>
<path d="M91.6138 57.5302L91.5024 57.5919C91.0744 57.8151 90.3534 57.8421 89.8662 57.9145L87.8118 58.2585C87.5536 58.2998 87.1925 58.3052 86.9619 58.423L89.5533 62.0067L89.5762 62.0586C90.8439 61.7897 92.1237 61.6388 93.3852 61.3187C93.9656 61.1716 94.5358 61.0366 95.0699 60.7586L95.0161 60.445C94.793 59.2478 95.4974 58.2212 96.1312 57.2768L91.6138 57.5302Z" fill="#016B6E"/>
<path d="M47.1452 60.7053C47.4776 61.3003 47.9733 61.6921 48.63 61.8755C50.5978 62.4251 53.1923 61.4688 54.8677 60.4614C56.5602 59.4438 57.5713 58.073 58.0441 56.1413C58.5675 54.0034 58.1024 51.6858 57.9496 49.5187C57.8954 48.7507 57.9276 47.9379 57.8292 47.1798C57.5776 47.7373 57.5241 48.4446 57.4189 49.0485L56.9345 52.5457C56.7231 53.7756 56.3824 54.9739 55.8767 56.1155C55.5885 56.7664 55.2562 57.4373 54.7904 57.9802L54.7044 58.0793C53.3728 59.6367 51.2927 60.7172 49.2799 61.0352C48.4783 61.1618 47.8522 61.1314 47.1452 60.7053Z" fill="#FF5800"/>
<path d="M47.9036 -0.303235C48.5502 1.20671 49.0523 2.60513 49.3873 4.21846C50.5561 3.29459 51.7988 2.33051 53.0821 1.57187C53.7997 1.1477 54.6274 0.818046 55.3139 0.360621C54.8449 -1.08165 54.5247 -2.49167 53.8066 -3.85117L47.9036 -0.303235Z" fill="#008A87"/>
<path d="M41.9929 5.32334C42.2697 7.28386 42.3464 9.23032 42.1015 11.1989C42.9103 10.0292 43.9281 8.9933 44.9361 7.99588C46.0633 6.88062 47.2923 5.71554 48.6201 4.84378C48.3759 3.22251 48.0321 1.59182 47.2855 0.117595L43.9866 3.23405L42.8304 4.46516C42.5653 4.76209 42.317 5.08989 41.9929 5.32334Z" fill="#008A87"/>
<path d="M93.4892 -4.97064L93.7988 -2.68474L94.0909 -1.43247L98.0872 0.768308C98.1706 -0.379881 98.3984 -1.69724 98.8766 -2.75142C98.915 -2.83597 98.9593 -3.01469 99.0374 -3.04982C99.0205 -2.90789 98.9989 -2.78537 98.9585 -2.64776C98.6647 -1.6443 98.2938 0.0425747 98.5864 1.07412L102.134 3.54843C102.312 2.50993 102.668 1.48049 103.152 0.542645C101.95 -0.106471 101.231 -0.856027 100.836 -2.19179C100.565 -3.10916 100.591 -3.96742 100.708 -4.90339C100.364 -4.52532 100.047 -4.1529 99.5948 -3.90024C98.306 -4.11673 97.5097 -4.70357 96.7637 -5.75732C96.402 -6.26827 96.1142 -6.85509 95.8626 -7.42664C95.7647 -7.64893 95.6781 -7.97718 95.5445 -8.17294C94.8135 -7.54879 94.4293 -6.66723 94.0077 -5.82876C93.8628 -5.54045 93.7384 -5.18248 93.4892 -4.97064Z" fill="#008A87"/>
<path d="M99.6396 -37.0858C99.6512 -36.3312 100.37 -35.3509 100.749 -34.6892C101.714 -33.0021 102.632 -31.2851 103.876 -29.7809L105.328 -28.1557C105.587 -27.89 106.004 -27.5874 106.205 -27.2871L106.252 -27.2434C106.708 -26.9805 107.112 -26.624 107.538 -26.315L109.428 -25.0742L112.304 -23.447L113.972 -22.5887C114.334 -22.4022 114.725 -22.2342 115.043 -21.9774C118.446 -20.3328 121.63 -18.0479 124.149 -15.2245C124.565 -14.7574 125.168 -14.1336 125.43 -13.5682L126.735 -11.418C127.09 -10.5668 127.523 -9.75292 127.84 -8.88501C129.163 -5.26897 129.569 -1.24099 128.649 2.52067L128.709 2.4802C128.819 2.37184 128.9 2.04343 128.951 1.89394C129.569 0.096554 129.671 -1.97694 129.631 -3.85998L129.31 -6.2428C128.964 -8.18659 128.389 -10.1131 127.522 -11.8913C126.445 -14.2784 124.709 -16.4337 122.84 -18.2469L120.998 -19.941C115.827 -23.6248 109.186 -25.3878 104.756 -30.0657C103.478 -31.4148 102.419 -33.0221 101.397 -34.5695C100.855 -35.3894 100.315 -36.2745 99.688 -37.0287L99.6396 -37.0858Z" fill="url(#paint0_linear_124_289)"/>
<path d="M48.4191 56.6279C47.7634 57.5743 46.7313 58.9984 46.9556 60.208C46.9834 60.3578 47.0476 60.5847 47.1458 60.7051C47.8528 61.1313 48.4789 61.1617 49.2805 61.0351C51.2933 60.717 53.3734 59.6366 54.705 58.0792L54.791 57.9801C55.2568 57.4371 55.5891 56.7663 55.8773 56.1154C56.383 54.9738 56.7237 53.7755 56.9351 52.5456L57.4195 49.0484C57.5247 48.4445 57.5782 47.7372 57.8298 47.1797C57.9327 46.0044 58.0338 44.8884 58.3904 43.7544C58.0541 43.6244 57.6141 43.6022 57.2542 43.5489C57.1307 43.4932 56.8677 43.482 56.7271 43.4583C55.7192 45.213 54.8929 46.8232 54.632 48.8589C54.3726 50.8836 54.5402 52.7506 53.7151 54.6897C52.9438 56.5019 51.6016 58.1684 49.7316 58.9117C49.2851 59.0892 48.8297 59.235 48.3693 59.0395C48.2298 58.9432 48.165 58.8667 48.0769 58.7223C48.0459 58.472 48.065 58.3006 48.1249 58.0563C48.2176 57.5853 48.4566 57.1057 48.4191 56.6279Z" fill="#FE9B16"/>
<path d="M82.7609 59.4011C83.5633 60.8587 84.6859 62.1356 85.804 63.3598C86.5776 64.207 87.3487 65.0572 88.2135 65.8137C88.4223 65.9963 89.6075 66.9665 89.6004 67.1026C90.0696 67.5482 90.6615 67.9038 91.2101 68.2457C92.5693 69.0932 93.9286 69.7706 95.4172 70.3562C95.7281 70.4786 96.0636 70.6692 96.3817 70.7489L96.4353 70.8466C96.9168 71.0338 97.5322 71.076 98.0465 71.1394C98.9292 71.2482 99.8795 71.3913 100.769 71.3257C100.139 70.7707 99.5605 70.1837 99.1061 69.4716C98.9479 69.2237 98.851 68.9542 98.7513 68.6795C98.7325 68.6279 98.6739 68.3991 98.6407 68.3673C98.5864 68.3153 98.4503 68.2488 98.381 68.2054C97.3801 67.5772 96.4428 66.8514 96.1874 65.6235C95.9413 64.4404 96.3051 63.649 96.938 62.695C96.1269 62.2023 95.4755 61.7585 95.1075 60.8543L95.069 60.7582C94.5348 61.0362 93.9646 61.1713 93.3843 61.3184C92.1228 61.6384 90.8429 61.7893 89.5753 62.0582C89.8815 62.4478 90.3145 62.8043 90.6804 63.1385L93.1246 65.2958L90.9996 64.2502L88.1364 62.6101C87.663 62.3398 87.1602 62.1326 86.7136 61.8158C85.9183 61.4125 85.1329 60.8236 84.4018 60.3136C83.9144 59.9738 83.3686 59.4714 82.7609 59.4011Z" fill="#008A87"/>
<path d="M28.9931 47.7495C28.8633 48.5798 28.9972 49.2971 29.5122 49.9789C29.7984 50.3579 30.1797 50.6741 30.6129 50.8676C31.1469 51.1149 31.7055 51.3218 32.2838 51.4388C32.5347 51.4895 33.1036 51.5117 33.2977 51.6301C34.3744 51.8046 35.44 51.7332 36.5247 51.6919C39.5185 51.5777 42.511 51.5269 45.2438 52.9559C46.1176 53.4127 47.1214 54.1164 47.7191 54.9126L48.2489 55.7528C48.4017 55.7699 48.3926 55.765 48.5162 55.668C48.763 55.4747 49.0496 55.1321 49.0781 54.8069C49.0833 54.7485 49.0647 54.6902 49.0655 54.6317L49.0807 54.5522C49.2044 54.8129 49.1235 55.1139 49.0675 55.3864L49.0728 55.3903L48.419 56.6282C48.4565 57.1061 48.2175 57.5857 48.1248 58.0567C48.0649 58.301 48.0458 58.4724 48.0768 58.7227C48.1649 58.8671 48.2297 58.9436 48.3692 59.0399C48.8296 59.2354 49.285 59.0896 49.7315 58.9121C51.6015 58.1687 52.9437 56.5023 53.715 54.69C54.5401 52.751 54.3725 50.884 54.6319 48.8593C54.8928 46.8236 55.7191 45.2133 56.727 43.4587C56.8676 43.4823 57.1306 43.4936 57.2541 43.5493C57.3324 43.3194 57.3163 43.1865 57.2692 42.9504L53.6283 42.3512L52.7844 42.2978L49.3036 42.1547C45.3497 42.1392 41.4097 42.7322 37.6879 44.089C36.9179 44.3698 36.2004 44.7539 35.4412 45.0583C34.9253 44.9442 34.244 45.3153 33.7764 45.5216C32.8674 46.0458 31.9654 46.6711 31.3679 47.5541L31.3099 47.6408C30.9594 48.1535 30.7926 48.7273 30.5523 49.2939L30.427 49.3415C29.7686 48.9923 29.3701 48.3647 28.9931 47.7495Z" fill="#262B34"/>
<path d="M32.5408 50.1471C31.9686 50.6354 31.3514 50.8139 30.6165 50.8667C31.1505 51.114 31.7091 51.3209 32.2874 51.4379C32.5383 51.4886 33.1072 51.5108 33.3013 51.6292C33.4874 51.3374 33.7397 51.2823 34.049 51.1729C34.7382 50.9288 35.4971 50.85 36.0267 50.304C34.7874 50.2961 33.7708 50.5135 32.5408 50.1471Z" fill="#D71802"/>
<path d="M28.9922 47.7491C28.8623 48.5795 28.9962 49.2968 29.5113 49.9785C29.7975 50.3576 30.1788 50.6738 30.6119 50.8673C31.3468 50.8145 31.9641 50.636 32.5363 50.1477C32.089 49.8624 31.6465 49.5837 31.5393 49.0162C31.4356 48.4675 31.7185 47.964 32.0413 47.5447C32.6538 46.7489 33.5422 46.1341 34.4019 45.6323C34.7402 45.4349 35.1159 45.2735 35.4403 45.058C34.9244 44.9438 34.2431 45.315 33.7755 45.5213C32.8665 46.0455 31.9645 46.6708 31.3669 47.5538L31.3089 47.6405C30.9584 48.1531 30.7917 48.727 30.5513 49.2935L30.426 49.3412C29.7676 48.992 29.3691 48.3644 28.9922 47.7491Z" fill="#FF5800"/>
<path d="M36.0252 50.3043C35.4956 50.8504 34.7367 50.9292 34.0475 51.1732C33.7382 51.2826 33.4859 51.3377 33.2998 51.6296C34.3765 51.804 35.4421 51.7326 36.5268 51.6913C39.5206 51.5771 42.5131 51.5263 45.2459 52.9553C46.1197 53.4121 47.1235 54.1158 47.7212 54.9121L48.251 55.7522C48.4038 55.7693 48.3947 55.7644 48.5183 55.6675C48.7651 55.4741 49.0517 55.1315 49.0802 54.8063C49.0854 54.7479 49.0668 54.6896 49.0676 54.6311L49.0828 54.5517C49.2065 54.8123 49.1256 55.1134 49.0696 55.3858L49.0749 55.3897L48.4211 56.6277C48.4586 57.1055 48.2196 57.5851 48.1269 58.0562C48.067 58.3005 48.0479 58.4718 48.0789 58.7221C48.167 58.8665 48.2318 58.943 48.3713 59.0393C48.4554 58.7686 48.7492 58.6103 48.9645 58.4464L50.1267 57.5252C51.9593 56.0276 53.036 54.127 53.2717 51.7567C49.046 49.5782 43.604 49.7658 38.978 50.0775C38.022 50.1419 36.9574 50.1183 36.0252 50.3043Z" fill="#790602"/>
<path d="M49.0752 55.3897L48.4214 56.6277C48.4589 57.1056 48.2199 57.5852 48.1272 58.0562C48.3561 57.3636 49.3336 56.5041 49.2974 55.8071C49.286 55.5879 49.2429 55.5204 49.0752 55.3897Z" fill="#D71802"/>
<path d="M58.8222 57.6172C58.4855 58.441 58.094 59.2327 57.4703 59.8811C59.8337 60.0312 62.1826 60.1396 64.5523 60.0685C68.281 59.9567 71.9861 59.4599 75.6395 58.7274C79.1777 58.0179 82.6983 57.1043 86.0846 55.8466C91.4765 53.8439 96.5449 51.0436 101.285 47.8026L105.059 45.0942C105.887 44.4934 106.791 43.9054 107.553 43.2234L107.629 43.1536C107.355 43.0378 106.737 43.2487 106.416 43.2951C105.138 43.4797 103.935 43.5681 102.644 43.5542C100.251 43.5285 97.8166 43.1966 95.4988 42.6031L93.663 42.055L92.7054 41.7083C92.6607 41.6918 92.4707 41.6023 92.4265 41.6051C92.3768 41.6083 92.2035 41.8632 92.1719 41.9061C89.6421 45.3385 86.3593 47.9591 82.35 49.4707C80.6793 50.1006 78.2159 50.7666 76.5098 49.9947L76.1528 50.1572L76.1085 50.101C75.5709 50.2852 75.029 50.9798 74.5594 51.34L72.9843 52.4359C71.5882 53.3515 70.1268 54.1521 68.6029 54.834C67.7635 55.2097 66.9102 55.5763 66.0417 55.8808C64.9647 56.2584 59.6037 57.9159 58.8222 57.6172Z" fill="#24D0C6"/>
<path d="M31.1447 -6.55793L27.777 -3.90492C27.4635 -3.63855 27.1098 -3.40398 26.8161 -3.11796C28.7312 -3.92168 30.1825 -3.93969 32.1305 -3.25817C34.3871 -2.46882 35.9039 -0.732736 36.909 1.37484C38.2322 4.14958 38.7474 7.60813 38.7807 10.6556L41.3142 6.50754C41.234 4.29939 40.5833 2.01803 39.6475 0.0273385C39.7476 -0.03929 39.776 -0.0721214 39.8514 -0.159145L39.9592 -0.278275C40.9606 1.463 41.6543 3.3409 41.9918 5.32342C42.3159 5.08997 42.5642 4.76217 42.8293 4.46525L43.9855 3.23414L47.2844 0.117676L46.1407 -2.10141L46.2296 -2.16361L46.1627 -2.28946C46.2619 -2.31969 46.3443 -2.32253 46.4472 -2.32803L46.5148 -2.41084L47.9025 -0.302867L53.8055 -3.8508C54.5235 -2.4913 54.8437 -1.08128 55.3127 0.360989C55.5702 0.318205 55.8334 0.122091 56.0406 -0.0304537C57.7411 -1.10102 59.6442 -1.84329 61.4937 -2.61431C60.9032 -3.6684 60.3012 -4.74506 59.5646 -5.70468C57.6499 -8.08841 55.0233 -10.1287 52.1247 -11.1567C46.9918 -12.977 41.5049 -12.0486 36.7046 -9.7437C34.7946 -8.72589 32.9288 -7.8049 31.1447 -6.55793Z" fill="#24D0C6"/>
<path d="M39.9596 -0.278193L39.4702 -1.03599C37.8291 -3.39073 35.3524 -4.554 32.5975 -5.03771L32.6014 -4.97752L33.5998 -4.72456C35.4539 -4.22698 37.16 -3.32326 38.4087 -1.84389C38.8979 -1.26445 39.2732 -0.629447 39.6479 0.0274201C39.748 -0.0392077 39.7764 -0.0720391 39.8518 -0.159062L39.9596 -0.278193Z" fill="#000207"/>
<path d="M54.3559 -4.11134C53.7779 -5.03931 53.1062 -5.82598 52.3698 -6.6297C51.9539 -7.08384 51.5165 -7.57649 51.0157 -7.93952L50.6182 -8.24493C50.9207 -7.80839 51.3633 -7.43573 51.708 -7.02107C52.5356 -6.02542 53.2054 -4.99427 53.8086 -3.85124C54.5266 -2.49174 54.8468 -1.08172 55.3159 0.360547C55.5733 0.317763 55.8366 0.121649 56.0437 -0.030896C55.6634 -1.47213 55.051 -2.79841 54.3559 -4.11134Z" fill="#000207"/>
<path d="M31.5289 -6.44887L31.3461 -6.25762L31.3683 -6.17232C31.7723 -6.23674 32.1647 -6.49898 32.5261 -6.68645L34.4494 -7.63439C38.1281 -9.25887 42.4784 -10.2334 46.5007 -9.85702C49.5284 -9.57364 52.4821 -8.49264 55.2191 -7.20762C55.3924 -7.12625 55.8139 -6.8693 55.9597 -6.9747L55.8656 -7.12557C54.1998 -8.12547 52.576 -9.13473 50.7605 -9.85964C46.3257 -11.6306 41.3641 -11.4665 36.9841 -9.59401C35.983 -9.17298 34.9802 -8.67735 34.0648 -8.0928C33.2132 -7.54907 32.4169 -6.93755 31.5289 -6.44887Z" fill="white"/>
<path d="M58.1563 -5.38826L54.3557 -4.11113C55.0507 -2.7982 55.6631 -1.47192 56.0435 -0.0306896C57.744 -1.10126 59.647 -1.84352 61.4965 -2.61455C60.906 -3.66863 60.304 -4.74529 59.5675 -5.70491C59.1135 -5.5863 58.6231 -5.42726 58.1563 -5.38826Z" fill="#008A87"/>
<path d="M77.0952 49.8146L76.5115 49.9941C78.2176 50.766 80.681 50.1001 82.3516 49.4702C86.3609 47.9586 89.6437 45.338 92.1735 41.9056C92.2052 41.8626 92.3785 41.6078 92.4282 41.6045C92.4724 41.6017 92.6624 41.6913 92.7071 41.7078L93.6646 42.0545L95.5004 42.6026C97.8182 43.196 100.253 43.528 102.646 43.5537C103.937 43.5676 105.14 43.4791 106.417 43.2946C106.739 43.2482 107.357 43.0373 107.631 43.1531C108.15 42.8327 108.625 42.4008 109.09 42.0069L111.794 39.5566C112.951 38.4855 114.227 37.5426 115.354 36.4402C116.283 35.5297 117.072 34.5167 117.848 33.4757C119.344 31.4703 120.688 29.3408 121.726 27.0604C122.346 25.9241 122.875 24.5625 123.259 23.3204L123.28 23.2885C123.535 22.717 123.694 22.0556 123.872 21.4552C124.725 18.5877 125.16 15.5911 125.275 12.6044C125.351 10.6462 125.303 8.65513 124.886 6.73384C124.155 8.42097 123.258 9.935 122.175 11.4195L122.038 11.6991L121.869 11.927C120.562 13.6722 119.203 15.4372 117.672 16.9928C115.766 18.9313 113.467 20.6794 111.013 21.861C108.721 22.9648 106.164 23.6496 103.654 24.0066L103.606 23.9859C102.31 24.1323 100.718 24.3575 99.4464 24.0255C100.111 26.0505 101.027 27.9919 101.51 30.0753C102.482 30.4848 103.459 30.6887 104.5 30.8466C105.112 30.9394 105.763 31.0363 106.382 30.9775C106.727 30.7536 107.088 30.5409 107.403 30.2775C107.318 30.5305 107.106 30.7931 106.961 31.018C106.585 31.6003 106.032 32.3335 105.855 32.9937C105.786 33.2521 105.839 33.4045 105.96 33.6342C106.313 33.9384 106.849 34.0983 107.293 34.2247C109.576 34.8752 112.28 34.6807 114.625 34.5057C112.983 36.4271 110.288 37.9332 107.946 38.8563C103.765 40.5044 99.0683 40.5645 94.7261 39.572C93.426 39.2748 92.1658 38.9365 90.9414 38.4047L89.9198 40.4652C87.3232 45.2405 82.177 48.3171 77.0952 49.8146Z" fill="url(#paint1_linear_124_289)"/>
<path d="M86.3623 7.39734C85.7333 8.60003 85.1346 9.81511 84.6661 11.091C83.1554 15.2046 82.6647 19.6216 82.7897 23.9791L83.0714 27.1552L84.3126 35.9619L84.2785 37.6762C84.0237 40.9707 82.4923 43.9712 80.249 46.3736C79.2532 47.4398 78.1612 48.3434 77.0549 49.2871L77.0943 49.8146C82.1761 48.3172 87.3223 45.2406 89.9189 40.4653L90.9406 38.4048C92.1649 38.9366 93.4252 39.2749 94.7252 39.5721C99.0674 40.5646 103.764 40.5045 107.945 38.8564C110.287 37.9333 112.983 36.4272 114.624 34.5057C112.279 34.6808 109.576 34.8753 107.292 34.2248C106.848 34.0984 106.312 33.9384 105.959 33.6343C105.838 33.4046 105.785 33.2522 105.855 32.9938C106.031 32.3336 106.584 31.6004 106.96 31.0181C107.105 30.7932 107.317 30.5305 107.402 30.2776C107.087 30.541 106.726 30.7537 106.382 30.9776C105.763 31.0364 105.111 30.9395 104.499 30.8467C103.459 30.6887 102.481 30.4849 101.509 30.0754C101.026 27.992 100.11 26.0506 99.4455 24.0256C100.717 24.3576 102.309 24.1324 103.605 23.986C103.626 23.4459 102.197 21.5282 101.983 20.7474C102.342 20.5957 102.741 20.4921 103.127 20.4372L103.259 20.4199C102.677 19.5384 101.933 18.8873 100.934 18.5053C99.3277 17.8905 97.4663 18.0424 95.823 18.3892C95.1127 18.5392 94.3933 18.7048 93.7362 19.0211L93.6572 19.0602C91.2565 14.511 89.2068 9.52563 88.5918 4.38888C87.6043 5.03424 86.9231 6.39446 86.3623 7.39734Z" fill="#262B34"/>
<path d="M101.982 20.7479C100.635 21.1684 99.8949 22.3397 99.2364 23.499L99.444 24.0261C100.715 24.3581 102.307 24.1329 103.604 23.9865C103.624 23.4465 102.196 21.5288 101.982 20.7479Z" fill="#FF5800"/>
<path d="M95.7071 18.7951C96.1241 20.0812 97.0353 21.3418 97.7962 22.4494C97.9759 22.711 98.2615 23.2233 98.5363 23.3762C98.7929 22.0934 99.5417 21.1569 100.6 20.4285C100.984 20.1642 101.403 19.9647 101.786 19.6938C101.585 19.5035 101.366 19.33 101.127 19.1896C99.5183 18.2439 97.458 18.3574 95.7071 18.7951Z" fill="#008A87"/>
<path d="M95.7057 18.7954L93.8157 19.3474C95.5471 22.6725 97.5097 25.8333 99.9172 28.713C99.489 27.5456 99.0811 26.3496 98.8013 25.1374C98.6673 24.5564 98.5184 23.9781 98.5349 23.3765C98.2601 23.2236 97.9745 22.7113 97.7948 22.4497C97.0339 21.342 96.1227 20.0814 95.7057 18.7954Z" fill="#016B6E"/>
<path d="M84.7119 31.9123C84.5218 32.387 84.8224 33.2749 84.909 33.8018C85.2638 35.957 85.3402 38.4778 84.6859 40.582C84.1163 42.414 83.0967 43.9661 81.8857 45.4362C82.1475 45.5014 82.7667 45.0405 83.0245 44.8856C83.7791 44.4323 84.5057 43.9807 85.0224 43.2496L85.0897 43.1559C85.8103 42.1236 86.1917 40.8705 86.5458 39.6772L87.6193 36.1162L86.9345 35.2206L86.8774 35.2023C86.654 35.1033 86.4539 34.8413 86.299 34.6534C85.5815 33.7828 85.2157 32.9062 84.7119 31.9123Z" fill="#008A87"/>
<path d="M81.8857 45.436L81.8 45.5083L78.445 48.5886C79.5439 47.9994 80.7214 47.6164 81.8213 47.0447C85.5562 45.1032 88.1501 42.0384 89.7512 38.1777C88.9405 37.5694 88.2929 36.8671 87.6192 36.116L86.5458 39.6769C86.1916 40.8702 85.8102 42.1233 85.0896 43.1557L85.0223 43.2494C84.5056 43.9805 83.779 44.4321 83.0244 44.8854C82.7666 45.0403 82.1474 45.5011 81.8857 45.436Z" fill="#016B6E"/>
<path d="M88.0528 5.75138L88.0616 5.52166L88.0199 5.48055C87.1574 6.79163 86.4576 8.31096 85.878 9.7653C83.6618 15.3261 83.0467 21.2611 83.763 27.1831L83.7727 27.1948C83.9102 28.7126 84.2273 30.4638 84.7096 31.9123C85.2134 32.9062 85.5791 33.7828 86.2967 34.6535C86.4516 34.8414 86.6516 35.1033 86.875 35.2024L86.9322 35.2207C85.5485 32.6773 85.1399 29.8803 84.6462 27.0724C84.7277 26.7544 84.5602 26.0354 84.5301 25.6965L84.4357 23.6761C84.4362 20.5257 84.6293 17.1888 85.3782 14.1238C85.3405 13.8934 85.5049 13.4271 85.561 13.1903C85.967 11.4747 86.5111 9.81625 87.1424 8.17206C87.1285 7.55253 87.7308 6.87165 87.8625 6.27106C87.9067 6.06947 87.959 5.93511 88.0528 5.75138Z" fill="url(#paint2_linear_124_289)"/>
<path d="M88.2755 8.01723C88.0031 8.52982 88.1452 9.48011 88.246 10.0402C88.2888 11.2481 88.7594 12.6083 89.1025 13.771C89.8035 16.1458 90.6465 18.4723 91.7761 20.6797C92.5718 22.2353 93.5343 23.7154 94.5257 25.1515C95.7742 26.9599 97.0811 28.6415 98.6915 30.144C100.274 31.6202 102.036 32.4493 104.228 32.3797L105.227 32.3016L105.82 31.6039C105.455 31.5989 105.081 31.696 104.711 31.7076C103.481 31.7461 101.879 31.5548 100.801 30.9409C99.4636 30.1796 98.4953 28.8344 97.5923 27.621C96.2977 25.8815 95.1411 24.014 94.0512 22.1399C92.7911 19.973 91.6151 17.7721 90.6069 15.4746C89.823 13.6885 89.1653 11.8452 88.6546 9.96314L88.2755 8.01723Z" fill="#F6F7EB"/>
<path d="M88.1864 34.5994C88.5585 35.3271 89.2103 36.4313 89.8793 36.9018C90.6584 37.4496 91.8673 37.8106 92.7725 38.1049C94.1283 38.5457 95.5454 38.8113 96.957 38.9952C98.4826 39.1941 100.011 39.3121 101.55 39.2223C104.467 39.052 107.381 38.1811 109.967 36.8426L112.854 35.1479L111.288 35.3379C110.981 35.3786 110.664 35.4549 110.354 35.4435C110.289 35.4958 110.274 35.512 110.189 35.5545C109.797 35.7497 109.29 35.8477 108.867 35.9507C107.867 36.1939 106.851 36.3586 105.832 36.494C102.542 36.9306 99.2951 37.1196 95.997 36.6361C93.3617 36.2496 90.7137 35.4338 88.1864 34.5994Z" fill="#008A87"/>
<path d="M88.0547 5.75117C87.9609 5.9349 87.9086 6.06926 87.8644 6.27085C87.7328 6.87144 87.1304 7.55232 87.1444 8.17185L87.1735 8.29043C87.3074 8.87977 87.2708 9.6203 87.3187 10.2302C87.4158 11.4661 87.566 12.7236 87.8006 13.9415C88.5456 17.8097 89.7132 21.7947 91.5828 25.2794C93.0001 27.921 94.8967 30.3385 97.0221 32.4441C98.1191 33.531 99.3542 34.7111 100.659 35.5447L100.866 35.6575L97.9577 35.5522C97.0329 35.6347 96.0491 35.5215 95.13 35.407C92.8376 35.1215 90.5774 34.5779 88.3905 33.8351L88.2738 34.1224L88.3751 34.2487C88.26 34.2114 88.1623 34.1877 88.0415 34.1787L88.0096 34.2518L88.1857 34.5996C90.713 35.434 93.361 36.2499 95.9963 36.6363C99.2944 37.1199 102.541 36.9309 105.831 36.4943C106.851 36.3589 107.866 36.1942 108.867 35.951C109.29 35.848 109.796 35.7499 110.188 35.5548C110.273 35.5123 110.288 35.4961 110.353 35.4438C109.103 35.4874 107.735 35.4553 106.544 35.0361L106.42 34.992L106.18 34.9072C105.76 34.7454 105.211 34.3784 105.035 33.9425C104.794 33.3449 104.986 32.8493 105.227 32.3015L104.228 32.3796C102.035 32.4492 100.274 31.6201 98.6914 30.1439C97.0809 28.6414 95.774 26.9598 94.5256 25.1514C93.5341 23.7153 92.5716 22.2351 91.7759 20.6796C90.6464 18.4721 89.8033 16.1457 89.1023 13.7709C88.7592 12.6082 88.2886 11.248 88.2458 10.0401C88.1451 9.48 88.0029 8.52971 88.2754 8.01712L88.0547 5.75117Z" fill="#24D0C6"/>
<path d="M88.3909 33.8348L88.2742 34.1222L88.3755 34.2484C89.8055 34.7664 91.2806 35.1005 92.7741 35.3742C95.0231 35.7863 97.2926 36.0127 99.5796 35.9158C99.977 35.899 100.609 35.9419 100.969 35.7931L101.022 35.7648L100.866 35.6573L97.9581 35.552C97.0333 35.6344 96.0495 35.5213 95.1304 35.4068C92.838 35.1213 90.5778 34.5776 88.3909 33.8348Z" fill="#000207"/>
<path d="M87.1445 8.17191C86.5132 9.8161 85.9691 11.4746 85.5631 13.1901C85.507 13.427 85.3426 13.8933 85.3803 14.1237C85.4787 14.5509 85.3267 15.0352 85.2651 15.4683C85.071 17.7328 85.1248 20.0549 85.2849 22.3193C85.3727 23.5603 85.45 24.7951 85.631 26.0273C86.0063 28.5813 86.6805 31.1213 87.6169 33.5253L88.3907 33.8351C90.5776 34.5779 92.8378 35.1216 95.1302 35.4071C96.0492 35.5216 97.033 35.6347 97.9578 35.5523L100.866 35.6576L100.66 35.5448C99.3544 34.7112 98.1192 33.5311 97.0222 32.4442C94.8969 30.3386 93.0003 27.9211 91.583 25.2794C89.7134 21.7948 88.5457 17.8097 87.8008 13.9416C87.5662 12.7236 87.416 11.4662 87.3189 10.2303C87.2709 9.62036 87.3076 8.87983 87.1737 8.29049L87.1445 8.17191Z" fill="#008A87"/>
<path d="M85.2624 15.4686C85.0683 17.7331 85.1221 20.0551 85.2822 22.3196C85.37 23.5605 85.4473 24.7954 85.6283 26.0275C86.0036 28.5815 86.6778 31.1215 87.6142 33.5255L88.388 33.8354C90.5749 34.5782 92.8351 35.1218 95.1275 35.4073C96.0465 35.5218 97.0303 35.635 97.9551 35.5525C97.2687 35.2551 96.4857 35.1193 95.77 34.8921C94.1593 34.3811 92.6515 33.6631 91.2341 32.7465C88.3699 30.8941 87.2657 28.0389 86.5774 24.8379C86.15 22.8508 85.9165 20.8291 85.7502 18.8052C85.6622 17.7326 85.7535 16.5147 85.5305 15.4703L85.2624 15.4686Z" fill="#016B6E"/>
<path d="M43.7124 10.769C43.5642 11.335 43.0692 11.8555 42.7258 12.3212L41.6299 13.9013L40.1466 16.294C38.3472 19.2978 37.0342 22.7837 36.2365 26.1827L35.666 29.2383C35.2488 31.6106 34.942 33.9597 34.8479 36.3693L34.8536 38.9035C36.4265 38.0924 38.0107 37.323 39.7388 36.8947C40.2447 36.7693 40.7917 36.6286 41.3153 36.6478C39.7037 37.0819 38.3054 37.6585 36.8717 38.5137C34.4151 39.9792 31.9899 42.0316 30.3926 44.4219C29.9024 45.1555 29.4533 45.9282 29.2354 46.7894L29.1046 47.2388L28.9943 47.749C29.3712 48.3642 29.7697 48.9918 30.4281 49.3411L30.5534 49.2934C30.7938 48.7268 30.9605 48.153 31.311 47.6404L31.369 47.5536C31.9666 46.6707 32.8685 46.0454 33.7776 45.5211C34.2452 45.3149 34.9265 44.9437 35.4424 45.0578C36.2015 44.7535 36.919 44.3694 37.6891 44.0886C41.4109 42.7317 45.3508 42.1387 49.3048 42.1543L52.7855 42.2973L53.6294 42.3508L57.2704 42.95C57.3174 43.1861 57.3335 43.319 57.2552 43.5488C57.6151 43.6021 58.0552 43.6244 58.3915 43.7544L58.5283 43.7465C58.2345 44.7117 58.2667 45.5628 58.3198 46.5563C58.3639 47.3806 58.4208 48.2004 58.5542 49.0162C59.018 51.8522 59.841 54.7949 58.8218 57.6171C59.6033 57.9158 64.9644 56.2583 66.0413 55.8807C66.9099 55.5762 67.7631 55.2096 68.6025 54.8339C70.1264 54.152 71.5878 53.3514 72.9839 52.4358L74.5591 51.3399C75.0286 50.9797 75.5705 50.2851 76.1081 50.1009L76.1524 50.1571L76.5094 49.9946L77.0932 49.815L77.0537 49.2874C78.16 48.3437 79.2521 47.4401 80.2478 46.3739C82.4911 43.9716 84.0225 40.971 84.2774 37.6765L84.3114 35.9623L83.0702 27.1555L82.7886 23.9794C82.6636 19.6219 83.1542 15.205 84.6649 11.0913C85.1335 9.81545 85.7321 8.60037 86.3611 7.39768C86.9219 6.3948 87.6031 5.03458 88.5906 4.38922C89.2056 9.52597 91.2554 14.5113 93.6561 19.0606L93.735 19.0214C94.3921 18.7051 95.1115 18.5395 95.8218 18.3895C97.4651 18.0427 99.3266 17.8908 100.933 18.5056C101.931 18.8876 102.676 19.5388 103.258 20.4202L103.126 20.4376C102.74 20.4924 102.341 20.596 101.982 20.7477C102.196 21.5286 103.624 23.4463 103.604 23.9863L103.652 24.007C106.162 23.65 108.719 22.9652 111.011 21.8614C113.465 20.6798 115.764 18.9317 117.67 16.9932C119.201 15.4376 120.56 13.6727 121.867 11.9275L122.036 11.6995L122.173 11.42C123.256 9.93542 124.153 8.4214 124.884 6.73427C124.347 4.19345 123.186 1.73795 121.51 -0.253351C121.105 -0.735033 120.69 -1.23709 120.2 -1.63523C119.229 -2.76972 117.999 -3.58497 116.681 -4.25843C116.18 -4.44565 115.67 -4.62422 115.142 -4.4184C114.675 -4.23661 114.532 -3.65233 114.537 -3.19472C114.545 -2.24635 114.928 -1.23905 115.167 -0.323316C115.748 1.89907 115.804 4.56091 114.911 6.71426C114.364 8.03396 113.569 8.98572 112.223 9.52757C110.765 10.1145 109.564 9.93188 108.154 9.33259L101.992 4.55002C97.216 0.807713 91.6525 -2.17327 85.721 -3.56375C81.2198 -4.61888 76.3952 -4.75261 71.8165 -4.18652C63.1521 -3.11524 55.1053 0.657171 48.4028 6.20865L45.4085 8.94589C44.8235 9.5274 44.2196 10.1171 43.7124 10.769Z" fill="url(#paint3_linear_124_289)"/>
<path d="M77.9949 11.3268C77.9281 11.3128 77.9296 11.3103 77.8488 11.3099C77.5738 11.3082 77.3324 11.4332 77.1538 11.6375C76.9542 11.8659 76.9494 12.101 76.9676 12.3897C77.0819 12.6581 77.1912 12.8298 77.4686 12.9471C77.7123 13.05 77.9251 13.0387 78.1662 12.9357C78.3792 12.8448 78.5318 12.662 78.6149 12.4486C78.7166 12.1872 78.7113 11.9699 78.5945 11.7132C78.5173 11.5436 78.3956 11.4316 78.2189 11.3678C78.0787 11.3171 78.1251 11.3273 77.9949 11.3268Z" fill="#FF5800"/>
<path d="M77.9925 11.3271C77.9257 11.3131 77.9272 11.3106 77.8464 11.3102C77.5715 11.3086 77.33 11.4335 77.1515 11.6378C76.9518 11.8662 76.947 12.1013 76.9652 12.39L77.4216 12.454C77.3854 12.209 77.3538 12.0028 77.4715 11.7743C77.5885 11.5473 77.7147 11.5142 77.9408 11.4388L77.9925 11.3271Z" fill="#D71802"/>
<path d="M55.8241 33.5982L56.0144 33.5783C56.2438 33.5234 56.4843 33.264 56.6623 33.1096C57.3579 32.506 58.0116 31.8673 58.5362 31.1072C59.8545 29.1969 60.2997 26.8162 59.9107 24.5373C59.8004 23.8903 59.5967 23.1824 59.3163 22.5871C58.699 21.2762 57.9102 20.3529 56.7816 19.4486C56.4001 19.1429 55.629 18.5925 55.1367 18.646C57.1074 19.9138 58.5613 21.7185 59.0632 24.0575C59.6502 26.7926 58.8845 29.497 57.3831 31.7899C56.9386 32.4689 56.4029 33.034 55.8241 33.5982Z" fill="#FF5800"/>
<path d="M41.3151 36.6481C39.7034 37.0822 38.3052 37.6588 36.8715 38.514C34.4148 39.9795 31.9897 42.0319 30.3924 44.4221C29.9021 45.1558 29.4531 45.9285 29.2352 46.7897L29.1044 47.239C29.5417 46.9233 29.8604 46.2518 30.2085 45.8193C30.7986 45.0861 31.4592 44.4137 32.1431 43.768C32.4708 43.4587 32.8174 43.1014 33.1848 42.8431C34.0815 41.8199 35.3028 40.924 36.3851 40.0929C37.4709 39.2591 38.6741 38.2867 39.9142 37.7036C40.8923 37.2437 41.9491 36.9591 42.9862 36.6688C42.6347 36.6671 42.3255 36.6887 41.9789 36.7578L41.776 36.5796L41.3151 36.6481Z" fill="white"/>
<path d="M41.3161 36.6479C39.7045 37.0819 38.3062 37.6586 36.8725 38.5138C34.4159 39.9792 31.9907 42.0316 30.3934 44.4219C29.9032 45.1555 29.4541 45.9283 29.2363 46.7894L29.291 46.7335C29.7536 46.2369 30.0145 45.5544 30.4185 45.0034C31.5453 43.4668 32.8473 41.872 34.2861 40.6196C35.9724 39.152 38.0297 38.0025 40.1354 37.252C40.7396 37.0367 41.3687 36.9427 41.98 36.7575L41.7771 36.5794L41.3161 36.6479Z" fill="#FE9B16"/>
<path d="M50.8065 7.45887L48.6513 7.86519C48.2177 7.94366 47.7461 8.00363 47.3387 8.17785C46.6623 8.46708 45.9716 9.33237 45.4349 9.84888C44.9677 10.2984 44.442 10.725 44.0274 11.2224C43.4545 11.9095 42.9492 12.6643 42.4718 13.4201C41.2304 15.3847 40.3217 17.6158 39.9095 19.9054C39.7407 20.8431 39.6757 21.8078 39.552 22.7539C41.9607 18.3344 44.6933 14.0371 48.173 10.3715L50.9547 7.63401C51.0496 7.54478 51.0877 7.55786 51.0747 7.4279L50.8065 7.45887Z" fill="white"/>
<path d="M60.6379 4.81404C60.4869 5.24699 60.2703 5.752 60.3016 6.21559L60.3502 6.28522C60.344 6.88863 60.4741 7.30793 60.9024 7.75214C61.6586 8.53628 62.7817 8.78899 63.8322 8.78355C65.1502 8.77668 66.2522 8.25694 67.1684 7.32974L67.3542 7.14121C67.6278 6.85686 67.7857 6.50638 67.9568 6.1555L67.9097 6.48107C68.0691 6.27959 68.1433 6.1061 68.2259 5.86398C68.2061 5.30252 68.0697 4.97396 67.7892 4.50254C67.494 4.16685 67.1573 3.91564 66.7971 3.6561C65.7527 3.08815 64.4923 2.92677 63.3209 3.09719C62.1441 3.26829 61.332 3.89303 60.6379 4.81404Z" fill="#FF5800"/>
<path d="M60.6379 4.81404C60.4869 5.24699 60.2703 5.752 60.3016 6.21559L60.3502 6.28522C60.638 5.49809 61.1324 4.72316 61.9313 4.36488L62.0077 4.33247C63.1413 3.72507 64.5195 3.52148 65.7763 3.80577L65.9061 3.83432C66.2509 3.91437 66.538 4.05027 66.8507 4.21082C67.3246 4.48666 67.8564 4.94268 67.998 5.49619C68.0487 5.6946 68.0327 5.96595 67.9568 6.1555L67.9097 6.48107C68.0691 6.27959 68.1433 6.1061 68.2259 5.86398C68.2061 5.30252 68.0697 4.97396 67.7892 4.50254C67.494 4.16685 67.1573 3.91564 66.7971 3.6561C65.7527 3.08815 64.4923 2.92677 63.3209 3.09719C62.1441 3.26829 61.332 3.89303 60.6379 4.81404Z" fill="white"/>
<path d="M42.0977 22.9588L41.9934 23.3423C42.4159 22.677 42.834 22.0202 43.3689 21.4379C44.4427 20.2692 46.0108 19.3772 47.559 19.0412C49.8176 18.5509 51.8817 18.8623 53.8233 20.156L54.2033 20.4461C55.9878 21.889 57.1802 24.0641 57.4426 26.3522C57.6834 28.4517 57.0048 30.7075 55.6886 32.3542C54.4218 33.939 52.4127 34.8637 50.4181 35.0608C49.0811 35.1929 47.8336 34.9748 46.5406 34.6546C48.3826 35.6632 50.8413 35.7447 52.8283 35.1549C53.9579 34.8196 54.8973 34.3221 55.8246 33.598C56.4034 33.0337 56.9391 32.4687 57.3836 31.7897C58.885 29.4968 59.6508 26.7924 59.0637 24.0573C58.5618 21.7183 57.1079 19.9136 55.1372 18.6457C53.2011 17.6033 50.863 17.2948 48.717 17.7848C46.3665 18.3214 44.5147 19.5947 43.0511 21.4957C42.6962 21.9567 42.4075 22.4672 42.0977 22.9588Z" fill="#262B34"/>
<path d="M70.8035 4.17213C70.6103 4.58383 70.3076 5.0718 70.4116 5.54079L70.4224 5.59468C70.4519 5.84056 70.3688 6.12285 70.3649 6.37606C70.3506 7.27533 70.7693 8.07431 71.447 8.65429C71.9716 9.10342 72.6881 9.44414 73.3587 9.60018C74.4444 9.85282 75.606 9.71845 76.5722 9.13769C77.0063 8.87684 77.4218 8.5217 77.7388 8.12517C77.9107 7.91045 78.0609 7.69031 78.1908 7.44784C78.2179 7.39727 78.3371 7.13046 78.3682 7.1133L78.4337 7.04011C78.7734 6.63489 78.6832 5.74703 78.6177 5.26613L78.1109 4.43898C77.3436 3.32881 76.3242 2.79325 75.0227 2.56039C73.8828 2.46207 72.992 2.65548 71.9381 3.09527C71.5019 3.42897 71.151 3.74585 70.8035 4.17213Z" fill="#FF5800"/>
<path d="M70.8035 4.17213C70.6103 4.58383 70.3076 5.0718 70.4116 5.54079C70.8861 4.55538 71.4827 3.89604 72.5389 3.52777L72.8781 3.43765C73.3567 3.71138 74.3247 3.62503 74.8993 3.71186C75.3843 3.78505 75.8362 3.90039 76.3022 4.05533C76.7131 4.19186 77.3557 4.55867 77.7668 4.5026C78.2199 5.01537 78.5125 5.73246 78.4681 6.42184C78.4531 6.65567 78.425 6.88565 78.3682 7.1133L78.4337 7.04011C78.7734 6.63489 78.6832 5.74703 78.6177 5.26613L78.1109 4.43898C77.3436 3.32881 76.3242 2.79325 75.0227 2.56039C73.8828 2.46207 72.992 2.65548 71.9381 3.09527C71.5019 3.42897 71.151 3.74585 70.8035 4.17213Z" fill="white"/>
<path d="M77.7685 4.50247C77.4597 4.16258 77.1223 3.86066 76.7168 3.6419C75.519 2.99552 74.1508 3.05343 72.8798 3.43752C73.3584 3.71125 74.3264 3.6249 74.901 3.71173C75.386 3.78492 75.8379 3.90026 76.3039 4.0552C76.7148 4.19173 77.3574 4.55854 77.7685 4.50247Z" fill="#D71802"/>
<path d="M41.9944 23.3425L41.5035 24.3457C40.6898 26.6331 40.8152 29.0213 41.8607 31.2188C42.3293 32.2039 43.0003 33.0779 43.9019 33.6994L43.9954 33.7654C44.4713 34.0926 45.0715 34.2669 45.6291 34.3982C45.918 34.4662 46.2846 34.5061 46.5416 34.6548C47.8346 34.975 49.0821 35.1931 50.4191 35.0609C52.4137 34.8639 54.4228 33.9392 55.6896 32.3544C57.0058 30.7077 57.6844 28.4519 57.4436 26.3524C57.1812 24.0643 55.9888 21.8892 54.2043 20.4463L53.8243 20.1562C51.8827 18.8624 49.8186 18.5511 47.56 19.0413C46.0118 19.3773 44.4437 20.2694 43.3699 21.438C42.835 22.0203 42.4169 22.6772 41.9944 23.3425Z" fill="#F6F7EB"/>
<path d="M53.5109 31.7592C53.9164 31.6547 54.4608 30.909 54.7036 30.5628C55.5493 29.3559 55.7959 27.9349 55.514 26.498C55.2327 25.0641 54.3645 23.9195 53.1532 23.1311C51.8473 22.281 50.1712 22.0299 48.6624 22.3697C47.1583 22.7084 45.6805 23.7252 44.8608 25.0383C44.1094 26.2421 43.6909 27.3297 43.645 28.7601C43.6267 29.3327 43.718 29.8621 43.8683 30.4105C43.9125 30.5719 43.9495 30.798 44.0664 30.9207C44.2515 31.115 44.3416 31.43 44.5043 31.6584L44.8538 31.52C44.8171 31.3958 44.8088 31.4046 44.7197 31.3233C44.6668 31.1756 44.6367 31.0896 44.662 30.9329C44.5611 30.5698 44.4249 30.2041 44.3612 29.8327C44.1478 28.5866 44.4049 27.3776 45.0268 26.2826C45.6734 25.1442 46.9014 24.3441 48.1556 24.0183C49.3919 23.6972 50.8601 23.8985 51.9476 24.569C53.1712 25.3235 53.9818 26.4546 54.292 27.8627C54.4192 28.4399 54.424 29.0037 54.3496 29.588L54.3348 29.7126C54.2548 30.3079 53.9891 30.9063 53.6939 31.425L53.5109 31.7592Z" fill="#D4BA90"/>
<path d="M44.6626 30.9329L45.1761 31.7386C45.8327 32.62 46.9133 33.3756 48.0195 33.5126L48.1438 33.5261C48.5433 33.5741 48.9004 33.5754 49.3022 33.5451C49.4764 33.7181 49.733 33.75 49.9713 33.7428C50.1356 33.7379 50.3324 33.6922 50.4647 33.589L50.525 33.5187C50.8993 33.2123 51.1893 32.9382 51.4387 32.516L51.5598 32.8131L51.911 33.0473C52.5621 32.7171 53.0083 32.2774 53.5114 31.7592L53.6944 31.425C53.9896 30.9063 54.2554 30.308 54.3353 29.7126L54.3501 29.588C54.4245 29.0037 54.4197 28.4399 54.2925 27.8627C53.9823 26.4546 53.1717 25.3235 51.9481 24.569C50.8606 23.8985 49.3924 23.6972 48.1561 24.0183C46.9019 24.3441 45.6739 25.1442 45.0273 26.2826C44.4055 27.3776 44.1483 28.5866 44.3618 29.8327C44.4254 30.2041 44.5616 30.5698 44.6626 30.9329Z" fill="#262B34"/>
<path d="M48.39 29.0196C48.4656 29.0593 48.5062 29.0856 48.5948 29.1056C48.7695 29.1453 49.0009 29.0812 49.1293 28.9594C49.2501 28.8449 49.2937 28.6989 49.2933 28.5366C49.2926 28.2774 49.1668 28.088 48.9943 27.9093L48.6743 27.75C48.5273 27.7629 48.4449 27.7496 48.3173 27.8317C48.1623 27.9314 48.0477 28.145 48.033 28.3289C48.0111 28.6011 48.2008 28.8492 48.39 29.0196Z" fill="white"/>
<path d="M49.3037 33.5449C49.4779 33.7179 49.7345 33.7498 49.9728 33.7426C50.1371 33.7377 50.3339 33.692 50.4662 33.5888L50.5265 33.5186C50.9008 33.2121 51.1908 32.938 51.4402 32.5158C51.6165 32.1618 51.7221 31.8063 51.6696 31.4076C51.603 30.9018 51.3537 30.4706 50.9472 30.1623C50.5316 29.8473 50.0344 29.7318 49.5217 29.8067C49.0437 29.8767 48.5927 30.1451 48.3111 30.5391C48.0284 30.9347 47.8585 31.5229 47.9684 32.0041C48.1412 32.7606 48.6866 33.1595 49.3037 33.5449Z" fill="white"/>
<path d="M52.8558 5.77483L51.4034 6.85771C51.1793 7.02642 50.89 7.18091 50.8063 7.45907L51.0746 7.4281C52.753 7.16782 54.3486 6.95049 56.0534 6.92762L57.5562 6.95732C57.8066 6.97301 58.2385 7.06667 58.4661 6.99366C58.5622 6.96294 58.7676 6.74065 58.8463 6.66688C59.4572 6.0939 59.9811 5.30364 60.6398 4.81363C61.3339 3.89263 62.146 3.26788 63.3228 3.09678C64.4942 2.92636 65.7545 3.08775 66.799 3.65569C67.1592 3.91524 67.4959 4.16645 67.7911 4.50213C68.127 4.42382 68.1989 4.44274 68.5128 4.62091C68.5825 4.66038 68.6395 4.71161 68.6994 4.76416C69.118 4.73613 69.7994 4.17083 70.0818 3.85243L70.1565 3.76629L70.2072 3.73422L70.1346 3.95251C70.1913 3.9827 70.3505 4.09218 70.4045 4.09612C70.5721 4.10826 70.499 4.01274 70.6954 4.11319L70.4864 4.52582C70.5985 4.50097 70.7225 4.26556 70.8053 4.17196C71.1528 3.74568 71.5037 3.4288 71.9399 3.0951C72.9938 2.65531 73.8846 2.4619 75.0245 2.56022C76.326 2.79308 77.3454 3.32863 78.1127 4.43881L78.6195 5.26596C80.0193 6.11186 81.5461 7.03724 83.1797 7.32551C84.2457 7.51363 85.2894 7.45898 86.3625 7.39757C86.9233 6.39469 87.6045 5.03448 88.592 4.38911L88.6246 3.82141C91.6946 4.73084 94.5277 5.92912 97.3196 7.50092C101.658 9.94354 105.504 13.6887 110.793 13.5869C111.959 13.5644 113.177 13.3677 114.217 12.8147C115.892 11.924 116.911 10.1928 117.453 8.43284C118.163 6.12296 117.838 3.47359 117.303 1.1557C117.132 0.416948 116.831 -0.392665 116.765 -1.1466C116.715 -1.71318 116.876 -2.30222 116.867 -2.87226C116.861 -3.31037 116.599 -3.85728 116.682 -4.25854C116.182 -4.44575 115.672 -4.62432 115.143 -4.4185C114.676 -4.23672 114.534 -3.65244 114.538 -3.19483C114.547 -2.24645 114.929 -1.23916 115.169 -0.323422C115.75 1.89897 115.805 4.5608 114.912 6.71415C114.365 8.03386 113.57 8.98562 112.225 9.52747C110.767 10.1144 109.566 9.93177 108.156 9.33249C107.45 9.26042 106.7 8.89106 106.067 8.57889C103.867 7.49438 101.853 6.02462 99.7873 4.70907L95.5404 2.15581C91.5027 -0.0608947 87.0837 -1.79186 82.4996 -2.42339C75.9905 -3.32032 69.0897 -2.3699 62.9988 0.0756975C60.6436 1.02139 58.473 2.19578 56.3125 3.51974C55.1353 4.24115 53.9591 4.94165 52.8558 5.77483Z" fill="#FF5800"/>
<path d="M88.6246 3.82115L88.592 4.38885C89.207 9.5256 91.2568 14.5109 93.6575 19.0602L93.7364 19.0211C94.3935 18.7047 95.1129 18.5392 95.8232 18.3892C97.4665 18.0424 99.328 17.8904 100.934 18.5053C101.933 18.8872 102.678 19.5384 103.259 20.4198L103.127 20.4372C102.741 20.4921 102.342 20.5957 101.983 20.7473C102.198 21.5282 103.626 23.4459 103.606 23.986L103.654 24.0067C106.164 23.6496 108.721 22.9649 111.013 21.8611C113.466 20.6794 115.765 18.9314 117.672 16.9928C119.202 15.4372 120.561 13.6723 121.868 11.9271L122.037 11.6991L122.175 11.4196C123.258 9.93505 124.155 8.42103 124.885 6.7339C124.348 4.19309 123.187 1.73758 121.511 -0.253717C121.106 -0.735399 120.691 -1.23746 120.201 -1.63559C119.23 -2.77008 118.001 -3.58534 116.682 -4.2588C116.599 -3.85754 116.861 -3.31063 116.867 -2.87251C116.876 -2.30248 116.715 -1.71344 116.765 -1.14686C116.831 -0.392924 117.132 0.416688 117.303 1.15544C117.838 3.47333 118.163 6.1227 117.453 8.43258C116.911 10.1926 115.892 11.9238 114.217 12.8144C113.177 13.3674 111.959 13.5641 110.793 13.5866C105.504 13.6884 101.658 9.94328 97.3196 7.50066C94.5277 5.92886 91.6946 4.73058 88.6246 3.82115Z" fill="#FE9B16"/>
<path d="M95.3085 12.3806C95.0003 12.2977 94.7583 12.3116 94.4789 12.4819C94.2869 12.5992 94.1192 12.7796 94.0772 13.0076C94.0433 13.1916 94.1263 13.482 94.2566 13.6173C94.4608 13.8289 94.9079 13.9626 95.192 13.9457C95.462 13.9297 95.6402 13.805 95.7952 13.5892C95.9027 13.4395 95.9706 13.2165 95.9367 13.033L95.8818 12.8525C95.855 12.7782 95.83 12.6985 95.7822 12.6338C95.6583 12.4663 95.505 12.411 95.3085 12.3806Z" fill="#FF5800"/>
<path d="M99.4733 11.4712L99.3412 11.73C99.2357 11.985 99.2304 12.211 99.3497 12.461C99.4965 12.7689 99.7682 13.1041 100.119 13.1791C100.522 13.2653 100.867 13.126 101.179 12.8827C101.274 12.7467 101.372 12.6172 101.397 12.4477C101.435 12.1946 101.439 11.9047 101.279 11.6934L101.233 11.6355L101.188 11.5746C100.966 11.2849 100.658 11.1413 100.298 11.1134C99.9878 11.0893 99.701 11.2883 99.4733 11.4712Z" fill="#FF5800"/>
<path d="M94.2035 7.55384C93.9512 7.15975 93.5536 6.93488 93.099 6.84482C92.6116 6.74839 92.0226 6.81852 91.6098 7.11103C91.3428 7.30009 91.0978 7.61767 91.0507 7.94726C90.9987 8.31239 91.1091 8.65241 91.3334 8.94193C91.601 9.28729 92.0631 9.58021 92.5055 9.6247L92.5827 9.63094L92.6693 9.64013C92.9013 9.66222 93.0936 9.64535 93.3103 9.55141C93.3964 9.55457 93.518 9.48905 93.5954 9.45345C93.9353 9.29721 94.2116 9.01913 94.3314 8.66279C94.4706 8.24793 94.3874 7.93743 94.2035 7.55384Z" fill="#FF5800"/>
<path d="M94.202 7.55426L94.0768 7.58873L94.1159 7.92389C94.1373 8.0809 94.1673 8.26762 94.1235 8.42306C93.9842 8.91789 93.7486 8.98998 93.3806 9.2524L93.3206 9.29789L93.2859 9.4431L93.178 9.48457L93.3088 9.55183C93.3949 9.55499 93.5165 9.48947 93.5939 9.45387C93.9338 9.29763 94.2102 9.01955 94.3299 8.66321C94.4691 8.24835 94.386 7.93785 94.202 7.55426Z" fill="#D71802"/>
<path d="M57.2268 14.2648C56.6004 14.543 55.9879 14.8076 55.4314 15.2156C55.9976 15.1118 56.5713 14.8123 57.1298 14.6383C58.4303 14.2334 59.6971 14.043 61.0587 14.0769C61.3759 14.0848 61.8697 14.0853 62.164 14.2039L62.2189 14.2923C62.4036 14.5687 62.8399 14.8079 63.09 15.0508L64.4304 16.486C67.2117 19.7217 68.5003 23.7444 67.8603 27.9783C67.7426 28.7575 67.5242 29.5066 67.2616 30.2475C65.9337 33.9939 62.8059 36.8355 59.2694 38.4886C57.0359 39.5328 54.592 40.0893 52.222 40.7394L51.0354 41.0389C50.7333 41.1072 50.4164 41.1388 50.1413 41.2871C51.0153 41.2723 51.8229 40.9589 52.6888 40.9168C52.7478 41.051 52.8013 41.1763 52.8404 41.3181C52.7641 41.4747 52.6478 41.8147 52.543 41.9307C52.5265 41.9491 52.3582 42.0215 52.347 42.0373C52.3199 42.075 52.3607 42.1291 52.3675 42.175C52.5969 42.1558 52.5955 42.1658 52.787 42.2972L53.6308 42.3507L57.2718 42.9499C57.3189 43.186 57.335 43.3189 57.2566 43.5488C57.6166 43.602 58.0566 43.6243 58.3929 43.7543L58.5298 43.7464C58.236 44.7116 58.2682 45.5627 58.3212 46.5562C58.3653 47.3805 58.4223 48.2003 58.5556 49.0161C59.0194 51.8521 59.8424 54.7948 58.8232 57.617C59.6047 57.9157 64.9658 56.2582 66.0427 55.8806C66.9113 55.5761 67.7645 55.2095 68.6039 54.8338C70.1279 54.1519 71.5892 53.3513 72.9853 52.4357L74.5605 51.3398C75.0301 50.9796 75.572 50.285 76.1096 50.1008L76.1538 50.157L76.5109 49.9945L77.0946 49.8149L77.0551 49.2873C78.1614 48.3436 79.2535 47.44 80.2492 46.3738C82.4925 43.9715 84.024 40.971 84.2788 37.6764L84.3129 35.9622L83.0717 27.1554C82.8493 26.9354 82.7509 26.5091 82.6209 26.2205C82.3711 25.6661 82.0092 25.0917 81.8333 24.5144C81.4004 23.9338 81.0832 23.191 80.6926 22.5662C79.6891 20.9612 78.4007 19.4802 76.9576 18.2573C74.7668 16.4009 72.3328 15.2064 69.5758 14.4238C68.4103 14.0929 67.0566 13.8093 65.8425 13.9108L64.5517 13.6561C62.5648 13.2968 60.612 13.2734 58.6401 13.7528C58.1763 13.8656 57.6219 13.9907 57.2268 14.2648Z" fill="#F6F7EB"/>
<path d="M76.7148 49.4908C76.5881 49.6638 76.3966 49.7432 76.2013 49.8163L76.0789 49.8609L76.1873 49.9741L76.1073 50.1009L76.1515 50.1571L76.5086 49.9945L77.0923 49.8149L77.0529 49.2874L76.7148 49.4908Z" fill="#000207"/>
<path d="M57.2728 42.9494C57.3199 43.1855 57.336 43.3184 57.2577 43.5483C57.6176 43.6016 58.0577 43.6238 58.394 43.7538L58.5308 43.7459C59.0382 43.6688 59.7884 43.9129 60.3002 44.0152C59.3716 43.4694 58.3012 43.2344 57.2728 42.9494Z" fill="#000207"/>
<path d="M62.1627 14.2041L62.2176 14.2925C62.4023 14.5689 62.8386 14.808 63.0887 15.051L64.4291 16.4862C67.2105 19.7219 68.499 23.7445 67.859 27.9785C67.7413 28.7577 67.5229 29.5068 67.2603 30.2477C65.9324 33.9941 62.8046 36.8357 59.2682 38.4888C57.0346 39.533 54.5908 40.0895 52.2207 40.7396L51.0342 41.0391C50.7321 41.1074 50.4151 41.139 50.1401 41.2872C51.014 41.2725 51.8216 40.9591 52.6875 40.917C52.7465 41.0512 52.8001 41.1765 52.8392 41.3183C52.7628 41.4749 52.6465 41.8149 52.5418 41.9308C52.5252 41.9493 52.357 42.0217 52.3457 42.0375C52.3187 42.0752 52.3594 42.1293 52.3662 42.1752C52.5956 42.156 52.5942 42.166 52.7857 42.2974L53.6296 42.3509C54.3449 42.0692 55.3671 42.1959 56.136 42.2022C58.2591 42.2195 60.6953 42.3608 62.706 41.6064C65.6885 40.4872 68.0805 37.7796 69.3723 34.9229C70.9845 31.358 71.3798 27.3308 70.1804 23.5791C69.8976 22.695 69.4331 21.9011 69.1103 21.039C70.5678 22.9019 71.9659 25.1073 72.7426 27.3457C73.8958 30.6695 73.9952 34.2032 72.9563 37.5691C72.5091 39.0176 71.8789 40.3811 71.2249 41.7447L71.3185 41.713C72.7216 39.3459 74.003 37.0263 74.5013 34.2776C75.3485 29.6036 74.5255 24.8308 71.7801 20.9065C69.4643 17.5965 66.2219 14.9137 62.1627 14.2041Z" fill="#FF5800"/>
<path d="M65.8416 13.9108L64.5508 13.6561C62.5639 13.2968 60.6111 13.2734 58.6392 13.7528C58.1754 13.8656 57.621 13.9907 57.2259 14.2648C60.8122 13.1123 64.7583 13.6302 68.089 15.3289L68.425 15.5105L68.4727 15.5505C69.3508 16.2741 70.3374 16.8343 71.1974 17.5992C75.3613 21.3026 78.2156 26.2915 78.7798 31.8688C79.3668 37.6713 77.4028 43.0971 73.7409 47.5616L72.8673 48.527C73.6688 48.1743 74.4183 47.4998 75.0587 46.9117C76.3643 45.7126 77.7946 44.2953 78.4722 42.627C78.5124 42.5276 78.4852 42.5598 78.5437 42.5107L78.1522 44.9709C77.8705 46.0553 77.6017 47.1729 77.2355 48.2314C77.0856 48.6642 76.8781 49.0657 76.7162 49.4907L77.0543 49.2873C78.1605 48.3436 79.2526 47.44 80.2483 46.3738C82.4916 43.9715 84.0231 40.971 84.2779 37.6764L84.312 35.9622L83.0708 27.1554C82.8484 26.9354 82.75 26.5091 82.62 26.2205C82.3702 25.6661 82.0083 25.0917 81.8324 24.5144C81.3995 23.9338 81.0823 23.191 80.6917 22.5662C79.6882 20.9612 78.3998 19.4802 76.9567 18.2573C74.7659 16.4009 72.3319 15.2064 69.5749 14.4238C68.4094 14.0929 67.0557 13.8093 65.8416 13.9108Z" fill="#24D0C6"/>
<path d="M81.6469 36.2424L81.2776 38.5259C81.7795 37.8867 82.1193 36.923 82.4883 36.1874C82.1914 36.1486 81.938 36.1778 81.6469 36.2424Z" fill="#FE9B16"/>
<path d="M65.8429 13.9104L64.5521 13.6558C62.5651 13.2965 60.6124 13.273 58.6405 13.7525C58.1767 13.8653 57.6223 13.9904 57.2271 14.2645C60.8135 13.112 64.7596 13.6299 68.0902 15.3286L68.4262 15.5101C69.3132 15.8258 70.1465 16.4324 70.9148 16.9712C74.165 19.2504 76.8808 22.2096 78.5983 25.8142C81.0689 30.9997 81.528 37.006 79.5467 42.4401L78.8324 43.962C79.0721 43.8373 79.2553 43.3891 79.3859 43.1514C80.2158 41.6406 80.7493 40.1531 81.2807 38.5255L81.6501 36.2421C81.7554 35.0395 81.826 33.823 81.7242 32.6171C81.5302 30.3241 80.791 27.8243 79.7915 25.7537C77.6683 21.356 74.0021 17.6543 69.6497 15.4504C68.4217 14.8284 67.1401 14.3647 65.8429 13.9104Z" fill="url(#paint4_linear_124_289)"/>
<path d="M81.8323 24.5146C81.3995 23.934 81.0823 23.1911 80.6917 22.5663C79.6881 20.9614 78.3998 19.4803 76.9566 18.2574C74.7658 16.401 72.3319 15.2065 69.5749 14.4239C68.4093 14.0931 67.0556 13.8095 65.8415 13.9109C67.1388 14.3651 68.4204 14.8289 69.6484 15.4509C74.0008 17.6548 77.6669 21.3565 79.7902 25.7541C80.7897 27.8248 81.5289 30.3246 81.7228 32.6176C81.8247 33.8234 81.7541 35.04 81.6488 36.2426C81.9398 36.178 82.1932 36.1487 82.4901 36.1875C83.1068 36.2299 83.714 36.1018 84.3119 35.9623L83.0707 27.1556C82.8484 26.9356 82.7499 26.5092 82.62 26.2207C82.3701 25.6663 82.0082 25.0918 81.8323 24.5146Z" fill="#FF5800"/>
<path d="M22.728 89.6074C31.0642 89.6074 37.8221 82.9 37.8221 74.626C37.8221 66.3521 31.0642 59.6447 22.728 59.6447C14.3917 59.6447 7.63379 66.3521 7.63379 74.626C7.63379 82.9 14.3917 89.6074 22.728 89.6074Z" fill="#FF5800"/>
<path d="M36.6984 70.3734C36.76 70.5046 36.8004 70.6447 36.8181 70.7884C36.9034 70.9959 36.972 71.2098 37.0234 71.4279H37.0101C36.9253 71.3316 36.8573 71.2219 36.8086 71.1035C36.7546 70.8927 36.6841 70.6864 36.5977 70.4865C36.6409 70.4585 36.6757 70.4194 36.6984 70.3734Z" fill="#E8F6A6"/>
<path d="M15.306 62.7497L16.8684 61.929C17.321 61.7216 17.7841 61.5378 18.256 61.3782C19.6029 60.9264 21.016 60.7001 22.4377 60.7084C23.368 60.6931 24.2976 60.7689 25.2129 60.9348C25.7111 61.0339 26.2035 61.1599 26.6879 61.3121C27.3773 61.5303 28.0469 61.8061 28.6894 62.1366C29.4634 62.5144 30.1992 62.9648 30.8867 63.4817C32.2292 64.546 33.4187 65.7876 34.4222 67.1718L35.0457 68.0189C35.1845 68.1894 35.3116 68.369 35.4258 68.5566V68.5698C35.6742 68.8887 35.8955 69.2276 36.0873 69.5829C36.2767 69.8738 36.4462 70.1769 36.5948 70.4903C36.6812 70.6902 36.7518 70.8965 36.8058 71.1072C36.8544 71.2257 36.9225 71.3354 37.0073 71.4317H37.0206C37.08 71.6085 37.1226 71.7904 37.1479 71.9751L37.2943 72.8637C37.438 73.8397 37.4965 74.8263 37.4692 75.8124C37.4501 76.3161 37.3893 76.8104 37.3266 77.3103C37.1931 78.4972 36.8917 79.6594 36.4313 80.7628C36.0262 81.7244 35.5284 82.6449 34.9449 83.5115C34.4869 84.1558 33.9702 84.757 33.4015 85.3075C33.3254 85.3811 33.238 85.4396 33.1639 85.5113C32.1593 86.4982 30.9664 87.2763 29.655 87.7997L26.2944 88.8203C26.116 88.879 25.9308 88.9145 25.7432 88.926C25.8941 88.6213 26.0716 88.3303 26.2735 88.0563C26.4161 88.0959 26.6271 87.9412 26.7905 87.9431L26.8209 87.9336L26.8418 87.862C27.1527 87.8199 27.4584 87.7466 27.7542 87.6431C28.1705 87.528 28.7217 87.4394 29.0848 87.1847L29.0163 87.1941C28.9884 87.1909 28.9601 87.1955 28.9346 87.2073C28.8733 87.2394 28.8098 87.2672 28.7445 87.2903L28.6856 87.3148C28.652 87.3203 28.6194 87.3305 28.5887 87.345C28.5383 87.372 28.4855 87.3941 28.4309 87.4111L28.3948 87.4243C28.3631 87.4366 28.3307 87.4474 28.2978 87.4563L28.1895 87.4828L28.0926 87.5073L27.9956 87.5318L27.8987 87.5563L27.7656 87.5922C27.7307 87.6042 27.6952 87.6143 27.6592 87.6224H27.6326L27.4995 87.6582C27.4646 87.6702 27.4291 87.6803 27.3931 87.6884H27.3665L27.2695 87.7129L27.1726 87.7356C27.1515 87.7433 27.1299 87.7496 27.108 87.7544L26.8932 87.7959C26.9341 87.7522 26.9779 87.7112 27.0243 87.6733C27.0766 87.6194 27.1346 87.5714 27.1973 87.5299C27.4116 87.4369 27.6312 87.3562 27.855 87.2884L28.5773 86.9998C28.6704 86.9621 28.7787 86.9356 28.8643 86.8904C28.9475 86.834 29.0375 86.7884 29.1323 86.7545C29.2026 86.7394 29.2482 86.7904 29.3015 86.8262C29.346 86.8356 29.3919 86.8356 29.4364 86.8262C29.503 86.8055 29.5011 86.7904 29.5296 86.7319C29.5199 86.6883 29.495 86.6495 29.4592 86.6225C29.4592 86.6847 29.4839 86.713 29.4478 86.7677L29.3984 86.7791L29.3623 86.8036C29.3253 86.791 29.2906 86.7726 29.2596 86.7489C29.2901 86.6545 29.5581 86.5791 29.6398 86.5055C29.8299 86.3451 30.0599 86.4621 30.288 86.4395L30.2766 86.4225C30.1834 86.4225 30.1036 86.3961 30.0162 86.3961C29.9814 86.3983 29.9465 86.3939 29.9135 86.3829C30.0504 86.2867 30.2005 86.2131 30.3374 86.1188L31.5292 85.3075C31.8504 85.0672 32.1576 84.809 32.4492 84.534C32.7453 84.2772 33.0253 84.0025 33.2874 83.7115C33.603 83.3493 33.8938 82.9455 34.1808 82.5588C34.2884 82.3972 34.3855 82.2289 34.4716 82.0551C34.7067 81.6432 34.9186 81.2187 35.1065 80.7835C35.2376 80.476 35.384 80.1817 35.4866 79.8647C35.6446 79.3795 35.7715 78.8849 35.8668 78.3838C35.9599 77.9235 36.0569 77.4688 36.1006 77.0009C36.2441 75.5444 36.1891 74.0754 35.9371 72.6335L35.7775 71.9053C35.4451 70.576 34.9336 69.2973 34.2568 68.1038C34.0106 67.6953 33.7422 67.3004 33.4528 66.9209C33.3711 66.8096 33.3045 66.687 33.2209 66.5776C33.1373 66.4681 33.008 66.3606 32.9092 66.2493L32.2249 65.4607C31.499 64.6645 30.6617 63.9758 29.7386 63.4157C28.791 62.8049 27.7691 62.3162 26.6974 61.9611C26.5073 61.897 26.2963 61.8611 26.0967 61.8102C25.3314 61.6023 24.5479 61.4664 23.7569 61.4046C22.6418 61.3142 21.5199 61.3515 20.4134 61.5159C18.817 61.7689 17.2875 62.3353 15.9142 63.1817C15.4426 63.4764 14.9888 63.7983 14.5551 64.1458C12.1492 66.2216 10.5064 69.0321 9.8849 72.1354C9.82217 72.4486 9.77085 72.7655 9.73094 73.0787C9.68282 73.0204 9.61604 72.9802 9.54169 72.9647C9.46735 72.9493 9.38991 72.9595 9.32227 72.9938C9.4154 72.9448 9.47053 72.0298 9.49904 71.8883C9.57697 71.511 9.67011 71.1337 9.77846 70.7563C9.99538 70.0065 10.2745 69.2758 10.6129 68.5717C11.0372 67.7028 11.5231 66.865 12.067 66.0644C12.5707 65.3098 13.0687 64.5325 13.7568 63.9382C14.2491 63.5157 14.7813 63.1365 15.306 62.7497Z" fill="url(#paint5_linear_124_289)"/>
<path d="M35.6947 70.0923C35.5274 69.7659 35.4153 69.4244 35.2727 69.0905C35.1986 68.9169 35.0826 68.7754 35.0313 68.5943C35.1587 68.7245 35.2214 68.8962 35.3544 69.0169C35.3939 69.0652 35.4441 69.1037 35.5012 69.1293C35.5583 69.1548 35.6207 69.1667 35.6833 69.1641H35.7099L35.7536 69.2207L35.8848 69.5112C35.9817 69.6999 36.0995 69.8885 36.1927 70.0772C36.2022 70.0979 36.2364 70.1545 36.2326 70.1772C36.4417 70.4828 36.5519 70.8262 36.8028 71.1054C36.8514 71.2238 36.9195 71.3335 37.0043 71.4299H37.0176C37.077 71.6066 37.1197 71.7885 37.145 71.9732L37.2913 72.8618C37.435 73.8378 37.4935 74.8244 37.4662 75.8105C37.4472 76.3142 37.3864 76.8085 37.3236 77.3084C37.1901 78.4953 36.8887 79.6575 36.4284 80.7609C36.0232 81.7225 35.5254 82.643 34.942 83.5096C34.4839 84.1539 33.9673 84.7551 33.3985 85.3056C33.3225 85.3792 33.2351 85.4377 33.1609 85.5094C32.1564 86.4964 30.9635 87.2744 29.6521 87.7978L26.2915 88.8185C26.1131 88.8771 25.9278 88.9127 25.7402 88.9241C25.8912 88.6194 26.0686 88.3284 26.2706 88.0544C26.4131 88.094 26.6241 87.9393 26.7876 87.9412L26.818 87.9318L26.8389 87.8601C27.1497 87.818 27.4554 87.7447 27.7513 87.6412C28.1675 87.5261 28.7188 87.4375 29.0818 87.1828C29.9068 86.8549 30.6871 86.4259 31.4046 85.9056C31.5947 85.7679 31.8057 85.6377 31.9881 85.4849C32.3189 85.2075 32.6154 84.8981 32.9195 84.5944C33.0222 84.4925 33.1343 84.4057 33.2351 84.2982C33.9482 83.5429 34.5649 82.7034 35.0712 81.7985C35.3625 81.2538 35.6073 80.6859 35.803 80.1006C36.0061 79.5486 36.1793 78.9862 36.3219 78.4159C36.4208 77.9417 36.4926 77.4624 36.5367 76.9802C36.6548 75.9784 36.6809 74.9681 36.6147 73.9616C36.5936 73.3631 36.5108 72.7682 36.3676 72.1864C36.3124 71.9166 36.2288 71.6544 36.1585 71.3884C36.1034 71.1325 36.0316 70.8804 35.9437 70.6337C35.8752 70.4526 35.7764 70.279 35.6947 70.0923Z" fill="url(#paint6_linear_124_289)"/>
<path d="M36.6988 70.3733C36.6773 70.4215 36.6431 70.4632 36.5999 70.494C36.4493 70.1809 36.2785 69.8778 36.0886 69.5866C35.8977 69.2311 35.6771 68.8922 35.4291 68.5735V68.5603C35.3131 68.3738 35.1861 68.1943 35.0489 68.0226L34.4235 67.1736C33.4183 65.7907 32.2283 64.5499 30.8862 63.4854C30.2007 62.9675 29.466 62.517 28.6927 62.1402C28.0502 61.8102 27.3806 61.5351 26.6911 61.3177C26.2062 61.1651 25.7131 61.0391 25.2142 60.9404C24.2994 60.7755 23.3706 60.6996 22.441 60.714C20.0973 60.7329 17.708 61.6101 15.8737 62.676C15.3698 62.9676 14.891 63.3002 14.4424 63.6703C13.9327 64.0866 13.4549 64.54 13.013 65.0267C12.229 65.9083 11.5427 66.8709 10.9659 67.8981C10.1105 69.4696 9.46616 71.1807 9.36922 72.9786C9.42776 72.9524 9.49386 72.9481 9.55534 72.9665C9.61682 72.9849 9.66954 73.0247 9.70376 73.0786C9.8026 72.9617 9.59352 72.7673 9.48137 72.873C9.5809 72.8161 9.6651 72.7362 9.72682 72.6401C9.78853 72.5439 9.82592 72.4344 9.83582 72.3208C9.84571 72.2073 9.82781 72.093 9.78363 71.9878C9.73946 71.8826 9.67033 71.7895 9.58211 71.7165L9.86153 71.8505C9.29203 75.1616 9.91268 78.5661 11.6151 81.4692C13.3175 84.3723 15.9934 86.5896 19.1754 87.7336L18.493 88.7165C16.3427 88.0684 14.3631 86.9573 12.6953 85.4624C11.0275 83.9675 9.71266 82.1257 8.84461 80.0684C8.01468 78.0348 7.64482 75.8451 7.76116 73.654C7.8714 71.5014 8.41313 69.2319 9.50228 67.3491C10.4538 65.7015 11.6972 64.2379 13.1727 63.0288C14.9385 61.596 17.0082 60.5785 19.2266 60.0528C21.4451 59.5271 23.7546 59.5068 25.9821 59.9933C25.9821 60.0556 25.9821 60.1159 25.9821 60.1631C26.1266 60.2084 26.2577 60.2763 26.4022 60.3235C26.8546 60.4744 27.3165 60.6291 27.7556 60.8159C28.4752 61.1283 29.1692 61.4961 29.8312 61.9157L30.6752 62.4383C31.3464 62.8998 31.9817 63.4106 32.576 63.9665C32.9184 64.2755 33.2415 64.605 33.5435 64.9531L34.089 65.6549C34.2302 65.887 34.3878 66.1089 34.5604 66.319C35.3967 67.5962 36.2046 68.9187 36.6988 70.3733Z" fill="url(#paint7_linear_124_289)"/>
<path d="M11.4472 84.1001C11.2844 83.9435 11.138 83.7709 11.01 83.5851C10.9093 83.453 10.7933 83.3323 10.6945 83.1946C10.5957 83.0569 10.5424 82.9493 10.4588 82.8305V82.8173C10.4855 82.8387 10.5085 82.8642 10.5272 82.8927L10.5481 82.9286L10.6489 83.0908C10.6812 83.1491 10.7201 83.2035 10.7648 83.2531L10.7838 83.27C10.8238 83.3285 10.7838 83.2889 10.8161 83.3229C10.8903 83.3964 10.9587 83.4889 11.0271 83.5719L11.0385 83.5851L11.0633 83.5662C11.0953 83.5719 11.1281 83.5719 11.1602 83.5662H11.1792C11.2742 83.5455 11.1792 83.5776 11.2514 83.5511C11.2142 83.4695 11.1649 83.3938 11.1051 83.3266C11.0142 83.1983 10.9311 83.0647 10.8561 82.9267L10.7933 82.8173C10.7321 82.7347 10.6804 82.6454 10.6394 82.5513C10.6394 82.5173 10.6394 82.5343 10.6242 82.506L10.512 82.3173C10.484 82.261 10.4529 82.2062 10.4189 82.1532C10.3828 82.0985 10.3638 82.0362 10.3276 81.9834C10.3078 81.9622 10.294 81.9362 10.2877 81.9079C10.2877 81.8759 10.2877 81.891 10.2687 81.8645C10.2499 81.8397 10.2345 81.8124 10.2231 81.7834L10.2098 81.7495C10.1526 81.6498 10.1037 81.5457 10.0634 81.4382C10.0598 81.4149 10.0534 81.3921 10.0444 81.3703L10.0121 81.3156C9.9798 81.2193 10.0311 81.3156 9.99311 81.2457L9.95889 81.1797V81.1495C9.94269 81.123 9.9287 81.0953 9.91707 81.0665L9.90187 81.025L9.88286 80.9911C9.86956 80.9462 9.8537 80.9021 9.83534 80.859L9.80303 80.7986V80.7666C9.77347 80.7276 9.75331 80.6824 9.7441 80.6345C9.7441 80.5949 9.7441 80.6081 9.7251 80.5798C9.70847 80.5565 9.69684 80.5301 9.69096 80.5022C9.68507 80.4743 9.68505 80.4455 9.69088 80.4175L10.225 81.6966C10.3314 81.9249 10.4569 82.1324 10.5785 82.3513C10.8917 82.9139 11.2382 83.4576 11.6164 83.9794L11.5442 83.9945L11.5232 83.9737C11.4998 84.0017 11.4817 84.0336 11.47 84.0681L11.4472 84.1001Z" fill="#F4A71C"/>
<path d="M11.6142 83.9643C11.7343 84.078 11.8414 84.2046 11.9336 84.3416C12.1123 84.5866 12.31 84.8174 12.5247 85.0321L12.9676 85.4302C13.1805 85.6339 13.3858 85.8603 13.6158 86.0433L14.1575 86.398C14.2412 86.4384 14.3213 86.4857 14.397 86.5395C14.4392 86.5885 14.4744 86.6431 14.5015 86.7017C14.5217 86.7372 14.5452 86.7707 14.5718 86.8017C14.59 86.8257 14.6053 86.8516 14.6175 86.879L13.6253 86.1678C13.511 86.0969 13.4063 86.012 13.3135 85.915C12.8349 85.5377 12.3798 85.132 11.9507 84.7C11.772 84.5114 11.6009 84.3001 11.4355 84.1001L11.466 84.0529C11.4777 84.0185 11.4957 83.9865 11.5192 83.9586L11.5401 83.9794L11.6142 83.9643Z" fill="url(#paint8_linear_124_289)"/>
<path d="M9.26618 74.1784V74.2199C9.27076 74.2664 9.26558 74.3133 9.25098 74.3576L9.16544 74.8651C9.13741 75.012 9.12152 75.1609 9.11792 75.3104L9.15404 75.2896C9.20733 75.2695 9.26468 75.2624 9.32131 75.2688C9.36551 75.2946 9.39866 75.3355 9.41444 75.3839L9.44106 75.2387V75.1764L9.42585 75.1651C9.36429 75.185 9.30041 75.1971 9.23577 75.2009L9.19775 75.1783V75.1557H9.22817C9.3099 75.1557 9.21866 75.1557 9.3004 75.1368H9.34221C9.38213 75.1255 9.41254 75.1009 9.45816 75.0915C9.45533 75.049 9.46248 75.0063 9.47907 74.967V74.9349C9.48198 74.907 9.48902 74.8797 9.49998 74.8538V74.801C9.49998 74.7708 9.49998 74.75 9.50948 74.718C9.5304 74.6121 9.54437 74.5049 9.5513 74.3972C9.50886 74.3587 9.46158 74.3257 9.41064 74.2991L9.38783 74.2841C9.36122 74.2671 9.33841 74.2633 9.3137 74.2501L9.28519 74.2331L9.3118 74.2105C9.38593 74.2407 9.50188 74.3256 9.57601 74.3199L9.59312 74.3708C9.52279 74.8595 9.41444 75.3556 9.38023 75.848C9.31253 76.9757 9.4079 78.1072 9.66345 79.208C9.77946 79.7411 9.93837 80.2641 10.1386 80.772C10.2907 81.1493 10.4884 81.5115 10.6747 81.8794C10.7754 82.0681 10.8647 82.2813 10.9788 82.4737C11.1157 82.7076 11.2962 82.917 11.4502 83.1397C11.6042 83.3623 11.7676 83.6321 11.9444 83.866L12.8948 84.9734C13.1438 85.1828 13.3548 85.4318 13.5981 85.6469C14.1247 86.1116 14.6914 86.5295 15.2917 86.8958C15.3962 86.9619 15.4951 87.043 15.6015 87.1071C15.919 87.2933 16.2478 87.4596 16.5861 87.6052C16.9112 87.7448 17.2742 87.8146 17.5574 88.0334C17.5122 88.1094 17.458 88.1797 17.3959 88.2429C17.331 88.2327 17.2674 88.2163 17.2058 88.1938C16.9811 88.1178 16.7625 88.0251 16.5519 87.9165C16.0539 87.6882 15.554 87.4656 15.0807 87.192C14.921 87.0996 14.7671 86.9826 14.6169 86.8789C14.6047 86.8514 14.5894 86.8255 14.5713 86.8015C14.5446 86.7705 14.5211 86.737 14.501 86.7015C14.4738 86.6429 14.4386 86.5883 14.3964 86.5393C14.3207 86.4855 14.2406 86.4382 14.1569 86.3978L13.6152 86.0431C13.3852 85.8544 13.1799 85.6337 12.967 85.43L12.5222 85.03C12.3075 84.8154 12.1099 84.5845 11.9311 84.3395C11.8389 84.2025 11.7319 84.0759 11.6118 83.9622C11.2336 83.4404 10.887 82.8967 10.5739 82.3341C10.4523 82.1152 10.3268 81.9077 10.2204 81.6794L9.68816 80.3947C9.03048 78.3911 8.79669 76.2555 9.26618 74.1784Z" fill="url(#paint9_linear_124_289)"/>
<path d="M11.5223 77.0575C11.5052 76.7066 11.4368 76.3028 11.509 75.9519C11.507 76.0706 11.5146 76.1892 11.5318 76.3066C11.5423 76.4019 11.5423 76.4981 11.5318 76.5934C11.5646 76.5523 11.5796 76.5001 11.5736 76.4481L11.5946 76.4179V76.3858C11.5846 76.3266 11.596 76.2658 11.6269 76.2142L11.6478 76.184C11.6364 76.433 11.6763 76.8594 11.5223 77.0575Z" fill="#EECEC8"/>
<path d="M12.1322 73.7504C12.1679 73.2123 12.2622 72.6797 12.4135 72.1619C12.4877 71.8921 12.558 71.6091 12.6587 71.3469C13.312 69.715 14.3373 68.2556 15.6544 67.0832C15.9481 66.8331 16.2566 66.6007 16.5782 66.387C16.881 66.1632 17.1985 65.9596 17.5286 65.7777C18.1232 65.4733 18.7498 65.2348 19.397 65.0664C19.8958 64.9188 20.4038 64.8034 20.9177 64.7212C21.6619 64.6256 22.4136 64.6016 23.1625 64.6495C24.9021 64.7437 26.595 65.2426 28.1046 66.1059C28.6681 66.4463 29.1999 66.8358 29.6936 67.27C30.0223 67.5421 30.3334 67.8344 30.625 68.1453C31.8719 69.5282 32.906 71.311 33.3089 73.1316C33.4814 73.9569 33.5377 74.8019 33.4762 75.6426C33.4574 76.08 33.4002 76.5149 33.3051 76.9424V76.9274C33.2963 76.765 33.3007 76.6022 33.3184 76.4406V75.5634C33.2797 74.5787 33.1143 73.6029 32.8261 72.6599C32.7729 72.4713 32.7425 72.2939 32.6779 72.1166C32.6232 71.9867 32.5597 71.8606 32.4878 71.7393L32.4764 71.6996C32.4327 71.577 32.3585 71.4506 32.3034 71.3318L31.8662 70.4885C31.6359 70.063 31.3821 69.6504 31.1059 69.2528C30.9652 69.0641 30.7961 68.8754 30.6402 68.6981C29.7258 67.6041 28.5925 66.7105 27.3119 66.0739C26.1264 65.4841 24.8476 65.1012 23.5313 64.9419C22.7869 64.8777 22.0384 64.8777 21.294 64.9419L20.452 65.0212C20.2983 65.0358 20.1466 65.0668 19.9996 65.1136L19.6822 65.1928C19.5583 65.227 19.4389 65.2758 19.3267 65.3381C19.2963 65.4739 19.1176 65.6022 19.0226 65.7154L18.977 65.6588C18.8904 65.6392 18.8097 65.5998 18.7413 65.5437C16.6988 66.4238 14.9782 67.9056 13.8125 69.7885C13.519 70.2464 13.2646 70.7279 13.0522 71.228C12.6958 72.1261 12.447 73.0626 12.3109 74.0183L12.2862 74.0541C12.2509 74.1145 12.2375 74.1851 12.2482 74.2541V74.2899L12.2235 74.3277C12.2267 74.3575 12.2241 74.3877 12.2156 74.4165C12.2071 74.4453 12.193 74.4722 12.174 74.4956C12.1815 74.3866 12.1771 74.2772 12.1607 74.1692C12.1393 74.0306 12.1297 73.8905 12.1322 73.7504Z" fill="#F6F7EB"/>
<path d="M20 65.1136C20.149 65.0729 20.3019 65.0482 20.4562 65.04L21.2982 64.9608C22.0426 64.8966 22.7911 64.8966 23.5355 64.9608C24.8518 65.1201 26.1307 65.503 27.3161 66.0927C28.5949 66.7238 29.7281 67.6109 30.6444 68.6981C30.8003 68.8867 30.9695 69.0584 31.1101 69.2527C31.3863 69.6504 31.6401 70.063 31.8704 70.4884L32.3076 71.3317C32.3627 71.4506 32.4369 71.577 32.4806 71.6996L32.492 71.7392C32.2559 71.6684 32.0303 71.5669 31.821 71.4374L30.6805 70.7827L29.35 70.0281L23.756 67.0398L22.3 66.2455C22.1859 66.1814 22.0814 66.1003 21.9654 66.0399L20.709 65.4154C20.4752 65.3117 20.2205 65.2381 20 65.1136Z" fill="#E8F6A6" fill-opacity="0.5"/>
<path d="M18.7403 65.5398C18.8087 65.5958 18.8895 65.6352 18.976 65.6549L19.0216 65.7115C18.8936 65.8683 18.7875 66.0416 18.7061 66.2265C18.5391 66.5054 18.4112 66.8056 18.3259 67.1189C18.2341 67.7406 18.2219 68.3713 18.2898 68.996C18.3062 69.4795 18.3532 69.9616 18.4304 70.4392C18.5284 70.949 18.6554 71.4529 18.8106 71.9485C19.0544 72.6776 19.3729 73.3799 19.761 74.0445C20.2355 74.9256 20.7903 75.7617 21.4185 76.5423C21.6086 76.7687 21.8196 76.9725 22.0172 77.1875C22.6175 77.8496 23.2587 78.4741 23.937 79.0571C24.6802 79.6873 25.4577 80.2438 26.2579 80.8079C26.5316 80.9965 26.8281 81.1852 27.0942 81.3739C27.3429 81.598 27.6113 81.7994 27.8964 81.9757C27.9626 82.0071 28.0362 82.0201 28.1093 82.0134L28.0294 82.036C28.1017 82.0983 28.1872 82.1549 28.2005 82.2549C27.6056 81.9304 27.0163 81.6285 26.3339 81.5399H26.2921C25.4218 81.4473 24.5486 81.6868 23.8496 82.2096C23.263 82.7022 22.7076 83.2302 22.1864 83.7906C21.9222 84.0509 21.5496 84.3245 21.3691 84.6471L20.7171 85.613C20.0759 85.3891 19.4498 85.1245 18.8429 84.8206C18.6947 84.7433 18.5616 84.632 18.4152 84.5584C18.2252 84.4509 18.0351 84.3697 17.845 84.2415C17.4877 84.0075 17.1132 83.766 16.7825 83.5C16.5163 83.285 16.273 83.0435 16.0221 82.8077C15.4336 82.257 14.8973 81.6539 14.4198 81.006C14.3076 80.8475 14.2297 80.6702 14.1157 80.5079C13.4131 79.475 12.8776 78.3394 12.5285 77.1423C12.4222 76.7753 12.3384 76.4024 12.2776 76.0254C12.2472 75.8066 12.2548 75.5839 12.2225 75.3651C12.2073 75.2557 12.1673 75.15 12.1445 75.0406C12.3251 74.8086 12.2814 74.3124 12.3023 74.0237C12.4384 73.068 12.6872 72.1315 13.0436 71.2335C13.256 70.7334 13.5104 70.2519 13.8039 69.794C14.9701 67.9064 16.6937 66.421 18.7403 65.5398Z" fill="#FF5800"/>
<path d="M19.6834 65.189L20.0009 65.1135C20.2214 65.2418 20.4761 65.3154 20.7099 65.4229L21.9663 66.0474C22.0822 66.1078 22.1868 66.1889 22.3008 66.253L23.7568 67.0435L29.3566 70.0356L30.6871 70.7902L31.8276 71.4449C32.0369 71.5744 32.2625 71.6758 32.4986 71.7467C32.5705 71.8681 32.634 71.9942 32.6886 72.1241C32.7533 72.3014 32.7837 72.4863 32.8369 72.6674C33.1167 73.609 33.2745 74.5821 33.3064 75.5633V76.433C33.2887 76.5946 33.2842 76.7574 33.2931 76.9197V76.9348C33.2435 77.4078 33.1448 77.8743 32.9985 78.3271C32.851 78.8469 32.6557 79.3521 32.4149 79.8364C32.299 80.0571 32.1564 80.259 32.0196 80.4665C31.5686 81.1627 31.0165 81.7889 30.3811 82.3248C30.191 82.4851 29.98 82.6247 29.7785 82.7738C29.638 82.8869 29.4893 82.9897 29.3338 83.0813C29.2558 82.87 28.4214 82.4361 28.1933 82.2588C28.18 82.1588 28.0944 82.1022 28.0222 82.0399L28.102 82.0173C28.029 82.024 27.9554 82.011 27.8892 81.9795C27.6041 81.8033 27.3356 81.6018 27.087 81.3777C26.8228 81.1759 26.5168 81.0004 26.2507 80.8117C25.4599 80.2458 24.673 79.6911 23.9298 79.061C23.2526 78.4766 22.6127 77.8509 22.0138 77.1876C21.8237 76.9726 21.5994 76.7688 21.4151 76.5424C20.7865 75.7594 20.2317 74.9207 19.7576 74.037C19.3695 73.3724 19.051 72.6701 18.8072 71.9411C18.6519 71.4455 18.525 70.9416 18.427 70.4318C18.3514 69.9565 18.3057 69.477 18.2902 68.9961C18.228 68.3707 18.2458 67.7399 18.3434 67.119C18.4287 66.8057 18.5566 66.5055 18.7235 66.2266C18.805 66.0417 18.9111 65.8684 19.0391 65.7116C19.1341 65.6059 19.3128 65.4776 19.3432 65.3343C19.4506 65.273 19.5648 65.2243 19.6834 65.189Z" fill="url(#paint10_linear_124_289)" fill-opacity="0.5"/>
<g opacity="0.59">
<path d="M22.9328 64.959C25.2886 64.959 27.5715 65.7697 29.3925 67.2531C31.2136 68.7364 32.4601 70.8006 32.9196 73.0938C33.3792 75.387 33.0234 77.7675 31.9129 79.8296C30.8023 81.8916 29.0058 83.5077 26.8293 84.4025C24.6529 85.2973 22.2311 85.4153 19.9768 84.7366C17.7225 84.0578 15.775 82.6242 14.4662 80.6801C13.1574 78.736 12.5683 76.4016 12.7992 74.0747C13.0302 71.7478 14.0668 69.5723 15.7326 67.919C16.6759 66.9774 17.7979 66.231 19.0339 65.7229C20.2698 65.2148 21.5951 64.9551 22.9328 64.959ZM22.9328 63.5384C20.2459 63.538 17.6419 64.4623 15.5647 66.1539C13.4874 67.8455 12.0654 70.1996 11.5408 72.8151C11.0163 75.4307 11.4218 78.1458 12.6881 80.4979C13.9544 82.85 16.0033 84.6935 18.4855 85.7144C20.9678 86.7352 23.73 86.8702 26.3013 86.0964C28.8726 85.3225 31.094 83.6877 32.5871 81.4705C34.0801 79.2532 34.7523 76.5907 34.4892 73.9367C34.2262 71.2827 33.044 68.8013 31.1442 66.9153C30.0671 65.8434 28.7872 64.9933 27.378 64.4137C25.9688 63.8342 24.4582 63.5367 22.9328 63.5384Z" fill="url(#paint11_linear_124_289)"/>
</g>
<path d="M20.6832 78.6102C19.9638 78.3035 19.3361 77.8182 18.8604 77.2009L20.1301 75.9784C20.6652 76.5787 21.3583 77.019 22.1316 77.25C22.603 77.3594 22.8634 77.25 22.9223 77.0613C23.2037 76.2161 19.6093 75.552 20.2004 73.1957C20.3165 72.7056 20.6055 72.2729 21.0152 71.976C21.4249 71.679 21.9281 71.5375 22.4338 71.577L23.3158 68.0416L21.9548 67.7322L21.4131 69.8678L18.2616 69.0943L17.91 70.4941C17.91 70.4941 18.9117 70.713 18.9117 70.7224C19.0943 70.7451 19.2606 70.8381 19.3747 70.9814C19.4889 71.1247 19.5417 71.3068 19.5218 71.4884L18.0012 77.35C17.9648 77.4685 17.8825 77.5678 17.7724 77.6261C17.6623 77.6845 17.5333 77.6971 17.4139 77.6612H17.4005L16.3988 77.433L15.7393 78.9234L17.45 79.3403L18.9212 79.7176L18.3814 81.8834L19.7328 82.2211L20.6832 78.6102ZM25.5378 75.5502C25.9858 75.4602 26.3917 75.227 26.6935 74.8863C26.9952 74.5455 27.1762 74.1161 27.2086 73.6636C27.277 73.1084 27.1499 72.5469 26.8489 72.0741C26.5479 71.6014 26.0914 71.2465 25.5568 71.0695H25.4979L26.0681 68.7849L24.7072 68.4472L24.2054 70.5224L23.8765 71.843C24.7197 72.113 25.4326 72.6828 25.8781 73.4429L24.5361 74.4352C24.1343 73.9494 23.5881 73.6021 22.9756 73.4429C22.5251 73.3429 22.2647 73.4429 22.2038 73.6806C22.0442 74.3767 25.5777 75.1615 25.036 77.416C24.7661 78.5291 23.7264 79.2346 22.0347 79.0347L21.6735 80.4855L21.204 82.5814L22.584 82.9097L23.1542 80.6345H23.3234C24.9657 80.7647 26.186 80.3477 26.7657 78.7083C26.9005 78.4397 26.9807 78.1475 27.0017 77.8481C27.0227 77.5488 26.9841 77.2483 26.8881 76.9638C26.7921 76.6793 26.6405 76.4164 26.4421 76.19C26.2437 75.9636 26.0023 75.7783 25.7317 75.6445C25.669 75.6049 25.6044 75.5766 25.5378 75.5502Z" fill="url(#paint12_linear_124_289)"/>
<path d="M20.6832 78.6102C19.9638 78.3035 19.3361 77.8182 18.8604 77.2009L20.1301 75.9784C20.6652 76.5787 21.3583 77.019 22.1316 77.25C22.603 77.3594 22.8634 77.25 22.9223 77.0613C23.2037 76.2161 19.6093 75.552 20.2004 73.1957C20.3165 72.7056 20.6055 72.2729 21.0152 71.976C21.4249 71.679 21.9281 71.5375 22.4338 71.577L23.3158 68.0416L21.9548 67.7322L21.4131 69.8678L18.2616 69.0943L17.91 70.4941C17.91 70.4941 18.9117 70.713 18.9117 70.7224C19.0943 70.7451 19.2606 70.8381 19.3747 70.9814C19.4889 71.1247 19.5417 71.3068 19.5218 71.4884L18.0012 77.35C17.9648 77.4685 17.8825 77.5678 17.7724 77.6261C17.6623 77.6845 17.5333 77.6971 17.4139 77.6612H17.4005L16.3988 77.433L15.7393 78.9234L17.45 79.3403L18.9212 79.7176L18.3814 81.8834L19.7328 82.2211L20.6832 78.6102ZM25.5378 75.5502C25.9858 75.4602 26.3917 75.227 26.6935 74.8863C26.9952 74.5455 27.1762 74.1161 27.2086 73.6636C27.277 73.1084 27.1499 72.5469 26.8489 72.0741C26.5479 71.6014 26.0914 71.2465 25.5568 71.0695H25.4979L26.0681 68.7849L24.7072 68.4472L24.2054 70.5224L23.8765 71.843C24.7197 72.113 25.4326 72.6828 25.8781 73.4429L24.5361 74.4352C24.1343 73.9494 23.5881 73.6021 22.9756 73.4429C22.5251 73.3429 22.2647 73.4429 22.2038 73.6806C22.0442 74.3767 25.5777 75.1615 25.036 77.416C24.7661 78.5291 23.7264 79.2346 22.0347 79.0347L21.6735 80.4855L21.204 82.5814L22.584 82.9097L23.1542 80.6345H23.3234C24.9657 80.7647 26.186 80.3477 26.7657 78.7083C26.9005 78.4397 26.9807 78.1475 27.0017 77.8481C27.0227 77.5488 26.9841 77.2483 26.8881 76.9638C26.7921 76.6793 26.6405 76.4164 26.4421 76.19C26.2437 75.9636 26.0023 75.7783 25.7317 75.6445C25.669 75.6049 25.6044 75.5766 25.5378 75.5502Z" fill="url(#paint13_linear_124_289)"/>
<path d="M10.1496 90.8408C10.9286 90.8408 11.56 90.2141 11.56 89.4409C11.56 88.6678 10.9286 88.0411 10.1496 88.0411C9.37071 88.0411 8.73926 88.6678 8.73926 89.4409C8.73926 90.2141 9.37071 90.8408 10.1496 90.8408Z" fill="url(#paint14_linear_124_289)"/>
<path d="M15.0942 36.5836C17.7162 36.5836 19.8417 34.4581 19.8417 31.8361C19.8417 29.2141 17.7162 27.0886 15.0942 27.0886C12.4722 27.0886 10.3467 29.2141 10.3467 31.8361C10.3467 34.4581 12.4722 36.5836 15.0942 36.5836Z" fill="url(#paint15_linear_124_289)"/>
<path d="M73.4204 74.5636C74.5441 74.5636 75.455 73.6527 75.455 72.529C75.455 71.4053 74.5441 70.4943 73.4204 70.4943C72.2967 70.4943 71.3857 71.4053 71.3857 72.529C71.3857 73.6527 72.2967 74.5636 73.4204 74.5636Z" fill="url(#paint16_linear_124_289)"/>
<path d="M87.6631 85.415C89.1613 85.415 90.3759 84.2004 90.3759 82.7022C90.3759 81.2039 89.1613 79.9893 87.6631 79.9893C86.1648 79.9893 84.9502 81.2039 84.9502 82.7022C84.9502 84.2004 86.1648 85.415 87.6631 85.415Z" fill="url(#paint17_linear_124_289)"/>
<path d="M30.6924 16.2371C32.1906 16.2371 33.4052 15.0225 33.4052 13.5242C33.4052 12.026 32.1906 10.8114 30.6924 10.8114C29.1941 10.8114 27.9795 12.026 27.9795 13.5242C27.9795 15.0225 29.1941 16.2371 30.6924 16.2371Z" fill="url(#paint18_linear_124_289)"/>
</g>
<defs>
<linearGradient id="paint0_linear_124_289" x1="109.477" y1="-9.98111" x2="118.916" y2="-24.6122" gradientUnits="userSpaceOnUse">
<stop stop-color="#51F3D3"/>
<stop offset="1" stop-color="white"/>
</linearGradient>
<linearGradient id="paint1_linear_124_289" x1="98.1627" y1="52.9284" x2="104.561" y2="4.11574" gradientUnits="userSpaceOnUse">
<stop stop-color="#339582"/>
<stop offset="1" stop-color="#75DFC8"/>
</linearGradient>
<linearGradient id="paint2_linear_124_289" x1="89.595" y1="20.6997" x2="83.3725" y2="19.5167" gradientUnits="userSpaceOnUse">
<stop stop-color="#00FAF6"/>
<stop offset="1" stop-color="#CFFEFD"/>
</linearGradient>
<linearGradient id="paint3_linear_124_289" x1="67.4469" y1="51.0087" x2="70.0329" y2="-4.91326" gradientUnits="userSpaceOnUse">
<stop stop-color="#FFA808"/>
<stop offset="1" stop-color="#FF9938"/>
</linearGradient>
<linearGradient id="paint4_linear_124_289" x1="64.8994" y1="28.731" x2="80.7062" y2="26.4331" gradientUnits="userSpaceOnUse">
<stop/>
<stop offset="1" stop-color="#010B20"/>
</linearGradient>
<linearGradient id="paint5_linear_124_289" x1="26.4075" y1="61.1914" x2="20.9071" y2="86.4954" gradientUnits="userSpaceOnUse">
<stop stop-color="#FFBF13"/>
<stop offset="1" stop-color="#FF9529"/>
</linearGradient>
<linearGradient id="paint6_linear_124_289" x1="34.9134" y1="84.102" x2="27.4123" y2="74.8959" gradientUnits="userSpaceOnUse">
<stop stop-color="#F63E00"/>
<stop offset="1" stop-color="#FF8B0A"/>
</linearGradient>
<linearGradient id="paint7_linear_124_289" x1="12.1197" y1="63.9683" x2="27.5536" y2="79.9917" gradientUnits="userSpaceOnUse">
<stop stop-color="#FC4100"/>
<stop offset="1" stop-color="white"/>
</linearGradient>
<linearGradient id="paint8_linear_124_289" x1="12.7328" y1="85.6886" x2="13.3148" y2="85.2136" gradientUnits="userSpaceOnUse">
<stop stop-color="#FD8A00"/>
<stop offset="1" stop-color="#FCDA42"/>
</linearGradient>
<linearGradient id="paint9_linear_124_289" x1="15.9665" y1="80.6579" x2="9.92016" y2="81.9449" gradientUnits="userSpaceOnUse">
<stop stop-color="#FEC03E"/>
<stop offset="1" stop-color="#FFDE69"/>
</linearGradient>
<linearGradient id="paint10_linear_124_289" x1="22.6572" y1="80.3712" x2="27.4528" y2="68.0632" gradientUnits="userSpaceOnUse">
<stop stop-color="#FFA101"/>
<stop offset="1" stop-color="#FBCF01"/>
</linearGradient>
<linearGradient id="paint11_linear_124_289" x1="14.7214" y1="83.2154" x2="31.021" y2="66.793" gradientUnits="userSpaceOnUse">
<stop stop-color="#C10501"/>
<stop offset="1" stop-color="#FF5903"/>
</linearGradient>
<linearGradient id="paint12_linear_124_289" x1="26.2601" y1="68.117" x2="13.375" y2="88.6248" gradientUnits="userSpaceOnUse">
<stop stop-color="white"/>
<stop offset="0.03" stop-color="#FFFBF5"/>
<stop offset="1" stop-color="#FFA50E"/>
</linearGradient>
<linearGradient id="paint13_linear_124_289" x1="26.2601" y1="68.117" x2="13.375" y2="88.6248" gradientUnits="userSpaceOnUse">
<stop stop-color="white"/>
<stop offset="0.03" stop-color="#FFFBF5"/>
<stop offset="1" stop-color="#FFA50E"/>
</linearGradient>
<linearGradient id="paint14_linear_124_289" x1="10.0194" y1="90.8347" x2="10.2774" y2="88.0463" gradientUnits="userSpaceOnUse">
<stop stop-color="#F63E00"/>
<stop offset="1" stop-color="#FF8B0A"/>
</linearGradient>
<linearGradient id="paint15_linear_124_289" x1="14.6559" y1="36.5629" x2="15.5372" y2="27.1073" gradientUnits="userSpaceOnUse">
<stop stop-color="#F63E00"/>
<stop offset="1" stop-color="#FF8B0A"/>
</linearGradient>
<linearGradient id="paint16_linear_124_289" x1="73.2325" y1="74.5547" x2="73.6103" y2="70.5023" gradientUnits="userSpaceOnUse">
<stop stop-color="#F63E00"/>
<stop offset="1" stop-color="#FF8B0A"/>
</linearGradient>
<linearGradient id="paint17_linear_124_289" x1="87.4126" y1="85.4032" x2="87.9162" y2="80" gradientUnits="userSpaceOnUse">
<stop stop-color="#F63E00"/>
<stop offset="1" stop-color="#FF8B0A"/>
</linearGradient>
<linearGradient id="paint18_linear_124_289" x1="30.4419" y1="16.2252" x2="30.9455" y2="10.8221" gradientUnits="userSpaceOnUse">
<stop stop-color="#F63E00"/>
<stop offset="1" stop-color="#FF8B0A"/>
</linearGradient>
<clipPath id="clip0_124_289">
<rect width="100" height="100" fill="white"/>
</clipPath>
</defs>
</svg>
