<svg width="36" height="36" viewBox="0 0 36 36" fill="none" xmlns="http://www.w3.org/2000/svg">
<g opacity="0.94" clip-path="url(#clip0_412_10060)">
<path d="M35.64 17.9999C35.64 22.8763 33.66 27.2781 30.4691 30.469C30.0273 30.9108 29.5691 31.3199 29.0782 31.7126C28.5545 32.1545 27.9982 32.5472 27.4091 32.9236C27.2455 33.0217 27.0818 33.1199 26.9182 33.2181C26.9018 33.2181 26.8691 33.2508 26.8527 33.2508C26.3127 33.5781 25.74 33.8563 25.1673 34.1181C24.5945 34.3799 23.9891 34.609 23.3836 34.789C23.3836 34.789 23.3018 34.8381 23.2691 34.8381C23.04 34.9199 22.8109 34.9854 22.5818 35.0345C21.6655 35.2963 20.7164 35.4599 19.7345 35.5417C19.7182 35.5581 19.6855 35.5581 19.6527 35.5581C19.6036 35.5745 19.5382 35.5745 19.4891 35.5745C19.2764 35.5745 19.0636 35.6072 18.8509 35.6236C18.5727 35.6399 18.2945 35.6399 18.0164 35.6399C16.8873 35.6399 15.7909 35.5417 14.7436 35.329C14.6945 35.329 14.6455 35.3126 14.6127 35.3126C14.3673 35.2636 14.1382 35.2145 13.9091 35.149C12.9109 34.9199 11.9455 34.5926 11.0127 34.1999C8.96727 33.2999 7.10182 32.0236 5.54727 30.469C2.34 27.2781 0.360001 22.8763 0.360001 17.9999C0.360001 13.1236 2.34 8.70538 5.53091 5.53083C8.72182 2.32356 13.1236 0.359924 18 0.359924C27.7364 0.359924 35.64 8.2472 35.64 17.9999Z" fill="#262B34"/>
<path d="M35.64 17.9999C35.64 22.8763 33.66 27.2781 30.4691 30.469C30.0273 30.9108 29.5691 31.3199 29.0782 31.7126C28.5545 32.1545 27.9982 32.5472 27.4091 32.9236C27.2455 33.0217 27.0818 33.1199 26.9182 33.2181C26.9018 33.2181 26.8691 33.2508 26.8527 33.2508C26.3127 33.5781 25.74 33.8563 25.1673 34.1181C24.5945 34.3799 23.9891 34.609 23.3836 34.789C23.3836 34.789 23.3018 34.8381 23.2691 34.8381C23.04 34.9199 22.8109 34.9854 22.5818 35.0345C21.6655 35.2963 20.7164 35.4599 19.7345 35.5417C19.7182 35.5581 19.6855 35.5581 19.6527 35.5581C19.6036 35.5745 19.5382 35.5745 19.4891 35.5745C19.2764 35.5745 19.0636 35.6072 18.8509 35.6236C18.5727 35.6399 18.2945 35.6399 18.0164 35.6399C16.8873 35.6399 15.7909 35.5417 14.7436 35.329C14.6945 35.329 14.6455 35.3126 14.6127 35.3126C14.3673 35.2636 14.1382 35.2145 13.9091 35.149C12.9109 34.9199 11.9455 34.5926 11.0127 34.1999C8.96727 33.2999 7.10182 32.0236 5.54727 30.469C2.34 27.2781 0.360001 22.8763 0.360001 17.9999C0.360001 13.1236 2.34 8.70538 5.53091 5.53083C8.72182 2.32356 13.1236 0.359924 18 0.359924C27.7364 0.359924 35.64 8.2472 35.64 17.9999Z" stroke="#FF591F" stroke-width="0.459484"/>
<path d="M14.7273 35.3291C15.7745 35.5418 16.8709 35.64 18 35.64C18.2782 35.64 18.5564 35.64 18.8345 35.6236L19.4727 35.5745C19.4727 35.5745 19.5873 35.5745 19.6364 35.5582C19.6691 35.5582 19.7018 35.5582 19.7182 35.5418C20.7 35.46 21.6491 35.2963 22.5654 35.0345C22.7945 34.9854 23.0236 34.92 23.2527 34.8382C23.2854 34.8382 23.3182 34.8218 23.3673 34.8054H23.3836C24.0873 34.6418 24.6927 34.3963 25.1673 34.1182C25.74 33.8563 26.3127 33.5782 26.8527 33.2509C26.8691 33.2509 26.9018 33.2345 26.9182 33.2182L27.4091 32.9236C27.9982 32.5472 28.5545 32.1545 29.0782 31.7127L27.9164 29.4218C27.5073 28.62 27.1309 27.8345 26.3291 27.4582L24.0709 26.3782H24.0545L23.9891 26.3454H23.9727L23.8254 26.2636H22.9582L22.9418 26.28C22.9418 26.2963 22.9254 26.28 22.9254 26.28L18.4909 26.3945H18.4745L17.0182 26.4272H16.9854L15.5291 26.46H15.48L15.4636 26.4763L13.1891 26.7709L12.0927 26.5418L11.7164 26.46V29.34L10.5545 29.4872L8.88544 29.7163L8.75453 29.16L8.70544 28.98V28.8818L7.82181 28.9636L7.91999 29.1272L7.96908 29.2254L9.96544 32.4982L10.9964 34.2C11.9291 34.5927 12.8945 34.92 13.8927 35.1491C14.1218 35.2145 14.3509 35.2636 14.5964 35.3127H14.7273V35.3291Z" fill="#FF591F"/>
<path d="M7.80545 28.9637L9.96545 32.4982C9.78545 30.7473 11.1927 26.8691 13.1891 26.7709L11.4545 26.2964L7.80545 28.9637Z" fill="#EA3921"/>
<path d="M14.7273 35.3291C15.7745 35.5418 16.8709 35.64 18 35.64C18.2782 35.64 18.5564 35.64 18.8345 35.6237L19.4727 35.5746C19.4727 35.5746 19.5873 35.5746 19.6364 35.5582C19.6691 35.5582 19.7018 35.5582 19.7182 35.5418C20.7 35.46 21.6491 35.2964 22.5655 35.0346C22.7945 34.9855 23.0236 34.92 23.2527 34.8382C23.2855 34.8382 23.3182 34.8218 23.3673 34.8055C23.3345 34.8055 23.3018 34.8218 23.2527 34.8218C23.04 34.8709 22.8109 34.92 22.5655 34.9364C22.2545 34.9855 21.9109 35.0018 21.5509 35.0018C20.88 35.0018 20.2418 34.9527 19.6527 34.8382C19.6364 34.8546 19.62 34.8546 19.62 34.8382C19.5545 34.8382 19.5055 34.8218 19.4564 34.8055C19.2436 34.7727 19.0309 34.74 18.8345 34.6746C16.4455 34.1018 15.0709 32.76 14.4818 31.2055C14.4818 31.2055 14.4491 31.1564 14.4491 31.14C14.3182 31.7291 14.2691 33.8891 14.5964 35.3127H14.7273V35.3291Z" fill="#EA3921"/>
<path d="M26.9182 32.58V33.2181C26.9182 33.2181 26.8691 33.2509 26.8527 33.2509C26.3127 33.5781 25.74 33.8563 25.1673 34.1181C26.0836 33.5945 26.6073 32.989 26.82 32.7272C26.8854 32.629 26.9182 32.58 26.9182 32.58Z" fill="#EA3921"/>
<path d="M26.0018 27.5891L23.3673 34.2655V34.8055C23.3673 34.8055 23.2855 34.8382 23.2527 34.8382C23.0236 34.92 22.7945 34.9855 22.5655 35.0346C21.6491 35.2964 20.7 35.46 19.7182 35.5418C19.7018 35.3782 19.6855 35.2309 19.6855 35.1655C19.6855 35.0509 19.6691 34.9364 19.6527 34.8382C19.6364 34.6418 19.6036 34.4782 19.6036 34.4782L13.8436 27.3109L13.6145 27.0327L14.2036 26.9346L15.3 26.64L21.4691 33.3164L21.5673 33.4146L24.2018 26.7218L25.9364 27.5564L26.0018 27.5891Z" fill="#E0FCFD"/>
<path d="M22.5327 34.151L22.5655 34.9364V35.0346C21.6491 35.2964 20.7 35.46 19.7182 35.5419C19.7018 35.3782 19.6855 35.231 19.6855 35.1655C19.6855 35.051 19.6691 34.9364 19.6527 34.8382C19.6364 34.6419 19.6036 34.4782 19.6036 34.4782L14.2855 27.9L13.7782 27.36L13.7455 27.3273H13.8436L15.12 27.18L21.3545 34.0691L24.2018 26.7219L25.2982 27.6382L22.5327 34.151Z" fill="#C4C3C2"/>
<path d="M8.36181 10.4728L6.46362 5.85822H13.1073L8.36181 10.4728Z" fill="#FF591F"/>
<path d="M28.26 10.1946L29.9127 6.16913H24.1527L28.26 10.1946Z" fill="#FF591F"/>
<path d="M30.9273 16.609C30.9109 16.8872 30.9109 17.149 30.8782 17.4108V17.5254C30.7309 18.3927 30.5018 19.2108 30.1909 19.9963C28.8818 23.2363 26.0673 25.8054 22.5491 26.8854C21.5346 27.2127 20.4382 27.409 19.3091 27.4581C18.4091 26.329 17.3127 24.8236 16.3146 23.1217C16.1509 22.8436 15.9873 22.5654 15.84 22.2708C15.6273 21.9108 15.4473 21.5672 15.2509 21.1908C14.7273 20.1763 14.2527 19.1454 13.8436 18.049C13.7946 17.8854 13.7291 17.7217 13.68 17.5417C13.2546 16.3636 12.9273 15.1527 12.7309 13.9417C12.6491 13.549 12.6164 13.1563 12.5836 12.7636C12.5346 12.3381 12.5182 11.929 12.5182 11.5199C12.5182 9.03266 13.2218 6.6272 15.0055 4.56538C16.1509 4.22175 17.3782 4.04175 18.6382 4.04175H18.6709C21.2564 4.04175 23.6618 4.79448 25.6418 6.07084H25.6582C25.6746 6.07084 25.6909 6.07084 25.7073 6.11993H25.7236C26.9018 6.88902 27.9491 7.87084 28.7673 8.98357C29.7164 10.2436 30.42 11.6836 30.78 13.2545C30.78 13.2872 30.7964 13.3036 30.7964 13.3363C30.8618 13.729 30.9109 14.1381 30.9436 14.5308C30.9927 15.2181 31.0091 15.9054 30.9764 16.5927L30.9273 16.609Z" fill="#FF591F"/>
<path d="M30.1909 15.4309C30.6654 23.5473 24.8236 27.0982 19.8327 27.3273C19.1945 27.3764 18.4418 27.2455 17.9182 27.1637C11.9782 26.1164 6.62727 20.88 6.21818 15.7091C5.80908 10.5382 9.89999 6.05457 14.9564 4.59821C13.1727 6.66002 12.4691 9.03275 12.4691 11.5037C12.4691 11.9128 12.4854 12.3218 12.5182 12.7309C12.5509 13.1237 12.6 13.5164 12.6654 13.9091C12.8618 15.12 13.1891 16.3146 13.6145 17.4764C13.6636 17.6564 13.7291 17.82 13.7782 17.9673C14.1873 19.0473 14.6618 20.0782 15.2018 21.0764C15.3982 21.4527 15.5782 21.7964 15.7909 22.1564C15.9382 22.4346 16.1018 22.7291 16.2654 22.9909H16.2818C16.8054 23.2855 27.7527 15.7746 30.1582 15.4309H30.1909Z" fill="#EA3921"/>
<path d="M31.0418 16.511C31.0254 16.7891 30.9927 17.051 30.9764 17.3128V17.4273C30.8454 18.2946 30.6164 19.0964 30.3054 19.8819C28.9964 23.0891 27 25.4946 23.4818 26.5746C27.0327 25.1346 28.4564 23.0237 29.4873 19.8164C30.3054 17.2964 29.88 15.0219 30.0109 14.171V14.7437C30.0273 14.4819 30.0273 14.3019 30.0109 14.171C29.9782 13.6473 29.7 14.04 29.5364 12.9764C29.5036 12.9764 29.5036 12.911 29.5036 12.8946C29.2582 11.8146 28.9145 10.7837 28.4891 9.85095C27.8182 8.41095 26.9345 7.15095 25.7891 6.15277H25.8054C26.9836 6.92186 28.0309 7.88732 28.8491 8.98368C29.7982 10.2273 30.5018 11.651 30.8618 13.2219V13.3037C30.9273 13.6964 30.9927 14.1055 31.0254 14.4819C31.0745 15.1691 31.0909 15.84 31.0582 16.5273L31.0418 16.511Z" fill="#FF7B61"/>
<path d="M26.8364 22.4345C26.8364 22.4345 26.8036 22.4509 26.8036 22.4672C24.3655 25.7727 22.1891 27.18 19.9309 27.18C17.82 27.18 14.3509 25.3309 11.9455 22.8763C17.3946 20.2909 21.2236 20.16 26.8527 22.4345H26.8364Z" fill="#E0FCFD"/>
<path d="M26.8364 22.4345C21.2073 20.1599 17.3782 20.2908 11.9291 22.8763C11.7818 22.7127 11.6182 22.549 11.4709 22.3854C8.67274 19.2272 6.92183 14.449 9.52365 12.4036C12.1418 10.3745 16.6255 13.0909 19.2927 16.789C20.8146 14.4981 25.2655 9.98176 28.2436 11.7327C31.5164 13.6963 28.6691 19.8981 26.8364 22.4181V22.4345Z" fill="#00CDFE"/>
<path d="M16.8546 24.2673C17.0509 24.6109 18.6709 24.8236 19.8 24.7745C20.5364 24.7418 22.2873 24.6273 22.5818 24.1527C21.8618 24.2018 17.5582 24.2836 16.8546 24.2836V24.2673Z" fill="#010101"/>
<path d="M8.98364 18.4745C9.01637 14.7927 11.9291 12.2236 15.9873 13.4345C14.2527 12.3873 11.5036 10.7509 9.52365 12.4036C7.54365 14.0563 8.98364 18.4745 8.98364 18.4745Z" fill="#75DCFC"/>
<path d="M22.6636 13.1727C23.6618 12.6491 29.1764 13.1727 29.2255 17.6727C30.6164 14.0073 28.9309 11.8963 27.9164 11.5854C26.3782 11.1109 23.9073 12.0763 22.6636 13.1891V13.1727Z" fill="#75DCFC"/>
<path d="M14.8418 13.8437C15.2836 13.8437 15.66 14.1873 15.66 14.6128C15.66 14.9728 15.3491 15.2673 14.9727 15.2673C14.5309 15.2673 14.1545 14.891 14.1545 14.4655C14.1545 14.1055 14.4491 13.8437 14.8582 13.8437H14.8418Z" fill="#FBFCFC"/>
<path d="M23.7109 14.8746C23.2691 14.8746 23.0073 14.4982 23.1546 14.0891C23.2855 13.68 23.7436 13.4018 24.1691 13.4837C24.2509 13.4837 24.3164 13.5328 24.3818 13.5655C24.4473 13.5982 24.4964 13.6637 24.5455 13.7291C24.5946 13.7946 24.6109 13.86 24.6273 13.9418C24.6273 14.0237 24.6273 14.0891 24.6273 14.1709C24.5455 14.5637 24.1527 14.8746 23.7273 14.8746H23.7109Z" fill="#FBFCFC"/>
<path d="M26.8855 22.6309C24.2836 21.6982 22.0254 20.9618 19.3254 21.0436C16.4127 21.0273 14.2364 22.32 11.7655 23.0236C8.91818 20.5364 5.61272 15.2509 9.03272 11.9291C12.9764 9.26182 17.5091 13.4345 19.4564 16.6909H19.1127C26.3618 5.05637 35.3127 12.4855 26.8691 22.6473L26.8855 22.6309ZM26.7709 22.2382C27.72 20.6673 28.6364 19.0309 29.1273 17.2473C30.0764 14.6455 29.4054 10.8982 25.8873 11.6673C23.1873 12.4527 21.0927 14.7109 19.4727 16.92C19.4073 17.0182 19.2764 17.0345 19.1782 16.9691C17.4436 14.7109 15.1364 12.4691 12.2236 11.9782C8.68909 11.4545 7.75636 15.1855 8.9509 17.8691C9.62181 19.6855 10.7018 21.3382 12.0764 22.7455L11.8309 22.6964C16.38 20.2582 22.1236 19.9636 26.7709 22.2382Z" fill="#010101"/>
<path d="M14.4327 24.9709C13.86 24.3 13.4836 23.4982 13.9909 22.8927C14.76 21.96 17.5745 21.2073 19.7182 21.2236C24.6109 21.2564 25.9036 22.8927 25.5109 24.0709C26.8036 22.4673 26.7709 22.5 26.8036 22.4673C22.86 21.0273 20.7655 20.6673 19.1127 20.8473C17.46 21.0273 12.3873 22.2055 11.9291 22.8764C12.5836 23.76 14.0073 24.6927 14.4327 24.9709Z" fill="#C4C3C2"/>
<path d="M27.0327 22.3855C26.9836 22.6801 26.9673 22.5655 26.9182 22.6146C25.8055 24.251 22.68 27.671 19.62 27.2782C16.5927 26.9019 13.9582 25.0692 11.7982 23.0237C11.7164 22.9419 11.7 22.811 11.7982 22.7292C16.4618 20.2092 22.3036 19.8819 27.0491 22.3855H27.0327ZM26.6236 22.4673C24.2345 21.7801 21.8455 20.8964 19.3255 21.0273C16.7727 21.0928 14.3182 21.9601 12.0109 23.0564L12.0764 22.7292C17.1982 27.9328 22.2873 29.1601 26.64 22.3364L26.6073 22.451C26.6073 22.3528 26.7218 22.2382 26.7218 22.2546C26.7382 22.2873 26.6891 22.1728 26.6564 22.451L26.6236 22.4673Z" fill="#010101"/>
<path d="M15.2018 35.3291C14.7927 34.0363 14.6782 32.6291 14.6618 31.2054C14.6455 31.0091 14.6455 30.8454 14.6455 30.6654L14.4655 30.6327C14.2855 32.1054 14.1545 33.6436 14.3673 35.1491C14.5964 35.2145 14.8255 35.2636 15.0709 35.3127H15.2018V35.3291Z" fill="#010101"/>
<path d="M27.4091 32.9236C27.2455 33.0218 27.0818 33.12 26.9182 33.2182C26.9018 33.2182 26.8691 33.2509 26.8527 33.2509C26.8527 33.0709 26.8527 32.9073 26.82 32.7273C26.7218 31.6636 26.5582 30.6164 26.3127 29.6018L26.4273 29.5527C26.8527 30.6491 27.1636 31.7782 27.4091 32.9236Z" fill="#010101"/>
<path d="M24.0709 26.3782L20.9782 32.7109L21.42 33.1364L24.0709 26.3782Z" fill="#EA3921"/>
<path d="M18.8345 34.5109L13.0909 26.7872L19.4564 34.5272V35.5745C19.26 35.5745 19.0473 35.6072 18.8345 35.6236V34.5109Z" fill="#EA3921"/>
<path d="M25.9691 27.4746L25.9364 27.5564L23.2527 34.2655V34.8382C23.0236 34.92 22.7946 34.9855 22.5655 35.0346C21.6491 35.2964 20.7 35.46 19.7182 35.5418C19.7018 35.5582 19.6691 35.5582 19.6364 35.5582V34.8382L19.6036 34.4782L13.7782 27.36L13.7455 27.3273L13.4018 26.9019L15.3 26.64L21.4364 33.4146L21.4691 33.3164L24.1691 26.5909L25.9691 27.4746Z" stroke="#010101" stroke-width="0.198414" stroke-miterlimit="10"/>
<path d="M12.3873 25.1836L13.0909 29.1599L9.80182 30.1418L9.42546 29.209L11.9618 28.6036C11.9618 28.6036 7.77273 29.6345 5.87455 30.0272C5.05637 29.0127 4.41819 27.2618 4.56546 25.3472L10.9309 23.4654L11.4055 24.8563L12.3709 25.1999L12.3873 25.1836Z" fill="#FBFCFC"/>
<path d="M4.79455 27.2454L6.31636 26.7709C6.31636 27.4745 6.75818 29.2581 7.03636 29.52C5.82546 30.0109 5.87455 29.9945 5.87455 29.9945C5.38364 29.2581 4.81091 27.8345 4.77818 27.2291L4.79455 27.2454Z" fill="#C4C3C2"/>
<path d="M6.77455 26.6564L8.73819 26.1818C8.73819 26.7873 9.31091 28.6036 9.54001 28.9636C8.3291 29.4546 7.65819 29.5691 7.65819 29.5691C7.16728 28.8327 6.79092 27.1636 6.77455 26.6564Z" fill="#C4C3C2"/>
<path d="M9.21273 26.1327L11.1927 25.8873C11.1927 26.5909 11.4055 28.6364 11.4055 28.6364C10.1945 29.1273 10.0964 28.8982 10.0964 28.8982C9.60546 28.1618 9.22909 26.7382 9.19637 26.1327H9.21273Z" fill="#C4C3C2"/>
<path d="M7.41273 29.7C6.95455 28.6527 6.7091 27.5563 6.61092 26.46H6.74183C6.98728 27.4909 7.38001 28.5218 7.93637 29.4218L7.41273 29.7Z" fill="#010101"/>
<path d="M9.90001 29.0618C9.44182 28.0145 9.19637 26.9345 9.06546 25.8381L9.24546 25.8054C9.49092 26.8527 9.88364 27.8836 10.4073 28.7672L9.88364 29.0454L9.90001 29.0618Z" fill="#010101"/>
<path d="M11.6673 24.6109C11.8309 24.6436 12.6164 24.8073 12.78 24.84L12.8127 25.1182L13.32 28.7673C13.3527 29.6345 12.2236 29.6673 11.6182 29.8636L9.85091 30.3218L9.68728 30.3709C9.67091 30.2891 9.29455 29.3727 9.26182 29.2745L9.18 29.0782L9.39273 29.0291L11.9291 28.4236L11.7818 28.6364L11.4873 25.6091L11.7 25.5764L12.1745 28.5873L12.2073 28.7509L12.0436 28.7836L5.95637 30.2073L5.84182 30.24L5.76 30.1418C4.74546 28.8491 4.28728 27.2127 4.33637 25.5927C4.36909 25.4127 4.46728 25.2327 4.59818 25.1182C4.77818 24.9382 10.4236 23.2527 10.8491 23.1055C10.8491 23.1055 11.1927 22.9909 11.2091 22.9909C11.2582 23.1873 11.6182 24.3818 11.6836 24.6109H11.6673ZM11.2909 24.9709L10.7673 23.4982C10.7673 23.4982 11.0291 23.6291 10.98 23.6127C10.6855 23.7109 4.89273 25.38 4.86 25.4455C4.48364 26.8364 5.17091 28.7018 6.03818 29.88C6.03818 29.88 5.84182 29.8145 5.85818 29.8145L11.9291 28.3909L11.7818 28.6036L11.5364 25.56C11.5364 25.56 11.6345 25.5436 11.6345 25.56L12.1582 28.5545C12.1909 28.7509 12.2236 28.7182 12.0109 28.7673L9.47455 29.3727L9.60546 29.1273L9.98182 30.06C9.98182 30.06 9.73637 29.9454 9.75273 29.9454L11.5036 29.4218C12.0764 29.2091 12.8618 29.1927 12.8291 28.7673L12.2073 25.2L12.3218 25.3473L11.2909 24.9545V24.9709Z" fill="#010101"/>
</g>
<defs>
<clipPath id="clip0_412_10060">
<rect width="36" height="36" fill="white"/>
</clipPath>
</defs>
</svg>
