<svg xmlns="http://www.w3.org/2000/svg" xmlns:xlink="http://www.w3.org/1999/xlink" width="90" height="28" viewBox="0 0 90 28" fill="none">
<path fill-rule="evenodd" clip-rule="evenodd" d="M0 0.00256266H0.485519L14.9827 20.5687L29.4726 0H29.9559L14.9801 28L0 0.00256266ZM14.977 17.7707L11.2092 12.4139H14.7134L16.5737 9.75432H9.33336L2.45171 0H27.5022L24.9937 3.56038L10.6774 3.5544L12.5502 6.20974L23.117 6.21914L14.977 17.7707ZM47.8814 10.651C48.2044 10.6542 48.4771 10.6595 48.6975 10.6658C48.9188 10.6721 49.0996 10.6816 49.2418 10.6954C49.3841 10.708 49.5135 10.7249 49.6322 10.7439C50.1402 10.8347 50.5242 11.0194 50.7852 11.296C51.0461 11.5726 51.2119 11.9716 51.2846 12.492C51.3242 12.7591 51.3445 13.2859 51.3445 14.0744C51.3445 14.465 51.3327 14.8039 51.3103 15.0899C51.2878 15.376 51.2472 15.622 51.1916 15.8268C51.136 16.0316 51.06 16.2057 50.9638 16.3493C50.8686 16.4929 50.7509 16.6227 50.613 16.7399C50.4151 16.9088 50.168 17.0344 49.8707 17.1157C49.5734 17.197 49.1852 17.2477 48.7028 17.2667C48.6108 17.273 48.4921 17.2783 48.3467 17.2814C48.2012 17.2846 48.0429 17.2878 47.8718 17.2909C47.7007 17.2941 47.5221 17.2962 47.337 17.2962H46.8226C46.0376 17.2962 45.429 17.2878 44.9969 17.2719C44.5649 17.2561 44.2504 17.2276 44.0526 17.1885C43.6836 17.1231 43.3884 17.0207 43.167 16.8813C42.9456 16.7409 42.7734 16.5509 42.6472 16.3102C42.5809 16.1931 42.5285 16.0696 42.4889 15.9387C42.4494 15.8088 42.4183 15.6536 42.3948 15.4752C42.3713 15.2968 42.3552 15.0826 42.3456 14.8355C42.336 14.5885 42.3306 14.2856 42.3306 13.9277C42.3306 13.6543 42.3328 13.4263 42.336 13.2436C42.3392 13.061 42.3456 12.9048 42.3563 12.7749C42.3659 12.6451 42.3798 12.5311 42.3959 12.4329C42.4119 12.3358 42.4376 12.2313 42.4697 12.1205C42.5617 11.7689 42.7103 11.4955 42.9146 11.3002C43.1189 11.1049 43.4098 10.9519 43.7852 10.841C43.9242 10.802 44.0707 10.7692 44.2258 10.7429C44.3809 10.7165 44.5691 10.6975 44.7895 10.6837C45.0098 10.67 45.2729 10.6605 45.5756 10.6542C45.8782 10.6479 46.2483 10.6447 46.6836 10.6447C47.1584 10.6447 47.5574 10.6468 47.8804 10.65L47.8814 10.651ZM45.9221 12.2482C45.6782 12.2545 45.4772 12.2672 45.3189 12.2872C45.1606 12.3062 45.0354 12.3316 44.9424 12.3601C44.8504 12.3896 44.7713 12.4266 44.705 12.472C44.6387 12.5237 44.583 12.586 44.5371 12.6578C44.4911 12.7296 44.4547 12.8203 44.428 12.9312C44.4012 13.042 44.383 13.1782 44.3734 13.3418C44.3638 13.5044 44.3584 13.7028 44.3584 13.9372C44.3584 14.1715 44.3638 14.3816 44.3734 14.5473C44.383 14.7131 44.4012 14.8545 44.428 14.9717C44.4547 15.0889 44.4889 15.1849 44.5317 15.2599C44.5745 15.3348 44.6258 15.3982 44.6846 15.4499C44.751 15.5016 44.8269 15.5439 44.9125 15.5766C44.998 15.6093 45.1167 15.6346 45.2686 15.6547C45.4205 15.6748 45.6183 15.6874 45.8622 15.6938C46.106 15.7001 46.4162 15.7033 46.7927 15.7033C47.2279 15.7033 47.583 15.698 47.8568 15.6885C48.1306 15.679 48.3499 15.661 48.5146 15.6346C48.6793 15.6083 48.8044 15.5713 48.891 15.5228C48.9777 15.4742 49.0493 15.4109 49.1092 15.3327C49.1552 15.2736 49.1937 15.2071 49.2226 15.1322C49.2525 15.0572 49.2771 14.9643 49.2964 14.8535C49.3156 14.7426 49.3295 14.6096 49.336 14.4534C49.3424 14.2972 49.3456 14.1114 49.3456 13.8971C49.3456 13.4864 49.3306 13.1698 49.3007 12.9449C49.2707 12.7201 49.1766 12.5564 49.0183 12.4519C48.86 12.3474 48.613 12.2862 48.2761 12.2661C47.9392 12.2471 47.4611 12.2366 46.8419 12.2366C46.4729 12.2366 46.1659 12.2397 45.9221 12.2461V12.2482ZM35.2087 15.6071C35.2483 15.6852 35.3274 15.7475 35.4461 15.7929C35.5189 15.8256 35.6814 15.8499 35.936 15.8657C36.1894 15.8816 36.475 15.89 36.7916 15.89C37.3723 15.89 37.8333 15.8837 38.1766 15.87C38.5199 15.8573 38.7819 15.8288 38.9627 15.7866C39.1445 15.7443 39.2611 15.6842 39.3135 15.6061C39.3659 15.5279 39.3926 15.4203 39.3926 15.2841C39.3926 15.0043 39.2803 14.8281 39.0557 14.7563C39.0033 14.7373 38.9563 14.7236 38.9167 14.7172C38.8771 14.7109 38.8172 14.7045 38.7381 14.6982C38.6589 14.6919 38.5466 14.6866 38.4012 14.6834C38.2557 14.6803 38.0547 14.6782 37.798 14.6782H35.9809C35.6771 14.6782 35.4151 14.6729 35.1948 14.6634C34.9734 14.6539 34.7788 14.637 34.6108 14.6148C34.4429 14.5916 34.2975 14.5631 34.1755 14.5272C34.0536 14.4913 33.9403 14.447 33.8344 14.3953C33.5969 14.2717 33.4226 14.0775 33.3103 13.8147C33.198 13.5518 33.1424 13.195 33.1424 12.7453C33.1424 12.4518 33.1659 12.1995 33.2119 11.9884C33.2579 11.7773 33.3306 11.5957 33.4301 11.4469C33.5285 11.297 33.6611 11.1745 33.8258 11.0806C33.9905 10.9866 34.1916 10.9096 34.429 10.8515C34.5606 10.8188 34.7114 10.7913 34.8793 10.7681C35.0472 10.7449 35.2418 10.7259 35.4632 10.709C35.6846 10.6921 35.9349 10.6815 36.2151 10.6752C36.4953 10.6689 36.8172 10.6657 37.1798 10.6657C37.7606 10.6657 38.2365 10.671 38.6097 10.6805C38.9819 10.69 39.2889 10.7079 39.5295 10.7343C39.7702 10.7607 39.9638 10.7966 40.1081 10.842C40.2536 10.8874 40.3851 10.9497 40.5039 11.0278C40.6162 11.1059 40.7113 11.1904 40.7905 11.2822C40.8696 11.373 40.9327 11.4838 40.9787 11.6147C41.0247 11.7446 41.0579 11.8997 41.0782 12.0781C41.0974 12.2576 41.1081 12.4677 41.1081 12.7084H39.1488C39.1488 12.5648 39.1327 12.4508 39.0996 12.3663C39.0664 12.2819 38.9969 12.2164 38.8921 12.171C38.7862 12.1256 38.6354 12.0961 38.4365 12.0834C38.2376 12.0708 37.9777 12.0644 37.6547 12.0644C37.4964 12.0644 37.3263 12.0665 37.1456 12.0697C36.9638 12.0729 36.7894 12.076 36.6215 12.0792C36.4536 12.0824 36.2996 12.0855 36.1616 12.0887C36.0226 12.0919 35.9146 12.0971 35.8354 12.1035C35.5648 12.1225 35.3787 12.1721 35.2761 12.2502C35.1734 12.3283 35.1231 12.4613 35.1231 12.6503C35.1231 12.93 35.2654 13.1032 35.5488 13.1676C35.5755 13.1739 35.6033 13.1802 35.6333 13.1866C35.6632 13.1929 35.7039 13.1982 35.7574 13.2013C35.8098 13.2045 35.8825 13.2077 35.9745 13.2108C36.0664 13.214 36.1959 13.2161 36.3606 13.2161H38.2301C38.2761 13.2161 38.3584 13.2182 38.4771 13.2214C38.5958 13.2246 38.7274 13.2298 38.8728 13.2362C39.0183 13.2425 39.1595 13.2478 39.2985 13.2509C39.4375 13.2541 39.5488 13.2594 39.6354 13.2657C39.952 13.2784 40.2204 13.3248 40.4418 13.403C40.6632 13.4811 40.8429 13.5982 40.9809 13.7545C41.1199 13.9107 41.2215 14.106 41.2878 14.3404C41.3541 14.5747 41.3873 14.8544 41.3873 15.1806C41.3873 15.4804 41.3637 15.7401 41.3178 15.9618C41.2718 16.1835 41.1958 16.3703 41.09 16.5234C40.9841 16.6765 40.8472 16.8 40.6793 16.895C40.5113 16.9889 40.3049 17.0628 40.0611 17.1146C39.5531 17.2254 38.5841 17.2803 37.152 17.2803C36.5777 17.2803 36.1082 17.2771 35.7424 17.2708C35.3766 17.2645 35.0707 17.2476 34.8269 17.2222C34.583 17.1958 34.383 17.1599 34.228 17.1146C34.0729 17.0692 33.9231 17.01 33.7777 16.9383C33.3659 16.7398 33.1616 16.251 33.1616 15.4699V15.3379C33.1616 15.283 33.1649 15.2186 33.1713 15.1479H35.1402C35.1467 15.3759 35.1702 15.529 35.2098 15.6071H35.2087ZM68.4105 10.7238C68.2319 10.7175 68.0244 10.7143 67.7869 10.7143H67.7859H62.0971V17.2276H64.0961V15.5871H67.173C67.4436 15.5871 67.6351 15.5956 67.7474 15.6114C67.8597 15.6272 67.9549 15.6621 68.034 15.7138C68.126 15.7792 68.1902 15.8647 68.2265 15.9724C68.2629 16.0801 68.2811 16.2279 68.2811 16.4168V17.2276H70.3196V16.2025C70.3196 15.9228 70.2982 15.7011 70.2554 15.5386C70.2126 15.3749 70.142 15.2388 70.0426 15.1279C69.9442 15.0107 69.8137 14.9273 69.6522 14.8788C69.4907 14.8302 69.2383 14.7954 68.895 14.7764C68.8693 14.7764 68.8265 14.7743 68.7666 14.7711C68.7078 14.7679 68.6415 14.7627 68.5688 14.7563C68.7934 14.7236 68.9827 14.693 69.1377 14.6634C69.2928 14.6339 69.4244 14.6012 69.5335 14.5653C69.6426 14.5294 69.7313 14.4903 69.8008 14.4481C69.8693 14.4059 69.9335 14.3552 69.9934 14.2971C70.2704 14.0037 70.4094 13.5128 70.4094 12.8224C70.4094 12.3147 70.342 11.9082 70.2062 11.6021C70.0704 11.296 69.8575 11.0775 69.5677 10.9476C69.4693 10.9022 69.3656 10.8642 69.2565 10.8357C69.1474 10.8072 69.0233 10.7829 68.8853 10.7629C68.7474 10.7428 68.5891 10.7302 68.4105 10.7238ZM68.172 13.8548C68.0864 13.9097 67.9698 13.9477 67.8212 13.9667C67.6736 13.9868 67.4768 13.9963 67.2329 13.9963H64.0961V12.3168H67.3014C67.4533 12.3168 67.5784 12.3189 67.6779 12.3221C67.7773 12.3252 67.8607 12.3358 67.9303 12.3516C67.9987 12.3674 68.0554 12.3864 68.0982 12.4097C68.141 12.4329 68.1827 12.4635 68.2222 12.5026C68.2886 12.5743 68.3324 12.662 68.3559 12.7665C68.3784 12.871 68.3902 13.0272 68.3902 13.2352C68.3902 13.3977 68.3752 13.5276 68.3452 13.6258C68.3153 13.7229 68.2575 13.7999 68.172 13.8548ZM70.7151 10.7143H73.2777L75.5033 13.4093L77.7108 10.7143H80.2242L76.5044 14.9717V17.2276H74.4862V14.9717L70.7151 10.7143ZM88.1497 15.6652L84.153 10.7143H84.1519H80.9562V17.2276H82.8856L82.8364 12.3252L86.7744 17.2276H90V10.7143H88.1006L88.1497 15.6652ZM61.3638 10.7143L57.7135 17.2276H55.1702L51.6483 10.7143H53.8644L56.4665 15.6357L58.2622 12.3157L59.0996 10.7143H61.3638Z" fill="white"/>
</svg>
